<?xml version="1.0" standalone="no"?>
<!DOCTYPE svg PUBLIC "-//W3C//DTD SVG 20010904//EN"
 "http://www.w3.org/TR/2001/REC-SVG-20010904/DTD/svg10.dtd">
<svg version="1.0" xmlns="http://www.w3.org/2000/svg"
 width="700.000000pt" height="700.000000pt" viewBox="0 0 700.000000 700.000000"
 preserveAspectRatio="xMidYMid meet">
<metadata>
Created by potrace 1.11, written by Peter Selinger 2001-2013
</metadata>
<g transform="translate(0.000000,700.000000) scale(0.100000,-0.100000)"
fill="#000000" stroke="none">
<path d="M0 3495 l0 -3495 3495 0 3495 0 0 3495 0 3495 -3495 0 -3495 0 0
-3495z m3124 1438 c198 -392 364 -713 368 -713 3 0 169 322 369 715 l362 715
346 -2 346 -3 3 -2152 2 -2153 -350 0 -350 0 0 1388 0 1387 -279 -550 c-153
-302 -317 -623 -363 -713 l-85 -163 -53 98 c-29 54 -193 375 -364 713 l-311
615 -3 -1387 -2 -1388 -345 0 -345 0 0 2155 0 2155 346 -2 346 -3 362 -712z"/>
</g>
</svg>
