<svg id="Calque_1" xmlns="http://www.w3.org/2000/svg" xmlns:xlink="http://www.w3.org/1999/xlink" viewBox="0 0 595.3 652"><style>.st60{opacity:.4;fill:#f6af9a}.st69{opacity:5.000000e-02;fill:#1d1e1d}.st73{fill:#ca374d}</style><defs><path id="SVGID_1_" d="M-.1.4h595.5V652H-.1z"/></defs><clipPath id="SVGID_2_"><use xlink:href="#SVGID_1_" overflow="visible"/></clipPath><g id="planches" clip-path="url(#SVGID_2_)"><linearGradient id="SVGID_3_" gradientUnits="userSpaceOnUse" x1="6.927" y1="558.426" x2="6.927" y2="529.426"><stop offset=".002" stop-color="#452c28"/><stop offset="1" stop-color="#493c3a"/></linearGradient><path fill="url(#SVGID_3_)" d="M-1 529.4h20.3l-24.8 29z"/><linearGradient id="SVGID_4_" gradientUnits="userSpaceOnUse" x1="13.403" y1="586.019" x2="13.403" y2="529.426"><stop offset=".002" stop-color="#452c28"/><stop offset="1" stop-color="#493c3a"/></linearGradient><path fill="url(#SVGID_4_)" d="M19.3 529.4h19.2L-11.7 586l6.2-27.6"/><linearGradient id="SVGID_5_" gradientUnits="userSpaceOnUse" x1="22.976" y1="602.913" x2="22.976" y2="529.426"><stop offset=".002" stop-color="#452c28"/><stop offset="1" stop-color="#493c3a"/></linearGradient><path fill="url(#SVGID_5_)" d="M38.5 529.4h19.1l-61 73.5-8.3-16.9"/><linearGradient id="SVGID_6_" gradientUnits="userSpaceOnUse" x1="34.52" y1="626.001" x2="34.52" y2="529.426"><stop offset=".002" stop-color="#452c28"/><stop offset="1" stop-color="#493c3a"/></linearGradient><path fill="url(#SVGID_6_)" d="M57.6 529.4h13L-1.5 626l1.7-27.6z"/><linearGradient id="SVGID_7_" gradientUnits="userSpaceOnUse" x1="42.404" y1="660.914" x2="42.404" y2="529.426"><stop offset=".002" stop-color="#452c28"/><stop offset="1" stop-color="#493c3a"/></linearGradient><path fill="url(#SVGID_7_)" d="M70.6 529.4h19.7L2.4 660.9l-7.9-1.1 4-33.8z"/><linearGradient id="SVGID_8_" gradientUnits="userSpaceOnUse" x1="54.511" y1="660.914" x2="54.511" y2="529.426"><stop offset=".002" stop-color="#452c28"/><stop offset="1" stop-color="#493c3a"/></linearGradient><path fill="url(#SVGID_8_)" d="M90.3 529.4h16.3l-76 129.3-28.2 2.2z"/><linearGradient id="SVGID_9_" gradientUnits="userSpaceOnUse" x1="76.191" y1="659.788" x2="76.191" y2="529.426"><stop offset=".002" stop-color="#452c28"/><stop offset="1" stop-color="#493c3a"/></linearGradient><path fill="url(#SVGID_9_)" d="M106.6 529.4h15.2L55.9 659.8l-25.3-1.1z"/><linearGradient id="SVGID_10_" gradientUnits="userSpaceOnUse" x1="97.026" y1="662.04" x2="97.026" y2="529.426"><stop offset=".002" stop-color="#452c28"/><stop offset="1" stop-color="#493c3a"/></linearGradient><path fill="url(#SVGID_10_)" d="M121.8 529.4h16.3L82.4 662l-26.5-2.2z"/><linearGradient id="SVGID_11_" gradientUnits="userSpaceOnUse" x1="119.27" y1="662.603" x2="119.27" y2="529.426"><stop offset=".002" stop-color="#452c28"/><stop offset="1" stop-color="#493c3a"/></linearGradient><path fill="url(#SVGID_11_)" d="M138.1 529.4h18.1l-47.9 133.2-25.9-.6z"/><linearGradient id="SVGID_12_" gradientUnits="userSpaceOnUse" x1="139.917" y1="662.603" x2="139.917" y2="529.426"><stop offset=".002" stop-color="#452c28"/><stop offset="1" stop-color="#493c3a"/></linearGradient><path fill="url(#SVGID_12_)" d="M156.2 529.4h15.3l-33.9 132.1-29.3 1.1z"/><linearGradient id="SVGID_13_" gradientUnits="userSpaceOnUse" x1="164.038" y1="661.477" x2="164.038" y2="529.426"><stop offset=".002" stop-color="#452c28"/><stop offset="1" stop-color="#493c3a"/></linearGradient><path fill="url(#SVGID_13_)" d="M171.5 529.4h19l-25.3 131-27.6 1.1z"/><linearGradient id="SVGID_14_" gradientUnits="userSpaceOnUse" x1="186.281" y1="660.914" x2="186.281" y2="529.426"><stop offset=".002" stop-color="#452c28"/><stop offset="1" stop-color="#493c3a"/></linearGradient><path fill="url(#SVGID_14_)" d="M190.5 529.4h16.9l-14.6 131.5-27.6-.5z"/><linearGradient id="SVGID_15_" gradientUnits="userSpaceOnUse" x1="207.961" y1="660.914" x2="207.961" y2="529.426"><stop offset=".002" stop-color="#452c28"/><stop offset="1" stop-color="#493c3a"/></linearGradient><path fill="url(#SVGID_15_)" d="M207.4 529.4h15.8l-4 130.4-26.4 1.1z"/><linearGradient id="SVGID_16_" gradientUnits="userSpaceOnUse" x1="231.331" y1="662.603" x2="231.331" y2="529.426"><stop offset=".002" stop-color="#452c28"/><stop offset="1" stop-color="#493c3a"/></linearGradient><path fill="url(#SVGID_16_)" d="M223.2 529.4h17.4l2.8 133.2-24.2-2.8z"/><linearGradient id="SVGID_17_" gradientUnits="userSpaceOnUse" x1="256.671" y1="665.982" x2="256.671" y2="529.426"><stop offset=".002" stop-color="#452c28"/><stop offset="1" stop-color="#493c3a"/></linearGradient><path fill="url(#SVGID_17_)" d="M240.6 529.4h14.7L272.7 666l-29.3-3.4z"/><linearGradient id="SVGID_18_" gradientUnits="userSpaceOnUse" x1="277.506" y1="665.982" x2="277.506" y2="529.426"><stop offset=".002" stop-color="#452c28"/><stop offset="1" stop-color="#493c3a"/></linearGradient><path fill="url(#SVGID_18_)" d="M255.3 529.4h17.4l27 136-27 .6z"/><linearGradient id="SVGID_19_" gradientUnits="userSpaceOnUse" x1="300.031" y1="665.419" x2="300.031" y2="529.426"><stop offset=".002" stop-color="#452c28"/><stop offset="1" stop-color="#493c3a"/></linearGradient><path fill="url(#SVGID_19_)" d="M272.7 529.4h16.4l38.2 136h-27.6z"/><linearGradient id="SVGID_20_" gradientUnits="userSpaceOnUse" x1="289.05" y1="529.426" x2="289.05" y2="529.426"><stop offset=".002" stop-color="#452c28"/><stop offset="1" stop-color="#493c3a"/></linearGradient><linearGradient id="SVGID_21_" gradientUnits="userSpaceOnUse" x1="321.993" y1="665.419" x2="321.993" y2="529.426"><stop offset=".002" stop-color="#452c28"/><stop offset="1" stop-color="#493c3a"/></linearGradient><path fill="url(#SVGID_21_)" d="M289.1 529.4h16.8l49 132.6-27.6 3.4z"/><linearGradient id="SVGID_22_" gradientUnits="userSpaceOnUse" x1="347.051" y1="667.671" x2="347.051" y2="529.426"><stop offset=".002" stop-color="#452c28"/><stop offset="1" stop-color="#493c3a"/></linearGradient><path fill="url(#SVGID_22_)" d="M305.9 529.4h18.6l63.7 138.3-33.3-5.7z"/><linearGradient id="SVGID_23_" gradientUnits="userSpaceOnUse" x1="368.732" y1="667.671" x2="368.732" y2="529.426"><stop offset=".002" stop-color="#452c28"/><stop offset="1" stop-color="#493c3a"/></linearGradient><path fill="url(#SVGID_23_)" d="M324.5 529.4h15.2l73.2 133.2-24.7 5.1z"/><linearGradient id="SVGID_24_" gradientUnits="userSpaceOnUse" x1="389.567" y1="662.603" x2="389.567" y2="529.426"><stop offset=".002" stop-color="#452c28"/><stop offset="1" stop-color="#493c3a"/></linearGradient><path fill="url(#SVGID_24_)" d="M339.7 529.4h18.1l81.6 128.1-26.5 5.1z"/><linearGradient id="SVGID_25_" gradientUnits="userSpaceOnUse" x1="412.373" y1="658.662" x2="412.373" y2="529.426"><stop offset=".002" stop-color="#452c28"/><stop offset="1" stop-color="#493c3a"/></linearGradient><path fill="url(#SVGID_25_)" d="M357.8 529.4h17.4L467 658.7l-27.6-1.2z"/><linearGradient id="SVGID_26_" gradientUnits="userSpaceOnUse" x1="434.335" y1="658.662" x2="434.335" y2="529.426"><stop offset=".002" stop-color="#452c28"/><stop offset="1" stop-color="#493c3a"/></linearGradient><path fill="url(#SVGID_26_)" d="M375.2 529.4h15.2l103.1 126.4-26.5 2.9z"/><linearGradient id="SVGID_27_" gradientUnits="userSpaceOnUse" x1="452.636" y1="655.846" x2="452.636" y2="529.426"><stop offset=".002" stop-color="#452c28"/><stop offset="1" stop-color="#493c3a"/></linearGradient><path fill="url(#SVGID_27_)" d="M390.4 529.4h15.8l108.7 124.2-21.4 2.2z"/><linearGradient id="SVGID_28_" gradientUnits="userSpaceOnUse" x1="475.161" y1="654.72" x2="475.161" y2="529.426"><stop offset=".002" stop-color="#452c28"/><stop offset="1" stop-color="#493c3a"/></linearGradient><path fill="url(#SVGID_28_)" d="M406.2 529.4h18l119.9 125.3-29.2-1.1z"/><linearGradient id="SVGID_29_" gradientUnits="userSpaceOnUse" x1="498.249" y1="658.098" x2="498.249" y2="529.426"><stop offset=".002" stop-color="#452c28"/><stop offset="1" stop-color="#493c3a"/></linearGradient><path fill="url(#SVGID_29_)" d="M424.2 529.4h15.2l132.9 128.7-28.2-3.4z"/><linearGradient id="SVGID_30_" gradientUnits="userSpaceOnUse" x1="517.395" y1="658.098" x2="517.395" y2="529.426"><stop offset=".002" stop-color="#452c28"/><stop offset="1" stop-color="#493c3a"/></linearGradient><path fill="url(#SVGID_30_)" d="M439.4 529.4l18.6.3 137.4 123.9-23.1 4.5z"/><linearGradient id="SVGID_31_" gradientUnits="userSpaceOnUse" x1="539.357" y1="653.593" x2="539.357" y2="529.707"><stop offset=".002" stop-color="#452c28"/><stop offset="1" stop-color="#493c3a"/></linearGradient><path fill="url(#SVGID_31_)" d="M458 529.7h20.8l141.9 122.2-25.3 1.7z"/><linearGradient id="SVGID_32_" gradientUnits="userSpaceOnUse" x1="564.322" y1="651.904" x2="564.322" y2="529.707"><stop offset=".002" stop-color="#452c28"/><stop offset="1" stop-color="#493c3a"/></linearGradient><path fill="url(#SVGID_32_)" d="M478.8 529.7h28.7l142.3 104.4-29.1 17.8z"/><linearGradient id="SVGID_33_" gradientUnits="userSpaceOnUse" x1="583.562" y1="634.072" x2="583.562" y2="529.707"><stop offset=".002" stop-color="#452c28"/><stop offset="1" stop-color="#493c3a"/></linearGradient><path fill="url(#SVGID_33_)" d="M507.5 529.7h35.3l116.8 79.6-9.8 24.8z"/><linearGradient id="SVGID_34_" gradientUnits="userSpaceOnUse" x1="612.468" y1="609.295" x2="612.468" y2="529.707"><stop offset=".002" stop-color="#452c28"/><stop offset="1" stop-color="#493c3a"/></linearGradient><path fill="url(#SVGID_34_)" d="M542.8 529.7h47.3l92 69.3-22.5 10.3z"/><linearGradient id="SVGID_35_" gradientUnits="userSpaceOnUse" x1="636.119" y1="598.971" x2="636.119" y2="529.707"><stop offset=".002" stop-color="#452c28"/><stop offset="1" stop-color="#493c3a"/></linearGradient><path fill="url(#SVGID_35_)" d="M590.1 529.7h10.2l36 27.4 45.8 41.9z"/></g><path clip-path="url(#SVGID_2_)" fill="#8798b7" d="M-1 529.5l.9-196.9h595.5v198.5z"/><linearGradient id="SVGID_36_" gradientUnits="userSpaceOnUse" x1="297.216" y1="531.115" x2="297.216" y2="332.615"><stop offset=".002" stop-color="#8798b7" stop-opacity=".5"/><stop offset="1" stop-color="#f8baa3" stop-opacity=".7"/></linearGradient><path clip-path="url(#SVGID_2_)" fill="url(#SVGID_36_)" d="M-1 529.5l.9-196.9h595.5v198.5z"/><linearGradient id="SVGID_37_" gradientUnits="userSpaceOnUse" x1="297.638" y1="-53.684" x2="297.638" y2="332.615"><stop offset="0" stop-color="#0070a7"/><stop offset=".309" stop-color="#8798b7"/><stop offset="1" stop-color="#f8baa3"/></linearGradient><path clip-path="url(#SVGID_2_)" fill="url(#SVGID_37_)" d="M-.1 332.6V-53.7l594.6 2 .9 384.3z"/><linearGradient id="SVGID_38_" gradientUnits="userSpaceOnUse" x1="242.64" y1="528.956" x2="242.64" y2="409.481"><stop offset=".002" stop-color="#f2f2f2" stop-opacity=".3"/><stop offset=".129" stop-color="#f2f2f2" stop-opacity=".3"/><stop offset="1" stop-color="#f2f2f2" stop-opacity=".3"/></linearGradient><path clip-path="url(#SVGID_2_)" fill="url(#SVGID_38_)" d="M-.1 409.5h485.5V529H-.1z"/><linearGradient id="SVGID_39_" gradientUnits="userSpaceOnUse" x1="600.866" y1="528.956" x2="600.866" y2="409.481"><stop offset=".002" stop-color="#f2f2f2" stop-opacity=".3"/><stop offset=".129" stop-color="#f2f2f2" stop-opacity=".3"/><stop offset="1" stop-color="#f2f2f2" stop-opacity=".3"/></linearGradient><path clip-path="url(#SVGID_2_)" fill="url(#SVGID_39_)" d="M559.9 409.5h82V529h-82z"/><linearGradient id="SVGID_40_" gradientUnits="userSpaceOnUse" x1="-.018" y1="412.715" x2="506.095" y2="412.715"><stop offset="0" stop-color="#1d1e1d"/><stop offset="1" stop-color="#3d3d3d"/></linearGradient><path d="M0 408.1l502.5-.6c1.4 1.1 8.8 11.5-2.8 10.3-11.6-1.1-13.9-4.1-16.1-4.5-2.3-.4-483.3 0-483.3 0l-.3-5.2z" clip-path="url(#SVGID_2_)" fill="url(#SVGID_40_)"/><linearGradient id="SVGID_41_" gradientUnits="userSpaceOnUse" x1="-.393" y1="441.579" x2="167.416" y2="441.579"><stop offset="0" stop-color="#1d1e1d"/><stop offset="1" stop-color="#3d3d3d"/></linearGradient><path clip-path="url(#SVGID_2_)" fill="url(#SVGID_41_)" d="M.2 470.6l167.2-53-.5-5-167.3 54z"/><linearGradient id="SVGID_42_" gradientUnits="userSpaceOnUse" x1="-.956" y1="499.862" x2="169.106" y2="499.862"><stop offset="0" stop-color="#1d1e1d"/><stop offset="1" stop-color="#3d3d3d"/></linearGradient><path clip-path="url(#SVGID_2_)" fill="url(#SVGID_42_)" d="M.2 470.6l168.9 53.5-.6 5L-1 476.2z"/><linearGradient id="SVGID_43_" gradientUnits="userSpaceOnUse" x1="164.038" y1="471.917" x2="172.484" y2="471.917"><stop offset="0" stop-color="#1d1e1d"/><stop offset="1" stop-color="#3d3d3d"/></linearGradient><path clip-path="url(#SVGID_2_)" fill="url(#SVGID_43_)" d="M165.5 530.8L164 412.6l8.5.3v118.4z"/><linearGradient id="SVGID_44_" gradientUnits="userSpaceOnUse" x1="483.139" y1="471.961" x2="498.155" y2="471.961"><stop offset="0" stop-color="#1d1e1d"/><stop offset="1" stop-color="#3d3d3d"/></linearGradient><path d="M483.5 413.3l-.4 117.5h7.1s3-11.6 7.5-15c0 0 .4-90.8.4-92.4s-7.5-6-8.3-8.6c-.7-2.6-6.3-1.5-6.3-1.5z" clip-path="url(#SVGID_2_)" fill="url(#SVGID_44_)"/><linearGradient id="SVGID_45_" gradientUnits="userSpaceOnUse" x1="172.484" y1="470.908" x2="485.391" y2="470.908"><stop offset="0" stop-color="#1d1e1d"/><stop offset="1" stop-color="#3d3d3d"/></linearGradient><path clip-path="url(#SVGID_2_)" fill="url(#SVGID_45_)" d="M172.7 418.2L485.4 529l-1.5-5.7-311.4-110.4z"/><linearGradient id="SVGID_46_" gradientUnits="userSpaceOnUse" x1="171.546" y1="470.861" x2="485.767" y2="470.861"><stop offset="0" stop-color="#1d1e1d"/><stop offset="1" stop-color="#3d3d3d"/></linearGradient><path clip-path="url(#SVGID_2_)" fill="url(#SVGID_46_)" d="M171.9 524.5l313.9-111.9-.4 6.7-313.9 109.8z"/><linearGradient id="SVGID_47_" gradientUnits="userSpaceOnUse" x1="545.011" y1="413.61" x2="1051.124" y2="413.61"><stop offset="0" stop-color="#1d1e1d"/><stop offset="1" stop-color="#3d3d3d"/></linearGradient><path d="M1051.1 409l-502.5-.6c-1.4 1.1-8.8 11.5 2.8 10.3 11.6-1.1 13.9-4.1 16.1-4.5 2.3-.4 483.3 0 483.3 0l.3-5.2z" clip-path="url(#SVGID_2_)" fill="url(#SVGID_47_)"/><linearGradient id="SVGID_48_" gradientUnits="userSpaceOnUse" x1="549.951" y1="472.425" x2="565.166" y2="472.425"><stop offset="0" stop-color="#1d1e1d"/><stop offset="1" stop-color="#3d3d3d"/></linearGradient><path d="M564.6 413.2l.6 118.6H558s-3.2-12.8-7.7-16.2c0 0-.4-90.8-.4-92.4 0-1.5 7.5-6 8.3-8.6.8-2.5 6.4-1.4 6.4-1.4z" clip-path="url(#SVGID_2_)" fill="url(#SVGID_48_)"/><linearGradient id="SVGID_49_" gradientUnits="userSpaceOnUse" x1="562.715" y1="470.803" x2="875.621" y2="470.803"><stop offset="0" stop-color="#1d1e1d"/><stop offset="1" stop-color="#3d3d3d"/></linearGradient><path clip-path="url(#SVGID_2_)" fill="url(#SVGID_49_)" d="M875.4 418.1L562.7 528.9l1.5-5.7 311.4-110.4z"/><linearGradient id="SVGID_50_" gradientUnits="userSpaceOnUse" x1="562.34" y1="470.756" x2="876.56" y2="470.756"><stop offset="0" stop-color="#1d1e1d"/><stop offset="1" stop-color="#3d3d3d"/></linearGradient><path clip-path="url(#SVGID_2_)" fill="url(#SVGID_50_)" d="M876.2 524.3L562.3 412.5l.4 6.7L876.6 529z"/><linearGradient id="SVGID_51_" gradientUnits="userSpaceOnUse" x1="492.992" y1="482.961" x2="559.115" y2="482.961"><stop offset="0" stop-color="#1d1e1d"/><stop offset="1" stop-color="#3d3d3d"/></linearGradient><path d="M493.2 533.1s-4.9 14.7 34.9 12.1c39.8-2.6 29.9-13.3 29.9-13.3s-1.7-11-7.7-16.2c-6-5.2-15.6-84.8-10.9-84.4 4.4.4 11.7-6.1-3.5-9.5s-40.2-.9-29.6 7.6c4.2 3.4-4.2 85.3-5.1 88.7-.7 3.4-7 11-8 15z" clip-path="url(#SVGID_2_)" fill="url(#SVGID_51_)"/><linearGradient id="SVGID_52_" gradientUnits="userSpaceOnUse" x1="510.085" y1="405.093" x2="541.09" y2="405.093"><stop offset="0" stop-color="#1d1e1d"/><stop offset="1" stop-color="#3d3d3d"/></linearGradient><path d="M536 421.9s-1.7-25.3-.6-26.2c1.1-.8 6.2-2.8 5.6-5.6-.6-2.8-29.8-2.8-30.7-1.4-.8 1.4.3 4.8 3.4 6.5s-.8 26.2-.8 27c0 .8 23.1-.3 23.1-.3z" clip-path="url(#SVGID_2_)" fill="url(#SVGID_52_)"/><linearGradient id="SVGID_53_" gradientUnits="userSpaceOnUse" x1="513.547" y1="288.692" x2="538.324" y2="288.692"><stop offset="0" stop-color="#1d1e1d"/><stop offset="1" stop-color="#3d3d3d"/></linearGradient><path d="M513.5 387.8s5.6-11.3 6-21.4c.4-10.1.8-178.3.8-178.3l10.5-.8s.8 175.3 1.9 179.8l5.6 22.9-24.8-2.2z" clip-path="url(#SVGID_2_)" fill="url(#SVGID_53_)"/><linearGradient id="SVGID_54_" gradientUnits="userSpaceOnUse" x1="491.398" y1="95.355" x2="558.972" y2="95.355"><stop offset="0" stop-color="#1d1e1d"/><stop offset="1" stop-color="#3d3d3d"/></linearGradient><path clip-path="url(#SVGID_2_)" fill="url(#SVGID_54_)" d="M499.3 128l-7.9-15.4.4-10.1 6.4 3 21.7-24-7.1-10.9 3-4.9 2.6 4.5 3.8-6.8 2.6 6.4 6.8-7.1 1.8 7.9 5.3-4.9-6 13.5 24 17.3 2.3 9.7-7.5 11.7z"/><linearGradient id="SVGID_55_" gradientUnits="userSpaceOnUse" x1="525.373" y1="188.082" x2="525.373" y2="112.248"><stop offset="0" stop-color="#fff0b1" stop-opacity=".3"/><stop offset="1" stop-color="#d9a960"/></linearGradient><path clip-path="url(#SVGID_2_)" fill="url(#SVGID_55_)" d="M520.3 188.1l-13.5-18.4-7.5-41.7 21.8-15.8 30.4 5.7-3.8 50.3-16.9 19.1z"/><linearGradient id="SVGID_56_" gradientUnits="userSpaceOnUse" x1="515.424" y1="150.259" x2="526.499" y2="150.259"><stop offset="0" stop-color="#1d1e1d"/><stop offset="1" stop-color="#3d3d3d"/></linearGradient><path clip-path="url(#SVGID_2_)" fill="url(#SVGID_56_)" d="M515.4 115.6l1.5 48.5 7 23.6 2.6-.2-6.8-24.9-.5-49.8z"/><linearGradient id="SVGID_57_" gradientUnits="userSpaceOnUse" x1="506.79" y1="166.495" x2="548.273" y2="166.495"><stop offset="0" stop-color="#1d1e1d"/><stop offset="1" stop-color="#3d3d3d"/></linearGradient><path clip-path="url(#SVGID_2_)" fill="url(#SVGID_57_)" d="M506.8 169.7l3.6-5.5 7.7-2.4 30.2-.9-.2 4.5-29.5.5-7.5 2.5-2.6 3.7z"/><linearGradient id="cheveux_1_" gradientUnits="userSpaceOnUse" x1="204.881" y1="259.811" x2="324.891" y2="280.972"><stop offset="0" stop-color="#e9cea5"/><stop offset=".603" stop-color="#fff0b1"/></linearGradient><path id="cheveux" d="M326.2 248.2c-2.1 1.1-4.7 2-5.2 4.3-.5 2.2 1.4 4.1 2.7 6 3.9 5.6 2.9 13.5-.7 19.3-3.6 5.8-9.2 10-14.8 14 2.7 8.1 3.1 17 1.3 25.3-.5 2.1-1.1 4.3-2.6 5.9-1.8 1.9-4.4 2.6-6.9 3.4-6.3 2-12.3 4.9-17.8 8.6 0 0-4.2 2.2-1.7 7.3 2.6 5.2.7 11.9-3.1 16.3s-10 6.5-15.7 5.3c-5.8-1.2-11.9-5.4-17.1-2.4-3 1.8-5.4 5.9-8.8 4.4-1-.5-1.9-1.3-2.3-2.4 0 0-.5-2.9-1.4-6.2-1.3-4.6-3.4-10.2-6-10.5-1.3-.2-3 .8-3.2.9-7.5 3.6-13.4-3.5-11.6-11.6l1.3-5.9c.7-3.1.9-7.2-1.9-8.7-2.4-1.3-5.3.2-7.9 0-3.6-.3-6.4-3.8-6.8-7.4-.4-3.6 1.2-7.2 3.3-10.2 4-5.8 10.1-10.1 16.8-12 3.4-1 7.8-2.2 8.1-5.7.4-4.3-5.6-5.9-8.4-9.3-4.1-4.9-.2-12.6 5-16.3 5.7-4 12.9-6.1 16.6-12.3.6-1 .9-2.2.8-3.4-.5-3.8-5.1-4.3-7.4-7-2-2.5-1.5-6.3.1-9.1s4.1-4.9 6.1-7.5c4.4-5.9 5.6-14 3.2-20.9-1.1-3-2.8-5.9-2.4-9 .5-4.2 4.7-7 8.8-8.1 4.1-1.1 8.5-1 12.5-2.4 5-1.7 9-5.5 13.9-7.2 2.8-1 5.8-1.2 8.7-1.1 3 .1 6 .6 9 1.1 5.7 1 11.7 2.1 16.2 5.8 3.3 3 5.6 7.9 4.3 12.2.5-1.1.9-2.2 1.4-3.3 3.9-.7 7.3 3.2 7.8 7.1.5 3.9-1 7.8-2.2 11.5-1.2 3.8-1.9 8 0 11.5 2.3 4.3 7.8 5.8 11.2 9.3 5.2 6 3.7 16.7-3.2 20.4z" fill="url(#cheveux_1_)"/><linearGradient id="SVGID_58_" gradientUnits="userSpaceOnUse" x1="321.053" y1="287.365" x2="373.898" y2="296.683"><stop offset="0" stop-color="#f6af9a"/><stop offset="1" stop-color="#fbd9cd"/></linearGradient><path d="M371.3 263c-3.4.9-5.1 3-20.5 0-3.9-.8-12.2 53-16.2 56.9-4 4-7.7 9.5-10.1 9.5-2.4 0-7.7-7.3-8.3-13.2v-.4c-.1-5.8 8.3-13.4 8.3-13.4s13.7-30.6 22.2-39.9c1.3-1.4 2.5-2.4 3.5-2.6 1-.2 2-.4 3.2-.5 5.6-.5 12.5 0 19-1 1.9-.3 3.7-.7 5.4-1.3 8.8-3-3.1 4.9-6.5 5.9z" fill="url(#SVGID_58_)"/><path d="M346.7 262.5c-.9 3.9-2.4 7.6-4.2 11.1-2.9 5.8-6.4 11.2-8.9 17.2-2.1 5-3.3 10.4-5.4 15.4-1.5 3.6-3.5 7.1-6.7 9.2-1 .7-2.2 1.2-3.5 1.1-.7-.1-1.3-.3-1.9-.7-.1-5.8 8.3-13.4 8.3-13.4s13.8-30.7 22.3-39.9z" opacity=".7" fill="#f6af9a"/><path class="st60" d="M372.3 258.4c0 .1-.1.2-.1.3-1.6 2.7-4.7 4.1-7.8 4.3-3.1.2-6.1-.9-8.9-2.2-.4-.2-1.5-.7-2.2-1.3 5.6-.6 12.6-.1 19-1.1z"/><g id="golden_apple_1_"><linearGradient id="SVGID_59_" gradientUnits="userSpaceOnUse" x1="759.737" y1="449.69" x2="777.064" y2="439.686" gradientTransform="matrix(1 -.00516 .00516 1 -406.432 -190.036)"><stop offset="0" stop-color="#c49015"/><stop offset=".539" stop-color="#f8b51e"/><stop offset="1" stop-color="#c49015"/></linearGradient><path d="M372.6 245.2c-1.6-3-3.5-3.4-6.6-3-1.1.1-1.9.2-2.5.2-.6 0-1.4 0-2.5-.2-3.2-.3-5 .1-6.6 3.1-1.6 3-1.3 6.8 1.9 11.5 1.1 1.7 2.2 3.3 2.9 4 .9.8 1.9.6 3.1.3.5-.1 1-.2 1.3-.2.3 0 .8.1 1.3.2 1.2.2 2.2.4 3.1-.4.7-.7 1.7-2.3 2.8-4 3.2-4.7 3.5-8.5 1.8-11.5z" fill="url(#SVGID_59_)"/><linearGradient id="SVGID_60_" gradientUnits="userSpaceOnUse" x1="837.161" y1="293.798" x2="837.161" y2="286.772" gradientTransform="rotate(12.761 819.722 -1848.426)"><stop offset="0" stop-color="#fff"/><stop offset="0" stop-color="#c49015"/><stop offset=".539" stop-color="#f8b51e"/><stop offset="1" stop-color="#c49015"/></linearGradient><path d="M362.6 244.5c-.3-.1-.6-.2-.7-.4-.4-.6-.6-1.9.9-3.1 2.2-1.7 2.6-3 2.6-3s1.5 3.6.9 4.9c-.6 1.2-1.5 2.3-3.7 1.6z" fill="url(#SVGID_60_)"/></g><linearGradient id="intérieur_robe_1_" gradientUnits="userSpaceOnUse" x1="185.464" y1="491.101" x2="355.952" y2="521.163"><stop offset="0" stop-color="#3d3d3d"/><stop offset="1" stop-color="#e4e1e0"/></linearGradient><path id="intérieur_robe" d="M161.1 629.1s119.6 2.6 159.7 4-4-36.7-5.4-69.3 5.5-115.7-.9-139.1c-6.4-23.4-21.4-61.5-32.1-58.4-10.8 3.1-30.8-5-30.8 32.2s-3.6 135.9-20.6 157-69.9 73.6-69.9 73.6z" fill="url(#intérieur_robe_1_)"/><path id="ombre_intérieur_robe" d="M261.3 443.4c-.4 22.5-5.7 48.2-7.2 70.6-.5 7.1-2.8 14.8-4 22.8-1.3 8.6-2.4 14.8-6 22.8-3.7 8.2-5.5 16.1-10.9 23.3-13.1 17.8-21.4 29.3-41.2 39-6.6 3.3-15.5 7.5-20.5 7.4-1.9 0-16.6-.3-16.6-.3h1s34.9.9 69.1-41.8c29.9-37.3 32.6-152.7 33.1-163 .2-4.2.5-14.9 1.3-25.6 1.5.1 3.1.4 4.5 1 8.5 3.7 1.5 12.2-.1 18.2-2 8.4-2.3 17.1-2.5 25.6z" opacity=".1" fill="#1d1e1d"/><linearGradient id="SVGID_61_" gradientUnits="userSpaceOnUse" x1="231.481" y1="622.101" x2="248.642" y2="625.127"><stop offset="0" stop-color="#1d1e1d"/><stop offset="1" stop-color="#3d3d3d"/></linearGradient><path d="M249.9 618.3s-6.5 25.3-9 25.7c-2.5.5-8-17.5-4.6-25.7l-6.4 12.9s6.7-19.2 9.1-22.2c2.8-3.7 5.1-4.9 5.1-4.9s-4 18.5 5.8 14.2z" fill="url(#SVGID_61_)"/><linearGradient id="jambe_1_" gradientUnits="userSpaceOnUse" x1="241.026" y1="496.296" x2="303.358" y2="507.287"><stop offset="0" stop-color="#f6af9a"/><stop offset="1" stop-color="#fbd9cd"/></linearGradient><path id="jambe" d="M304.3 481.8c-23.1 19-46.2 110.2-47.4 113.3-1.2 3.1-8 35.2-15 33.7-5.3-1.1-2.1-12.6.3-19.6.8-2.3 1.5-4.2 1.9-4.9 1.2-3.1 13.5-8 11.6-59.1-.1-2-.1-4-.1-6 .6-46.5 28.3-62.7 29.2-64.7.9-2.1-11-21.1-20.6-48.4-6.8-19.4-3.9-40-1.7-50.3.9-4.2 1.7-6.6 1.7-6.6h.1c.7-.2 4.1-.8 7.4.3 3.7 1.2 55.7 93.3 32.6 112.3z" fill="url(#jambe_1_)"/><path id="ombre_jambe" d="M289.3 476.5c-1.5 6.8-7.2 11.8-11.6 17.2-11.9 14.8-14.7 34.7-16.1 53.6-1.4 18.9-3.9 38.2-12.3 55.2-1.5 3-7.9 8.6-7.9 8.6l.6-1.8c.8-2.3 1.5-4.2 1.9-4.9 1.2-3.1 13.5-8 11.6-59.1-.1-2-.1-4-.1-6 .6-46.5 28.3-62.7 29.2-64.7.9-2.1-11-21.1-20.6-48.4-6.8-19.4-3.9-40-1.7-50.3v.2c0 13.4-.5 24.9 3.6 38.1 4.6 14.8 11.9 28.6 18.8 42.5 3.1 6.2 6.1 13 4.6 19.8z" opacity=".3" fill="#f6af9a"/><linearGradient id="SVGID_62_" gradientUnits="userSpaceOnUse" x1="178.788" y1="437.171" x2="421.517" y2="479.97"><stop offset="0" stop-color="#e4e1e0"/><stop offset="1" stop-color="#f2f2f2"/></linearGradient><path d="M316.2 632.1c-7.6-3.7-41.5-25.4-29.7-93.7 10.1-58.2 19.3-61.4 19.7-66 .5-4.6-9.4-70.5-40.1-101.2-6.1-6.2-7.4 42.7-7.9 53-.5 10.3-3.2 125.7-33.1 163-34.2 42.7-61.7 42.2-69.1 41.8 0 0-14.2 0-9.6-5.1s15.1 7.5 62.9-51c28.9-35.4 37.2-125.8 37.2-134.1s-9.9-80.2 29.8-101.5c0 0 22.1-11.3 16.6-33-.4-1.4-.8-2.8-1.4-4.2-6.2-15.4 2-27.6 6.2-29.6 1.5-.7 3.2-1.5 5-1.9 3.4-.8 7.3-.5 11 4 0 0 4.6-9.8 10.7-5.8 5.8 3.8 11.8 14.7 2.6 24.5-1 1.1-1.7 2.4-1.9 3.8-1.6 9.6-7 43.7-9.8 47.1 0 0 22 19.1 12.8 110.9-9.2 91.8 37.3 167.8 62.4 175.1 25.2 7.6-66.7 7.6-74.3 3.9z" fill="url(#SVGID_62_)"/><path class="st69" d="M302.8 268.7c0 .1 0 .2-.1.3-.4 1.3-3.4 3.1-4.3 4.3-1.2 1.7-2.2 3.7-2.8 5.8-1.4 4.7-1.4 9.8-1.5 14.7-.1 3.6-.3 7.3-1.1 10.8-.4-1.4-.8-2.8-1.4-4.2-6.2-15.4 2-27.6 6.2-29.6 1.4-.8 3.1-1.6 5-2.1z"/><path id="ombre_robe" class="st69" d="M291.3 331.8c-6.8 13.3-23.8 18.2-32.2 30.5-6.2 9.1-6.8 20.8-7.1 31.8-1.1 30.9-2.4 61.8-5.8 92.4-2.4 21.4-5.9 42.9-14.1 62.7-8.2 19.9-23.9 39.6-39.2 54.7-15.4 15.2-36.1 20.4-46.1 23.4-1.3-.7-1.8-1.8-.3-3.5 4.6-5.1 15.1 7.5 62.9-51 28.9-35.4 37.2-125.8 37.2-134.1 0-8.3-9.9-80.2 29.8-101.5 0 0 19.9-10.2 17.2-29.7 1.7 8.3 1.5 16.9-2.3 24.3z"/><path id="ombre_main" class="st69" d="M268.4 358.1c2.5-.2 4-1.4 6.4-1.1 1.2.2 5.1.6 6.3.4 1.4-.2.2-1.5.4-2.8.1-.5.1-1.1-.2-1.6-.7-1.1-1.6-.5-2.9-.5-2.9.2-5.8.3-8.7.5-1.5.1-3 .2-4.5.6-1.8.5-4.4 1.6-2.7 3.3 1.3 1.3 4.2 1.3 5.9 1.2z"/><linearGradient id="torse__x2B__bras_1_" gradientUnits="userSpaceOnUse" x1="225.54" y1="293.918" x2="316.87" y2="310.022"><stop offset="0" stop-color="#f6af9a"/><stop offset="1" stop-color="#fbd9cd"/></linearGradient><path id="torse__x2B__bras" d="M324.5 266.9c.1.2-2.5-.9-4-.8-4 .9-6.7 6.7-6.7 6.7-5.6-6.9-11-4-16-2.1-3.7 1.5-12.4 14.2-6.2 29.6 2.2 5.5 2.7 10.4 2 14.7-1.7-3.3-4.5-7.6-8.9-12.5-10.4-11.6-13.2-21.1-13.5-21.1-.3 0-30.9 17.4-29.1 17.4 1.8 0 11.3 52.7 13.8 53 0 0 3.3-1.7 7.1-3.3 3.7-1.6 8-3.1 10-2.9 4.1.5 10.3 3.2 11.7 9.6 1.4 6.4-4.6-3-17.4 1.4l-9.4 3.2c-.7.3-1.5.3-2.3.2-1.3-.2-2.6-.9-3.4-2-.1-.1-.1-.2-.2-.2-11.7-16.2-20.3-36.7-24.3-49.8-1.9-6.3-2.8-10.9-2.4-12.5 1.2-5.2 36.1-24.2 42.2-29.4 3.9-3.3 6.9-11.2 8.6-16.6.1-.4.2-.7.3-1.1.6-.7 1.1-1.4 1.6-2.1.5-.8 1-1.5 1.4-2.4 3.8-.1 12.2-.2 9.8 1.9-3.1 2.8-.3 11.9 1.2 13.5 1.5 1.5 8.6.1 14.7.3 9.7.3 18.4 5.5 19.4 7.3z" fill="url(#torse__x2B__bras_1_)"/><path id="ombre_bras_gauche" class="st60" d="M278 246.2c-.5 4.8-1.6 10.2-3.1 14.6-3 8.4-10.9 14.1-18.8 18.2-7.9 4.2-16.5 7.4-23.1 13.4-1.2 1.1-2.4 2.3-2.9 3.9-.5 1.5-.4 3.2-.2 4.8.9 7 2.8 13.8 5.9 20.1 5.4 11.4 14.3 21.5 16.3 34 .1.8.2 1.7-.1 2.4-11.7-16.2-20.3-36.7-24.3-49.8-1.9-6.3-2.8-10.9-2.4-12.5 1.2-5.2 36.1-24.2 42.2-29.4 3.9-3.3 6.9-11.2 8.6-16.6.1-.4.2-.7.3-1.1.6-.5 1.1-1.2 1.6-2z"/><linearGradient id="SVGID_63_" gradientUnits="userSpaceOnUse" x1="281.997" y1="219.401" x2="307.142" y2="223.835"><stop offset="0" stop-color="#f6af9a"/><stop offset="1" stop-color="#fbd9cd"/></linearGradient><path d="M299.4 244.6c-9.8 5.5-11 6.1-11 6.1s-3.9-.1-8.3-1.7c-1-.4-2-.8-3-1.4 4.5-5.5 5.9-13.3 7.1-20.6 1.1-6.9 2.2-13.7 3.2-20.6.8-5.4 1.8-10.9 4.1-15.8.6.1 1.2.3 1.8.5 5.3 1.6 9.2 4.7 11.8 8.3.1.2.2.3.3.5 1.3 2 2 4.3 2 6.6.2 8.8 0 33.6-8 38.1z" fill="url(#SVGID_63_)"/><path d="M291.2 199.5c-.9 5.3-1.4 10.9-1.4 16.3-.4 6-1.1 12-2.1 17.9-.7 4.1-1.6 8.3-3.9 11.9-.9 1.4-2.2 2.7-3.7 3.4-1-.4-2-.8-3-1.4 4.5-5.5 5.9-13.3 7.1-20.6 1.1-6.9 2.2-13.7 3.2-20.6.8-5.4 1.8-10.9 4.1-15.8.6.1 1.2.3 1.8.5 0 .1.1.2.1.3.3 1.7-1.9 6.2-2.2 8.1z" opacity=".5" fill="#f6af9a"/><g id="coeurs"><path class="st73" d="M204.3 186.5s4.7-7.3 9.6-1.1c4.9 6.2-7.7 16.1-8.6 16.2s-12.7-2.9-11.3-13.2c1.1-8.2 10.3-1.9 10.3-1.9zM190.4 208.2s-1.2-3.9 2.4-3.8 3.5 7.6 3.2 7.9c-.3.3-4.8 3.7-8.1.2-2.5-2.9 2.5-4.3 2.5-4.3zM207.2 210.4s.8-1.6 1.9-.4c1.1 1.2-1.3 3.4-1.5 3.5-.2 0-2.6-.3-2.6-2.5.2-1.7 2.2-.6 2.2-.6zM187.5 196.5s1.9-.9 2.1 1c.2 1.9-3.7 2.3-3.9 2.2s-2.2-2.2-.6-4.2c1.4-1.5 2.4 1 2.4 1z"/></g></svg>