<svg xmlns="http://www.w3.org/2000/svg" xmlns:xlink="http://www.w3.org/1999/xlink" viewBox="0 0 595.3 652.8"><style>.st0{display:none}.st11,.st27{display:inline}.st27{opacity:.8}.st28,.st29,.st32{opacity:2.000000e-02;fill:#894115}.st29,.st32{opacity:3.000000e-02}.st32{display:inline;opacity:2.000000e-02}.st49{fill:#bc8210}.st59{fill:#3d3d53}.st60{opacity:.5;fill:#231115}.st69{clip-path:url(#SVGID_39_)}.st70,.st71{opacity:2.000000e-02;fill:#894216}.st71{opacity:3.000000e-02}.st88{fill:#bc8211}.st89{opacity:4.000000e-02;fill:#894216}</style><g id="apollon_1" class="st0"><linearGradient id="semelle_gauche_1_" gradientUnits="userSpaceOnUse" x1="172.481" y1="402.716" x2="201.831" y2="402.716"><stop offset="0" stop-color="#3d3d3d"/><stop offset="1" stop-color="#1d1e1d"/></linearGradient><path id="semelle_gauche" d="M182 385.3s-2.4-.4-3.2.1-6.1 3.5-6.3 6.5c-.2 3 4.2 10.6 5.3 12.8 1.2 2.2 13.5 14.6 14.9 15.3 1.4.7 7.8-1.8 9-6.6 1.2-4.8-11.2-20.2-11.2-20.2l-8.5-7.9z" fill="url(#semelle_gauche_1_)"/><linearGradient id="semelle_droite_1_" gradientUnits="userSpaceOnUse" x1="267.461" y1="443.915" x2="306.3" y2="443.915"><stop offset="0" stop-color="#3d3d3d"/><stop offset="1" stop-color="#1d1e1d"/></linearGradient><path id="semelle_droite" d="M306.3 414.1s-5.8-.9-8.4.1c-2.6 1-6.9 7.1-8.4 9.9-1.6 2.8-8.1 10.4-9.4 11.4-1.3.9-8.6 6.5-10.2 11.4-1.6 4.9-2.6 13.7-2.3 18.4.4 4.7-.6 8.8 4.4 8.9s7.4-1 8-1.3c.6-.3 15.9-33.2 16-33.6 0-.4 10.3-25.2 10.3-25.2z" fill="url(#semelle_droite_1_)"/><linearGradient id="chaussure_droite_1_" gradientUnits="userSpaceOnUse" x1="276.923" y1="443.679" x2="323.993" y2="443.679"><stop offset="0" stop-color="#3d3d3d"/><stop offset="1" stop-color="#1d1e1d"/></linearGradient><path id="chaussure_droite" d="M320.5 417.5s-14.3-5-16.1-2.8c-1.9 2.2-4.3 7-6.2 9.4-1.9 2.3-6.3 8-8.6 10.3-2.3 2.3-7.4 6.9-9.4 10.8s-3.2 11.9-3.2 14.3c0 2.3 0 11.9.9 13.2.9 1.3 4.8-.7 5.8-1.7s11.5-13.9 29.8-23.3c18.4-9.3 7-30.2 7-30.2z" fill="url(#chaussure_droite_1_)"/><linearGradient id="chaussure_gauche_1_" gradientUnits="userSpaceOnUse" x1="181.655" y1="396.504" x2="220.048" y2="396.504"><stop offset="0" stop-color="#3d3d3d"/><stop offset="1" stop-color="#1d1e1d"/></linearGradient><path id="chaussure_gauche" d="M204.4 379.5s-5.3 2.6-8.2 3.1c-2.5.4-5 0-7.2 1.5-.7.5-1.5.7-2.3.6-1.8-.3-4.5.1-4.7.6-.3.8-.6 4.9 0 5.9.7 1 6.5 10.7 11.5 15.3 5.1 4.6 7.7 6.8 8.2 6.9.5.2 1.9-3.4 3-4.2 1.1-.8 6.7-3.9 8.3-5.1 1.6-1.1 5.3-4.6 5.3-4.6l1.7-4.8-2.7-7-4.1-5.4-3.7-2.3-3.8-.4-1.3-.1z" fill="url(#chaussure_gauche_1_)"/><linearGradient id="chausette_droite_1_" gradientUnits="userSpaceOnUse" x1="308.509" y1="432.91" x2="331.358" y2="432.91"><stop offset="0" stop-color="#f2f2f2"/><stop offset="1" stop-color="#e4e1e0"/></linearGradient><path id="chausette_droite" d="M320.5 417.5s-5.8-.2-8.6 3.2c-2.8 3.4-3.9 6.6-3 9.6s3 9 3 9 3 5.3 1.7 8.4c-1.3 3.2 17.8-9.8 17.8-9.8l-10.9-20.4z" fill="url(#chausette_droite_1_)"/><linearGradient id="chaussette_gauche_1_" gradientUnits="userSpaceOnUse" x1="204.367" y1="387.585" x2="227.322" y2="387.585"><stop offset="0" stop-color="#f2f2f2"/><stop offset="1" stop-color="#e4e1e0"/></linearGradient><path id="chaussette_gauche" d="M207.3 375.5s-2.7 3.4-3 3.9c-.3.6 7 2.3 8.2 4.2 1.1 2 6.8 10.3 5.8 15.9l9-5.5s-10.7-15.6-13.9-16.9c-3.3-1.1-6.1-1.6-6.1-1.6z" fill="url(#chaussette_gauche_1_)"/><linearGradient id="pantalon_1_" gradientUnits="userSpaceOnUse" x1="205.492" y1="323.038" x2="470.281" y2="323.038"><stop offset="0" stop-color="#3d3d3d"/><stop offset="1" stop-color="#1d1e1d"/></linearGradient><path id="pantalon" d="M392.5 202.8s-8.2 4.9-9.3 5.1c-1.1.2-2.8.4-3.9 1.1-1.1.8-6.4.6-8.3 1.7-1.9 1.1-14.5 9-15.8 12.6-1.3 3.6-4.1 8.3-6.2 9.8s-11.5 7.3-17.5 15.8c-6 8.4-8.1 16.9-9.9 17.6-1.9.8-3.2 3.2-8.1 2.8-4.9-.4-1.1 6.9-2.6 6.8-1.5-.2-5.3-3.8-6.8-2.6-1.5 1.1-24.2 16-39 33-14.8 17.1-21.8 23.5-26.5 28.5-4.7 5.1-9.9 10.9-11.6 13.9s-12.6 16-16.3 18.6-6 5.8-4.9 6.9c1.1 1.1 6.2 3.9 8.6 6.9 2.4 3 10.7 14.5 12.2 14.1 1.5-.4 7.5-7.7 11.1-9.8 3.6-2.1 17.6-14.8 18.8-17.6 1.1-2.8 1.7-2.6 3.6-3.8 1.9-1.1 28.9-23.7 31.9-27.4 3-3.8 24.8-23.3 25.7-24.2.9-.9-.2-2.4 2.4-2.6s3.6-1.9 7.1-3.9c3.6-2.1 7.3-3.4 8.1-3.4s3-4.9 5.8-5.4c2.8-.6 12.2-1.5 13.9-3 1.7-1.5 6.4-7.5 8.1-7.9 1.7-.4 18.2-1.5 20.5-.4 2.3 1.1 12.2 11.8 15.8 17.8 3.6 6 9.4 25.7 11.6 29.8 2.3 4.1 6 5.8 6 7.7 0 1.9 3 12-.4 15.2-3.4 3.2-6 6-8.6 6.6-2.6.6-4.1-.4-4.9 1.1s-2.3 2.1-6.4 3.4c-4.1 1.3-22.7 11.5-25.3 14.5-2.6 3-7.7 4.3-13 5.8s-27.8 16.3-30.8 17.3c-3 .9-9.6 2.8-9.4 4.3.2 1.5 2.3 7.5 2.8 10.3.6 2.8 2.3 10.1 3.8 12 1.5 1.9 9.8 11.6 11.6 11.5 1.9-.2 9.8-5.6 12-6.4 2.3-.8 2.6-3.4 5.6-4.3 3-.9 16.9-8.3 18.8-9.6 1.9-1.3 2.4-4.9 4.7-4.9s31.5-9.4 34.7-12c3.2-2.6 15.4-10.9 17.8-11.8 2.4-.9 20.8-9.6 23.3-12.4 2.4-2.8 9.2-7.5 12.6-22.3 3.4-14.8 4.5-27 4.3-32.7s-4.7-31.7-5.4-35.5-1.1-9-2.1-10.9c-.9-1.9-4.5-3.4-3.6-5.6s5.8-2.3 5.4-3.9c-.4-1.7-2.1-2.1-1.5-4.9.6-2.8 5.1-9.2 5.1-9.2l-22.3-19.5-29.5-19.5-16-8.6-7.8-6.5z" fill="url(#pantalon_1_)"/><linearGradient id="torse_1_" gradientUnits="userSpaceOnUse" x1="187.889" y1="218.305" x2="549.339" y2="218.305"><stop offset="0" stop-color="#fbd9cd"/><stop offset="1" stop-color="#f6af9a"/></linearGradient><path id="torse" d="M465.6 298.9c2.6.9 5.5 1.2 8.3.7 2.9-.5 6.9-1.3 8.7-1.9 3.1-1.1 11.3-7.6 13.2-8.4 2-.8 23.7-23.7 25.9-24.2 2.3-.6 3.9-6.2 3.1-9.9-.8-3.7-10.1-25.3-10.7-30.1-.6-4.8-7.3-22.2-7.3-23.9s-3.4 3.7-4.2 7.3c-.8 3.7-7.3 14.4-9.3 16.6s-10.7 10.4-13.5 13.5c-2.8 3.1-9 10.7-9.3 12.4s-.6 6.2-2.3 5.9-14.4-5.1-21.4-4.5c-7 .6-14.6 1.1-19.1-2-4.5-3.1-11.5-10.7-13.8-13.8s-11.5-18.3-14.4-22c-2.8-3.7-6.5-10.1-7-11.8s-.3-8.4 3.1-11.3c3.4-2.8 10.1-11 10.4-13.8s2.3-5.3-4.8-11.5c-7-6.2-15.2-17.5-18.9-19.4s-57.7-19.1-62.5-22.8c-4.8-3.7-18.3-1.7-20-.8-1.7.8-34.6 0-42.5 1.4s-27 7.3-30.1 9c-3.1 1.7-7 8.2-9.3 8.7-2.3.6-12.7 2.5-18 3.1-5.3.6-8.2-1.1-6.8-2.3 1.4-1.1 2-3.1 5.1-3.1 3.1 0 6.2-1.4 5.3-2-.8-.6-4.5.1-8.3.8-3.8.7-7.6.1-7.3-1.4.3-1.5 1.1-5.1 2.3-5.1s-.4-2.1-.8-2.8.3-5.3 1.1-5.6 3.4-2.5 2-2.7c-1.4-.1-3.2-1.4-3-2.1s0-3.7 2.4-3.9c2.4-.3 9.7-2.3 7.5-3.8-2.3-1.5-5.2.8-5.2 1.3 0 .4-2.4 1.5-2.7.1s-.4-4.9.8-5.5 4.1-1.4 8.3-1c4.2.4 20.3 3.8 22.2 3.8s4.6.8 16.9-1.4 43.7-9 46.4-9.6c2.6-.6 16.1-5.1 28.7-2.3 12.6 2.8 16.1 4.7 17.5 4.7 1.3 0 14.1 1.5 17.5 2.6 3.4 1.1 19.9 7.5 21 7.3 1.1-.2 17.4-3.1 32.1 5.3 3.9 2.3 13.3.8 16.1.9 2.8.2 49.7-9.8 49.7-9.8s3.6 11.5 9.4 13.7c5.8 2.3 20.5 3.4 24.6 6.4 4.1 3 11.8 5.6 22.5 27.4s11.8 27.2 12 29.1c.2 1.9.2 18.8.2 20.8s5.3 19.5 7.1 26.1c1.9 6.6 6.4 26.3 4.1 35.3-2.3 9-8.4 16.1-12.6 19.7-4.1 3.6-23.3 17.5-31.3 20.8-8.1 3.4-15 9.9-17.8 11.6-2.8 1.7-6.9 5.8-7.5 7.7-.6 1.9-17.7 12.8-22.7 13.4-4.9.6-13.9 1-13.9-.6 0-1.5.3-3.1 2.3-3.1s-3.7-.1-6.3-1.7c-2.7-1.5-1.3-3.1-1.1-3.7s-4.4 1.1-5.3.8c-1-.3-3.7-5.1-.6-6.3 3.1-1.3 17.5-6.2 16.9-6.6-.6-.4-17.5 2.5-18 1.4-.6-1.1-1.7-5.6 3.2-6.8 4.9-1.1 15.2-4.1 16.9-4.4s2.8-2.4 2.4-2.7-8.7 2.3-10.6 2.5c-1.8.3-7-.1-7.2-2.8-.1-2.7 2.3-2.7 3.9-3.1 1.7-.4 3.2-2.4 4.5-2.8s12.2-4.2 16.6-3.1c2 1 3.7 1.6 5.2 2.1z" fill="url(#torse_1_)"/><linearGradient id="tête_3_" gradientUnits="userSpaceOnUse" x1="410.101" y1="117.385" x2="457.873" y2="117.385"><stop offset="0" stop-color="#fbd9cd"/><stop offset="1" stop-color="#f6af9a"/></linearGradient><path id="tête" d="M410.2 98.4s-.4 13.7.4 15.2 3.6 2.4 3.4 3.6c-.2 1.1 0 3.6 2.1 7.3 2.1 3.8 10.9 16.9 12.6 19.1 1.7 2.3 7.5 8.4 10.7 8.4s10.7-3 12.8-5.8 5.8-20.6 5.8-23.5-2.4-14.5-3-16.3c-.6-1.9-5.8-21.4-10.5-21.8-4.8-.2-28.7-9.4-34.3 13.8z" fill="url(#tête_3_)"/><linearGradient id="cheveux_1_" gradientUnits="userSpaceOnUse" x1="380.066" y1="75.954" x2="503.117" y2="75.954"><stop offset="0" stop-color="#fff0b1"/><stop offset="1" stop-color="#e5c573"/></linearGradient><path id="cheveux" d="M419 100.6c2 1.3 4.6 1.4 6.9.9 2.3-.5 4.5-1.5 6.8-2 1.5-.3 3.1-.5 4.4.1 1 .5 1.8 1.3 2.6 2.2 3.3 3.6 7 7.4 11.8 8.3 4.7.8 9.4-1.3 14.1-1.2 2.4.1 4.8.7 7.2.8 7.2.3 13.7-4.1 19-8.9 3.1-2.7 6-5.7 7.9-9.4 2.1-4.2 2.6-9 3.1-13.6.4-3.5.7-7.2-.5-10.5-.8-2.3-2.3-4.3-2.6-6.7-.3-2.1.5-4.4-.3-6.4-.7-1.7-2.4-2.9-3.3-4.5-1.1-2-.9-4.7-2.5-6.3-1-1-2.5-1.4-3.6-2.4-.9-.9-1.4-2.1-2.2-3.1-1.9-2.4-5.1-3.2-8.2-3.4-3-.1-6.1.2-9.1-.5-4.1-1-7.8-3.9-12-3.6-2.9.2-5.4 2-7.9 3.5-4.2 2.4-9 4-13.8 4.7-1.8.2-3.9.5-4.8 2.1-.5.9-.5 2.3-1.4 2.7-.6.3-1.3.1-2 0-2.8-.4-5.4 1.4-7.4 3.3-2.1 1.9-4 4.1-6.7 5-2.6.8-5.6.4-7.8 1.8-2.4 1.5-3.1 4.7-3.3 7.5-.1 2.8 0 5.8-1.3 8.4-.8 1.5-2.2 2.9-2.4 4.6-.1 1.2.3 2.5-.4 3.4-.5.6-1.3.9-1.9 1.4-1.6 1.3-1.1 3.9-1.7 5.9-.7 2.6-3.3 4.2-5.5 5.8-2.2 1.6-10.3 1-10.2 3.7.1 1.6 2.7 6.7 3.2 8.2 1.3 3.2 6.5 3.8 7.6 7 1.1 3.2-3.5 6-1.1 8.4 4.1 4.2 18.1 4.4 19.1 2.5 1.1-2.2 1.1-5.7 2.2-7.8 0-1.4 1.1-15.1 2.5-16 3.7-2.4 3 2.4 5.5 4.1z" fill="url(#cheveux_1_)"/><g id="planche_skate" class="st11"><linearGradient id="SVGID_1_" gradientUnits="userSpaceOnUse" x1="115.404" y1="541.672" x2="321.244" y2="541.672"><stop offset="0" stop-color="#fad29c"/><stop offset="1" stop-color="#cb9e6a"/></linearGradient><path d="M115.6 564.8c.2-1.6 1.1-3 2.4-3.9 5.9-3.9 25.7-16.7 45.1-27.3 23.3-12.8 57.8-31.2 62.3-33.6s38.3-19 44.1-20.8c5.8-1.9 13.7-4.3 21.2-3.2 7.5 1.1 19.9 9.4 23.1 12.4 3.2 3 7.7 11.3 7.3 20.1-.4 8.8-2.1 19.1-12.8 26.1-10.7 6.9-54.6 29.5-58 31.3-3.4 1.9-48.2 24-58 28.7-9.8 4.7-23.5 13.5-32.7 13.1-9.2-.4-22.7-4.1-35.5-19.3-8.8-10.8-9.1-19.5-8.5-23.6z" fill="url(#SVGID_1_)"/><linearGradient id="SVGID_2_" gradientUnits="userSpaceOnUse" x1="118.357" y1="541.355" x2="316.786" y2="541.355"><stop offset="0" stop-color="#37a19f"/><stop offset="1" stop-color="#0f4c49"/></linearGradient><path d="M118.8 570.2c-1.1-2.9-.1-6.1 2.3-8 4-3.1 10.7-8 17.8-12.3 11.5-6.9 90.1-50.1 95.2-52.2 5.1-2.1 23.3-10.7 27.6-12.6 4.3-1.9 19.5-10.1 30.6-6s22.7 13.5 23.8 23.5 2.4 22-12.4 30.8-73.8 39.2-79.2 42.2c-5.4 3-56.3 28.3-63.6 29.1-6.9.7-31.8-6.8-42.1-34.5z" fill="url(#SVGID_2_)"/></g><g id="roue_haut_gauche" class="st11"><linearGradient id="SVGID_3_" gradientUnits="userSpaceOnUse" x1="230.362" y1="510.697" x2="249.054" y2="510.697"><stop offset="0" stop-color="#fad29c"/><stop offset="1" stop-color="#cb9e6a"/></linearGradient><path d="M243.7 501.8s5.5 4.8 5.3 7.7c-.2 3.1-5.9 10-11.2 10s-8.4-7.8-7.3-10c1.1-2.2 13.2-7.7 13.2-7.7z" fill="url(#SVGID_3_)"/><linearGradient id="SVGID_4_" gradientUnits="userSpaceOnUse" x1="230.316" y1="506.511" x2="243.753" y2="506.511"><stop offset="0" stop-color="#f2f2f2"/><stop offset="1" stop-color="#e4e1e0"/></linearGradient><path d="M235.4 504.9c.2-.2.4-.3.6-.5 1.4-1 7.1-5 7.7-2.6.8 2.8-6.6 9-9.8 9.9s-4-1.6-3.4-2.5c.6-.7 3.9-3.4 4.9-4.3z" fill="url(#SVGID_4_)"/></g><g id="roue_haut_droite" class="st11"><linearGradient id="SVGID_5_" gradientUnits="userSpaceOnUse" x1="265" y1="552.182" x2="282.937" y2="552.182"><stop offset="0" stop-color="#fad29c"/><stop offset="1" stop-color="#cb9e6a"/></linearGradient><path d="M279.5 544.2s3.7 4.2 3.5 6.2c-.2 2-4.3 8.9-12.2 9.7-2 .2-5.4-6.1-5.7-8-.4-1.8 14.4-7.9 14.4-7.9z" fill="url(#SVGID_5_)"/><linearGradient id="SVGID_6_" gradientUnits="userSpaceOnUse" x1="264.83" y1="548.41" x2="279.524" y2="548.41"><stop offset="0" stop-color="#f2f2f2"/><stop offset="1" stop-color="#e4e1e0"/></linearGradient><path d="M271.1 544.8c1.5-.9 3.2-1.5 4.9-1.7 2.2-.3 4.6 0 3 2.7-2.7 4.6-11.7 8.6-12.8 8.1-.9-.6-4.3-3.6 4.9-9.1z" fill="url(#SVGID_6_)"/></g><g id="roue_bas_droite" class="st11"><linearGradient id="SVGID_7_" gradientUnits="userSpaceOnUse" x1="160.833" y1="606.803" x2="177.649" y2="606.803"><stop offset="0" stop-color="#fad29c"/><stop offset="1" stop-color="#cb9e6a"/></linearGradient><path d="M172.4 599.8s6.2 3.8 5.2 5.8-5.9 8.3-10 8.2c-4.1-.1-7.2-5.3-6.6-6.4.6-1.1 11.4-7.6 11.4-7.6z" fill="url(#SVGID_7_)"/><linearGradient id="SVGID_8_" gradientUnits="userSpaceOnUse" x1="160.851" y1="603.62" x2="172.371" y2="603.62"><stop offset="0" stop-color="#f2f2f2"/><stop offset="1" stop-color="#e4e1e0"/></linearGradient><path d="M163 604.2c-.8.6-1.4 1.4-1.8 2.4-.4 1-.6 1.9.8 1.4 2.5-.8 10.4-6.8 10.4-8.2 0-1.4-2.3-.3-4.1.6-1.4.6-3.9 2.6-5.3 3.8z" fill="url(#SVGID_8_)"/></g><linearGradient id="SVGID_9_" gradientUnits="userSpaceOnUse" x1="134.83" y1="584.811" x2="173.526" y2="584.811"><stop offset="0" stop-color="#999898"/><stop offset="1" stop-color="#3d3d3d"/></linearGradient><path d="M144.7 573.3c.8.6 1.8.6 2.6.1 3.6-2.1 15-8.5 15.8-8.1 1 .4 9.6 10.3 10.3 11.7.7 1.4-1.7 3.5-5.6 5.8-3.9 2.3-5.9 3.9-5.1 7.5s5.3 8.9 5.5 10.1-2.3 3.8-3.7 3.9c-1.4.1-16.2-17.9-19.4-20.3-3.2-2.4-10.3-10.1-10.3-10.1l5.3-5.1c.1 0 2.5 3 4.6 4.5z" fill="url(#SVGID_9_)"/><g id="roue_bas_gauche" class="st11"><linearGradient id="SVGID_10_" gradientUnits="userSpaceOnUse" x1="125.349" y1="566.743" x2="144.219" y2="566.743"><stop offset="0" stop-color="#fad29c"/><stop offset="1" stop-color="#cb9e6a"/></linearGradient><path d="M137.9 558.1s6.5 6.1 6.3 7.2c-.2 1.1-8.4 9.4-11 9.9-2.6.6-7.7-6.5-7.9-7.1-.1-.6 12.6-10 12.6-10z" fill="url(#SVGID_10_)"/><linearGradient id="SVGID_11_" gradientUnits="userSpaceOnUse" x1="125.299" y1="563.585" x2="138.306" y2="563.585"><stop offset="0" stop-color="#f2f2f2"/><stop offset="1" stop-color="#e4e1e0"/></linearGradient><path d="M130.2 561.1c.3-.2.5-.4.8-.6 1.7-1 7.4-4.3 7.3-1.3-.2 3.5-8.4 10-11.5 10-2.9 0-1.6-4.2 3.4-8.1z" fill="url(#SVGID_11_)"/></g><linearGradient id="SVGID_12_" gradientUnits="userSpaceOnUse" x1="241.709" y1="530.594" x2="274.962" y2="530.594"><stop offset="0" stop-color="#999898"/><stop offset="1" stop-color="#3d3d3d"/></linearGradient><path d="M242 517c-.4.6-.3 1.4.2 2 1.9 2 7.1 7.6 6.6 8.7-.6 1.3-3.2 6.3 1.3 8.4 4.5 2.2 6.8 1.2 7.6 2 .8.8 9.1 11.5 10.1 11.6 1 .1 5.3-1.5 5.6-3.7.3-2.2-9.9-11.4-9.7-12.1.3-.8 11.5-5.6 11.2-8-.4-2.3-9.4-13.9-10.8-14.1-1.4-.2-9.8 5.2-10.3 5.1s-5.1-4.4-5.7-5.3c-.5-.8-4.7 3.1-6.1 5.4z" fill="url(#SVGID_12_)"/></g><g id="apollon_2" class="st0"><linearGradient id="SVGID_13_" gradientUnits="userSpaceOnUse" x1="247.073" y1="177.758" x2="335.674" y2="177.758"><stop offset="0" stop-color="#e5c573"/><stop offset="1" stop-color="#fff0b1"/></linearGradient><path d="M334.5 220.5c-.3.8-.7 1.5-1.3 2.2-1 1-2.4 1.6-3.9 2-4.4 1.3-9.6 1.7-12.5 4.7-2 2.2-2.5 5.4-5.4 6.7-.8.3-1.7.5-2.5.7-7.7 1.4-15.5 2.8-23.2 4.1-1.6.3-3.3.5-4.7-.1-1.3-.6-2-1.8-2.9-2.9-6-7.1-21.1-4.5-27.7-11.1-5.1-5.1-2.4-12.6.8-18.7 3.2-6 6.5-13.2 2.2-18.8-2.2-2.8-6.2-5-6.5-8.3-.4-4 4.9-6.8 6.6-10.6 2.9-6.5-5.4-13.6-2.8-20.1 2.4-6.2 13.4-9.1 13-15.6-.2-2.9-2.9-5.7-2-8.5.7-2.2 3.3-3.6 5.9-4.3 2.6-.7 5.4-1 7.8-1.9 3.3-1.3 5.7-3.7 9.1-4.9 4.3-1.5 5.8.6 9 2.1 3.6 1.7 7 1.6 11.1 1.1 3.6-.4 7.3-1 10.7-.2 2 .5 3.9 1.6 5 3 .8 1 1.2 2.2 1 3.4-.3 1.8-1.9 3.4-1.4 5.2.2.8.9 1.5 1.6 2.2 5.2 5.3 9.6 12.6 5.6 18.5-.7 1-1.6 2-1.6 3.2 0 .9.6 1.7 1.2 2.5 3.2 4.7 4.1 10.3 2.6 15.5-.4 1.5-1.1 3.1-1.3 4.7-.1 1.1-.1 2.1.4 3.1.5 1.2 1.6 2.2 2.3 3.4 2.9 4.9-1.6 10.6-.9 16.1.4 3.5 3 6.6 4.4 9.9 1.8 3.6 1.9 7.8.3 11.7z" fill="url(#SVGID_13_)"/><linearGradient id="SVGID_14_" gradientUnits="userSpaceOnUse" x1="203.472" y1="270.689" x2="382.593" y2="302.273"><stop offset="0" stop-color="#f6af9a"/><stop offset="1" stop-color="#fbd9cd"/></linearGradient><path d="M367.4 385.5c-.6-2.1-2.6-10.5-3.4-14.1-.8-3.6-.8-18.8-.6-22.3.2-3.6.6-20.6.2-35.1-.4-14.5-5.4-26.3-5.6-28.3-.2-2.1-.4-19.7-.6-22s-2.6-13.3-2.1-20.1c1.2-14.7-5-28.6-6-29.8-2.2-2.7-12.2-6.6-12.2-6.6s-2.6-.9-7.3-2.2c-4.7-1.3-18.6-11.3-19.9-12s.2-16.1.2-16.1-37.1-7.4-36.6-6.4.8 13 .8 16.7c0 3.7-1.2 4.6-2.4 6-1.2 1.4-10.3 5.5-16 8.2-5.6 2.6-8.5 4.9-8.7 5 0 0-6.5 2-9 2.9-8.4 3.1-12.4 9.9-14.7 15.4-2.3 5.5-3.6 15.8-3.8 16-.3.3-3.3 6.4-5.4 12.6-2.2 6.2-5.1 21-5.3 22.6-.2 1.6-3.8 7.2-4.5 10.9-.7 3.7-3.7 11-4.3 12.2-.7 1.2-3.6 10-3.8 12.8-.2 2.7-1.5 23.5-1.2 28.6.3 5.2 16.8 45.1 19.1 45.5 2.4.5 2.5-.3 4.3-1.3 1.8-1-.8-2.8-.8-2.8 2.7.3 2.7-1.8 2.7-2.5 0-.6-1.5-1.1-1.9-1.1-.4-.1-15-32.9-15-32.9s26.5-76.2 28.3-78.3c1.8-2.1 9.3-17.5 9.1-18.3-.1-.8 3.8 2.4 3.8 3.4s2.1 24.4 3.9 33.8c1.8 9.4 2 25.5 1.3 27.5s-3.5 8-4.2 10.8c-.7 2.8-1.8 6.3-3.7 8.9-1.8 2.5-2.1 5.5-2.7 7.2s2.5 3.1 5.9 7c3.4 3.9 41 6.3 45.3 6 4.4-.3 32.5-11.4 33.2-11.8.7-.4-1.6-16.8-.7-18.2 4-6.7 2.4-19.9 3.1-20.7 2.1-2.5 5.2-23.9 5.6-24.8.4-.8 2.1-6.3 2.1-7 0-.7 1.4-1.4 2.1 3.7.7 5.1 3.8 11.5 4.2 12.2.4.7-.3 13.7 0 15.8.3 2.1 1.1 6.6 1.4 9.4.3 2.8 2 13.7 4.1 19.4 2.1 5.8 5.9 28 6.3 31.8.4 3.8-.1 5.5-1 6.7-3 3.6-3 9.5-3 10.9 0 1.4 1.1 5.1 1.3 7.1.2 2.1-.4 2.7-1.2 4.8-.8 2.1.3 3 .7 3.2.4.2 1.3-1.6 1.1-.7-.2.9.3 4.3.9 5.5.2.4.7.5 1.2.5 0 .1 0 .2.1.3 0 .1.1.1.1.2s.1.1.1.1c.4.3 1.4.5 1.8.5h.1c.9.1 2.2.3 3.8.3h.2c5.2.3 4.8-3.5 4.8-6.3s1.2-2.7 2.3-3.4c1.4-.5 2.7-5.3 2.1-7.3zm-12.3 3.1c.5-1.3 1.5-.5 2.2.2.5.5.5 5.2.3 7.8V398.4l-.2.2-.1.1h-.1c-.2 0-.4 0-.8-.1-.2-.1-.5-.1-.8 0 .2-2.1.3-5.5.3-6.2-.4-1-1.3-2.4-.8-3.8z" fill="url(#SVGID_14_)"/><linearGradient id="SVGID_15_" gradientUnits="userSpaceOnUse" x1="203.472" y1="270.689" x2="382.593" y2="302.273"><stop offset="0" stop-color="#f6af9a"/><stop offset="1" stop-color="#fbd9cd"/></linearGradient><path d="M367.4 385.5c-.3-1.2-1.2-4.5-1.9-7.8-.6-2.4-1.1-4.8-1.4-6.3-.8-3.6-.8-18.8-.6-22.3.2-3.6.6-20.6.2-35.1-.4-14.5-5.4-26.3-5.6-28.3-.2-2.1-.4-19.7-.6-22s-2.6-13.3-2.1-20.1c.9-10.7-2.2-20.9-4.3-26.2-.8-2-1.5-3.3-1.7-3.6-2.2-2.7-12.2-6.6-12.2-6.6s-2.6-.9-7.3-2.2c-4.7-1.3-18.6-11.3-19.9-12s.2-16.1.2-16.1-37.1-7.4-36.6-6.4.8 13 .8 16.7c0 3.7-1.2 4.6-2.4 6-1.2 1.4-10.3 5.5-16 8.2-5.6 2.6-8.5 4.9-8.7 5 0 0-6.5 2-9 2.9-2.6 1-4.7 2.3-6.6 3.8-4.1 3.4-6.5 7.8-8.2 11.6-2.3 5.5-3.6 15.8-3.8 16-.3.3-3.3 6.4-5.4 12.6-2.2 6.2-5.1 21-5.3 22.6-.2 1.6-3.8 7.2-4.5 10.9-.7 3.7-3.7 11-4.3 12.2-.7 1.2-3.6 10-3.8 12.8-.2 2.7-1.5 23.5-1.2 28.6 0 1 .7 3.2 1.7 6.3 4.4 12.7 15.5 38.9 17.4 39.2 2.4.5 2.5-.3 4.3-1.3 1.8-1-.8-2.8-.8-2.8 2.7.3 2.7-1.8 2.7-2.5 0-.6-1.5-1.1-1.9-1.1-.4-.1-13.7-30.1-14.9-32.8 0-.1-.1-.2-.1-.2s26.5-76.2 28.3-78.3c1.5-1.7 6.5-11.8 8.4-16.3l.3-.6c.3-.8.5-1.3.5-1.4-.1-.8 3.8 2.4 3.8 3.4 0 .3.2 2.8.5 6.5.3 3.3.8 7.6 1.2 11.9.7 5.8 1.4 11.7 2.1 15.4.4 2.1.7 4.5 1 7 .9 8.8.8 18.9.3 20.5-.4 1-1.3 3.2-2.2 5.4-.8 2-1.7 4.1-2 5.5-.7 2.8-1.8 6.3-3.7 8.9-1.8 2.5-2.1 5.5-2.7 7.2v.2c-.3 1.6 2.7 3.1 6 6.9 3.4 3.9 41 6.3 45.3 6 4.4-.3 32.5-11.4 33.2-11.8.1-.1.2-.8.1-1.8-.2-4.4-1.5-15.2-.8-16.3.4-.6.7-1.3 1-2 2.7-7 1.5-17.9 2.1-18.7 2.1-2.5 5.2-23.9 5.6-24.8.4-.8 2.1-6.3 2.1-7 0-.1 0-.2.1-.3.3-.5 1.4-.3 2 4 .7 5.1 3.8 11.5 4.2 12.2.1.2.1.8.1 1.9 0 3.8-.3 12.2-.1 13.9.3 2.1 1.1 6.6 1.4 9.4.3 2.8 2 13.7 4.1 19.4 2.1 5.8 5.9 28 6.3 31.8.4 3.2.1 4.9-.6 6-.1.2-.3.5-.4.6-3 3.6-3 9.5-3 10.9 0 .8.3 2.2.7 3.6.3 1.1 1.5 5.4 1.2 10.6v.7c0 1.3.4 4 1 5.1.2.4.7.5 1.2.5 0 .1 0 .2.1.3 0 .1.1.1.1.2s.1.1.1.1c.4.3 1.4.5 1.8.5h.1c.9.1 2.2.3 3.8.3h.2c5.2.3 4.8-3.5 4.8-6.3s1.2-2.7 2.3-3.4c1.2-.7 2.5-5.5 1.9-7.5zm-9.9 11.2V398.4l-.2.2-.1.1h-.1c-.2 0-.4 0-.8-.1-.2 0-.5-.1-.8 0 .2-2.1.3-5.5.3-6.2-.1-.9-.9-2.3-.5-3.7.5-1.3 1.5-.5 2.2.2.3.4.2 5.2 0 7.8z" fill="url(#SVGID_15_)"/><g id="ombre_v_1_" class="st27"><path class="st28" d="M312.3 330.5c-1.1.7-2.3 1.5-3.1 2.5-.6.7-1.1 1.5-1.5 2.3-1 1.9-2.1 3.7-3.1 5.6-.2.4-.5.9-.3 1.3.3.6 1.1.7 1.8.5 1.9-.6 3.2-2.4 4.1-4.2s1.6-3.8 2.9-5.3c2.4-2.7 6.4-3.6 8.9-6.2.5-.6 1.4-1.8.4-2.4-.9-.5-2.3.9-3 1.3-2.5 1.6-4.8 3.1-7.1 4.6zM252.1 329.4c1 2.7 1.2 5.5 1.8 8.3.8 3.2 3.1 7.6 5.1 10.2-.2.7-2.1-.1-2.8-.3-.7-.2-1.1-1-1.6-1.5-.9-.9-1.7-1.7-2.4-2.8-1.9-3-1.8-6.9-3.9-9.8-.9-1.2-2.3-2.2-3.8-1.9-.7.1-1.3.5-1.9.2-.5-.2-.7-.8-.8-1.3-.4-1.7.1-3.5.8-5.1.3-.8.7-1.7 1.5-2.1 1.2-.7 3.7.7 4.7 1.5 1.6 1.2 2.6 2.9 3.3 4.6z"/><path id="ombre_v" class="st29" d="M324 339.5c-.8-.7-1.2-1.6-1.9-2.4-1.5-1.8-3.8-2.9-6.2-2.8-.7 0-1.5.2-2.1.6-.7.5-1.1 1.4-1.5 2.2-1.7 3-4.9 5.1-6.3 8.3-.4 1-.9 2.2-1.9 2.3-.6.1-1.3-.3-1.6-.9s-.4-1.2-.3-1.9c.2-3.1 2.7-5.6 4.2-8.3.8-1.4 1.4-3 2.2-4.3 1.9-3 5-5.1 8.1-7 1.3-.8 2.5-1.6 3.8-2.4.8-.5 2.6-2.3 3.6-1.8-.3.7-.6 1.4-1 2-.6 1.2.7 12 .9 16.4z"/><path id="ombre_v_2" class="st29" d="M261.5 349.3c-2.7-.3-5.4-.7-7.9-1.7-2.9-1.2-5.5-1.4-8.4-2.6-1.5-.6-4.1-2.9-5.3-4-.2-.2-.4-.5-.6-.8v-.2c.6-1.7.8-4.6 2.7-7.2 1.8-2.5 3-6.1 3.7-8.9.3-1.3 1.2-3.4 2-5.5.3.1.6.3.9.5 2.1 1.7 4.3 3.5 5.7 5.8 1.1 1.6 1.8 3.5 2.5 5.3 2.4 6.3 4.7 12.7 4.7 19.3z"/></g><linearGradient id="tête_4_" gradientUnits="userSpaceOnUse" x1="266.905" y1="157.162" x2="317.776" y2="166.132"><stop offset="0" stop-color="#f6af9a"/><stop offset="1" stop-color="#fbd9cd"/></linearGradient><path id="tête_1_" d="M318.4 160.6c0 6.1-2.5 10.8-3.5 11.7-.9.9-3.1-.3-3.1-.3 0 .3-.1.6-.1 1-.3 1.3-.9 3-1.8 4.8-1.6 3.4-3.9 7.2-5.8 9.2-3.2 3.4-9.6 3.4-16.1 1.7s-14.5-18.4-14.5-18.4c0 .1-.1.6-2.8.5-2.9-.2-4.2-12.8-3.8-14 .5-1.1 0-2.2 2.7-1.3 2.5.8 3.4 3.9 3.5 4.5 0-.2-.1-.7-.1-1.4-.1-3.2 2-6.6 3.3-9.6.7-1.7 1.7-3.2 2.3-4.9.8-2.3-.1-7.7 2-9.1 1.1-.7 3.7-.5 5.1-.7 2-.4 4.1-.9 6.1-.7 3.3.4 6 2.8 9.3 3.4 3.8.7 8.4-.9 10.1 4 .2.7.3 1.4.4 2.1.6 5.1 2.2 7.9 3.1 12.1.1.2.1.4.2.4 0 1.4 0 2.3.1 2.2.6-.2 3.4-3.3 3.4 2.8z" fill="url(#tête_4_)"/><linearGradient id="jambe_gauche_2_" gradientUnits="userSpaceOnUse" x1="237.823" y1="516.426" x2="286.501" y2="525.01"><stop offset="0" stop-color="#f6af9a"/><stop offset="1" stop-color="#fbd9cd"/></linearGradient><path id="jambe_gauche" d="M279.9 561c-1.5 1.7-3.1 3-4.8 4-3.1 2-6.1 2.8-7.8 3.3-2.6.8-13.5 6.6-14.8 8.4-1.3 1.9-15 11.3-17.6 9.4-2.6-1.9-4.9-1.9-5.5-2.6-.6-.8-1.3-2.8-1.7-3.4-.4-.6-.2-4.7-.2-5.4s2.6-2.8 3.9-3.6c1.3-.8 13.7-9 15.4-10.3.8-.6 2.5-2.5 4.3-4.7 2.2-2.7 4.5-5.7 4.7-7 .4-2.2 3.4-14.8 1.7-19.9s-6.4-27.4-6.4-30.2c0-2.8-1.7-29.5 0-37.2.3-1.6 1.7-2.9 3.7-3.9 3.2-1.7 7.9-2.8 12.3-3.4 6.2-1 12-1.1 12-1.1s-3.2 9.8-2.8 12.8c.4 3 3 17.3 3 19.9s-2.8 16.9-2.8 19.3c0 2.4-1.5 31.9-.9 35.3s6.5 17.8 4.3 20.3z" fill="url(#jambe_gauche_2_)"/><path id="ombre_jambe_gauche" class="st32" d="M279.9 561c-1.5 1.7-3.1 3-4.8 4-4.1-.9-7.9-3.2-11.2-5.9-2.7-2.2-5.7-4.8-9.1-4.4-1.3.2-2.5.8-3.6 1.5 2.2-2.7 4.5-5.7 4.7-7 .4-2.2 3.4-14.8 1.7-19.9s-6.4-27.4-6.4-30.2c0-2.8-1.7-29.5 0-37.2.3-1.6 1.7-2.9 3.7-3.9h.1c3.4-.2 6.9-1.1 10-2.4.7-.3 1.5-.6 2.2-1 6.2-1 12-1.1 12-1.1s-3.2 9.8-2.8 12.8c.4 3 3 17.3 3 19.9s-2.8 16.9-2.8 19.3c0 2.4-1.5 31.9-.9 35.3s6.4 17.7 4.2 20.2z"/><linearGradient id="jambe_droite_2_" gradientUnits="userSpaceOnUse" x1="271.907" y1="549.651" x2="339.359" y2="561.544"><stop offset="0" stop-color="#f6af9a"/><stop offset="1" stop-color="#fbd9cd"/></linearGradient><path id="jambe_droite" d="M285.9 470.1s1.5 18.2 2.6 21.4c1.1 3.2-1.1 10.3-2.8 16.1-1.7 5.8-3.2 12.8-1.9 23.3 1.3 10.5 2.1 39.8 1.5 45.4-.6 5.6-2.4 12.3-2.7 13.6-.3 1.3.6 11-.1 13.9-.7 3 .4 6.3 2.8 9.4s7.7 11.8 8.7 14.4c1 2.5 6.1 10.6 9.2 11.3 3.1.7 6.8 1.4 7.5-1.3.7-2.7-.7-4.8.1-4.8.8 0 4.4 3.4 5.6 3.9 1.3.6 4.2-1.1 4.6-1.7.4-.6 3.2-1 3.4-1.7s2.1-1.3 2.1-2.8 1.5-3.2 1.4-5.2c-.1-2-1.4-4.4-2.8-4.9-1.4-.6-13.5-9-14.5-10.7-1-1.7-7.9-11-8.4-12.5-.6-1.5-.8-16.9.4-21.3 1.3-4.4 13.7-56.9 13.7-60.1 0-3.2-.4-13.4-1.3-17.7-.8-4.4-.4-13.1.1-14.2.6-1.1-.3-10.6-.3-10.6l-28.9-3.2z" fill="url(#jambe_droite_2_)"/><linearGradient id="short_2_" gradientUnits="userSpaceOnUse" x1="227.98" y1="394.323" x2="332.173" y2="412.695"><stop offset="0" stop-color="#1d1e1d"/><stop offset=".998" stop-color="#3d3d3d"/></linearGradient><path id="short" d="M239.4 340.1s-3.6 11.6-4 14.2c-.4 2.6-1.7 6.8-1.9 8.4-.2 1.7-1.5 25-.9 28.5.6 3.6 1.3 12.4 1.3 14.5s3 12.8 3.8 14.1c.8 1.3.9 4.3.9 8.1s.4 20.5 1.3 21.2c.9.8-1.1 12.4-1.3 12.6-.2.2 6.8 0 7.5 2.4s6.4 4.9 7.9 5.1c1.5.2 13 .2 16-2.8s8.1-9.4 9.2-13c1.1-3.6 1.7-7.9.8-10.9-.9-3-1.5-3.2 0-5.8 1.5-2.6-.9-25.9.2-25.9h2s.6 23.6.8 27 .7 17.3 1.2 20.1c.6 2.8 1.3 9-.8 10.5l-2.1 1.5s3.2.2 3.4 1.1c.2.9 5.3 5.4 6.8 6.2 1.5.8 17.1 2.1 20.5 1.1 3.4-.9 6.9-3.8 8.4-3.9s1.7-3 .9-4.5-.9-4.7-.2-6c.8-1.3 1.7-12.8 2.1-15.6.4-2.8 1.9-18.4 2.6-21.2.8-2.8 4.1-32.1 3.6-41.3-.6-9.2-.9-18.8-.9-21.2s-1.3-13.3-1.3-13.3-.6-2.4-.9-5.4c-.4-3-.9-6.2-1.9-6.4s-11.3 5.8-21.8 7.9-17.1 3.8-21 3.8c-3.9 0-28-3.6-32.1-5.6-4.3-2.2-10.1-5.5-10.1-5.5z" fill="url(#short_2_)"/><linearGradient id="surf_2_" gradientUnits="userSpaceOnUse" x1="247.615" y1="397.615" x2="97.423" y2="397.615"><stop offset="0" stop-color="#1d1e1d"/><stop offset=".998" stop-color="#3d3d3d"/></linearGradient><path id="surf" d="M109.1 493c-3.7 10.1-13.3 32.8-11.5 41.5 1.9 8.6 5.3 12.4 10.5 12.4s17.3-8.6 30.4-25.2c13.1-16.5 56.7-87.8 64.2-106.2s23.7-61.2 28.2-76.6c4.5-15.4 14.8-52.7 15-53.7.1-.4 1.5-4.2 1.6-6 .2-2-1.2-9.1-1.1-9.6.2-.9-1.4-16.4-1.8-17.7s-3.6-3.4-3.6-3.4-7.6 11-10.7 17.2c-3.2 6.2-9.8 20.3-11.3 24.2s-26.7 56.5-28.5 59.7c-1.9 3.2-35.5 61.4-37.7 65.1-2.2 3.6-38.8 65-43.7 78.3z" fill="url(#surf_2_)"/><g id="lyre_1_" class="st11"><linearGradient id="SVGID_16_" gradientUnits="userSpaceOnUse" x1="346.819" y1="427.306" x2="352.485" y2="427.306"><stop offset="0" stop-color="#999898"/><stop offset="1" stop-color="#3d3d3d"/></linearGradient><path fill="url(#SVGID_16_)" d="M352.5 399.2l-.3-.1-5.4 56.3.3.1z"/><linearGradient id="SVGID_17_" gradientUnits="userSpaceOnUse" x1="348.91" y1="428.895" x2="354.3" y2="428.895"><stop offset="0" stop-color="#999898"/><stop offset="1" stop-color="#3d3d3d"/></linearGradient><path d="M354 402.2h.3l-5.1 53.3v.1h-.3v-.1l5.1-53.3z" fill="url(#SVGID_17_)"/><linearGradient id="SVGID_18_" gradientUnits="userSpaceOnUse" x1="351.08" y1="429.185" x2="356.46" y2="429.185"><stop offset="0" stop-color="#999898"/><stop offset="1" stop-color="#3d3d3d"/></linearGradient><path d="M356.2 402.5h.3l-5.1 53.2v.2h-.3v-.2l5.1-53.2z" fill="url(#SVGID_18_)"/><linearGradient id="SVGID_19_" gradientUnits="userSpaceOnUse" x1="353.25" y1="429.26" x2="358.63" y2="429.26"><stop offset="0" stop-color="#999898"/><stop offset="1" stop-color="#3d3d3d"/></linearGradient><path d="M358.6 402.6l-5.1 53.1v.2h-.3v-.1l5.1-53.2H358.6z" fill="url(#SVGID_19_)"/><linearGradient id="SVGID_20_" gradientUnits="userSpaceOnUse" x1="355.43" y1="429.13" x2="360.83" y2="429.13"><stop offset="0" stop-color="#999898"/><stop offset="1" stop-color="#3d3d3d"/></linearGradient><path d="M360.8 402.4l-5.1 53.3v.2h-.3v-.2l5.1-53.2c.1 0 .2-.1.3-.1z" fill="url(#SVGID_20_)"/><linearGradient id="SVGID_21_" gradientUnits="userSpaceOnUse" x1="357.6" y1="427.5" x2="363.31" y2="427.5"><stop offset="0" stop-color="#999898"/><stop offset="1" stop-color="#3d3d3d"/></linearGradient><path d="M363.3 399.1l-.1 1.2v.4l-5.2 54.7v.5h-.3v-.4l5.2-54.7v-.4l.3-1.2.1-.1z" fill="url(#SVGID_21_)"/><linearGradient id="SVGID_22_" gradientUnits="userSpaceOnUse" x1="360.013" y1="427.907" x2="365.678" y2="427.907" gradientTransform="matrix(1.0001 -.00074 -.00074 1.0077 .27 -2.817)"><stop offset="0" stop-color="#999898"/><stop offset="1" stop-color="#3d3d3d"/></linearGradient><path fill="url(#SVGID_22_)" d="M365.7 399.8l-.3-.1-5.4 56.8h.3z"/><linearGradient id="SVGID_23_" gradientUnits="userSpaceOnUse" x1="344.418" y1="427.306" x2="350.083" y2="427.306"><stop offset="0" stop-color="#999898"/><stop offset="1" stop-color="#3d3d3d"/></linearGradient><path fill="url(#SVGID_23_)" d="M350.1 399.2l-.3-.1-5.4 56.3.3.1z"/><linearGradient id="SVGID_24_" gradientUnits="userSpaceOnUse" x1="340.171" y1="426.306" x2="345.837" y2="426.306"><stop offset="0" stop-color="#999898"/><stop offset="1" stop-color="#3d3d3d"/></linearGradient><path fill="url(#SVGID_24_)" d="M345.8 398.2l-.2-.1-5.4 56.3.3.1z"/><linearGradient id="SVGID_25_" gradientUnits="userSpaceOnUse" x1="342.418" y1="426.306" x2="348.083" y2="426.306"><stop offset="0" stop-color="#999898"/><stop offset="1" stop-color="#3d3d3d"/></linearGradient><path fill="url(#SVGID_25_)" d="M348.1 398.2l-.3-.1-5.4 56.3.3.1z"/><linearGradient id="SVGID_26_" gradientUnits="userSpaceOnUse" x1="341.92" y1="398.15" x2="357.37" y2="398.15"><stop offset="0" stop-color="#bc8210"/><stop offset=".998" stop-color="#feca36"/></linearGradient><path d="M357.4 398.3l-2-.2-5.2-.5-8.1-.7-.1 1.5h.2l3.4.3h.3l1.9.2h.3l2.5.2 1.7.2h.8c.7-.5 1.6-.8 2.3-.8h.4c.5.1.9.2 1.2.2h.2c.1 0 .1-.1.2-.2-.1-.1-.1-.1 0-.2z" fill="url(#SVGID_26_)"/><linearGradient id="SVGID_27_" gradientUnits="userSpaceOnUse" x1="362.93" y1="399.855" x2="368.95" y2="399.855"><stop offset="0" stop-color="#bc8210"/><stop offset=".998" stop-color="#feca36"/></linearGradient><path d="M369 399.3l-.2 1.6h-.1l-3-.3h-.3l-2.1-.2h-.3l.3-1.2v-.3l5.7.4z" fill="url(#SVGID_27_)"/><linearGradient id="SVGID_28_" gradientUnits="userSpaceOnUse" x1="384.039" y1="428.93" x2="323.668" y2="428.93"><stop offset="0" stop-color="#bc8210"/><stop offset=".998" stop-color="#feca36"/></linearGradient><path d="M381.1 404.9c-1.3.4-3.3 1.8-6.5-.2 0 0 3.2 19.7 3.5 21.5.3 1.8 3 15-.6 23.8s-8.4 14.2-17.6 17.7c-9.2 3.6-20.6-.8-24.2-3.5-3.6-2.7-8.5-7.6-11-15.1s-.3-17.5 2-23.8c2.2-6.3 8.8-24.1 8.8-24.5 0-.4-1.7 1.4-4.1.5s-5.5-2.9-4.3-8.2c1.2-5.3 9.2-5.5 12.2-2.3l1 1c1.4 1.9 1.9 5 1.7 7.4-.3 2.8-8.1 21.5-10.2 27-2.2 5.5-1.5 13-1.4 13.9.1.9 2.4 8.5 9.3 12.3 6.8 3.8 13.3 3.4 16 3.2 2.6-.2 9.4-1 14.5-8.2 5.2-7.1 3.3-17.9 2.8-21-.5-3.1-3.4-14-4.3-21.1-.9-7.1 2-9.3 2-9.3s3.2-3.6 6.2-3.2c3 .4 6.4 1.9 7 5.2.7 3.3-1.5 6.5-2.8 6.9z" fill="url(#SVGID_28_)"/><path class="st49" d="M373.6 442.4c-.3.8-1.3 6.3-8.4 11.3-7.1 5-16.8 3.3-20.6 2.4-3.8-.8-12.6-6.2-14.6-14.2-2.1-8 .8-15.7 2.4-20.2 1.6-4.5 7.4-18.2 8.8-22.6 1.3-4.2-1.5-7.9-1.9-8.2.4.3.7.6 1 1 1.4 1.9 1.9 5 1.7 7.4-.3 2.8-8.1 21.5-10.2 27-2.2 5.5-1.5 13-1.4 13.9.1.9 2.4 8.5 9.3 12.3 6.8 3.8 13.3 3.4 16 3.2 2.6-.2 9.4-1 14.5-8.2 5.2-7.1 3.3-17.9 2.8-21-.5-3.1-3.4-14-4.3-21.1-.9-7.1 2-9.3 2-9.3-1.5 3-1.4 5-1.5 6.7-.1 1.7 2.1 12.3 4.2 21.7 2.2 9.3.5 17.1.2 17.9zM335.6 400.8c0 .1-.2.6-.5 1.5-3.8.8-5.8-.9-7.2-2.9-1.4-2.1-1-4.5-1-4.5l.1.1c-.2 3.9 2.4 5.5 4.6 6.4 2.3.8 4-.9 4-.6zM381.7 405c-2.8 2.6-5.7 1.6-6.9 1-.1-.9-.2-1.4-.2-1.4 3.2 2 5.2.6 6.5.2 1.3-.4 3.5-3.6 2.8-6.8.2.4 1.2 3.9-2.2 7z"/><path class="st49" d="M355.4 397.9l2 .2v.2l-2-.2-5.2-.5-8.1-.7-.1-.3h.1l8.1.8 5.2.5zM369.1 399.1l-.2.2-5.7-.5v-.2l5.7.5h.2zM353 399.4c-.1.1-.3.2-.4.4h-.5l-1.6-.1-.5-.1h-.3l-1.8-.2h-.3l-1.9-.2h-.3l-3.4-.3-.2-.4h.2l3.4.3h.3l1.9.2h.3l2.5.2 1.7.2H353zM368.8 400.9l-.1.3h-.1l-3-.3h-.3l-2.1-.2h-.4c0-.1.1-.2.1-.3v-.1h.3l2.1.2h.3l3 .3.2.1z"/></g><g id="ombres_torse" class="st27"><path class="st28" d="M278.5 289.1c-3.4 2-6.9 3.9-10.5 5.8-2.2 1.1-4.5 2.2-6.9 1.8-1.7-.3-3.1-1.3-4.8-1.8-2-.7-4.2-.6-6-1.7-.2-.1-.5-.3-.7-.4-.2-2.5-.6-4.9-1-7-.7-3.7-1.5-9.6-2.1-15.4 1.8-.2 2.3 2.8 2.9 4.2 2.2 5.2 4.9 10.2 8 15 .3.5.7 1 1.2 1.2.5.2 1 .2 1.5.2 3.8-.2 7.5-1.4 11.2-2.7 3.4-1.2 6.8-2.3 10.1-3.5.6 1.7-1.2 3.3-2.9 4.3z"/><path class="st29" d="M257.9 269.2c-.6.9-1.9 1.1-3 .8-1-.3-1.9-1-2.8-1.7-1.7-1.4-3.4-2.8-4.6-4.7-1-1.6-1.7-3.4-2.2-5.2-.3-3.6-.5-6.2-.5-6.5 0-1-3.9-4.2-3.8-3.4 0 .1-.1.6-.5 1.4-1-1-2-2.2-2-3.3 0-1.9 1.9-1.5 3.1-.9 4 2 6.7 8.3 8.3 12.2 1 2.3 1.8 4.8 3.5 6.5 1.5 1.7 3.8 2.7 4.5 4.8zM339.9 269.3c-.3 5.3 2.1 10.4 2.3 15.7 0 1.1-.3 2.3-1.1 3-.2.2-.4.3-.5.4 0-1 0-1.7-.1-1.9-.4-.7-3.5-7.2-4.2-12.2-.6-4.3-1.7-4.4-2-4-.5-.2-1-.3-1.5-.3-.9.1-1.8.5-2.7.9-3.2 1.6-6.4 3.3-10 4-3.5.7-7.4.2-10.2-2-.3-.2-.4-.6-.4-.9.1-1 1.3-1.3 2.1-.8 1.7 1.1 6.9-1.6 8.1-2.3 3-1.8 5.5-4.5 7.1-7.7 3.2-6.6 2.5-15.2 7.7-20.4 1-1 2.1-1.8 3.5-2.1 3-.7 6 1.5 7.3 4.2 2 4.1.8 9.1-.9 13.3-1.9 4.4-4.2 8.6-4.5 13.1z"/><path class="st28" d="M330 265c.4-1 .7-2.1 1.1-3.1 2.2-5.8 7-10.1 11-14.9.6-.7 1.1-1.4 1.3-2.3s-.1-1.9-.9-2.3c-1.1-.5-2.3.4-3.2 1.3-1.8 1.8-3.7 3.5-5 5.7-.6 1-1.1 2.1-1.6 3.1l-3.3 6.9c-1.4 2.9-2.9 6-5.3 8.1-2.5 2.1-5.7 3.1-8.3 5.1-2 1.6 2.1 1.1 2.9 1 1.6-.3 3.2-.8 4.7-1.6 2.9-1.4 5.3-3.9 6.6-7z"/><path class="st29" d="M297 266.7c2.5.7 5 1.3 7.6 1.4.5 0 1.1 0 1.5.4.4.3.5 1.1 0 1.3-1.6 0-3.3.1-4.9.5-.5.1-.9.3-1.4.4-1.9.3-3.7-.4-5.3-1.4-.9-.6-6.2-4.4-4.7-5.7.4-.4 6 2.8 7.2 3.1z"/><path class="st28" d="M294.4 293.3c2.5 1.7 5.1 3.2 7.8 4.5.7.3 1.4.7 2 1.3.5.5.7 1.2.9 1.8.9 3.1.6 6.4-.7 9.3-.2.4-.4.7-.7 1-.4.3-1 .2-1.6.2-5.1-.6-10.4-.9-15.1 1.3 2 1.3 4.5 1 6.8.9 3.2-.1 7 .6 8.2 3.5.7 1.6.3 3.5-.6 5-.9 1.5-2.1 2.7-3.4 3.9-2.6 2.4-5.2 4.9-7.7 7.3 4.7.2 9.5-1.9 12.5-5.5 4.5-5.4 4.9-12.9 4.8-19.9 0-3.3-.2-6.7-1.4-9.8-1.4-3.6-4.4-6.4-8-7.9-1.3-.5-4.1-1.7-5.4-.7-1.8 1.1.3 2.9 1.6 3.8zM320.3 280c-1.1.5-2.2.9-3 1.8-.8.9-.9 2.4 0 3.1.3.2.7.3 1 .5 2 .9 2.2 3.8 1.3 5.8-1 2-2.8 3.4-4.1 5.1-1.5 1.8-2.5 4.5-1.2 6.5s4.4 2.5 5.3 4.8c.4 1 .2 2.1 0 3.2-.4 2.5-.4 5-.1 7.5.1 1.3.5 2.7 1.6 3.4.6.4 1.4.4 2.1.5 1.2.1 2.5.1 3.6-.3 1.5-.6 2.5-2 3.1-3.5.5-1.5.6-3.2.7-4.8.6-11.2 1.7-22.4 3.4-33.5.5-3.5 1.1-7.1.7-10.6-.1-.9-4.3.3-4.7.6-1.4.9-1.4 1.9-2.2 3.3-1.7 2.8-4.5 5.2-7.5 6.6z"/><path class="st29" d="M270.9 268.7c4.9.7 10-1.1 13.9-4.2.5-.4 1-.8 1.2-1.4s.2-1.3-.3-1.7c-.4-.3-1-.3-1.5-.2-4.1.3-8.2.7-12.3 1-3 .3-6.2.5-9 1.7-.3.1-.6.3-.8.6-.4.7.5 1.5 1.3 1.8-.1 0 2.4 1.7 7.5 2.4z"/><path class="st28" d="M269.5 302.7c2.1.8 4.5.7 6.7 1.3 4.5 1.2 8 5.3 8.6 9.9 0 .3 0 .6-.1.8-.2.2-.4.2-.6.3-3.4.3-5.7-3.6-9.1-4.1-1.1-.2-2.2.1-3.4.1-2.7.1-5.5-1-7.4-2.9-1.8-1.8-4.6-7.2-2.3-9.6 2-2.2 5.5 3.4 7.6 4.2z"/></g><path id="ombre_bras_droit" class="st32" d="M365.5 377.7c-.2.5-.6.8-1.1.6-1.5-.6-4.7-6.4-11.6-8.6-.4-.1-.8-.3-1.2-.6.7-1.1 1-2.9.6-6-.4-3.8-4.2-26-6.3-31.8-2.1-5.8-3.8-16.6-4.1-19.4-.3-2.8-1.1-7.3-1.4-9.4-.2-1.7.2-10.1.1-13.9.2-.1.4-.2.5-.4.8-.8 1.2-1.9 1.1-3-.2-5.3-2.6-10.4-2.3-15.7.3-4.6 2.6-8.7 4.3-13 1.7-4.2 2.8-9.2.9-13.3-1.3-2.7-4.3-4.9-7.3-4.2 0 0 11.9-15.1 13.3-21.5 2.1 5.3 5.2 15.5 4.3 26.2-.6 6.8 1.9 17.8 2.1 20.1s.4 19.9.6 22c.2 2.1 5.3 13.9 5.6 28.3.4 14.5 0 31.5-.2 35.1-.2 3.6-.2 18.8.6 22.3.3 1.4.9 3.8 1.5 6.2z"/><path id="ombre_bras_gauche" d="M240.1 249.9c-2.2 3.2-7.2 10.8-9.7 15.6-3.2 6.2-9.8 20.3-11.3 24.2-1.1 3-16.2 34.6-24 50.7v-.2c-.3-5.2 1-25.9 1.2-28.6.2-2.7 3.1-11.5 3.8-12.8.7-1.2 3.7-8.5 4.3-12.2.7-3.7 4.3-9.3 4.5-10.9.2-1.6 3.1-16.4 5.3-22.6 2.1-6.2 5.2-12.3 5.4-12.6.3-.3 1.5-10.5 3.8-16 1.6-3.8 4-8.2 8.2-11.6 5 4.5 8.5 13 8.4 19-.1 4.8-1.6 9.6-.8 14.3.1 1.2.5 2.5.9 3.7z" opacity=".03" fill="#894115"/></g><g id="Calque_5"><g id="fond"><defs><path id="SVGID_29_" d="M-.1 0h595.3v652.8H-.1z"/></defs><clipPath id="SVGID_30_"><use xlink:href="#SVGID_29_" overflow="visible"/></clipPath><g clip-path="url(#SVGID_30_)"><linearGradient id="SVGID_31_" gradientUnits="userSpaceOnUse" x1="296.865" y1="241.83" x2="296.865" y2="-3.127"><stop offset="0" stop-color="#bedaf3"/><stop offset="1" stop-color="#86b7e3"/></linearGradient><path fill="url(#SVGID_31_)" d="M-7.2-3.1H601v245H-7.2z"/><linearGradient id="SVGID_32_" gradientUnits="userSpaceOnUse" x1="304.468" y1="288.851" x2="304.468" y2="233.477"><stop offset="0" stop-color="#07719c"/><stop offset="1" stop-color="#03b5d5"/></linearGradient><path d="M.2 281.2v-46.9s38.3 0 45.4.8c7.1.8 39 1.9 46.2 1.5s145.7.8 152-.4 142.3-1.9 147.2-1.5c4.9.4 60.1 0 69.5.4 9.4.4 113.8-1.1 119.4 0 5.6 1.1 23.3-1.5 23.3-1.5l5.6 52.6-233.3 2.8-162.2-1.7-125.6 1.1-87.5-7.2z" fill="url(#SVGID_32_)"/><path d="M610.5 294.7c-3.9.1-20.3.4-24 .4-4.1 0-45.8-2.2-49.9-3s-34.9 1.5-40.5 2.2-34.9 1.5-42.4-.4-25.2-.4-32.3-.4-24 .4-31.5.4-21.4 1.1-44.7-1.9c-23.3-3-19.1.8-25.5 1.5-6.4.8-36.4 1.9-51 1.1-14.6-.8-30 1.1-36.4 1.5-6.4.4-42.4-2.6-48-2.6-5.6 0-14.6 1.1-16.1 0-1.5-1.1-36.8 1.1-43.9 2.2-7.1 1.1-50.3-1.1-57.4-2.6-7.1-1.5-11.6-2.6-20.3-2.3-8.6.4-23.6 3.4-29.6 1.9-4.2-1-14.1-1.6-19.7-1.8-.4-3.5-.8-7-1.2-10.6 16.3-3.2 33.1-1.2 49.6.1 28.4 2.3 57 2.6 85.4.4 4.9-.4 9.9-.8 14.9-.5 4 .2 7.9 1 11.9 1.4 9.6.9 19.2-.2 28.8-.3 15.7 0 32.8-1.2 48.2 1.8 8.1 1.6 15.5.8 23.7.2 14.4-1 28.8-1.1 43.1-.6 8.3.3 16.6.8 24.8-.3 4.6-.6 9.1-1.6 13.8-2.2 4.1-.5 8.2-.5 12.3-.6 20.8-.3 41.7-.6 62.2 2.6 19.3 3 38.9.2 58.4-2 5-.6 10.1-1.3 15.2-1.3 4.5 0 9.1.4 13.6.8 26.9 2.3 54.1 1.6 80.9-1.9 9.2-1.2 18.8 1.4 28 2.5 0 4.9.2 9.6-.4 14.3z" fill="#e8f3fd"/><linearGradient id="SVGID_33_" gradientUnits="userSpaceOnUse" x1="302.074" y1="360.93" x2="302.074" y2="290.821"><stop offset="0" stop-color="#00a196"/><stop offset="1" stop-color="#009bc8"/></linearGradient><path d="M-3 347.4l-4.2-56.6s17.9.5 23.9 2 21-1.5 29.7-1.9c8.6-.4 13.1.8 20.3 2.3s50.3 3.8 57.4 2.6c7.1-1.1 42.4-3.4 43.9-2.3s10.5 0 16.1 0 41.7 3 48.1 2.6c6.4-.4 21.8-2.3 36.4-1.5 14.6.8 44.7-.4 51.1-1.1 6.4-.8 2.3-4.5 25.5-1.5 23.3 3 37.2 1.9 44.7 1.9s24.4-.4 31.5-.4 24.8-1.5 32.3.4c7.5 1.9 36.8 1.1 42.4.4s36.4-3 40.5-2.3c4.1.8 45.8 3 49.9 3 4.1 0 24.8-.4 24.8-.4l-9.6 52.7-139.4 11-294.8 2.5-147-6.8-23.5-6.6z" fill="url(#SVGID_33_)"/><linearGradient id="SVGID_34_" gradientUnits="userSpaceOnUse" x1="302.072" y1="360.931" x2="302.072" y2="290.821"><stop offset="0" stop-color="#00a196"/><stop offset="1" stop-color="#009bc8"/></linearGradient><path d="M611.4 294.7l-9.6 52.7-139.4 11-294.8 2.5-147-6.8-23.6-6.7-4.2-56.6s1.7.1 4.2.2c0 .1 0 .3.1.4 129.5 24.5 277 12.7 419.6 19.1 16.2.7 32.4-1.8 48.6-2.8 48.1-2.8 96.6-5.3 144.6-8.7.3-1.4.6-2.9.8-4.3h.7z" fill="url(#SVGID_34_)"/><linearGradient id="SVGID_35_" gradientUnits="userSpaceOnUse" x1="307.002" y1="345.726" x2="307.002" y2="674.306"><stop offset="0" stop-color="#fce8ee"/><stop offset="1" stop-color="#d5b5a5"/></linearGradient><path d="M-20.7 345.7s116.6 4.2 132.6 3.4 54.9 1.7 61.7 1.7c6.8 0 223-.8 239.9-2.5 16.9-1.7 33.8-2.5 38-.8 0 0 63.4 5.1 80.2 2.5 16.9-2.5 65-1.7 70.1-2.5 5.1-.8 32.9 81.1 32.9 81.1L630.5 589l2.5 61.7-47.3 23.7L13.9 666l-26.2-20.3-8.4-300z" fill="url(#SVGID_35_)"/><g id="rochers"><path d="M336 349.7l-31 1.2-20.8.8h-3.3l-10-.1-16-.1h-1.6l-3.9.1-24.9.7L181 351l-7.5-.2-2.5.1-18.9.5c.2-1.4 1-2.7 2.1-3.6l18.4-12.8s12.4-6.8 14.1-5.6c1.6 1.1 6.3 4.7 5.3 6 0 .1-.1.1-.2.1-1.7 1.1 35.5.6 40 3.4s10.1-1.1 15.2 2.2c4.3 2.9 14.8 3.3 24.4 2.7h.2c1.6-.1 3.2-.2 4.7-.4 0 0 1.4 3.4 2.8 3.7 1.4.3 3.9-5.1 6.8-3.4.4.2.7.5 1 .7 1.3 1.1 1.9 2.4 2.2 3.2.1.4.2.7.2.7l5.6-3.4s10.1-1.7 12.4-.6c2.2 1.1 13.8-.3 15.8 0 1 .1 3.1.5 5.2.9 2 .4 3.9.8 4.4 1.1.8.6 3.3 3.4 3.3 3.4z" fill="#e1d9ed"/><path class="st59" d="M192 335.4c-.1.1-.1.1-.2.1s-3.6-.1-5.1-.2-2.6 2.2-2.6 2.2c-1.7-3.3 2.6-8.3 2.6-8.3 1.7 1.3 6.4 4.9 5.3 6.2zM181 351l-7.5-.2-2.5.1-3.2.1s11.4-12.1 12-11.9c.6.2.8.3.8.3l.4 11.6zM213.2 342s-22.1 2.1-21 2.9c1 .8 6.3 3.1 8 3.8 1.7.8 5.3 2.7 5.9 3s2.5 0 2.5 0-.7-1.7.5-1.6c1.1.1 1.7 1 2 1.7.3.7 17.8.6 17.8.6s5.1-7.7 6.3-8.3c1.2-.6 5.6-3.2 6.8-3.3 1.1-.1-6.9-.5-8.8.8-1.9 1.2-5.9 4.1-6.7 4-.8-.1-.2-1.3-.7-1.1-.5.2-5.3 3.8-11.5 2.5 0 0 1.2-1.6 5.7-1.1 0 0-.1-2.2-3.2-1.9-3.1.3-11.3 1.8-16.3 1.1s12.7-3.1 12.7-3.1zM253.4 351.4l-3.9.1c1-1.1 2.9-3.5 3.2-4.5.1-1 .5 3 .7 4.4zM280.9 351.6l-10-.1c-.1-.1-.2-.3-.2-.4-.3-2 .5-5.9.8-7.2h.2c.8 4.4 2.3 5.2 3.2 5.2.9 0 2.9-1.7 3.7-1.6.6.1 2.1 3.8 2.3 4.1zM289.1 347.6c-1.6 1.3-4.1 3.8-4.1 3.8-.5-2.4 1-5.5 1.9-6.9 1.2 1 1.9 2.3 2.2 3.1zM336 349.7l-31 1.2c.4-.7.9-1.4 1.4-1.8 1-.8 4.3-2.4 11.9-3.5 3.7-.5 7.3-.5 10-.4 2 .4 3.9.8 4.4 1.1.8.6 3.3 3.4 3.3 3.4z"/></g><g id="ombres_palmiers"><path class="st60" d="M1.6 503.3c71.5 21.8 150 23.8 224 13.6 74-10.1 168.9-17.2 220.8-30.9-8.8 2.9-16.6 8.4-22.5 15.6 43.6 7.7 87.9 12.9 132 9.6 44.1-3.3 88.2-15.6 124.7-40.6-43.7-10.5-88.2-17.5-133-20.9 23.3-3.9 46.7-6.4 70.3-7.7-38.9-10.9-80.6-12-120-3.2-12.8 2.9-25.4 6.7-38.5 7.9-14.5 1.3-29.1-.9-43.6-2.1-19.6-1.6-39.3-1.4-58.8.5-25.1 2.5-50.1 8-75.3 7.8-16.2-.1-32.3-2.4-48.5-3.2-18-.9-36 .1-54 1.2-37.4 2.2-74.8 4.3-112.3 6.5 51.6 2 103.3 4 154.9 5.9-53.9-1.2-107.9 1.8-161.4 9 127.5 9.3 255.5 3 383.2-3.4-5 3.7-11.1 5.6-17.2 5.8-6.5.1-13 .6-19.4 1.8-38.7 7.6-76 11.3-115.9 12.8-98 3.8-194.7-11.2-289.5 14z"/><path class="st60" d="M606.2 420.7c-37.7.9-75.4 1.8-113.1 2.6-14 .3-27.9.7-41.9.4-33.1-.6-66.1-4.3-99.2-5.9-61.6-2.9-123.4 1.9-184.9-2.5-37.2-2.7-74.7-7.3-111.9-9.8l-56.4-3.9c-2.6-.2-5.4-.3-7.4 1.3-1.5 1.2-2.2 3.2-2.7 5-2.3 7.9-2.3 17.9 4.2 22.9 5.9 4.5 14.2 3 21.5 1.6 47.9-8.8 97.1 1.1 145.9 1.3 18.8.1 37.6-1.3 56.4-2.7l81.9-6c13.2-1 26.4-1.9 39.6-1 13.1 1 26 3.9 39 6.1 29 5 58.6 6.6 88 4.9-61.9 13.2-126-5.8-189.2-2.3-21.3 1.2-42.5 4.9-63.8 5.9-61.3 2.9-123.1-16.7-183.4-5.7-11.4 2.1-42.2 6.9-45.8 17.9 23.9-2.4 65.6-4.8 89.5-7.2 12-1.2 24.1-2.4 36.2-2.3 13.3.1 26.6 1.7 39.9 2.4 31.4 1.6 62.8-2.3 94.3-3.3 73.7-2.4 154.8 19.9 227.2 5.9 15.2-2.9 29.5-4.9 44.9-6.4 29.4-2.9 58.7-5.7 88.1-8.6 1.3-.1 2.8-.3 3.7-1.4 1.8-2.1-1.4-6.2-.6-9.2z"/><path class="st60" d="M603 386.4c-18.3.6-36.1 6.7-54.4 8.3-15 1.4-30.1-.3-45.1-1.9l-155.4-17.1c.3 2.3-.7 4.7-2.4 6.2-40.5-5.5-81.6-2.2-122.3 1.2 49.9 5.5 100.2 8.2 150.4 8.3-73.9 15.5-150.4 8.8-225.7 1.9-15.5-1.4-29.6.7-45.1-1.2 21.2-1.9 42.3-3.8 63.5-5.7-9.6-1.2-19.3-1.2-28.9-.2 12.5-1.8 24.9-3.6 37.4-5.4-20.4-1.8-41-3.7-61.4-1.5 12.8-.4 25.7-1.7 38-5.2-18.5-3.2-37.7 7.5-56 3-11.1 1.1-23.2.3-33.8-2.9-.4-1.8 1.8-3 3.6-3.5 23.4-6.1 47.7-8.2 71.8-6.2-9.3-2.9-19.2-3.9-28.9-3-11.5 1-22.8 4.7-34.4 5.2-10.1.4-20.1-1.7-30.1-2.7-14.1-1.5-28.3-1.1-42.4-.8-2.6.1-5.5.3-7.3 2.1-1.4 1.4-1.8 3.4-2 5.4-.7 5-.6 10 .1 14.9.6 4.4 2.3 9.2 6.3 11.1 2 .9 4.2 1 6.4 1 19.9.1 39.8.3 59.6.4 11.2.1 22.4.2 33.6 1.3 22.9 2.2 45.4 8.7 68.4 8.3 18.2-.3 36.6-4.8 54.5-1.5 50 9.3 96.9 10.1 147.7 10.2 28.1.1 56.2-4.1 84.2-2.1 24.9 1.8 49.3 8.4 74.2 8.4 15.2 0 30.4-2.5 45.6-1.5 10.9.7 22.8 2.9 31.9-3 5.7-3.8 9.3-10.7 9-17.6-.3-6.9-4.3-13.5-10.3-16.8-1.8-.9-.3.7-.3 2.6z"/></g><path d="M-.2 0s46.6 45 51.1 53.3c0 0-24.8-19.1-27.8-20.6s42.4 46.9 45 55.9c0 0-19.1-19.5-20.6-20.6-1.5-1.2 25.2 28.5 25.9 31.8 0 0-27.8-29.7-32.3-31.5 0 0 27 33.8 27 36.4 0 0-28.5-32.3-33.8-34.5 0 0 32.7 35.3 34.5 43.2 0 0-36.4-43.2-41.3-44.3 0 0 39.4 47.3 41.3 52.6 0 0-22.5-27.8-25.2-28.5C41.1 92.3 79 134 79 135.1c0 0-22.9-23.7-27-25.2 0 0 17.3 27.4 18 29.7l-11.6-12.4s20.6 36 19.5 36.8c0 0-15-18.8-17.3-19.5 0 0 16.9 23.3 17.6 25.9 0 0-12.8-12.4-17.3-13.5 0 0 10.9 15.4 12 20.3 0 0-32.3-39.4-34.5-39.4 0 0 26.3 35.3 25.9 49.2 0 0-13.9-29.3-24-38.3 0 0 18.4 31.2 20.6 44.3 0 0-16.5-31.9-20.3-34.2 0 0 16.1 26.7 15.8 36.8 0 0-13.1-29.3-15.8-30.4 0 0 12.4 27.8 13.1 34.9 0 0-12.8-30.4-15-30.8 0 0 9 26.3 7.9 36.8 0 0-4.1-25-7.5-26.3 0 0 3.8 35.9 0 40 0 0-2.3-17.8-3-19.1 0 0-4.5 18.8-7.7 20.5 0 0 6.4-18.2 6.2-19.1-.2-.9-4.7 11.1-6.9 12.2 0 0 5.6-13 5.4-14.3-.2-1.3-7.5 13.7-11.1 16.3 0 0 7.7-12.2 7.7-13.7 0 0-6.2 6.6-9 6.9 0 0 6.8-5.6 8.3-8.8 0 0-4.1 3.4-6 3.9 0 0 10.1-10.7 10.9-14.8 0 0-11.1 15.2-13.5 16.3 0 0 14.3-20.8 14.6-22 .4-1.1-14.8 18.4-15.8 20.3 0 0 6.4-13.5 7.1-15.4 0 0-9 7.5-9.8 8.6 0 0 3.6-9.9 6.4-11.6 0 0-6.4 5.4-8.3 7.7s6.8-13.1 8.1-13.5c0 0-9 10.1-9.9 12.6 0 0 5.3-13.1 6.2-13.7 0 0-8.4 9.4-9.9 12.2 0 0 5.4-9.8 6.9-11.1 0 0-11.5 10.7-12.6 13 0 0 10.7-21.2 13.5-25.2s6.8-9.6 6.8-9.6L-.3 189s11.6-23.5 13.5-27.4c0 0-16.5 17.1-17.3 19.1 0 0 18.4-31 23.5-34.4 0 0-23.8 24.6-24.8 26.7-.9 2.1 15.4-27 18.6-28 0 0-21.2 21-23.5 24.6 0 0 28-34.5 29.5-35.5 0 0-31.9 30.6-32.7 31.9 0 0 23.8-30.8 26.3-32.5 0 0-21 16.5-23.7 21.2 0 0 15-21.8 17.1-23.7 0 0-17.8 18.6-19 19.5-1.1.9 18.2-22.1 19.1-22.3 0 0-24.8 22.3-25.3 24.4 0 0 15.4-24.6 22-28.5 0 0-22.9 19-25 21.2 0 0 7.9-14.6 15.2-19.7 0 0-16.3 11.8-18 14.1-1.7 2.3 29.8-41.5 37-45.8 0 0-29.1 27.6-32.8 30.8 0 0 15.2-29.8 22-35.3 0 0-26.3 26.8-28.5 30.4 0 0 28-44.3 31-46.2 0 0-24.2 26.3-27 29.7 0 0 25.9-41.3 28.7-43.7 0 0-18.8 20.3-20.6 22.9 0 0 19.1-30.8 21.2-32.1 0 0-19.9 19.9-21.4 22.7 0 0 19.5-29.1 19.7-28.3 0 0-20.5 23.5-22.5 27.8 0 0 14.1-30.4 19.7-33.4 0 0-15.8 12.8-16.5 14.8-.8 2.1 14.1-23.7 16.5-24.8 0 0-9.9 4.7-13.3 9l9.8-15L-.2 0" fill="#656620"/><linearGradient id="SVGID_36_" gradientUnits="userSpaceOnUse" x1="143.888" y1="219.078" x2="143.888" y2="179.671"><stop offset="0" stop-color="#b0d0ef"/><stop offset="1" stop-color="#fffdfc"/></linearGradient><path d="M80.1 197.7c3.8-.9 7.6-1.7 11.5-2.6 10.2-2.3 20.5-4.5 30.9-3.5 3.8.4 7.6 1.2 11.3.3 5.4-1.3 9.2-5.8 14.1-8.5 5-2.8 11.2-3.4 16.7-1.8 3 .9 6.1 2.5 9 1.5 1.5-.5 2.7-1.5 4-2.2 3.1-1.7 7-1.7 10.1-.1 2 1 3.7 2.7 5.7 3.7 5.7 2.8 12.4 0 18.8-.1 8.1-.1 15.5 4.1 22.5 8.3 2.3 1.4 4.7 2.8 6.1 5.1 1.4 2.3 1.3 5.7-.8 7.2-1.6 1.2-3.7 1-5.6 1.6-3.1.9-5.3 3.5-8.2 4.9-1.7.8-3.5 1.2-5.3 1.6l-16.5 3.6c-2.3.5-4.7 1-7.1 1.1-2.8.1-5.7-.4-8.5-.7-6.5-.7-13-.4-19.5-.2l-41.7 1.8c-8 .3-16 .7-24-.4-7-1-13.8-3-20.9-3.1-7.4-.1-14.7 1.9-22.1 2.1-5.7.1-12.5.4-14.1-6.2-1-4 .2-6.7 4.1-8.2 4.1-1.5 8.7-.5 12.9-.3 6.2.2 10.7-3.6 16.6-4.9z" fill="url(#SVGID_36_)"/><linearGradient id="SVGID_37_" gradientUnits="userSpaceOnUse" x1="540.942" y1="214.907" x2="540.942" y2="160.612"><stop offset="0" stop-color="#b0d0ef"/><stop offset="1" stop-color="#fffdfc"/></linearGradient><path d="M482.9 182.2c3.1-.5 6.3-.4 9.4-1 9.1-1.6 16.6-8.4 25.7-9.7 4.5-.6 9.1.1 13.7 0 11.4-.3 22.2-6.2 33.6-5.6 5.2.3 10.5 1.9 15.6.7 4.4-1 8.1-4.1 12.4-5.3 7.3-2.1 15.2 1 21.6 5.2 6.4 4.1 12.4 9.3 19.6 11.7 2.2.7 4.7 1.3 6.3 3.1.9 1 1.4 2.3 1.9 3.6 1.3 3.4 2.6 7 2.5 10.6s-1.8 7.5-5.2 9c-2.2 1-4.8.8-7.2.6-13-.9-26.3-.3-38.6 4.1-3.9 1.4-7.8 3.2-11.8 4.3-12.4 3.3-25.4-.4-38.2-1.8-33.8-3.9-68.2 7.5-101.7 1.7-14.3-2.5.5-13.9 6.8-16.1 11.4-4.2 21.7-13.1 33.6-15.1z" fill="url(#SVGID_37_)"/></g></g><g id="apollon"><defs><path id="SVGID_38_" d="M-.2 0h594.7v652.8H-.2z"/></defs><clipPath id="SVGID_39_"><use xlink:href="#SVGID_38_" overflow="visible"/></clipPath><linearGradient id="SVGID_40_" gradientUnits="userSpaceOnUse" x1="209.743" y1="321.464" x2="379.426" y2="351.384"><stop offset="0" stop-color="#f6af9a"/><stop offset="1" stop-color="#fbd9cd"/></linearGradient><linearGradient id="jambe_gauche_3_" gradientUnits="userSpaceOnUse" x1="242.284" y1="554.253" x2="288.397" y2="562.384"><stop offset="0" stop-color="#e0937c"/><stop offset="1" stop-color="#f8bba2"/></linearGradient><path id="jambe_gauche_1_" d="M282.2 596.4c-1.4 1.6-3 2.9-4.5 3.8-2.9 1.9-5.8 2.6-7.4 3.1-2.5.7-12.8 6.2-14 8-1.2 1.8-14.2 10.7-16.7 8.9-2.5-1.8-4.6-1.8-5.2-2.5-.5-.7-1.2-2.7-1.6-3.2-.4-.5-.2-4.4-.2-5.2 0-.7 2.5-2.7 3.7-3.4 1.2-.7 13-8.5 14.6-9.8.7-.6 2.4-2.4 4.1-4.4 2.1-2.5 4.2-5.4 4.4-6.6.4-2.1 3.2-14 1.6-18.9s-6-26-6-28.6c0-2.7-1.6-27.9 0-35.2.3-1.5 1.6-2.7 3.5-3.7 3-1.6 7.5-2.6 11.7-3.2 5.9-.9 11.3-1.1 11.3-1.1s-3 9.2-2.7 12.1c.4 2.9 2.8 16.4 2.8 18.9s-2.7 16-2.7 18.3c0 2.3-1.4 30.2-.9 33.4s6.2 17 4.2 19.3z" clip-path="url(#SVGID_39_)" fill="url(#jambe_gauche_3_)"/><linearGradient id="SVGID_41_" gradientUnits="userSpaceOnUse" x1="251.047" y1="233.429" x2="334.98" y2="233.429"><stop offset="0" stop-color="#e5c573"/><stop offset="1" stop-color="#fff0b1"/></linearGradient><path d="M333.9 273.9c-.3.7-.6 1.4-1.2 2-.9.9-2.3 1.5-3.7 1.9-4.2 1.2-9.1 1.6-11.8 4.5-1.9 2-2.3 5.1-5.1 6.3-.7.3-1.6.5-2.4.6-7.3 1.3-14.7 2.6-22 3.9-1.5.3-3.1.5-4.4-.1-1.3-.6-1.9-1.7-2.7-2.7-5.6-6.7-20-4.2-26.2-10.5-4.8-4.8-2.2-12 .7-17.7 3-5.7 6.1-12.5 2.1-17.8-2.1-2.7-5.8-4.7-6.1-7.9-.3-3.8 4.7-6.5 6.3-10.1 2.7-6.1-5.1-12.9-2.7-19.1 2.3-5.8 12.7-8.7 12.3-14.8-.2-2.8-2.8-5.4-1.9-8.1.6-2.1 3.1-3.4 5.6-4 2.5-.7 5.1-.9 7.4-1.8 3.1-1.2 5.4-3.5 8.6-4.6 4.1-1.4 5.5.6 8.6 2 3.4 1.6 6.6 1.5 10.6 1 3.4-.4 6.9-1 10.2-.2 1.9.4 3.7 1.5 4.8 2.8.8 1 1.2 2.1 1 3.2-.3 1.7-1.8 3.3-1.4 4.9.2.8.9 1.4 1.5 2.1 4.9 5 9.1 11.9 5.3 17.5-.7 1-1.6 1.9-1.5 3 0 .9.6 1.6 1.1 2.4 3 4.4 3.9 9.8 2.5 14.7-.4 1.5-1.1 3-1.3 4.5-.1 1-.1 2 .3 2.9.5 1.2 1.6 2.1 2.2 3.2 2.8 4.6-1.5 10.1-.9 15.2.4 3.3 2.8 6.2 4.2 9.4 1.4 3.8 1.5 7.8 0 11.4z" clip-path="url(#SVGID_39_)" fill="url(#SVGID_41_)"/><linearGradient id="SVGID_42_" gradientUnits="userSpaceOnUse" x1="209.744" y1="321.462" x2="379.431" y2="351.382"><stop offset="0" stop-color="#e0937c"/><stop offset="1" stop-color="#f8bba2"/></linearGradient><path d="M365 430.2c-.3-1.1-1.1-4.3-1.8-7.4-.6-2.3-1.1-4.5-1.4-6-.7-3.4-.7-17.8-.5-21.2.2-3.4.5-19.6.2-33.2-.3-13.7-5.1-24.9-5.3-26.9-.2-2-.4-18.7-.5-20.8-.2-2.1-2.5-12.6-2-19 .8-10.1-2-19.8-4-24.8-.8-1.9-1.4-3.1-1.6-3.4-2-2.6-11.6-6.2-11.6-6.2s-2.5-.9-6.9-2.1c-4.4-1.2-17.6-10.7-18.8-11.4s.2-15.3.2-15.3-35.1-7-34.7-6c.5 1 .7 12.4.7 15.8 0 3.5-1.2 4.4-2.3 5.7-1.2 1.3-9.8 5.2-15.1 7.7-5.3 2.5-8.1 4.7-8.3 4.7 0 0-6.1 1.9-8.5 2.8-2.5.9-4.5 2.1-6.2 3.5-3.9 3.2-6.2 7.4-7.7 11-2.2 5.2-3.4 14.9-3.6 15.2-.3.3-3.1 6.1-5.2 11.9-2 5.9-4.8 19.9-5 21.4-.2 1.5-3.7 6.8-4.3 10.3-.6 3.5-3.5 10.4-4.1 11.6-.6 1.2-3.4 9.5-3.6 12.1-.2 2.6-1.4 22.2-1.2 27.1 0 .9.7 3.1 1.6 5.9 4.1 12.1 14.7 36.8 16.5 37.2 2.2.5 2.4-.3 4.1-1.2 1.7-1-.8-2.6-.8-2.6 2.5.3 2.5-1.7 2.5-2.3 0-.6-1.4-1-1.8-1.1-.4-.1-13-28.5-14.1-31 0-.1-.1-.2-.1-.2s25.1-72.2 26.8-74.2c1.4-1.6 6.2-11.2 8-15.4.1-.2.2-.4.2-.6.3-.7.5-1.2.4-1.3-.1-.8 3.6 2.3 3.6 3.2 0 .3.2 2.7.5 6.1.3 3.1 0 7.3.4 11.3v.3c.6 5.5 1.2 10.5 1.9 14 .2 1.2.4 2.5.5 3.9.1.7.1 1.4.2 2.1 0 .3.1.6.1.9.8 8.4-3.1 14.4-3.7 17.6-.5 3-.4 6.6-.3 12 .1 2.8-.9 5.3-2.6 7.7-1.4 1.9-1.5 4.5-1.8 6.3-.1.5-.2.9-.3 1.2v.2c-.3 1.5 2.6 2.9 5.6 6.5 3.2 3.7 38.8 6 42.9 5.7 4.1-.3 30.8-10.8 31.5-11.2.1-.1.1-.7.1-1.7-.2-4.2-1.4-14.4-.8-15.5.2-.3.4-.7.5-1 .1-.3.3-.6.4-.9 2.6-6.6 1.4-17 2-17.7 2-2.4 4.9-22.7 5.3-23.5.4-.8 2-6 2-6.7 0-.1 0-.2.1-.3.1-.1.2-.2.4-.2.4.1 1.1 1 1.5 3.9.7 4.8 3.6 10.9 4 11.6.1.1.1.8.1 1.8 0 3.6-.3 11.6-.1 13.2.3 2 1.1 6.3 1.3 8.9.3 2.7 1.9 12.9 3.9 18.4 2 5.5 5.6 26.5 6 30.1.3 3 .1 4.6-.6 5.7-.1.2-.3.4-.4.6-2.8 3.4-2.8 9-2.8 10.3 0 .7.3 2.1.6 3.5.3 1.1 1.4 5.2 1.2 10v.7c0 1.2.4 3.8.9 4.8.2.4.7.5 1.2.5 0 .1 0 .2.1.3 0 .1.1.1.1.2s.1.1.1.2c.4.3 1.3.4 1.7.4h.1c.9.1 2.1.2 3.6.3h.2c4.9.3 4.5-3.3 4.5-6s1.2-2.6 2.2-3.2c1.3-.3 2.5-4.9 1.9-6.8zm-9.3 10.6V442.2s0 .1-.1.1v.1l-.2.2s-.1 0-.1.1h-.1c-.1 0-.4 0-.7-.1h-.7c.2-2 .3-5.2.2-5.9-.1-.9-.9-2.2-.5-3.5.5-1.2 1.4-.5 2 .2.4.4.4 4.9.2 7.4z" clip-path="url(#SVGID_39_)" fill="url(#SVGID_42_)"/><linearGradient id="surf_3_" gradientUnits="userSpaceOnUse" x1="251.561" y1="441.702" x2="109.282" y2="441.702"><stop offset="0" stop-color="#1d1e1d"/><stop offset=".998" stop-color="#3d3d3d"/></linearGradient><path id="surf_1_" d="M120.4 532.1c-3.5 9.5-12.6 31.1-10.8 39.3s5 11.7 10 11.7 16.4-8.2 28.8-23.8 53.7-83.2 60.8-100.6c7.1-17.4 23.6-60.9 27.9-75.4 4.3-14.6 12.9-47.1 13-48 .1-.3 1.4-4 1.6-5.7.2-1.9-1.2-8.6-1.1-9.1.2-.9-1.3-15.6-1.7-16.8-.4-1.2-3.4-3.3-3.4-3.3s-7.2 10.4-10.2 16.2c-3 5.9-9.2 19.2-10.7 22.9-1.4 3.7-25.2 53.5-27 56.5-1.8 3-33.6 58.1-35.7 61.7-2.2 3.6-36.9 61.8-41.5 74.4z" clip-path="url(#SVGID_39_)" fill="url(#surf_3_)"/><g id="ombre_v_2_" class="st69"><path class="st70" d="M312.8 378.2c-1.1.7-2.1 1.4-3 2.3-.6.7-1 1.4-1.4 2.2-1 1.8-2 3.5-3 5.3-.2.4-.4.9-.3 1.3.2.6 1.1.6 1.7.5 1.8-.6 3-2.3 3.9-4 .9-1.7 1.5-3.6 2.7-5 2.2-2.6 6-3.4 8.4-5.8.5-.5 1.3-1.7.4-2.2-.8-.5-2.2.8-2.9 1.3-2.1 1.2-4.3 2.6-6.5 4.1zM262.3 394.6c-.2.6-2-.1-2.7-.3-.6-.2-1-.9-1.5-1.4-.8-.8-1.6-1.7-2.2-2.6-1.8-2.8-1.7-6.5-3.7-9.2-.8-1.2-2.2-2.1-3.6-1.8-.2 0-.4.1-.6.1.7-.9 1.2-1.9 1.6-2.9.7-1.5 1.3-3 1.8-4.5.5.2.9.5 1.2.7 1.4 1.1 2.5 2.7 3.1 4.4.9 2.5 1.1 5.2 1.8 7.8.8 3.1 3 7.2 4.8 9.7z"/><path id="ombre_v_3_" class="st71" d="M323.9 386.6c-.7-.6-1.2-1.5-1.8-2.2-1.4-1.7-3.6-2.7-5.8-2.6-.7 0-1.4.2-2 .6-.7.5-1 1.3-1.4 2.1-1.6 2.9-4.6 4.8-6 7.8-.4.9-.8 2.1-1.8 2.2-.6.1-1.2-.3-1.5-.8-.3-.5-.4-1.2-.3-1.8.2-3 2.5-5.3 4-7.9.8-1.3 1.3-2.8 2.1-4.1 1.8-2.9 4.8-4.8 7.7-6.6 1.2-.8 2.4-1.5 3.6-2.3.7-.4 2.5-2.2 3.4-1.7-.3.7-.6 1.3-.9 1.9-.7 1.1.6 11.3.7 15.4z"/><path class="st71" d="M264.7 395.9c-2.5-.3-5.1-.7-7.5-1.6-2.7-1.1-5.2-1.3-7.9-2.5-1.5-.6-3.9-2.7-5-3.8-.2-.2-.4-.5-.5-.7v-.2c.1-.4.2-.8.3-1.3h.2c.1-1.6.8-3.2 1.9-4.5.6-.7 1.3-1.3 1.9-2 .7-.9 1.2-1.9 1.6-2.9.7-1.5 1.3-3 1.8-4.5.5-1.4.8-2.9.9-4.4v-.3h.1c2 1.6 4 3.3 5.4 5.5 1 1.5 1.7 3.3 2.3 5 2.3 6 4.6 12 4.5 18.2z"/></g><linearGradient id="tête_5_" gradientUnits="userSpaceOnUse" x1="269.834" y1="213.919" x2="318.024" y2="222.416"><stop offset="0" stop-color="#e0937c"/><stop offset="1" stop-color="#f8bba2"/></linearGradient><path id="tête_2_" d="M318.6 217.2c0 5.8-2.4 10.2-3.3 11.1-.9.9-2.9-.3-2.9-.3 0 .3-.1.6-.1.9-.3 1.2-.9 2.9-1.7 4.6-1.5 3.2-3.7 6.8-5.5 8.7-3 3.2-9.1 3.2-15.3 1.6-6.2-1.6-13.7-17.4-13.7-17.4 0 .1-.1.6-2.7.4-2.8-.2-4-12.2-3.6-13.3.4-1.1 0-2 2.6-1.2 2.3.7 3.2 3.7 3.4 4.3 0-.2-.1-.7-.1-1.3-.1-3.1 1.9-6.3 3.1-9.1.7-1.6 1.6-3.1 2.2-4.7.8-2.2-.1-7.3 1.9-8.6 1-.7 3.5-.4 4.8-.7 1.9-.4 3.8-.9 5.8-.6 3.1.4 5.7 2.6 8.8 3.2 3.6.6 8-.8 9.5 3.8.2.6.3 1.3.4 2 .5 4.8 2.1 7.5 3 11.5 0 .2.1.3.2.4 0 1.3 0 2.2.1 2.1.5-.3 3.1-3.2 3.1 2.6z" clip-path="url(#SVGID_39_)" fill="url(#tête_5_)"/><linearGradient id="jambe_droite_3_" gradientUnits="userSpaceOnUse" x1="274.573" y1="585.727" x2="338.47" y2="596.994"><stop offset="0" stop-color="#e0937c"/><stop offset="1" stop-color="#f8bba2"/></linearGradient><path id="jambe_droite_1_" d="M287.9 510.4s1.4 17.2 2.5 20.3c1.1 3-1.1 9.8-2.7 15.3s-3 12.1-1.8 22 2 37.7 1.4 43c-.5 5.3-2.3 11.7-2.6 12.9s.5 10.4-.1 13.2c-.7 2.8.4 6 2.7 8.9s7.3 11.2 8.3 13.6c.9 2.4 5.7 10 8.7 10.7s6.4 1.3 7.1-1.2-.7-4.5.1-4.5 4.1 3.2 5.3 3.7 4-1.1 4.4-1.6 3.1-.9 3.2-1.6 2-1.2 2-2.7c0-1.5 1.5-3.1 1.3-4.9s-1.3-4.1-2.7-4.7-12.8-8.5-13.7-10.1-7.5-10.4-8-11.9-.8-16 .4-20.1c1.2-4.1 12.9-53.9 12.9-56.9 0-3.1-.4-12.7-1.2-16.8s-.4-12.4.1-13.5-.3-10-.3-10l-27.3-3.1z" clip-path="url(#SVGID_39_)" fill="url(#jambe_droite_3_)"/><linearGradient id="short_3_" gradientUnits="userSpaceOnUse" x1="232.96" y1="438.584" x2="331.662" y2="455.988"><stop offset="0" stop-color="#1d1e1d"/><stop offset=".998" stop-color="#3d3d3d"/></linearGradient><path id="short_1_" d="M243.8 387.2s-3.4 11-3.8 13.5c-.4 2.5-1.6 6.4-1.8 8-.2 1.6-1.4 23.6-.9 27 .5 3.4 1.2 11.7 1.2 13.7s2.8 12.1 3.6 13.3c.7 1.2.9 4.1.9 7.6 0 3.6.4 19.4 1.2 20.1s-1.1 11.7-1.2 11.9c-.2.2 6.4 0 7.1 2.3.7 2.3 6 4.6 7.5 4.8 1.4.2 12.3.2 15.1-2.7 2.8-2.8 7.6-8.9 8.7-12.3 1.1-3.4 1.6-7.5.7-10.3-.9-2.8-1.4-3 0-5.5s-.9-24.5.2-24.5h1.9s.5 22.3.7 25.6c.2 3.3.6 16.4 1.2 19s1.2 8.5-.7 10l-2 1.4s3 .2 3.2 1.1c.2.9 5 5.2 6.4 5.9 1.4.7 16.2 2 19.4 1.1 3.2-.9 6.6-3.6 8-3.7 1.4-.2 1.6-2.8.9-4.3-.7-1.4-.9-4.4-.2-5.7.7-1.2 1.6-12.1 2-14.8.4-2.7 1.8-17.4 2.5-20.1.7-2.7 3.9-30.4 3.4-39.1s-.9-17.8-.9-20.1-1.2-12.6-1.2-12.6-.5-2.3-.9-5.2-.9-5.9-1.8-6c-.9-.2-10.7 5.5-20.6 7.5-10 2-16.2 3.6-19.9 3.6-3.7 0-26.5-3.4-30.4-5.3-4-2.1-9.5-5.2-9.5-5.2z" clip-path="url(#SVGID_39_)" fill="url(#short_3_)"/><g id="lyre_2_" class="st69"><linearGradient id="SVGID_43_" gradientUnits="userSpaceOnUse" x1="345.537" y1="469.829" x2="350.904" y2="469.829"><stop offset="0" stop-color="#989898"/><stop offset="1" stop-color="#3d3d3d"/></linearGradient><path fill="url(#SVGID_43_)" d="M350.9 443.2l-.3-.1-5.1 53.4h.3z"/><linearGradient id="SVGID_44_" gradientUnits="userSpaceOnUse" x1="347.518" y1="471.334" x2="352.624" y2="471.334"><stop offset="0" stop-color="#989898"/><stop offset="1" stop-color="#3d3d3d"/></linearGradient><path d="M352.4 446.1h.3l-4.8 50.5v.1h-.3v-.1l4.8-50.5z" fill="url(#SVGID_44_)"/><linearGradient id="SVGID_45_" gradientUnits="userSpaceOnUse" x1="349.574" y1="471.609" x2="354.67" y2="471.609"><stop offset="0" stop-color="#989898"/><stop offset="1" stop-color="#3d3d3d"/></linearGradient><path d="M354.4 446.3h.3l-4.8 50.4v.2h-.3v-.2l4.8-50.4z" fill="url(#SVGID_45_)"/><linearGradient id="SVGID_46_" gradientUnits="userSpaceOnUse" x1="351.629" y1="471.68" x2="356.726" y2="471.68"><stop offset="0" stop-color="#989898"/><stop offset="1" stop-color="#3d3d3d"/></linearGradient><path d="M356.7 446.5l-4.8 50.3v.2h-.3v-.1l4.8-50.3h.1c.1-.2.2-.1.2-.1z" fill="url(#SVGID_46_)"/><linearGradient id="SVGID_47_" gradientUnits="userSpaceOnUse" x1="353.695" y1="471.557" x2="358.81" y2="471.557"><stop offset="0" stop-color="#989898"/><stop offset="1" stop-color="#3d3d3d"/></linearGradient><path d="M358.8 446.2l-4.8 50.5v.2h-.3v-.2l4.8-50.4c.1 0 .2 0 .3-.1z" fill="url(#SVGID_47_)"/><linearGradient id="SVGID_48_" gradientUnits="userSpaceOnUse" x1="355.75" y1="470.012" x2="361.159" y2="470.012"><stop offset="0" stop-color="#989898"/><stop offset="1" stop-color="#3d3d3d"/></linearGradient><path d="M361.2 443.1l-.1 1.2v.4l-4.9 51.8v.5h-.3v-.4l5-51.8v-.4c.1-.4.2-.7.3-1.1v-.2z" fill="url(#SVGID_48_)"/><linearGradient id="SVGID_49_" gradientUnits="userSpaceOnUse" x1="358.068" y1="470.06" x2="363.435" y2="470.06" gradientTransform="matrix(1.0001 -.00074 -.00074 1.0077 .27 -2.817)"><stop offset="0" stop-color="#989898"/><stop offset="1" stop-color="#3d3d3d"/></linearGradient><path fill="url(#SVGID_49_)" d="M363.4 443.7h-.3l-5.1 53.8h.3z"/><linearGradient id="SVGID_50_" gradientUnits="userSpaceOnUse" x1="343.262" y1="469.829" x2="348.629" y2="469.829"><stop offset="0" stop-color="#989898"/><stop offset="1" stop-color="#3d3d3d"/></linearGradient><path fill="url(#SVGID_50_)" d="M348.6 443.2l-.2-.1-5.1 53.4h.2z"/><linearGradient id="SVGID_51_" gradientUnits="userSpaceOnUse" x1="339.24" y1="468.881" x2="344.606" y2="468.881"><stop offset="0" stop-color="#989898"/><stop offset="1" stop-color="#3d3d3d"/></linearGradient><path fill="url(#SVGID_51_)" d="M344.6 442.2h-.3l-5.1 53.3.3.1z"/><linearGradient id="SVGID_52_" gradientUnits="userSpaceOnUse" x1="341.368" y1="468.881" x2="346.735" y2="468.881"><stop offset="0" stop-color="#989898"/><stop offset="1" stop-color="#3d3d3d"/></linearGradient><path fill="url(#SVGID_52_)" d="M346.7 442.2h-.2l-5.1 53.3.2.1z"/><linearGradient id="SVGID_53_" gradientUnits="userSpaceOnUse" x1="340.896" y1="442.209" x2="355.532" y2="442.209"><stop offset="0" stop-color="#bc8210"/><stop offset=".998" stop-color="#feca36"/></linearGradient><path d="M355.5 442.3l-1.9-.2-4.9-.4-7.7-.7-.1 1.4h.2l3.2.3h.3l1.8.2h.3l2.3.2 1.6.2h.8c.6-.5 1.5-.7 2.2-.8h.4c.4.1.8.2 1.1.2h.1c.1 0 .1-.1.2-.2.1 0 .1-.1.1-.2 0 .1 0 .1 0 0z" fill="url(#SVGID_53_)"/><linearGradient id="SVGID_54_" gradientUnits="userSpaceOnUse" x1="360.799" y1="443.824" x2="366.502" y2="443.824"><stop offset="0" stop-color="#bc8210"/><stop offset=".998" stop-color="#feca36"/></linearGradient><path d="M366.5 443.3l-.2 1.5h-.1l-2.9-.3h-.3l-2-.2h-.2c.1-.4.2-.7.3-1.1v-.3l5.4.4z" fill="url(#SVGID_54_)"/><linearGradient id="SVGID_55_" gradientUnits="userSpaceOnUse" x1="380.796" y1="471.366" x2="323.606" y2="471.366"><stop offset="0" stop-color="#bc8210"/><stop offset=".998" stop-color="#feca36"/></linearGradient><path d="M378 448.6c-1.2.4-3.1 1.7-6.1-.2 0 0 3 18.7 3.3 20.4.3 1.7 2.8 14.2-.5 22.6-3.4 8.4-7.9 13.4-16.6 16.8-8.7 3.4-19.6-.7-22.9-3.3-3.4-2.6-8-7.2-10.4-14.3-2.4-7.1-.3-16.6 1.9-22.6 2.1-6 8.4-22.8 8.4-23.2 0-.4-1.6 1.3-3.9.4s-5.2-2.8-4.1-7.7c1.2-5 8.7-5.2 11.6-2.1.3.4.7.7 1 .9 1.4 1.8 1.8 4.8 1.6 7-.3 2.7-7.6 20.4-9.7 25.6-2 5.2-1.4 12.3-1.3 13.2.1.9 2.3 8.1 8.8 11.6 6.5 3.6 12.6 3.2 15.1 3 2.5-.2 8.9-1 13.8-7.7 4.9-6.8 3.1-17 2.7-19.9-.4-2.9-3.2-13.2-4.1-20-.9-6.8 1.9-8.8 1.9-8.8s3-3.4 5.9-3c2.8.4 6 1.8 6.7 4.9.2 3-1.8 6-3.1 6.4z" fill="url(#SVGID_55_)"/><path class="st88" d="M370.9 484.1c-.3.8-1.2 6-8 10.7-6.8 4.7-15.9 3.1-19.5 2.3-3.6-.8-11.9-5.9-13.9-13.4-2-7.6.8-14.8 2.3-19.1 1.5-4.3 7-17.3 8.4-21.4 1.3-4-1.5-7.4-1.8-7.8.4.2.7.6 1 .9 1.4 1.8 1.8 4.8 1.6 7-.3 2.7-7.6 20.4-9.7 25.6-2 5.2-1.4 12.3-1.3 13.2.1.9 2.3 8.1 8.8 11.6 6.5 3.6 12.6 3.2 15.1 3 2.5-.2 8.9-1 13.8-7.7 4.9-6.8 3.1-17 2.7-19.9-.4-2.9-3.2-13.2-4.1-20-.9-6.8 1.9-8.8 1.9-8.8-1.4 2.9-1.3 4.7-1.4 6.3-.1 1.6 2 11.6 4 20.5s.4 16.2.1 17zM334.9 444.8c0 .1-.2.6-.5 1.4-3.6.8-5.5-.8-6.8-2.8-1.3-2-1-4.3-1-4.3l.1.1c-.2 3.7 2.3 5.2 4.3 6 2.3.9 3.9-.8 3.9-.4zM378.6 448.7c-2.7 2.5-5.4 1.5-6.5 1-.1-.8-.2-1.3-.2-1.3 3 1.9 4.9.5 6.1.2 1.2-.4 3.3-3.4 2.7-6.5.1.4 1.1 3.6-2.1 6.6z"/><path class="st88" d="M353.6 441.9l1.9.2v.2l-1.9-.2-4.9-.4-7.7-.7-.1-.3h.1l7.7.7 4.9.5zM366.7 443.1l-.2.2-5.4-.5v-.2l5.4.5h.2zM351.4 443.4c-.1.1-.3.2-.4.3h-.5l-1.5-.1h-.8l-1.7-.2h-.3l-1.8-.2h-.3l-3.2-.3-.2-.4h.2l3.2.3h.3l1.8.2h.3l2.3.2 1.6.2h1zM366.3 444.8l-.1.3h-.1l-2.9-.3h-.3l-2-.2h-.4c0-.1.1-.2.1-.3v-.1h.2l2 .2h.3l2.9.3.3.1z"/></g><g id="ombres_torse_1_" class="st69"><path class="st89" d="M280.8 338.9c-3.2 1.9-6.5 3.7-9.9 5.5-2 1-4.3 2.1-6.5 1.7-1.6-.3-3-1.2-4.5-1.8-1.9-.6-4-.6-5.7-1.6-.1 0-.2-.1-.4-.1-.2-1.3-.6-2.7-1.6-3.3-.1-1.4-.2-2.8-.5-3.9-.7-3.5-1.2-8.5-1.9-14v-.3c1.6.1 3 2.7 3.6 4 2.1 4.9 4.7 9.7 7.6 14.2.3.5.6.9 1.1 1.2.4.2.9.2 1.4.2 3.6-.1 7.1-1.4 10.6-2.6l9.6-3.3c.5 1.7-1.3 3.2-2.9 4.1zM261.3 320c-.6.8-1.8 1.1-2.8.8-1-.3-1.8-1-2.6-1.6-1.6-1.3-3.2-2.7-4.4-4.4-1-1.5-1.6-3.2-2.1-4.9-.3-3.4-.5-5.8-.5-6.1 0-.9-3.7-4-3.6-3.2 0 .1-.1.6-.4 1.3-1-1-1.9-2.1-1.9-3.1 0-1.8 1.8-1.4 2.9-.8 3.8 1.9 6.3 7.8 7.8 11.5.9 2.2 1.7 4.5 3.3 6.2 1.5 1.4 3.6 2.4 4.3 4.3z"/><path class="st70" d="M339 320.2c-.3 5 2 9.8 2.2 14.8 0 1.1-.3 2.2-1.1 2.9-.2.2-.3.3-.5.4 0-1 0-1.6-.1-1.8-.4-.7-3.3-6.8-4-11.6-.6-4.1-1.6-4.2-1.9-3.8-.4-.2-.9-.3-1.4-.3-.9.1-1.7.5-2.5.9-3 1.5-6.1 3.1-9.4 3.8-3.3.6-7 .2-9.7-1.9-.3-.2-.4-.5-.4-.8.1-1 1.2-1.3 2-.7 1.6 1.1 6.5-1.5 7.7-2.2 2.9-1.7 5.2-4.3 6.7-7.3 3-6.3 2.4-14.4 7.3-19.3.9-.9 2-1.7 3.3-2 2.8-.6 5.6 1.4 6.9 4 1.9 3.9.8 8.6-.8 12.6-1.9 4-4 7.9-4.3 12.3z"/><path class="st89" d="M329.6 316.1c.4-1 .7-1.9 1.1-2.9 2.1-5.5 6.6-9.6 10.4-14.1.5-.6 1.1-1.3 1.3-2.1.2-.8-.1-1.8-.9-2.2-1-.5-2.2.4-3 1.2-1.7 1.7-3.5 3.3-4.8 5.4-.6.9-1.1 1.9-1.5 3-1 2.2-2.1 4.4-3.1 6.5-1.3 2.8-2.7 5.6-5 7.7-2.3 2-5.4 3-7.8 4.9-1.9 1.5 2 1.1 2.7 1 1.5-.2 3.1-.8 4.4-1.5 2.7-1.6 5-4 6.2-6.9zM298.3 317.7c2.3.7 4.7 1.3 7.2 1.4.5 0 1 0 1.4.3.4.3.5 1 0 1.3-1.6 0-3.1.1-4.6.5-.4.1-.9.3-1.3.3-1.8.3-3.5-.4-5.1-1.3-.9-.5-5.9-4.2-4.5-5.4.5-.4 5.8 2.6 6.9 2.9zM295.9 342.9c2.3 1.6 4.8 3 7.4 4.3.7.3 1.4.6 1.9 1.2.4.5.7 1.1.8 1.7.8 2.9.6 6.1-.7 8.8-.2.3-.3.7-.7.9-.4.3-1 .2-1.5.2-4.8-.6-9.9-.8-14.3 1.2 1.9 1.2 4.3 1 6.5.9 3-.1 6.6.5 7.8 3.3.6 1.5.3 3.3-.5 4.8-.8 1.4-2 2.6-3.2 3.7-2.4 2.3-4.9 4.6-7.3 6.9 4.5.2 9-1.8 11.8-5.2 4.2-5.1 4.6-12.3 4.5-18.9 0-3.1-.2-6.3-1.3-9.3-1.4-3.4-4.2-6.1-7.6-7.5-1.2-.5-3.8-1.6-5.1-.7-1.8 1.1.3 2.8 1.5 3.7z"/><path class="st70" d="M333.9 321c-.2 0-.3 0-.4.2-.1.1-.1.2-.1.3 0 .7-1.6 5.9-2 6.7-.4.8-3.3 21.1-5.3 23.5-.6.7.6 11.1-2 17.7-.1.3-.2.6-.4.9h-.7c-.7 0-1.4-.1-2-.4-1-.6-1.3-2-1.5-3.2-.2-2.4-.2-4.8.1-7.1.1-1 .3-2.1 0-3.1-.8-2.1-3.8-2.6-5-4.5-1.2-1.9-.2-4.4 1.2-6.2 1.3-1.6 3-3 3.9-4.8.9-1.9.7-4.6-1.2-5.5-.3-.1-.6-.2-.9-.4-.9-.6-.8-2.1 0-3 .7-.8 1.8-1.2 2.8-1.7 2.8-1.3 5.5-3.7 7-6.5.7-1.3.8-2.3 2-3.1.4-.3 4.3-1.5 4.4-.6.1.2.1.5.1.8z"/><path class="st89" d="M273.6 319.6c4.6.7 9.5-1 13.1-4 .5-.4.9-.8 1.1-1.3.2-.5.1-1.2-.3-1.6-.4-.3-1-.3-1.5-.2-3.9.3-7.8.7-11.6 1-2.9.2-5.8.5-8.5 1.6-.3.1-.6.3-.7.5-.4.7.5 1.4 1.2 1.7 0 0 2.3 1.6 7.2 2.3zM272.3 351.8c2 .7 4.3.7 6.3 1.2 4.2 1.1 7.6 5 8.2 9.3 0 .3 0 .6-.1.8-.1.2-.4.2-.6.2-3.2.3-5.4-3.4-8.6-3.9-1.1-.2-2.1.1-3.2.1-2.6.1-5.2-.9-7-2.7-1.7-1.7-4.4-6.8-2.2-9.1 1.9-2 5.2 3.3 7.2 4.1z"/><path d="M254.6 351.3c-.2 2.1-.5 4.2-.8 6.3-.2 1.3-.3 2.6-.6 3.9-.2 1-.5 2.1-.6 3.1-.1.9-.1 1.8-.1 2.6v.3c-.1 1.5-.5 3-.9 4.4-.5 1.5-1.2 3-1.8 4.5-.5 1-.9 2-1.6 2.9-.6.7-1.3 1.3-1.9 2-1.1 1.2-1.7 2.8-1.9 4.5h-.2-.1c.3-1.8.4-4.4 1.8-6.3.2-.2.3-.5.5-.7 1.4-2.2 2.2-4.5 2.1-7v-.6c-.1-5-.2-8.5.3-11.4.5-3.2 4.5-9.2 3.7-17.6 0-.3-.1-.6-.1-.9-.1-.7-.1-1.4-.2-2.1 1.3.8 1.6 2.6 1.7 4.1.2 2.8 1 5.4.7 8z" opacity=".05" fill="#894216"/></g></g></g><g id="nuancier" class="st0"><path fill="#37a19f" d="M1058.2 88h171.2v171.2h-171.2z"/><path fill="#0f4c49" d="M1287.8 88H1459v171.2h-171.2z"/><path fill="#1d1e1d" d="M1049.9 292.4h171.2v171.2h-171.2z"/><path fill="#3d3d3d" d="M1277.6 292.4h171.2v171.2h-171.2z"/><path fill="#e4e1e0" d="M1049.9 526.8h171.2V698h-171.2z"/><path fill="#f2f2f2" d="M1279.5 526.8h171.2V698h-171.2z"/><path fill="#fbd9cd" d="M1058.2-113.1h171.2V58.1h-171.2z"/><path fill="#f6af9a" d="M1287.8-116.5H1459V54.7h-171.2z"/><path fill="#cb9e6a" d="M1044.9 995.5h171.2v171.2h-171.2z"/><path fill="#fad29c" d="M1282.8 995.5H1454v171.2h-171.2z"/><path fill="#871811" d="M1044.9 1229.9h171.2v171.2h-171.2z"/><path fill="#e5232c" d="M1282.8 1229.9H1454v171.2h-171.2z"/><path fill="#0070a7" d="M2569.2-661h108.1v108.1h-108.1z"/><path fill="#8798b7" d="M2709.2-661h108.1v108.1h-108.1z"/><path fill="#452c28" d="M2706.2-534h108.1v108.1h-108.1z"/><path fill="#493c3a" d="M2566.2-401h108.1v108.1h-108.1z"/><path fill="#bc8210" d="M1044.5 761h171.2v171.2h-171.2z"/><path fill="#feca36" d="M1282.4 761h171.2v171.2h-171.2z"/><path fill="#8d2b13" d="M1603.2-85h199.3v199.3h-199.3z"/><path fill="#d16215" d="M1836.3-85h199.3v199.3h-199.3z"/><path fill="#999898" d="M1642 206.4h171.2v171.2H1642z"/><path fill="#cdcccc" d="M1871.6 206.4h171.2v171.2h-171.2z"/><path fill="#1c1f1b" d="M1629.8 439H1801v171.2h-171.2z"/><path fill="#6d7347" d="M1859.5 439h171.2v171.2h-171.2z"/><path fill="#6b150b" d="M1629.8 675.5H1801v171.2h-171.2z"/><path fill="#fbc17b" d="M1859.5 675.5h171.2v171.2h-171.2z"/><path fill="#fff0b1" d="M1623.1 897.7H1801v177.9z"/><path fill="#e5c573" d="M1855.4 1079V901.1h177.9z"/><path fill="#de9e62" d="M1731.8 1190h132.9v132.9h-132.9z"/><path fill="#fdd193" d="M1914.5 1194.2h132.9v132.9h-132.9z"/><path fill="#dd8c64" d="M1731.8 1354.4h132.9v132.9h-132.9z"/><path fill="#f8b996" d="M1914.5 1358.6h132.9v132.9h-132.9z"/><path fill="#e2a189" d="M1725.9 1547.8h132.9v132.9h-132.9z"/><path fill="#facbb4" d="M1908.6 1552h132.9v132.9h-132.9z"/><path fill="#e0937c" d="M1727.7 1721.9h132.9v132.9h-132.9z"/><path fill="#f8bba2" d="M1910.3 1726.1h132.9V1859h-132.9z"/></g></svg>