<svg xmlns="http://www.w3.org/2000/svg" xmlns:xlink="http://www.w3.org/1999/xlink" viewBox="0 0 595.3 652.8"><style>.st0{display:none}.st1{fill:#1d1e1d}.st1,.st2{display:inline}.st17{opacity:3.000000e-02;fill:#894114}.st29{fill:#f7ddc6}.st30{fill:#f9ede1}.st31{fill:#1d1e1d}.st33{clip-path:url(#SVGID_12_)}.st34{opacity:.8}.st73,.st74{opacity:3.000000e-02;fill:#6b150b}.st74{opacity:2.000000e-02}.st75,.st76,.st85{opacity:1.000000e-02;fill:#6b150b}.st76,.st85{opacity:5.000000e-02}.st85{fill:#1d1e1d}</style><g id="Calque_4" class="st0"><path class="st1" d="M-8.8-2.7h613.2v662.2H-8.8z"/></g><g id="fond" class="st0"><g class="st2"><defs><path id="SVGID_1_" d="M-.1-.1h595.3v652.9H-.1z"/></defs><clipPath id="SVGID_2_"><use xlink:href="#SVGID_1_" overflow="visible"/></clipPath><g id="fond_1_" clip-path="url(#SVGID_2_)"><linearGradient id="SVGID_3_" gradientUnits="userSpaceOnUse" x1="329.951" y1="613.888" x2="329.951" y2="-1.038"><stop offset="0" stop-color="#1c1f1b"/><stop offset=".211" stop-color="#6d7347"/><stop offset=".549" stop-color="#8798b7"/><stop offset=".767" stop-color="#8798b7"/><stop offset=".987" stop-color="#0070a7"/></linearGradient><path fill="url(#SVGID_3_)" d="M-3.7-1h667.3v614.9H-3.7z"/><linearGradient id="SVGID_4_" gradientUnits="userSpaceOnUse" x1="367.444" y1="608.244" x2="367.444" y2="-168.855" gradientTransform="matrix(.8285 -.01185 .0143 .9999 61.557 4.353)"><stop offset="0" stop-color="#432918"/><stop offset="1" stop-color="#683c11"/></linearGradient><path d="M350.8 605.2v-67c-.1-4.5.7-14.1-.3-23.6-1.1-9.6-2.1-16.9-2.3-28.7-.2-11.8-.7-82.8-.5-99.7s-.6-142.5.1-154.9c.8-12.4-.9-61.4 0-68.1.8-6.8-2.2-86.1-1-104.7 1.1-18.6 2.6-45.7 3-52.4s1-91.8.9-99.1 1.5-59.2 1.8-67.6c.3-8.5 32.5-8.4 32.5-8.4s1.6 82.2 1.7 85.6c0 3.4-.4 37.2-.7 46.8-.3 9.6-1.3 42.8-1.6 50.7-.4 7.9.8 156 .5 164.4-.3 8.5-.9 66.5-.8 76.6.1 10.1.3 55.2.4 60.3s-.7 81.1.4 93.5c1.1 12.4 1.6 77.7 2.6 84.4 1 6.7 1.6 48.4 2.6 50.1 1 1.7 10 16.2 7.7 17.3-2.3 1.2-5.5 8.5-4.9 13 .5 4.5 4.2 33.2 6.5 33.7 2.3.4-49.9 2.3-48.6-2.2z" fill="url(#SVGID_4_)"/><linearGradient id="SVGID_5_" gradientUnits="userSpaceOnUse" x1="433.889" y1="609.003" x2="433.889" y2="-168.096" gradientTransform="matrix(.4724 .0117 -.02476 .9997 235.32 -5.641)"><stop offset="0" stop-color="#432918"/><stop offset="1" stop-color="#683c11"/></linearGradient><path d="M411.7 604.5s2.1-62.5 2.2-67c.1-4.5.9-14.1.6-23.6-.3-9.6-.6-16.9-.4-28.7.3-11.8 2.3-82.7 3-99.6.7-16.9 4.3-142.4 5.2-154.8.8-12.4 1.5-61.4 2.2-68.1.7-6.7 1.6-86.1 2.9-104.7 1.3-18.6 3-45.6 3.4-52.3s3.6-91.7 3.8-99c.2-7.3 2.8-59.1 3.3-67.5.5-8.4 18.8-7.4 18.8-7.4s-1.8 82.2-1.9 85.6c-.1 3.4-1.5 37.1-2 46.7s-2.1 42.8-2.6 50.6c-.5 7.9-4.7 155.9-5.1 164.4-.5 8.4-2.7 66.4-3 76.5-.3 10.1-1.6 55.2-1.8 60.2s-3.1 81-2.8 93.4c.2 12.4-1.7 77.7-1.3 84.5.4 6.8-.7 48.4-.2 50.1.5 1.7 5.2 16.5 3.8 17.6-1.4 1.1-3.4 8.4-3.2 12.9.2 4.5 1.3 33.3 2.6 33.9 1.4.4-28.4.8-27.5-3.7z" fill="url(#SVGID_5_)"/><linearGradient id="SVGID_6_" gradientUnits="userSpaceOnUse" x1="564.94" y1="607.47" x2="564.94" y2="-169.63" gradientTransform="matrix(.2643 .00655 -.02434 .983 353.123 -5.551)"><stop offset="0" stop-color="#432918"/><stop offset="1" stop-color="#683c11"/></linearGradient><path d="M480.1 591.8s1.8-61.4 1.9-65.9c.1-4.4.6-13.8.6-23.2-.1-9.4-.2-16.6.1-28.2s2.2-81.4 2.7-98c.6-16.6 3.9-140 4.5-152.2.6-12.2 1.5-60.3 2-67 .5-6.6 1.8-84.7 2.7-103s2.2-44.8 2.5-51.5 3-90.2 3.2-97.4c.2-7.2 2.2-58.1 2.5-66.4.4-8.3 10.6-7.5 10.6-7.5s-1.9 80.8-1.9 84.1c-.1 3.3-1.2 36.5-1.6 45.9s-1.6 42.1-2 49.8c-.3 7.7-4.2 153.3-4.6 161.6-.4 8.3-2.2 65.3-2.5 75.3-.2 10-1.5 54.2-1.6 59.2-.1 5-2.6 79.7-2.6 91.9 0 12.2-1.7 76.4-1.6 83 .1 6.7-.9 47.6-.6 49.3s2.7 16.1 2 17.2c-.8 1.1-2 8.3-2 12.7 0 4.4.4 32.7 1.1 33.3.8.7-15.9 1.4-15.4-3z" fill="url(#SVGID_6_)"/><linearGradient id="SVGID_7_" gradientUnits="userSpaceOnUse" x1="567.914" y1="608.244" x2="567.914" y2="-168.855"><stop offset="0" stop-color="#432918"/><stop offset="1" stop-color="#683c11"/></linearGradient><path d="M539.1 604.9s1.1-62.5 1.1-67 1.1-14.1 0-23.7-2.3-16.9-2.3-28.7.6-82.8 1.1-99.7 1.7-142.5 2.8-154.9c1.1-12.4 0-61.4 1.1-68.1s-1.1-86.2.6-104.7c1.7-18.6 3.9-45.6 4.5-52.4.6-6.8 2.8-91.8 2.8-99.1s2.8-59.1 3.4-67.6 39.4-7.9 39.4-7.9.6 82.2.6 85.6-1.1 37.2-1.7 46.7-2.3 42.8-2.8 50.7-1.7 156-2.3 164.4-2.3 66.4-2.3 76.6-.6 55.2-.6 60.3-2.3 81.1-1.1 93.5c1.1 12.4.6 77.7 1.7 84.5 1.1 6.8 1.1 48.4 2.3 50.1 1.1 1.7 11.8 16.3 9 17.5-2.8 1.1-6.8 8.4-6.2 13 .6 4.5 4.5 33.2 7.3 33.8 3 .5-60 1.6-58.4-2.9z" fill="url(#SVGID_7_)"/><linearGradient id="SVGID_8_" gradientUnits="userSpaceOnUse" x1="26.194" y1="608.244" x2="26.194" y2="-168.855" gradientTransform="matrix(.7776 -.03078 .03956 .9992 -9.49 1.24)"><stop offset="0" stop-color="#432918"/><stop offset="1" stop-color="#683c11"/></linearGradient><path d="M12.4 605.7s-1.6-62.5-1.8-67c-.2-4.5.3-14.1-.9-23.6-1.3-9.5-2.4-16.8-2.9-28.6s-2.8-82.8-3-99.7C3.5 369.9-.5 244.4-.2 232s-2.4-61.3-1.8-68.1c.6-6.8-4.3-86.1-3.7-104.7s1.3-45.7 1.4-52.5S-5.7-85-6-92.4c-.3-7.3-.1-59.2 0-67.6.1-8.5 30.3-9.1 30.3-9.1S28-87 28.1-83.6c.1 3.4.6 37.2.5 46.8-.1 9.6-.1 42.8-.2 50.7s4.9 155.9 4.8 164.4c-.1 8.5.9 66.5 1.3 76.6.4 10.1 1.7 55.2 1.9 60.2.2 5.1 1.5 81.1 2.8 93.4 1.4 12.3 3.5 77.6 4.7 84.3 1.1 6.7 2.8 48.4 3.7 50s9.8 16 7.7 17.2-4.9 8.6-4.3 13.1c.6 4.5 4.8 33.1 7 33.5 2.3.6-46.7 3.7-45.6-.9z" fill="url(#SVGID_8_)"/><linearGradient id="gros_rocher_1_" gradientUnits="userSpaceOnUse" x1="290.966" y1="614.317" x2="290.966" y2="431.835"><stop offset="0" stop-color="#4b4b4a"/><stop offset="1" stop-color="#cdcccc"/></linearGradient><path id="gros_rocher" d="M222.6 450.4s-10.7 2.3-15.8 1.7c-5.1-.6-17.5 2.8-20.8 4.5-3.4 1.7-18.6 14.1-23.7 25.3-5.1 11.3-4.7 24.4-8.4 27.8-3.8 3.4-9 13.5-10.5 13.5s17.6 6 18 11.3 9.4 30 12.4 31.2c3 1.1 54.1 20.6 63.1 21.4 9 .8 28.2 5.6 32.7 8.3 4.5 2.6 11.6 2.3 12 5.3.4 3 13.1 15.8 22.1 13.5 9-2.3 24.8-10.1 30-13.5 5.3-3.4 12-6 12.4-10.9.4-4.9 4.9-10.9 7.9-10.9s7.1-3.4 8.3-6c1.1-2.6 8.3-12 14.3-11.3 6 .8 16.1 1.5 16.1-1.9s2.3-2.3-6-6c-8.3-3.8-10.1-7.1-7.9-12.4s8.6-9.8 11.6-9.4c3 .4 17.6-9.4 22.1-9.4s10.9-3.4 12.8-4.1c1.9-.8 3 1.1 8.6 1.5s3-2.3 4.1-4.1c1.1-1.9.4-6.4-1.5-9.8-1.9-3.4-5.3-2.6-6-7.9-.8-5.3-4.9-11.6-8.6-15.8s-9-11.3-14.3-12.8c-5.3-1.5-19.1-10.5-21.4-7.9 0 0-8.6-15.4-14.3-16.5-5.6-1.1-7.1-6-10.5-6.4-3.4-.4-24-7.1-30.4-5.3-6.4 1.9-12.4 1.1-16.1.4s-23.7-3.4-28.9-1.1c-5.3 2.3-22.1 2.6-28.5 3-6.4.4-16.1 3-18.8 6.8-2.6 3.8-10.9 7.5-12.4 7.5-1.4 0-3.7.4-3.7.4z" fill="url(#gros_rocher_1_)"/><linearGradient id="rocher_droite_1_1_" gradientUnits="userSpaceOnUse" x1="454.235" y1="607.506" x2="454.235" y2="517.795"><stop offset="0" stop-color="#4b4b4a"/><stop offset="1" stop-color="#cdcccc"/></linearGradient><path id="rocher_droite_1" d="M530.1 593.8c-2.2 0-16.5 6.8-19.9 6.4-3.4-.4-10.1 4.9-12.4 5.6-2.2.8-15 2.6-18 1.1s-18-3.4-19.9-1.5c-1.9 1.9-19.5-2.6-23.3-9.8-3.8-7.1-9.8-11.6-13.9-15-4.1-3.4-11.3-6.4-13.1-8.6s-10.5-8.3-12.8-8.6c-2.2-.4-10.5-.8-10.5-.8s-.7-.3-1.7-.9c4.3.1 8.1-.4 8.1-2.5 0-3.4 2.2-2.3-6-6s-10.1-7.1-7.9-12.4 8.6-9.8 11.6-9.4c3 .4 17.6-9.4 22.2-9.4 4.5 0 10.9-3.4 12.8-4.1s3 1.1 8.6 1.5h.6c1.7.1 6.3.4 7.8.5 1.9.2 14.5 8.1 18.2 9.2 3.8 1.1 12 10.1 16.1 7.9 4.1-2.3 9.8 3.8 11.6 7.9 1.9 4.1 11.6 13.9 15.8 16.1 4.1 2.3 19.1 13.9 19.1 16.5s9.2 16.3 6.9 16.3z" fill="url(#rocher_droite_1_1_)"/><linearGradient id="rocher_droite_2_1_" gradientUnits="userSpaceOnUse" x1="384.451" y1="636.583" x2="384.451" y2="561.097"><stop offset="0" stop-color="#4b4b4a"/><stop offset="1" stop-color="#cdcccc"/></linearGradient><path id="rocher_droite_2" d="M441.2 622.3c-2.3 4.1-.8 11.3-2.3 11.6-1.5.4-9.8 4.9-12.4 1.1-2.6-3.8-12-15-25.9-12.4s-21.8 1.1-30-.4c-8.3-1.5-11.6-3.8-17.3-3s-22.9 3.4-23.3.4c-.4-2.9-6.8-11.6-.1-17.2 1.6-.9 2.9-1.6 3.9-2.3 5.2-3.4 12-6 12.4-10.9.4-4.9 4.9-10.9 7.9-10.9s7.1-3.4 8.3-6c1.1-2.6 8.3-12 14.3-11.3 2.3.3 5.3.6 8.1.6 1 .6 1.7.9 1.7.9s8.3.4 10.5.8c2.2.4 10.9 6.4 12.8 8.6s9 5.3 13.1 8.6c4.1 3.4 10.1 7.9 13.9 15 .8 1.5 2.3 3 4.1 4.2-.2.4-.3.7-.3.7s2.8 17.8.6 21.9z" fill="url(#rocher_droite_2_1_)"/><linearGradient id="rocher_gauche_1_" gradientUnits="userSpaceOnUse" x1="126.195" y1="590.111" x2="126.195" y2="522.87"><stop offset="0" stop-color="#4b4b4a"/><stop offset="1" stop-color="#cdcccc"/></linearGradient><path id="rocher_gauche" d="M173.9 565.3c-2.6 5.3-.4 3-2.6 5.6-2.2 2.6-13.9 12.8-15.4 13.1-1.5.4-8.3 6.8-12 6s-11.6-4.9-19.9-4.9-12.4-7.1-20.3-10.1-11.3-.8-14.6-1.5c-3.4-.8-10.5-7.5-10.5-7.5.8.4 15-13.9 17.3-15 2.2-1.1 10.1-6.8 11.3-6s5.6-4.9 7.1-6.4 12.8-7.9 14.6-11.3 7.8-2.6 14.6-4.5c-.6.2 17.7 6.1 18.1 11.2.3 5.4 9.3 30.1 12.3 31.3z" fill="url(#rocher_gauche_1_)"/><linearGradient id="SVGID_9_" gradientUnits="userSpaceOnUse" x1="297.724" y1="680.899" x2="297.724" y2="552.227"><stop offset="0" stop-color="#1c1f1b"/><stop offset="1" stop-color="#6d7347"/></linearGradient><path d="M-7.1 552.2s17.7.8 26.2 3.4 33.8 8.4 45.6 8.4 16.9-1.7 22.8 2.5c5.9 4.2 39.7 17.7 46.5 17.7s27.4-24.6 39.9-19.1 104.6 25 107.1 28.3c2.5 3.4 19.1 23.2 20.8 18.3 1.7-4.9 24.7-12.4 28.1-9.4s23.7 10.6 30.4 10.6c6.8 0 75.9 1 78.9-5s-2.6-12.4-2.6-12.4 55.9 13.9 61.2 10.1 28.1-14.4 32.3-12 21.1 13.3 43.1 8.3c22-5.1 31.3 5.9 39.7 6.8 8.4.8 7.6 47.3 7.6 47.3l-30.7 17-217.4 4.5-225.2-1.1-134 4.5-38.3-45 18-83.7z" fill="url(#SVGID_9_)"/></g></g></g><g id="artemis" class="st0"><g id="artémis" class="st2"><linearGradient id="torse_jupe_1_" gradientUnits="userSpaceOnUse" x1="314.142" y1="298.652" x2="314.142" y2="407.435"><stop offset="0" stop-color="#e4e1e0"/><stop offset="1" stop-color="#f2f2f2"/></linearGradient><path id="torse_jupe" d="M351.5 407.4s-3.2-3.3-3.7-4.2c-.5-.9-2.8-4.4-2.6-8.2.2-3.9.9-9.3.9-11.5 0-2.2-.4-6.2-.3-8.6.1-2.4-6.5-33.4-7.3-35.4-.3-.6-.2-1.7-.4-3.2-.3-3.3-.6-8.1-.4-10.3.4-3.1 5.8-14.5 8.2-16.9 2.4-2.4 3.9-3.2 4.6-3.9.1-.1-3.2-.7-4.1-1s-1.3-1.3-2.7.3c-1.4 1.5-6.1 7.6-8.4 10.7-2.4 3.1-21.6 29.7-22 31.1-.4 1.3-15.3-14.9-16.8-16.6-1.5-1.7-14.8-29.8-16.3-30.7s-2.8.9-3.3 1 2.6 10.4 2.3 13.4c-.3 3-4.2 18.6-1.6 26.3-.4 5.1-.5 32.7-.5 32.7l1.6 25.9s56.1 3.8 56.2 3.8c.2-.1 16.6 5.3 16.6 5.3z" fill="url(#torse_jupe_1_)"/><linearGradient id="jambes_1_" gradientUnits="userSpaceOnUse" x1="302.498" y1="572.05" x2="302.498" y2="389.334"><stop offset="0" stop-color="#f6af9a"/><stop offset="1" stop-color="#fbd9cd"/></linearGradient><path id="jambes" d="M380.6 474.7c0 1.8-1.1 2.7-2.9 1.8-1.8-.9-2.3-3.1-2.3-3.1-.4.5-2.6.4-3.7-.1s-.8-1.6-1.3-2.2c-.5-.6-8.6-.1-11.1.1s-14.1-.8-24.6-.9c-1.5 0-3.5.2-5.6.5.3 7.4-.6 34.4-.6 36.4 0 2.1 4.1 8.3 3.5 10.8-.6 2.5-1 5.5-.8 6.4.2.9 2.1 4.8 2.4 7 .4 2.2 2.7 7.4 2.9 8.2.2.8 0 4-.4 6.5s-.3 11.1-.8 12.9c-.6 1.8-2.2 4-3.1 4.9-.8.8-2.3.6-2.3.6l-1.1 1.5c-1.1 1.5-3.2.1-3.1.7.1.6-.5 2.2-2 2.5-1.5.4-2.9-.8-2.9-.8-.3 1.1-1.8 1.2-3.8.7-2.1-.6-.8-2.3-.9-3.4-.2-1.1-1.7-1.3-1.5-.8.3 1.2.4 5.8-1.5 6.8-1.9.9-5 .4-6.6-3.8-.9-2.4 1.1-12 1.9-13.9s3.4-15 3.8-17.6c.4-2.6 1.1-8.5.6-10.9-.6-2.4-1.9-14.1-3-20.5-.8-4.8-5.3-16.5-10-26.5-2.6.8-4.5 1.3-5 1.4-2.6.2-24.2 4.7-26.3 4.3-2.1-.4-26.7 2.3-35.1-4.7-8.5-6.9-8.8-12.6-9-20.7-.2-8.1 5.2-13.3 12.8-21.6 7.5-8.3 17.8-12.2 22-12.8 4.1-.6 6.2-5.2 6.2-5.2s10.6-2.8 16.4-3.7c-.1-2.5-.2-5.2-.8-7-1.3-3.6.4-8.6 1.4-9.9 1-1.3.7-4 10.6-7.5 3.8-1.4 7.2-1.8 10-1.7 4.6.1 8 1.4 10.4 2.1 1.4.4 4.5 1.6 7.9 2.9.1 0 .2.1.3.1 2.9 1.2 5.3 2.2 5.3 2.2s3.9 2.9 7.5 3.7c3.4 6.2 20.9 38.8 17.6 42.9-.2 3.1 3.7 10 4.7 10.6.9.4 7-.3 9.6-.3 2.6 0 4.7 1.3 6.3 2.2 1.5 1 3.2 4.3 3.8 5.1.6.8 2.4 4 2.7 5.1.4 1 .4 2.3-.4 3 2 1.3 1.9 3.9 1.9 5.7z" fill="url(#jambes_1_)"/><path id="ombre_cuisse" class="st17" d="M299.8 478.5c-2.6.8-4.5 1.3-5 1.4-2.6.2-24.2 4.7-26.3 4.3-2.1-.4-26.7 2.3-35.1-4.7-7.7-6.3-8.7-11.5-9-18.5.9.6 2 1.5 2.8 1.8 1.8.9 2.7 7.6 3.5 9.3.8 1.7 4.5 2.8 7.3 3.1 2.8.3 7.5 0 12.7.7 5.2.7 10.4 1.1 12 0 1.6-1.1.3-6-.3-7.9-.6-1.8.8-4.5 1.5-6.2.7-1.7 3.4-21.8 2.9-23.4-.4-1.1-3.8-6.9-4.4-7.7 1 .2 2 .4 2.8.7 2 .6 11.8-5.1 13-5.6 1.2-.5.6-3.7.8-3.4l.5 1.5c.6-.2 1.2-2.9 1.6-5.2 1.1 4.5 3.3 7.4 3.5 7.8.1.5.3 2.7 1.1 8 .7 5.3 1.6 10.8 1.7 12 .1 1.2 2.8 8.4 3.5 11.8.7 3.5 2.9 8.9 3.4 9.9.5 1.1 5.5 10.3 5.5 10.3z"/><path id="ombre_jambe" class="st17" d="M337.3 445.7c-.1 1.2-.3 2.5-1.1 3.4-1.9 2.2-5.1.5-7.9 1.5.2 1.8.1 3.4 0 5.6 7.2-3 15.5-1.6 23.1-3.2.5-.1 1-.2 1.4-.5.6-.5.9-1.3 1-2.1.7-3.4.2-7-1.4-10-1.1-2.2-2.7-4.1-4.1-6.1-4.5-6.4-7.2-14-11.5-20.5-.8-1.3-1.8-2.5-3-3.3-4.3-2.8-3.9 1.7-3.5 4.6.5 3.5 1.5 6.9 2.6 10.3 2.2 6.6 4.8 13.3 4.4 20.3z"/><path id="ombre_pied" d="M349.5 444.8c-1.6 1.4-3.6 2.3-5.5 3.2-1.2.6-2.5 1.1-3.7 1.7-3.4 1.5-6.9 3.1-10.6 3.4-.4 0-.9.1-1.3-.1v-.7c.8-.2 2.1 0 2.8-.2 1.2-.2 2.4-.6 3.6-1 1-.3 1.9-.6 2.8-1.2.7-.4 1.3-.9 1.9-1.4 3-2.1 6.5-3.4 10-3.7z" opacity=".09" fill="#894114"/><linearGradient id="bout_jupe_2_" gradientUnits="userSpaceOnUse" x1="264.55" y1="398.26" x2="264.55" y2="431.479"><stop offset="0" stop-color="#e4e1e0"/><stop offset="1" stop-color="#f2f2f2"/></linearGradient><path id="bout_jupe" d="M282.2 398.6c-1 1.3-2.7 6.4-1.4 9.9.6 1.7.8 4.5.8 7 0 0-1.2 8.2-2.2 8.5 0 0-.3-1.3-.5-1.5-.1-.3.4 2.9-.8 3.4-1.2.5-11 6.2-13 5.6-2-.6-5.1-1.2-6.1-1.2s-8.5-2-11.6-1.3c-.1 0-.2 0-.3.1-2.9.9 6.2-4.5 9.1-4.6 2.9-.2 7.1-.5 8.2-6.6 1-6.1 14.2-19.6 14.2-19.6s2.5.3 3.6.2c.1 0 .1 0 0 .1z" fill="url(#bout_jupe_2_)"/><linearGradient id="bras__x2B__cou_1_" gradientUnits="userSpaceOnUse" x1="297.116" y1="279.68" x2="297.116" y2="479.706"><stop offset="0" stop-color="#f6af9a"/><stop offset="1" stop-color="#fbd9cd"/></linearGradient><path id="bras__x2B__cou" d="M313.4 346.2s22-30.9 22.6-31.9c.6-1 7.7-10 8.9-10.7.1-.1.2-.1.3-.2-8.3-2.4-16.9-4.5-18.7-5.8-3.4-2.3-6.2-18-6.2-18l-27.5 5.5s-8.5 12.6-12.6 13.7c-1.9.5-2.8.8-3.3 1.1v-.1s0 .1-.1.2c-.3.2-1.1.6-3.6.8-3.7.4-8.9-.2-14.8 4.6s-3.4 23.1-3.4 24.9c0 1.8-.7 9.6-.4 14.4.3 4.8 2.5 17.7 2.3 20.3-.3 2.4-.2 15.8.9 20.4-4.3 2-14.4 10-15.6 10.6-1.3.8-9.8 10.7-10.5 11.8-.8 1.1-2.4 8.1-3.4 10-.9 1.9-.8 6.6 0 7.1.8.6 3.4.4 3.8-2.8.3-2.2 3.3-8.1 5-11.3-.8 1.9-1.7 4.9-2.5 8-1.3 4.9-1.1 8.6-.9 10.5.2 1.9 4.3 1.5 5.3-5.6.6-4.3 2.8-8.8 4.2-11.6-.7 2.4-1.5 5.9-2 8.4-.7 3.5-1.7 7.1 0 8.5 1.7 1.3 3.2-3.2 3.6-4.5.4-1.3 5.8-16.7 5.6-15.6-.2 1.1-2.4 9.8-2.6 12-.2 2.2-1.9 5.2.9 4.5s6.4-12.4 7.3-13.9c.3-.6 1.9-2.3 3.7-4.3 0 .1 0 .2.1.3 1.1 3.4 2.8 9.2 4.1 14.1 1.1 4.2 1.9 7.8 2 8.8.2 2.2 1 13.5.4 14.2-.6.7-3.1 4.7-3.1 8.9s-.1 11.4 0 12c.1.6 2.8 3.2 4.4 4.1 1.5.8 2.3 1 2.5 1.8.3.8 2.5 3.5 3.8 3.9 1.3.4 2.5-.3 3.2 0 .7.3 3.2 3.2 4.5 3.2h1.3s1.7 1.5 2.5 1c.8-.6 1.8-1.5 2-3.7.2-2.1-1.4-3.2-1-4.2.4-1 3.7-2.7 3.9-4.5.3-1.8 1-7.9-1-13s-2.9-8.9-5.6-11.7c-1-1-5.6-18.9-5.5-21.4 0-.5.1-2.4.2-5 .1-4.5.3-11.2.4-17.9.4.1.8.1 1.1.2.8.1 1.6.2 2.4.2 1-1.3.7-4 10.6-7.5 10-3.6 16.5-.8 20.5.4 2.2.6 8.5 3.1 13.6 5.1.8-.1 1.4-.2 1.6-.2 3-.8 24.2-30.6 26.7-35.1 3.8-7 7.1-26.1 8-27.8 6.6-13.2 2.3-20-2-23.9-1.4-1.3-5.6-2.9-10.5-4.4 0 0 0 .1-.1.1-.6.5-3.5 3-4.7 3.9-1.1.9-9.1 11.6-8.5 20.9.6 9.3 1 9.5 1 9.5s-.6 2.3-1 2.9c-1.1 1.8-2.5 4.2-4.3 7.1-7 11.5-14.6 27-15 27-3.6 0-14.1 2.6-16.7 3.2-2.6.5-12.4 2.4-22.5 2.4v-4c-.1-7.2-.8-30.8-1.1-35-.2-2.6-1.7-10.3-.6-16.8 0 0 .5-4.7 1-7.7.6-3.2 1.3-5 1.3-5.7 0-1.4-2.2-10.4-2.6-11.9-.4-1.5 2.8-2.1 3.3-2.1s8.3 15.2 8.7 16.2c.5 1 10.1 24.3 24.4 31.1" fill="url(#bras__x2B__cou_1_)"/><path id="ombre_bras" class="st17" d="M279.3 313.3c-.2 1.8-1.8 8.6-2.3 15.4 0-.2-.1-.3-.1-.5-1-2.9-3.8-5-4.2-8-.1-1 .1-2 .2-3.1.4-4.2-.6-8.4-2-12.3-.3-.9-1.1-2.3-1.7-3.5 1.5-.1 2.9-.2 4.1-.3 2.5-.2 3.3-.6 3.6-.8l.1-.1c-.3 1 2.5 10.4 2.3 13.2z"/><path id="ombre_cou" class="st17" d="M330.8 321.5c-1.6 2.3-3.5 4.9-5.5 7.6-.8-.5-1.5-1.4-1.8-2.3-.6-1.8-.3-3.7 0-5.5.3-1.8.5-3.8-.1-5.5-.5-1.3-1.5-2.3-2.4-3.3-3.1 1.6-4.1 5.5-5.4 8.7-1.7 4.3-4.4 8.3-7.9 11.4-1 .9-2.4 1.9-3.8 1.5-1-.3-1.7-1.2-2.5-1.9-.8-.8-1.8-1.3-2.7-2.1-1.3-1.3-1.9-3.2-2.5-4.9-.9-2.7-1.7-5.4-2-8.1-.3-3.1 0-6.2-.1-9.2-.1-4.9-1.2-9.6-2.3-14.4h.5c3.4 4 6.3 6.7 7.7 7.3 2.2 1.1 6.6 2 9.3-.3 2.6-2.2 10.7-10.7 11-20.8v-.4c.4-.3.8-.5 1.1-.7 1.5-.7-.1 5.4 1.5 5.9 2 .6 2.8 1.2 2.4 3.2-1 4.2-1 8.5-1 12.8.1 5.4.4 11.2 3.5 15.6.6.8 1.2 1.5 1.7 2.3.7.9 1.1 2 1.3 3.1z"/><linearGradient id="tête_3_" gradientUnits="userSpaceOnUse" x1="298.813" y1="242.148" x2="298.813" y2="301.929"><stop offset="0" stop-color="#f6af9a"/><stop offset="1" stop-color="#fbd9cd"/></linearGradient><path id="tête" d="M320.4 279.7s-.3-27.6-12.1-35.2-45.9 2.9-23.7 38.3c6.2 9.9 13.2 16.9 15.5 18 2.3 1.1 6.6 2 9.3-.3 2.6-2.2 10.7-10.7 11-20.8z" fill="url(#tête_3_)"/><linearGradient id="cheveux_3_" gradientUnits="userSpaceOnUse" x1="266.682" y1="293.798" x2="335.541" y2="305.94"><stop offset="0" stop-color="#8d2b13"/><stop offset="1" stop-color="#d16215"/></linearGradient><path id="cheveux" d="M286.4 254.2c.5-1.3 1.3-2.5 2.5-3.2 1.2-.8 2.5-1.2 2.6.3.4 2.8 5.1 8.4 8.3 9.4 3.2.9 5.4 10.3 10.3 12.6 4.9 2.3 10.9 11.5 11.8 14.1s1.4 7.3 2.4 6.9c1-.5 1.9-4.7 2.3-3.6.4 1.1 6.2 13.1 9.1 14.1 0 0-3-4.4-3.4-10.2-.4-5.8-.8-10.3-1.5-13.1-.8-2.8-2-13.7-2.1-15-.1-1.3-3.5-9.5-4.4-11.6-.9-2.2-8.8-13.4-9.8-13.9-.9-.4-8.2-6.4-15.2-6-1.1.1-2.2-.1-3.3-.4-1.2-.3-3.1-.6-5.1-.1-3 .8-7.3 3.7-9.1 7.1-.8 1.4-1.7 2.7-2.9 3.7-1.1 1-2.5 2.5-3.1 4.2-1.3 3.6-4.4 12.4-3.7 16.4.8 4 1.6 8.6 2.3 10.6.8 2 1.8 9 2 10.4.2 1.4.8 4 2.6 9.4 1.9 5.3 4 14 4 15.4 0 1.4-2.4 10.3-4.1 12.8s-2.6 11.5-1.4 15.3c0 0 .7-7.2 2.3-9.3 0 0-.9 5.3 1.4 10 0 0-1.6-7-.3-8.9 0 0 2.5 13.9 6.1 20s5.3 5.8 6.7 8.4c1.4 2.6 5.2 4.9 6.8 5.1 1.6.2 2.2-.8 4.6-.5 2.4.4 6.7 1 7.5.8 0 0-2-.9-1.6-3.7 0 0 2.2 3.7 4 4.8 1.9 1.1 4.7.5 5.3-.5 0 0-1.7-.8-2.9-2.5-1.2-1.8-1.9-3.3-2.7-4.6 0 0 7.2-1.3 8.9-2.7 0 0-5.3-.1-6.5-1.5-1.2-1.4-3.4-5.7-3.8-8.4-.4-2.6-6.5-10.8-8.2-12.7-1.7-1.9-5-4.1-4.9-6.9.1-2.7.3-5 1.1-7 .8-2.1-.8-7-1.4-10.6-.6-3.6-5.1-10.8-5.3-11.9-.3-1.1-7-9.2-7.3-10.2-.3-1 .5-4.2.1-8.4s-3-10-3.6-11.2c-.6-1.1-2.9-7.5-1.9-8.9 1-1.4 2.4-1.9 3.6-3 .5-.5.8-.9.9-1.3z" fill="url(#cheveux_3_)"/><linearGradient id="bout_jupe_3_" gradientUnits="userSpaceOnUse" x1="333.315" y1="389.294" x2="333.315" y2="453.89"><stop offset="0" stop-color="#e4e1e0"/><stop offset="1" stop-color="#f2f2f2"/></linearGradient><path id="bout_jupe_1_" d="M363.7 426.4c-1.3 3-4.2 6.2-3.9 8.3.3 2.1 1.8 5.5-.8 9 0 0 .3 4.5-1.8 5.1 0 0 1.4 4.2-.3 5.1-.4-.2-3.5-1.8-4.4-2.6-1-.8-1-3.2-1.4-3.2-.4 0-4.4 0-4.1-1.1.3-1.1 3-2.1 2.3-2.7-.7-.6-4.6-2.4-5.3-4.8-.7-2.4-2.1-8-4.5-12.1s-12.8-20.1-15.1-24c-2.6-4.4-10.6-13.2-21.2-14h-.4s4.2-.2 8.9 1.2c2 .6 6.3 2.3 9.8 3.8.1 0 .2.1.3.1 2.9 1.2 5.3 2.2 5.3 2.2s3.9 2.9 7.5 3.7c.3.1.7.1 1 .2 3.8.4 4.5-.8 11.5 3.8s14.1 9.6 15.3 10.6c1.2 1 2.5 5.1.3 6.8-.2-.1 2.3 1.6 1 4.6z" fill="url(#bout_jupe_3_)"/><linearGradient id="bracelet_pied_droit_1_" gradientUnits="userSpaceOnUse" x1="319.912" y1="505.995" x2="319.912" y2="515.342"><stop offset="0" stop-color="#0f4c49"/><stop offset="1" stop-color="#37a19f"/></linearGradient><path id="bracelet_pied_droit" d="M310.5 509.5s0 1.3.7 1.5c.9.2 2 1.4 2.3 1.4s1.2 0 2.7.5c1.5.5 1.6-.2 2.3-.2s2.1.4 2.8.3.8-1 1.6-1 1.1.3 1.9-.1.8-1.6 1.9-1.6c1.1 0 2.3-1 2.1-1.4-.2-.4-.6-2.6-.2-2.6s-.2-.9 1.3.4 0 1.2.1 1.9.3 1.3-.7 1.8c-.9.5-.9 1.4-1.6 1.8s-.7 1.2-.6 1.6c.1.4-1.9-.6-2.3-.2-.4.4-1.7 2-1.9 1.6s-.4-.8-.9-.7c-.6.1-.9 0-1.7 0s-1.3.4-1.8.5c-.5.1-1.2-.3-1.2-.3l-1.2.7s-1.5-1.1-2.1-1.1c-.6 0-1.8-.2-2.2-.4-.4-.2-1.5-1-1.5-1s-1-1.2-1.1-2c0-.8.9-1.5 1.3-1.4z" fill="url(#bracelet_pied_droit_1_)"/><linearGradient id="bracelet_pied_penché_1_" gradientUnits="userSpaceOnUse" x1="327.134" y1="463.61" x2="332.183" y2="464.5"><stop offset="0" stop-color="#432918"/><stop offset="1" stop-color="#683c11"/></linearGradient><path id="bracelet_pied_penché" d="M328.4 456.7s3 4.7 3.2 8.4-.6 5.5-.6 5.5l-1.1.6s.3-1.9.1-3.5c-.2-1.6-.3-4.7-1.4-6.9 0 0-.1-3.8-.2-4.1z" fill="url(#bracelet_pied_penché_1_)"/><path id="ombre_cuisse_2" class="st17" d="M337.3 445.7c-.1 1.2-.3 2.5-1.1 3.4-1.9 2.2-5.1.5-7.9 1.5 0 0-1.2-2.7-1.8-9.8s-4.8-17.3-7-20.1c-1.2-1.5-2.2-3.3-2.9-4.7-.6-1.3.4-2.9 1.9-2.7 2.7.4 4.9 3.4 6.6 5 2.3 2.1 5.8 12.4 6.6 14.9.6 1.8 3.5 4.4 5.3 7.3.3 1.6.4 3.4.3 5.2z"/><path id="ombre_pied_1_" class="st17" d="M370.4 471.1c-.5-.6-8.6-.1-11.1.1s-14.1-.8-24.6-.9c-1.5 0-3.5.2-5.6.5 0-.6-.1-2-.1-2s.5-1.3 2.5-1.5c2-.3 6.3-.3 8.5-1.4 2.1-1.1 8.1-.8 6.9-.3-1.2.5-4.8 1.1-3.1 1.4 1.7.4 10.3-1.8 11.9-1.8s8.4-.8 10.3-.9 4.2 1.3 4.7 2.3c.4 1 .1 4-.3 4.5z"/><path id="ombre_cuisse_3" class="st17" d="M262 432.3c-1.1.4-7.4 2.4-9.2 2.7-1.8.4-3.3 1.5-4.3 1.5s-2.6-.4-4.4.4c-1.8.8-5.1.5-5.7 1-.5.4-2.1 1-3 1.4.6-.6 1.2-1.3 1.8-2 3.2-3.5 6.9-6.3 10.5-8.3 3.1-.7 10.6 1.3 11.5 1.3.6 0 1.9.2 3.3.5-.1.8.6 1.1-.5 1.5z"/><path id="ombre_bras_1_" d="M278.7 398.3c-.1 4.7-.2 9.5-.3 13.4-.2-.1-.4-.3-.7-.7-2.5-3.5-6.9-.8-11.3 2.7-3.3 2.7-3.2 5.8-2.9 7.2-1.2-4.8-2.8-10.1-3.9-13.4s.1-.7.8-1.6 5.8-7.1 6.8-7.9c1-.8 3.1-.8 4.2-.6 4 .7 7.3.9 7.3.9z" opacity=".04" fill="#894114"/><path d="M279 382.2s-8 0-10.7.7c-2.7.7-8.1 1.7-10.5 2.6v-.2c1-.5 3-1.2 5.2-1.7 4.3-.9 11.4-2.1 13-2 1.7.1 3 .6 3 .6z" opacity=".05" fill="#894114"/></g><g id="faon" class="st2"><linearGradient id="SVGID_10_" gradientUnits="userSpaceOnUse" x1="184.135" y1="420.957" x2="184.135" y2="609.84"><stop offset="0" stop-color="#9a3f1a"/><stop offset="1" stop-color="#fbc17b"/></linearGradient><path d="M242 490s12.4-14.5 15.7-21.3c3.3-6.8 6.8-16.3 7.4-16.3s9.9 3.9 14.9 4.3c5 .4 18.2-.4 19.2-1.7 1-1.4-.2-6-2.7-6.8-2.5-.8-8.3-8.3-8.9-9.5-.6-1.2-2.4-2.5-2.7-3.6-.3-1.2-2-3.8-3.6-5.7-1.6-1.9-6.8-7-8.3-7.4-1.5-.4-12-2.3-14.9.3-2.9 2.6-6.1 7.3-6.8 8.1-.7.9-7.8 9.9-9.4 12.6-1.6 2.8-7.4 12.3-10.7 14.2-3.3 1.9-7.3 5.1-18.1 4.4-10.9-.7-36.3-3-42.8-4.6-6.5-1.6-23.8-4.7-25.5-4.9-1.7-.2-9.5-2.1-19.5-2.7s-12.6-.8-14.1-2.7c-1.5-1.9-9.5-9.7-11.2-10.3-1.7-.6-7.2-5.4-9.3-5.4-2.1 0-17-2.7-20.5-2.1-3.5.6 4.5 7.9 6.2 9.5 1.7 1.5 6.2 4.8 9.7 6 3.5 1.2 11.2 3.9 14.5 6.2 3.3 2.3 1.7 4.1-.6 5.4-2.3 1.4-6.8 4.1-6 8.5s4.6 16.6 7.2 21.9c2.5 5.2 8.3 11.8 6 17-2.3 5.2-3.7 14.1-14.7 19.9s-11.2 7.5-11.8 8.1c-.6.6 1.4 21.1 1.9 30.4.6 9.3 2.7 32.5 2.1 33.1-.6.6 8.5-.2 9.5-.6 1-.4.4-3.5-.8-8.1-1.2-4.6-1.4-8.7-1.4-10.8s-1-23.6-.2-26.5 4.5-9.9 6.8-9.9 1.7-1.5 2.9 1.2 15.5 24 18 26.3c2.5 2.3 10.6 12.4 10.8 13.5s1.2 7.2 1.7 8.5c.6 1.4 3.3 1.2 3.5 2.9s-.2 5.2 1.7 5.4c1.9.2 4.5-.4 4.5-.4s.6-6.2 0-7.9c-.6-1.7-3.7-7.5-7-13-3.3-5.4-9.7-14.5-11.4-16.8-1.7-2.3-6.6-10.3-6.6-11 0-.8-2.5-16.1.6-18.6s10.3-6 13.7-13.4c0 0 12.2-7.5 14.7-8.5s4.8-.2 6.8.2c1.9.4 28.2 10.6 30.4 10.6 0 0-9.9 45.1-10.1 47.6-.2 2.5-5.6 16.4-6.8 19.3-1.2 2.9-3.7 13.7-3.3 15.5s4.6 1.4 5.4 1.5 2.5-4.6 3.5-7.2c1-2.5 2.1-13.2 3.1-16.1 1-2.9 7.4-15.1 8.7-16.4 1.4-1.4 5-10.1 5.8-12.4s5-16.4 6.6-17.6 6-7.4 6.8-7c.8.4 4.8 2.1 6.4 2.1s4.3 12.2 5.2 14.5c1 2.3 16.8 55.9 17 57.7.2 1.7.8 8.5.8 9.7s11.6-.2 11.6-.2-.2-5.4-.4-7.5c-.2-2.1-3.9-5.2-4.5-8.1-.6-2.9-9.9-28.6-9.5-31.3s2.5-6.2 1.4-10.1c-1.2-3.9-6.6-15.7-5.6-22.6 1-7 1-13.7 2.7-14.1 1.7-.4 9.9-7.2 11-10.4.9-3.3 3.3-14.9 3.3-14.9z" fill="url(#SVGID_10_)"/><path id="jambe_arrière_beige" class="st29" d="M120.7 513.9c-.3 4.1-.3 9.1-3.2 11.8-2.3 2.1-12 7.7-16.8 13.7-.3-.6-.4-.8-.6-.8-.3 0-.7.4-2 .4-2.3 0-6 7-6.8 9.9-.8 2.9.2 24.4.2 26.5 0 2.1.2 6.2 1.4 10.8 1.2 4.6 1.7 7.7.8 8.1-1 .4-10.1 1.2-9.5.6.6-.6-1.5-23.8-2.1-33.1-.6-9.3-2.5-29.8-1.9-30.4.6-.6.8-2.3 11.8-8.1s12.4-14.7 14.7-19.9c2.3-5.2-3.5-11.8-6-17-2-4.1-4.8-12.6-6.3-18.1 1.7-3.4 3.1-5.9 3.1-5.9s9.3 3.2 9.6 5.8c.3 2.6 8.9 21.6 9.6 22.9.5.9 4.3 18.7 4 22.8z"/><path id="blanc_queue" class="st30" d="M107.7 453.6c-2.3 2.1-5 3.9-6.4 6.4-1.4 2.5-3.1 4.3-3.7 7s2.1 8.7-1.4 7.2c0 0-.1 0-.1-.1-1.2-3.9-2.2-7.6-2.6-9.6-.8-4.5 3.7-7.2 6-8.5 2.3-1.4 3.9-3.1.6-5.4-3.3-2.3-11-5-14.5-6.2-3.5-1.2-7.9-4.5-9.7-6-1.6-1.4-8.3-7.6-6.9-9.2l.7-.3s11.8 4.1 14.3 5c2.5 1 15.1 8.7 17.2 10.1 2.2 1.3 8.8 7.5 6.5 9.6z"/><g id="oeil"><path class="st31" d="M277.5 439s-2-4.1-4.8-3.9c-2.8.1-5.2 1.6-4.5 2.5.7.8 1 3.7 9.3 1.4z"/><circle class="st30" cx="270" cy="436.4" r=".9"/></g><path id="museau" class="st31" d="M299 455l-.1.1c-.3.3-1.2.5-2.3.7-1.2-.5-2-2.6-2.9-4.3-1.5-2.8 2.6-3.3 2.6-3.3 2.6.8 3.7 5.4 2.7 6.8z"/><path id="jambes_blanches_et_ventre" class="st30" d="M243.3 609.2s-11.6 1.4-11.6.2-.6-7.9-.8-9.7-16.1-55.3-17-57.7c-1-2.3-3.7-14.5-5.2-14.5-1.6 0-5.6-1.7-6.4-2.1-.8-.4-5.2 5.8-6.8 7-1.5 1.2-5.8 15.3-6.6 17.6-.8 2.3-4.5 11-5.8 12.4-1.4 1.4-7.7 13.5-8.7 16.5-1 2.9-2.1 13.5-3.1 16.1-1 2.5-2.7 7.3-3.5 7.2s-5 .2-5.4-1.5c-.4-1.7 2.1-12.6 3.3-15.5 1.2-2.9 6.6-16.8 6.8-19.3.2-2.5 10.1-47.6 10.1-47.6-2.1 0-28.4-10.3-30.4-10.6-1.9-.4-4.2-1.2-6.8-.2-.7.3-2 1-3.6 1.9 2-1.3 6.2-4.5 6.3-8.7 0 0 7.9-4.2 11.2-4.1 3.3.2 9.7 2.7 10.3 6 .6 3.3 4.5 2.5 9.3 3.1 4.8.6 14.1-1 18 1.4 3.9 2.3 13.7 11.4 14.9 18.6 1.2 7.2 8.5 31.2 10.6 34.6 2 3.3 6.2 7.2 7.9 8 2.5 8.6 7.7 23.3 8.2 25.5.6 2.9 4.3 6 4.5 8.1.1 1.9.3 7.3.3 7.3z"/><path id="bout_haut_jambe_blanche" class="st30" d="M130.7 515.7c-3.5 7.4-10.6 10.8-13.7 13.4-.4.3-.7.8-.9 1.5-2.2.6-4.6.9-5.5 1-1.4.2-1.5 4.8-4.6 5.2-3.1.4-4.8 3.3-4.8 3.3-.1-.1-.6-.8-.9-1.6-.3-.7-.5-1.5 0-2.1 1-1.2 4.6-3.9 7.9-5.6 3.3-1.7 11.2-9.1 13.2-10.4 1.8-1.4 9.3-4.7 9.3-4.7z"/><path id="bout_jambe_blanche" class="st30" d="M141.3 596.4s-2.5.6-4.4.4c-1.9-.2-1.6-3.7-1.7-5.4-.2-1.7-2.9-1.5-3.5-2.9-.6-1.4-1.5-7.3-1.7-8.5 0-.1-.2-.4-.4-.8-.5-3.8-1.6-10.2-2.5-14.7 2.5 3.6 5.4 7.9 7.3 11.1 3.3 5.4 6.4 11.2 7 13 .5 1.6-.1 7.8-.1 7.8z"/><g id="oreille_droite"><path class="st29" d="M284.5 409.1c-.2.6-.4 1.3-.6 2.1-1.1 3.4-6.1 10.9-7.7 13.2-1.4-1.3-2.8-2.3-3.4-2.5-1.1-.3-7.3-1.5-11.6-.9H260.4s14.2-12.7 22.2-14.9c2.2-.5 2.5.5 1.9 3z"/><path class="st30" d="M284.7 407.5s-.1.6-.2 1.6c-.2.6-.4 1.3-.6 2.1-1.1 3.4-6.1 10.9-7.7 13.2-1.4-1.3-2.8-2.3-3.4-2.5-.7-3.8 2.5-8.6 4.6-11.2 2.3-2.5 7.3-3.2 7.3-3.2z"/></g><g id="oreille_gauche"><path class="st29" d="M255.3 428.6c.7-.7 1.1-1.6 1.1-2.6 0-3.2.1-11.9-.2-12.8-.4-1.1-7.1-10.7-13.5-10.4-2.7.1-4 12.3-3.2 16.9s2.9 6.7 4.6 7.6c1.7 1 4.8 1.9 5.1 2.9.3 1-.1 1.8.5 2.2.4.3 3.8-2 5.6-3.8z"/><path class="st30" d="M243.1 405.6s8 3.2 8.6 6.8c.6 3.6.8 14.5.3 15.2-.5.7-1.9 1-2.2.7-.3-.3-8.4-4.9-8.7-8.9-.3-4 1.3-13.7 2-13.8z"/></g><g id="tâches"><path class="st30" d="M123 457.2c-1.9 0-1.9 2.2 0 2.2 1.9-.1 1.9-2.2 0-2.2zM127.6 463c-1.9 0-1.9 2.2 0 2.2 1.9-.1 1.9-2.2 0-2.2zM138.8 465.7c-1.9 0-1.9 2.2 0 2.2 1.9-.1 2-2.2 0-2.2zM161.7 466.5c-1.9 0-1.9 2.2 0 2.2 1.9-.1 1.9-2.2 0-2.2zM153.9 466.1c-1.9 0-1.9 2.2 0 2.2 1.9-.1 1.9-2.2 0-2.2zM150.8 461c-1.9 0-1.9 2.2 0 2.2s1.9-2.2 0-2.2zM140.8 456.4c-1.9 0-1.9 2.2 0 2.2s1.9-2.2 0-2.2zM137.7 450.6c-1.9 0-1.9 2.2 0 2.2s1.9-2.2 0-2.2zM159 455.2c-1.9 0-1.9 2.2 0 2.2s1.9-2.2 0-2.2zM181.8 462.6c-1.9 0-1.9 2.2 0 2.2s1.9-2.2 0-2.2zM174.1 459.5c-1.9 0-1.9 2.2 0 2.2s1.9-2.2 0-2.2zM162.4 456.8c-1.9 0-1.9 2.2 0 2.2 2-.1 2-2.2 0-2.2zM170.6 466.8c-1.9 0-1.9 2.2 0 2.2s1.9-2.2 0-2.2zM185.3 467.6c-1.9 0-1.9 2.2 0 2.2s1.9-2.2 0-2.2zM193.8 467.2c-1.9 0-1.9 2.2 0 2.2s1.9-2.2 0-2.2zM190.3 461c-1.9 0-1.9 2.2 0 2.2s1.9-2.2 0-2.2zM203.5 462.6c-1.9 0-1.9 2.2 0 2.2s1.9-2.2 0-2.2zM207.3 462.6c-1.9 0-1.9 2.2 0 2.2s1.9-2.2 0-2.2zM213.1 469.9c-1.9 0-1.9 2.2 0 2.2s2-2.2 0-2.2zM221.3 469.9c-1.9 0-1.9 2.2 0 2.2s1.9-2.2 0-2.2zM225.5 473c-1.9 0-1.9 2.2 0 2.2s1.9-2.2 0-2.2zM131.3 450c-1.9 0-1.9 2.2 0 2.2 1.9-.1 2-2.2 0-2.2zM125.1 450.8c-1.9 0-1.9 2.2 0 2.2s1.9-2.2 0-2.2zM118.7 450c-1.9 0-1.9 2.2 0 2.2 1.9-.1 1.9-2.2 0-2.2zM116 452c-1.9 0-1.9 2.2 0 2.2s1.9-2.2 0-2.2zM113.3 449.4c-1.9 0-1.9 2.2 0 2.2 2-.1 2-2.2 0-2.2zM110.6 446.5c-1.9 0-1.9 2.2 0 2.2 1.9-.1 1.9-2.2 0-2.2zM145 459.7c-1.9 0-1.9 2.2 0 2.2s1.9-2.2 0-2.2zM145.4 456.5c-1.9 0-1.9 2.2 0 2.2s1.9-2.2 0-2.2zM151.1 454.3c-1.9 0-1.9 2.2 0 2.2s1.9-2.2 0-2.2zM145.3 452c-1.9 0-1.9 2.2 0 2.2s1.9-2.2 0-2.2zM161.8 471c-1.9 0-1.9 2.2 0 2.2s1.9-2.2 0-2.2zM142.2 468.7c-1.9 0-1.9 2.2 0 2.2 1.9-.1 1.9-2.2 0-2.2z"/><path class="st30" d="M139.9 470.1c-1.9 0-1.9 2.2 0 2.2s1.9-2.2 0-2.2zM166.3 471c-1.9 0-1.9 2.2 0 2.2s1.9-2.2 0-2.2zM149.8 472c-1.9 0-1.9 2.2 0 2.2s1.9-2.2 0-2.2zM146 472.9c-1.9 0-1.9 2.2 0 2.2s1.9-2.2 0-2.2zM150.2 477.2c-1.9 0-1.9 2.2 0 2.2s1.9-2.2 0-2.2zM151.8 480c-1.9 0-1.9 2.2 0 2.2s1.9-2.2 0-2.2zM152.7 485.4c-1.9 0-1.9 2.2 0 2.2 1.9-.1 1.9-2.2 0-2.2zM183.7 490.6c-1.9 0-1.9 2.2 0 2.2s1.9-2.2 0-2.2zM188.7 492.2c-1.9 0-1.9 2.2 0 2.2s1.9-2.2 0-2.2zM194.5 493.4c-1.9 0-1.9 2.2 0 2.2 1.9-.1 1.9-2.2 0-2.2zM200 495.5c-1.9 0-1.9 2.2 0 2.2s1.9-2.2 0-2.2zM205.8 492.2c-1 0-1.4.5-1.4 1.1-.2-.4-.6-.7-1.3-.7-1.9 0-1.9 2.2 0 2.2 1 0 1.4-.5 1.4-1.1.2.4.6.7 1.3.7 1.9 0 1.9-2.2 0-2.2zM207.8 481.2c-1.9 0-1.9 2.2 0 2.2 1.9-.1 1.9-2.2 0-2.2zM204.6 485.1c-1.9 0-1.9 2.2 0 2.2 1.9-.1 1.9-2.2 0-2.2zM200.1 483.5c-1.9 0-1.9 2.2 0 2.2s1.9-2.2 0-2.2zM203.3 479.3c-1.9 0-1.9 2.2 0 2.2 1.9-.1 1.9-2.2 0-2.2zM200.1 476.7c-1.9 0-1.9 2.2 0 2.2 1.9-.1 1.9-2.2 0-2.2zM197.4 471.6c-1.9 0-1.9 2.2 0 2.2s1.9-2.2 0-2.2zM201.7 467.2c-1.9 0-1.9 2.2 0 2.2s1.9-2.2 0-2.2zM206.2 465.6c-1.9 0-1.9 2.2 0 2.2s1.9-2.2 0-2.2zM186.2 472.6c-1.9 0-1.9 2.2 0 2.2s1.9-2.2 0-2.2zM181.7 470.3c-1.9 0-1.9 2.2 0 2.2 1.9-.1 1.9-2.2 0-2.2zM178.6 467.7c-1.9 0-1.9 2.2 0 2.2 2-.1 2-2.2 0-2.2zM175.7 474.1c-1.9 0-1.9 2.2 0 2.2 2-.1 2-2.2 0-2.2zM170.4 475.4c-1.9 0-1.9 2.2 0 2.2 1.9-.1 1.9-2.2 0-2.2zM230 471c-1.9 0-1.9 2.2 0 2.2s1.9-2.2 0-2.2zM232.5 483.5c-1.9 0-1.9 2.2 0 2.2s1.9-2.2 0-2.2zM229.3 492c-1.9 0-1.9 2.2 0 2.2s1.9-2.2 0-2.2zM225.1 494.5c-1.9 0-1.9 2.2 0 2.2s1.9-2.2 0-2.2zM222.6 504.1c-1.9 0-1.9 2.2 0 2.2s1.9-2.2 0-2.2zM218.3 507.1c-1.9 0-1.9 2.2 0 2.2s1.9-2.2 0-2.2zM121.9 468.2c-1.9 0-1.9 2.2 0 2.2s1.9-2.2 0-2.2zM117.4 467.4c-1.9 0-1.9 2.2 0 2.2 1.9-.1 1.9-2.2 0-2.2zM113.6 472c-1.9 0-1.9 2.2 0 2.2s2-2.2 0-2.2zM106.4 465.9c-1.9 0-1.9 2.2 0 2.2s1.9-2.2 0-2.2zM120 477.5c-1.9 0-1.9 2.2 0 2.2s1.9-2.2 0-2.2zM125.2 477.5c-1.9 0-1.9 2.2 0 2.2 2 0 2-2.2 0-2.2zM129 473.2c-1.9 0-1.9 2.2 0 2.2 1.9-.1 1.9-2.2 0-2.2zM133.7 473.3c-1.9 0-1.9 2.2 0 2.2s1.9-2.2 0-2.2zM140.3 488.6c-1.9 0-1.9 2.2 0 2.2 1.9-.1 2-2.2 0-2.2zM142.8 491.8c-1.9 0-1.9 2.2 0 2.2 1.9-.1 1.9-2.2 0-2.2zM131.8 494.4c-1.9 0-1.9 2.2 0 2.2 1.9-.1 1.9-2.2 0-2.2zM130.6 491c-1.9 0-1.9 2.2 0 2.2s1.9-2.2 0-2.2zM125.5 494.7c-1.9 0-1.9 2.2 0 2.2 1.9-.1 2-2.2 0-2.2zM138.6 493.4c-1.9 0-1.9 2.2 0 2.2 1.9-.1 1.9-2.2 0-2.2zM156.9 486.7c-1.9 0-1.9 2.2 0 2.2 1.9-.1 1.9-2.2 0-2.2zM165.2 488c-1.9 0-1.9 2.2 0 2.2 1.9-.1 1.9-2.2 0-2.2zM174 487.3c-1.9 0-1.9 2.2 0 2.2 1.9-.1 1.9-2.2 0-2.2zM147.2 496.8c-1.9 0-1.9 2.2 0 2.2s1.9-2.2 0-2.2zM144.8 500.9c-1.9 0-1.9 2.2 0 2.2s2-2.2 0-2.2zM138.6 505.7c-1.9 0-1.9 2.2 0 2.2s1.9-2.2 0-2.2zM139.6 501.9c-1.9 0-1.9 2.2 0 2.2s1.9-2.2 0-2.2zM133.4 502.4c-1.9 0-1.9 2.2 0 2.2 1.9-.1 1.9-2.2 0-2.2zM207.4 473c-1.9 0-1.9 2.2 0 2.2s1.9-2.2 0-2.2zM218.4 477.2c-1.9 0-1.9 2.2 0 2.2s1.9-2.2 0-2.2zM211.4 480c-1.9 0-1.9 2.2 0 2.2 2 0 2-2.2 0-2.2zM221.9 491.9c-1.9 0-1.9 2.2 0 2.2s1.9-2.2 0-2.2zM216.4 488.9c-1.9 0-1.9 2.2 0 2.2 1.9-.1 1.9-2.2 0-2.2zM178.4 489.1c-1.9 0-1.9 2.2 0 2.2s1.9-2.2 0-2.2zM182.7 478.4c-1.9 0-1.9 2.2 0 2.2s1.9-2.2 0-2.2z"/></g></g></g><g id="fond_artemis"><defs><path id="SVGID_11_" d="M0 0h595.3v652.8H0z"/></defs><clipPath id="SVGID_12_"><use xlink:href="#SVGID_11_" overflow="visible"/></clipPath><linearGradient id="SVGID_13_" gradientUnits="userSpaceOnUse" x1="297.638" y1="-2.727" x2="297.638" y2="357.157"><stop offset="0" stop-color="#3e7090"/><stop offset="1" stop-color="#bed7dc"/></linearGradient><path clip-path="url(#SVGID_12_)" fill="url(#SVGID_13_)" d="M0-2.7h595.3v359.9H0z"/><g id="arbres_loin" class="st33"><g id="arbres_2_" class="st34"><linearGradient id="SVGID_14_" gradientUnits="userSpaceOnUse" x1="596.259" y1="203.594" x2="651.129" y2="203.594" gradientTransform="matrix(-1 0 0 1 713.946 0)"><stop offset="0" stop-color="#422a19"/><stop offset="1" stop-color="#683c14"/></linearGradient><path d="M117.7 284.1s-1.1-16.9-1.6-21.7-3.4-69.1-3.4-78.3c0-9.2-4-53.8-4-53.8s-14.8-17.4-16.9-16.6c-2.1.8-17.4 7.4-17.7 10.8-.3 3.4.5 43.3.8 49.1.3 5.8-2.6 84.4-4 86.8-1.3 2.4-8.2 9.8-8.2 13.2 0 3.4 5 20 5 20l50-9.5z" fill="url(#SVGID_14_)"/><linearGradient id="SVGID_15_" gradientUnits="userSpaceOnUse" x1="619.534" y1="174.014" x2="619.534" y2="81.599" gradientTransform="matrix(-1 0 0 1 713.946 0)"><stop offset="0" stop-color="#152920"/><stop offset="1" stop-color="#6b824b"/></linearGradient><path d="M94.4 139.4c0 2.1.1 4.3.9 6.2.8 1.8 2.8 3.1 4.3 2.1 1.1-.7 2-2.4 3.2-1.8 1.1 3.5 2.2 7.1 3.3 10.6.2.6.4 1.3.6 1.9 1.3 4.4 2.7 8.7 4 13.1.3.8.6 1.7 1.2 2.2 1.7 1.2 3.3-1.6 4.5-3.4 3.3-4.9 9.2-4.5 14.3-4.8 4.5-.3 8.9-1.5 13-3.6.8-.4 1.7-.9 2.2-1.8.7-1.3.5-2.9.7-4.4.8-7 8.9-9 10.9-15.7 1.6-5.2-1.4-11-.7-16.5.7-5.7 5.2-10.6 4.2-16.2-.8-4.3-4.7-7.6-4-11.9.2-.9.5-1.8.5-2.8-.1-1.8-1.8-2.8-3.2-3.3-22-8.9-45.8-8.3-68.9-6.8-15.9 1.1-31.8 2.5-47.6 4.4-9.8 1.2 2.5 2.1-6.3 7.4-1.5.9-3.1 2.1-3.6 4.1-.9 3.3 1.6 6.3 3.8 8.3 3.6 3.4-.7 4.3 2.9 7.6-.1 2.3-1.9 3.7-3.6 4.5s4.2 3.9 3.2 5.8c-.6 1.1-.7 2.5-.8 3.8-.3 3.6-.2 7.8 2 10.2 1.3 1.4 3 1.9 4.7 2.4 6.9 2.3-9.2 6.4-2.9 10.5 1.1.7 2.2 1.4 3 2.5.7.9 1.1 2.1 1.7 3.1 2.6 4.2 7.6 4.3 11.9 3.7 1.6-.3 3.2-.6 4.8-.2 1.2.3 5.5 9 6.6 9.7 1.6 1 3.3-1.9 5.1-1.6 1.8.3 4.9-1 6.1-2.6 1.1-1.4 1.5-3.3 1.9-5.2.9-3.8-2.3-10.8-.9-14.5.8-2.2 1.9-4.6 3.6-5.8 2.5-1.8 5.8-.7 8.5-2 1.1-.5 2-1.4 3.1-1.7 1.2 0 1.8 1.1 1.8 2.5z" fill="url(#SVGID_15_)"/></g><g class="st34"><linearGradient id="SVGID_16_" gradientUnits="userSpaceOnUse" x1="-10.533" y1="215.68" x2="32.431" y2="215.68" gradientTransform="translate(385.981)"><stop offset="0" stop-color="#422a19"/><stop offset="1" stop-color="#683c14"/></linearGradient><path d="M375.4 278.7s.8-13.3 1.2-17c.4-3.7 2.7-54.1 2.7-61.3s3.1-42.1 3.1-42.1 11.6-13.6 13.2-13c1.7.6 13.6 5.8 13.8 8.5.2 2.7-.4 33.9-.6 38.4-.2 4.5 2.1 66.1 3.1 68 1 1.9 6.4 7.6 6.4 10.3s-3.9 15.7-3.9 15.7l-39-7.5z" fill="url(#SVGID_16_)"/><linearGradient id="SVGID_17_" gradientUnits="userSpaceOnUse" x1="16.523" y1="182.83" x2="16.523" y2="107.78" gradientTransform="translate(385.981)"><stop offset="0" stop-color="#152920"/><stop offset="1" stop-color="#6b824b"/></linearGradient><path d="M396.6 164.2c0 1.3-3-1-3.6.1-.7 1.2-2.2 1.9-3.4 1.3-.9-.4-2.5.2-4.6-.9-2 .7.4 4.3-.5 6.5-.2.4-.3.8-.5 1.2-1 2.8-1 6.1-2 8.8-.2.5-.4 1.1-.9 1.4-1.3.8-3.7-1.5-4.7-2.7-2.6-3.1-7.2-2.8-11.2-3-3.5-.2-7-1-10.2-2.3-.6-.3-1.3-.6-1.7-1.2-.5-.8-.4-1.8-.5-2.8-.6-4.4-7-5.7-8.6-9.9-1.2-3.3 1.1-7 .5-10.4-.6-3.6-4.1-6.7-3.3-10.2.6-2.7 3.7-4.8 3.2-7.5-.1-.6-.4-1.2-.4-1.8.1-1.1.3-17.9 1.4-18.3 17.3-5.6 35.8-5.3 54-4.3 12.4.7 24.9 1.6 37.3 2.8 7.6.7 15.7 1.3 22.6 4.7 1.2.6 3.5 17.5 3.9 18.8.7 2.1-1.3 4-3 5.3-2.8 2.1-5.7 4.2-8.5 6.4.1 1.4 1.5 2.4 2.8 2.8 1.3.5 2.9.9 3.6 2.1.5.7.6 1.6.6 2.4.2 2.3.2 4.9-1.6 6.5-1 .9-2.4 1.2-3.7 1.5-5.4 1.5-10.4 4-15.4 6.6-.8.4-1.7.9-2.3 1.6-.5.6-.9 1.3-1.3 2-2 2.7-6 2.7-9.3 2.3-1.3-.2-2.5-.4-3.8-.1-1 .2-1.8.6-2.7 1.1-1.3.6-2.6 1.3-4 1.5-1.4.2-4.4-.2-5.4-1.2-.9-.9-1.2-2.1-1.5-3.3-.7-2.4-.1-4.7-1.2-6.9-.7-1.4-1.5-2.9-2.8-3.6-2-1.1-1.6 3.3-3.7 2.5-.8-.3-1.6-.9-2.4-1s-1.2.3-1.2 1.2z" fill="url(#SVGID_17_)"/></g><g id="arbres_3_" class="st34"><linearGradient id="SVGID_18_" gradientUnits="userSpaceOnUse" x1="446.882" y1="211.185" x2="480.657" y2="211.185" gradientTransform="matrix(-1 0 0 1 713.946 0)"><stop offset="0" stop-color="#422a19"/><stop offset="1" stop-color="#683c14"/></linearGradient><path d="M267.1 260.8s-.6-10.4-1-13.4c-.3-2.9-2.1-42.5-2.1-48.2 0-5.7-2.4-33.1-2.4-33.1s-9.1-10.7-10.4-10.2c-1.3.5-10.7 4.5-10.9 6.7-.2 2.1.3 26.6.5 30.2.2 3.6-1.6 52-2.4 53.4-.8 1.5-5 6-5 8.1s3.1 12.3 3.1 12.3l30.6-5.8z" fill="url(#SVGID_18_)"/><linearGradient id="SVGID_19_" gradientUnits="userSpaceOnUse" x1="461.209" y1="192.977" x2="461.209" y2="136.093" gradientTransform="matrix(-1 0 0 1 713.946 0)"><stop offset="0" stop-color="#152920"/><stop offset="1" stop-color="#6b824b"/></linearGradient><path d="M252.8 171.7c0 1.3 0 2.7.6 3.8.5 1.1 1.7 1.9 2.6 1.3.7-.4 1.3-1.5 2-1.1.7 2.2 1.3 4.4 2 6.6.1.4.2.8.4 1.2.8 2.7 1.7 5.4 2.5 8.1.2.5.3 1.1.7 1.4 1 .8 2-1 2.8-2.1 2-3 5.7-2.8 8.8-3 2.7-.2 5.5-.9 8-2.2.5-.3 1-.6 1.3-1.1.4-.8.3-1.8.4-2.7.5-4.3 5.5-5.6 6.7-9.6 1-3.2-.8-6.8-.4-10.2.4-3.5 3.2-6.5 2.6-10-.5-2.6-2.9-4.7-2.5-7.3.1-.6.3-1.1.3-1.7-.1-1.1-1.1-1.7-1.9-2-13.6-5.5-28.2-5.1-42.4-4.2-9.8.6-19.6 1.6-29.3 2.7-6 .7 1.5 1.3-3.9 4.6-.9.6-1.9 1.3-2.2 2.5-.5 2 1 3.9 2.4 5.1 2.2 2.1-.4 2.6 1.8 4.7 0 1.4-1.2 2.3-2.2 2.8-1.1.5 2.6 2.4 2 3.5-.4.7-.4 1.5-.5 2.3-.2 2.2-.1 4.8 1.2 6.3.8.9 1.9 1.2 2.9 1.5 4.3 1.4-5.7 3.9-1.8 6.5.7.4 1.3.9 1.8 1.5.4.6.7 1.3 1.1 1.9 1.6 2.6 4.7 2.7 7.3 2.2 1-.2 2-.3 3-.1.8.2 3.4 5.6 4.1 6 1 .6 2.1-1.2 3.2-1 1.1.2 3-.6 3.8-1.6.7-.8.9-2.1 1.2-3.2.5-2.4-1.4-6.7-.6-8.9.5-1.4 1.1-2.8 2.2-3.6 1.5-1.1 3.5-.4 5.2-1.3.6-.3 1.2-.8 1.9-1 .5-.2.8.5.9 1.4z" fill="url(#SVGID_19_)"/></g></g><g id="arbres_4_" class="st33"><g id="arbres_1_"><linearGradient id="SVGID_20_" gradientUnits="userSpaceOnUse" x1="-131.047" y1="192.917" x2="-74.345" y2="192.917" gradientTransform="matrix(-1 0 0 1 327.965 0)"><stop offset="0" stop-color="#422a19"/><stop offset="1" stop-color="#683c14"/></linearGradient><path d="M459 276.1s-1.1-17.5-1.6-22.4c-.5-4.9-3.5-71.4-3.5-81s-4.1-55.6-4.1-55.6-15.3-18-17.4-17.2-18 7.6-18.3 11.2.5 44.7.8 50.7-2.7 87.2-4.1 89.7c-1.4 2.5-8.5 10.1-8.5 13.6s5.2 20.7 5.2 20.7l51.5-9.7z" fill="url(#SVGID_20_)"/><linearGradient id="SVGID_21_" gradientUnits="userSpaceOnUse" x1="-95.34" y1="152.722" x2="-95.34" y2="29.797" gradientTransform="matrix(-1 0 0 1 327.965 0)"><stop offset="0" stop-color="#152920"/><stop offset="1" stop-color="#6b824b"/></linearGradient><path d="M435 106.7c0 2.8.1 5.8.9 8.2.9 2.4 2.9 4.1 4.4 2.8 1.1-.9 2.1-3.2 3.3-2.4 1.1 4.7 2.3 9.4 3.4 14.2.2.8.4 1.7.6 2.5l4.2 17.4c.3 1.1.6 2.3 1.2 2.9 1.7 1.6 3.4-2.1 4.7-4.5 3.4-6.5 9.5-5.9 14.8-6.4 4.6-.4 9.2-2 13.5-4.8.9-.5 1.8-1.2 2.3-2.4.7-1.7.5-3.9.7-5.9.8-9.3 9.2-12 11.3-20.8 1.6-7-1.4-14.7-.7-22 .7-7.6 5.4-14 4.3-21.5-.8-5.7-4.9-10.1-4.2-15.8.2-1.2.5-2.5.5-3.7-.2-2.4-1.8-3.7-3.3-4.4-22.8-11.8-47.3-11.1-71.2-9-16.4 1.4-32.8 3.4-49.2 5.9-10.1 1.6-20.7 2.8-29.8 9.9-1.6 1.2-3.2 2.8-3.8 5.4-.9 4.3 1.7 8.4 4 11.1 3.7 4.5 7.5 8.9 11.2 13.4-.1 3-2 5-3.8 6-1.8 1-3.8 1.9-4.8 4.4-.6 1.5-.7 3.3-.8 5-.3 4.8-.2 10.4 2.1 13.6 1.3 1.9 3.1 2.5 4.8 3.2 7.1 3.1 13.8 8.5 20.4 14 1.1.9 2.2 1.8 3.1 3.3.7 1.3 1.1 2.8 1.8 4.2 2.7 5.6 7.9 5.8 12.3 4.9 1.7-.3 3.3-.8 5-.2 1.3.4 2.4 1.3 3.6 2.2 1.7 1.3 3.4 2.7 5.3 3.2s3.9-.1 5.2-2.3c1.1-1.8 1.6-4.4 2-6.9.9-5.1 2.1-10.1 3.5-14.9.9-3 1.9-6.1 3.7-7.7 2.6-2.4 6-1 8.7-2.7 1.1-.7 2.1-1.8 3.2-2.2.9-.6 1.6.9 1.6 2.8z" fill="url(#SVGID_21_)"/><linearGradient id="SVGID_22_" gradientUnits="userSpaceOnUse" x1="-276.76" y1="174.897" x2="-142.006" y2="174.897" gradientTransform="matrix(-1 0 0 1 327.965 0)"><stop offset="0" stop-color="#422a19"/><stop offset="1" stop-color="#683c14"/></linearGradient><path d="M470.8 252s19.4-30.1 22.5-34.7c3.1-4.5 14.1-22.3 15.5-25.4 1.4-3.1 10.4-65.6 11.6-71s4.5-37.8 4.8-40.3c.3-2.5 71 6.5 75.2 7.9s2.8 30.7 2 37.2c-.8 6.5-7.6 94.7-5.6 102.3 2 7.6 7 22.8 7.9 26.2.8 3.4-5.6 9-5.6 9l-104 3.1-25.1 3.1.8-17.4z" fill="url(#SVGID_22_)"/><linearGradient id="SVGID_23_" gradientUnits="userSpaceOnUse" x1="-243.507" y1="165.919" x2="-243.507" y2="-15.67" gradientTransform="matrix(-1 0 0 1 327.965 0)"><stop offset="0" stop-color="#152920"/><stop offset="1" stop-color="#6b824b"/></linearGradient><path d="M582.8 137.1c3.9 3.6 10.9 1.2 12.2 7.8.4 2 0 4-.1 6-.4 9.2 6.7 17.3 12.7 14.4 4.2-2.1 7.1-8.2 11.3-10.1 3-1.3 6.3-.3 9.4-.8s6.6-3.8 6.3-8.4c-.3-4.7-4.4-8.2-3.6-12.8.3-1.7 1.2-2.9 2-4.1 8.5-11 19.6-17.6 31-18.2 3-5.8 0-14.3 1.3-21.3.6-3 1.9-5.6 3.2-8.1 3.1-6 5.9-12.3 8.5-18.9 1.8-4.6 3.2-11.4.3-14.5-1-1.1-2.3-1.4-3.2-2.6-1.7-2.2-1.2-6.1-.8-9.3.8-5.6 1.5-11.2 2-16.8.2-2.3.4-4.7-.3-6.8-.9-2.8-3-4.1-5-5.2-35-19.6-73.2-26.9-110.5-20.9-3.7.6-7.5 1.3-10.8 3.6-2.3 1.6-4.4 3.9-6.7 5.7-5.9 4.8-12.9 6.2-19.7 6-8.5-.3-17.8-2.8-25.1 3.7-4.4 3.9-7.4 10.6-12.1 13.6-5 3.3-11.6 2.2-15.3 8.2-2.3 3.7-2.7 9-3 13.9-1 14.8-2 29.7-2.9 44.5-.1 1.3-.2 2.6.1 3.8.5 2.5 2.1 4.1 3.4 5.9 3.2 4.3 5 10.8 4.7 17.1-.1 2.5-.4 5.4.8 7.1.8 1.1 1.9 1.3 2.9 1.6 3.9 1.4 7.3 5.8 8.7 11.4.4 1.5.7 3.3 1.7 4.1 1.7 1.4 3.5-1.4 5-3.1 4.1-4.7 12.5 7.6 17.3 10.7 2.2 1.4 9.6 2.6 11.4.4 1.2-1.4 3.9-7.9 4.6-9.9 1.5-4.2-1.1-8.7 2.2-8.9 3.3-.2 3.1-2.6 6.4-2.1 1 .2 2.1.2 3-.5 1.4-1.2 1.7-3.9 2.1-6.1 2.8-15.5 16.6-22.5 22.9-8.4 2.5 5.7 3.2 9.3 7.7 12.3 3.4 2.3 6.1 2.3 8.8 6.4 2 2.9 2.6 7.3 5.2 9.6z" fill="url(#SVGID_23_)"/></g><linearGradient id="SVGID_24_" gradientUnits="userSpaceOnUse" x1="138.856" y1="241.447" x2="213.989" y2="241.447" gradientTransform="matrix(-1 0 0 1 327.965 0)"><stop offset="0" stop-color="#422a19"/><stop offset="1" stop-color="#683c14"/></linearGradient><path d="M189.1 351.7s-1.4-23.2-2.2-29.7c-.7-6.5-4.7-94.6-4.7-107.3s-5.4-73.7-5.4-73.7-20.2-23.8-23.1-22.8c-2.9 1.1-23.8 10.1-24.2 14.8-.4 4.7.7 59.2 1.1 67.2.4 7.9-3.6 115.6-5.4 118.8-1.8 3.3-11.2 13.4-11.2 18.1 0 4.7 6.9 27.5 6.9 27.5l68.2-12.9z" fill="url(#SVGID_24_)"/><linearGradient id="SVGID_25_" gradientUnits="userSpaceOnUse" x1="186.169" y1="174.936" x2="186.169" y2="44.608" gradientTransform="matrix(-1 0 0 1 327.965 0)"><stop offset="0" stop-color="#152920"/><stop offset="1" stop-color="#6b824b"/></linearGradient><path d="M157.3 136.7c0 2.3.1 4.8 1.2 6.8 1.2 2 3.8 3.4 5.9 2.3 1.5-.8 2.8-2.7 4.4-2 1.5 3.9 3 7.8 4.5 11.8.3.7.5 1.4.8 2.1 1.8 4.8 3.7 9.6 5.5 14.5.4.9.8 1.9 1.6 2.4 2.3 1.4 4.5-1.7 6.2-3.8 4.5-5.4 12.6-4.9 19.6-5.3 6.1-.3 12.2-1.7 17.8-3.9 1.1-.5 2.3-1 3-2 .9-1.4.7-3.2.9-4.9 1.1-7.7 12.2-10 15-17.3 2.1-5.8-1.9-12.2-.9-18.2 1-6.3 7.2-11.7 5.7-17.9-1.1-4.7-6.5-8.3-5.5-13.1.2-1 .7-2 .6-3.1-.2-2-.6-31.4-2.5-32-30.2-9.8-62.7-9.2-94.4-7.5-21.8 1.2-43.5 2.8-65.2 4.9-13.4 1.3-27.4 2.3-39.5 8.2-2.1 1-6.1 30.6-6.8 32.8-1.2 3.6 2.2 6.9 5.2 9.2 4.9 3.7 9.9 7.4 14.8 11.1-.1 2.5-2.6 4.1-5 5-2.3.9-5 1.5-6.4 3.6-.8 1.2-1 2.7-1.1 4.2-.4 4-.3 8.6 2.8 11.3 1.8 1.5 4.2 2.1 6.4 2.7 9.5 2.5 18.3 7.1 27 11.6 1.5.8 3 1.5 4 2.8.9 1 1.5 2.3 2.4 3.5 3.5 4.7 10.5 4.8 16.3 4 2.2-.3 4.4-.6 6.6-.2 1.7.3 3.2 1.1 4.7 1.9 2.2 1.1 4.5 2.3 7 2.6 2.5.4 5.2-.1 7-1.9 1.5-1.5 2.1-3.7 2.6-5.7 1.2-4.2 2.8-8.4 4.6-12.4 1.2-2.5 2.5-5 4.9-6.4 3.4-2 7.9-.8 11.6-2.2 1.4-.6 2.7-1.5 4.3-1.8 1.5-.5 2.4.8 2.4 2.3z" fill="url(#SVGID_25_)"/><g id="arbres"><linearGradient id="SVGID_26_" gradientUnits="userSpaceOnUse" x1="444.545" y1="156.804" x2="522.631" y2="156.804"><stop offset="0" stop-color="#422a19"/><stop offset="1" stop-color="#683c14"/></linearGradient><path d="M444.5 271.4s1.5-24.1 2.3-30.9 4.9-98.4 4.9-111.5 5.6-76.6 5.6-76.6 21-24.8 24-23.7c3 1.1 24.8 10.5 25.2 15.4.4 4.9-.8 61.6-1.1 69.8-.4 8.3 3.8 120.1 5.6 123.5 1.9 3.4 11.6 13.9 11.6 18.8s-7.1 28.5-7.1 28.5l-71-13.3z" fill="url(#SVGID_26_)"/><linearGradient id="SVGID_27_" gradientUnits="userSpaceOnUse" x1="477.669" y1="114.709" x2="477.669" y2="-16.805"><stop offset="0" stop-color="#152920"/><stop offset="1" stop-color="#6b824b"/></linearGradient><path d="M477.6 65.5c0 3-.1 6.2-1.3 8.8-1.2 2.6-4 4.4-6.1 3-1.6-1-2.9-3.4-4.5-2.6-1.5 5.1-3.1 10.1-4.6 15.2-.3.9-.6 1.8-.8 2.7-1.9 6.2-3.8 12.4-5.7 18.7-.4 1.2-.8 2.5-1.7 3.1-2.4 1.7-4.7-2.2-6.4-4.9-4.6-6.9-13.1-6.4-20.4-6.9-6.3-.4-12.6-2.2-18.5-5.1-1.2-.6-2.4-1.3-3.1-2.6-1-1.8-.7-4.2-.9-6.3-1.1-10-12.7-12.9-15.5-22.3-2.2-7.4 2-15.7 1-23.5-1-8.1-7.5-15-6-23 1.1-6.1 6.7-10.8 5.7-16.9-.2-1.3-.8-2.6-.6-4 .2-2.6 2.5-3.9 4.5-4.7 31.4-12.6 65.1-11.9 98.1-9.7 22.6 1.5 45.2 3.6 67.8 6.3 13.9 1.7-3.6 3 9 10.6 2.1 1.3 4.4 3 5.2 5.8 1.2 4.6-2.3 8.9-5.5 11.9-5.1 4.8.9 6.1-4.2 10.8.1 3.2 2.7 5.3 5.2 6.4 2.4 1.1-6 5.5-4.6 8.2.8 1.6 1 3.5 1.2 5.4.4 5.2.3 11.1-2.9 14.6-1.8 2-4.3 2.7-6.7 3.5-9.8 3.3 13.1 9.1 4.1 14.9-1.5 1-3.1 2-4.2 3.6-1 1.3-1.6 3-2.4 4.4-3.7 6-10.9 6.2-16.9 5.2-2.3-.4-4.6-.8-6.9-.3-1.7.4-7.9 12.9-9.5 13.9-2.3 1.4-4.8-2.7-7.3-2.3-2.6.5-6.9-1.4-8.7-3.7-1.6-2-2.1-4.7-2.8-7.4-1.3-5.5 3.2-15.4 1.3-20.6-1.2-3.2-2.6-6.5-5.1-8.2-3.6-2.5-8.2-1-12-2.9-1.5-.7-2.8-2-4.4-2.4-2-.3-2.9 1.3-2.9 3.3z" fill="url(#SVGID_27_)"/></g><g><linearGradient id="SVGID_28_" gradientUnits="userSpaceOnUse" x1="89.85" y1="208.48" x2="182.04" y2="208.48" gradientTransform="matrix(-1 0 0 1 327.965 0)"><stop offset="0" stop-color="#422a19"/><stop offset="1" stop-color="#683c14"/></linearGradient><path d="M238.1 343.8s-1.8-28.5-2.7-36.4-5.8-116.1-5.8-131.6-6.6-90.5-6.6-90.5-24.8-29.3-28.3-27.9c-3.5 1.3-29.3 12.4-29.7 18.2s.9 72.7 1.3 82.4c.4 9.8-4.4 141.8-6.6 145.8-2.2 4-13.7 16.4-13.7 22.2 0 5.8 8.4 33.7 8.4 33.7l83.7-15.9z" fill="url(#SVGID_28_)"/><linearGradient id="SVGID_29_" gradientUnits="userSpaceOnUse" x1="147.904" y1="137.992" x2="147.904" y2="-23.046" gradientTransform="matrix(-1 0 0 1 327.965 0)"><stop offset="0" stop-color="#152920"/><stop offset="1" stop-color="#6b824b"/></linearGradient><path d="M192.8 98.1c0 2.9 6.3-2.2 7.8.3 1.4 2.5 4.7 4.2 7.2 2.9 1.8-.9 5.3.5 9.8-2 4.2 1.4-.8 9.1 1 13.9.3.9.7 1.7 1 2.6 2.3 5.9 2.1 13 4.4 19 .4 1.1.9 2.4 2 3 2.8 1.7 7.9-3.3 10-5.8 5.5-6.6 15.5-6.1 24.1-6.5 7.5-.4 14.9-2.1 21.9-4.8 1.4-.6 2.8-1.2 3.7-2.5 1.1-1.7.8-4 1.1-6 1.3-9.5 15-12.2 18.4-21.2 2.6-7.1-2.3-14.9-1.1-22.4 1.2-7.7 8.8-14.3 7-21.9-1.3-5.8-7.9-10.2-6.8-16.1.3-1.3.9-2.5.8-3.8-.3-2.5-.7-38.5-3-39.2-37-12-76.9-11.3-115.8-9.2-26.7 1.4-53.4 3.4-80 6-16.6 1.3-33.9 2.6-48.7 9.8-2.5 1.2-7.5 37.6-8.4 40.2-1.5 4.4 2.7 8.5 6.4 11.3 6.1 4.5 12.1 9.1 18.2 13.6-.1 3.1-3.2 5.1-6.1 6.1-2.9 1-6.2 1.9-7.8 4.5-1 1.5-1.2 3.4-1.4 5.1-.4 5-.3 10.7 3.5 14 2.2 1.9 5.1 2.6 7.9 3.3 11.6 3.1 22.4 8.7 33.1 14.2 1.8.9 3.6 1.9 5 3.4 1.1 1.3 1.9 2.9 2.9 4.2 4.4 5.7 12.8 5.9 20 4.9 2.7-.3 5.4-.8 8.1-.2 2.1.4 3.9 1.3 5.8 2.3 2.7 1.4 5.5 2.8 8.6 3.2 3 .5 9.5-.4 11.6-2.6 1.8-1.9 2.5-4.5 3.3-7 1.5-5.2.3-10 2.6-14.9 1.4-3 3.1-6.2 6-7.8 4.2-2.4 3.4 7.1 8 5.3 1.8-.7 3.4-1.9 5.2-2.3 1.7-.4 2.7 1.2 2.7 3.1z" fill="url(#SVGID_29_)"/></g></g><linearGradient id="SVGID_30_" gradientUnits="userSpaceOnUse" x1="264.443" y1="331.765" x2="264.443" y2="255.131"><stop offset="0" stop-color="#152920"/><stop offset="1" stop-color="#6b824b"/></linearGradient><path d="M524.5 285.6s-27.6-8.4-34.4-9.6c-6.8-1.1-32.1-1.3-45.6-4.6s-32.1-12.2-43.9-12c-11.8.2-111.7-4.8-122.6-4.3-10.9.6-39.3 5.4-47.6 3-8.3-2.4-49.4 1.1-58.4 1.3-9 .2-59.1 23.3-69.3 21.1s-30.4-1.1-38.3 0-75.5 2.3-83.3 5.1c-7.9 2.8-8.8 29.3-8.8 29.3l59.5 16.9 439.8-18.4 85 4.9-32.1-32.7z" clip-path="url(#SVGID_12_)" fill="url(#SVGID_30_)"/><g class="st33"><linearGradient id="SVGID_31_" gradientUnits="userSpaceOnUse" x1="263.518" y1="158.859" x2="400.937" y2="158.859"><stop offset="0" stop-color="#422a19"/><stop offset="1" stop-color="#683c14"/></linearGradient><path d="M383.2 281.3c-6.4-.8-38.5 4.4-46.3 3.8-24.2-2.1-38.8-2.2-38.8-2.2s-35.4-14-34.5-18.5c.9-4.5 6-24.8 8-34.9s-4.8-127.6-5.7-136.3c-.9-8.6-2.3-47.7 2-49.6 4.3-1.9 75.9-13.9 76.2-10.5.3 3.4 3.7 46.6 4.8 53.7 1.1 7.1 10.3 90.5 11.7 94.6 1.4 4.1 12.6 27.8 15.7 33.8 3.1 6 24.5 57.8 24.6 59.5.9 9.7-7.6 7.8-17.7 6.6z" fill="url(#SVGID_31_)"/><linearGradient id="SVGID_32_" gradientUnits="userSpaceOnUse" x1="304.311" y1="162.662" x2="304.311" y2="-45.622" gradientTransform="matrix(.9984 .05735 -.05735 .9984 3.307 -17.083)"><stop offset="0" stop-color="#152920"/><stop offset="1" stop-color="#6b824b"/></linearGradient><path d="M288.9 129.4c-4.2 3.8-11.1.7-12.7 8.1-.5 2.2-.2 4.6-.2 6.9-.1 10.6-7.7 19.4-13.6 15.6-4.1-2.7-6.7-9.9-10.9-12.3-3-1.7-6.3-.8-9.5-1.6-3.1-.8-6.5-4.8-5.9-10.1.6-5.4 4.9-9.1 4.3-14.4-.2-1.9-1-3.5-1.8-4.8-8-13.2-18.9-21.5-30.3-23-2.7-6.8.8-16.4-.2-24.5-.4-3.5-1.7-6.5-2.8-9.5-2.8-7.1-5.3-14.6-7.5-22.2-1.6-5.4-2.6-13.2.5-16.7 1.1-1.2 2.4-1.5 3.4-2.8 1.8-2.4 1.6-6.9 1.3-10.6-.5-6.4-.9-12.9-1.1-19.4-.1-2.6-.1-5.5.7-7.8 1.1-3.1 3.3-4.5 5.3-5.6 36.5-20.1 75.5-25.7 112.8-16.3 3.7.9 7.5 2.1 10.7 4.9 2.3 2 4.3 4.8 6.4 7 5.7 5.9 12.7 8 19.6 8.2 8.7.3 18.1-1.9 25.2 6 4.2 4.7 6.9 12.6 11.5 16.5 4.9 4.1 11.6 3.3 15 10.4 2.1 4.4 2.2 10.5 2.3 16.2.2 17.1.4 34.2.5 51.3 0 1.5 0 3-.3 4.4-.6 2.8-2.3 4.6-3.8 6.5-3.5 4.7-5.6 12-5.7 19.3 0 2.8.1 6.2-1.2 8.1-.8 1.2-2 1.3-3 1.7-4.1 1.3-7.7 6.2-9.4 12.5-.5 1.7-.9 3.7-1.9 4.5-1.8 1.4-3.4-1.8-4.9-3.9-3.9-5.7-13.1 7.8-18 11-2.3 1.5-9.8 2.3-11.6-.4-1.1-1.7-3.5-9.4-4.2-11.7-1.3-5-6.1-1.4-9.4-1.9-3.3-.5 0-.3-3.3.1-1 .1-.4-1.5-1.3-2.4-1.3-1.5-3.4 1.3-5.2-.1-5-3.9-10.1 4-15.4-2.8-4.1-5.2-9.9-1.3-14.7 1.9-3.5 2.4-1.9-6.7-4.8-2.1-2.1 3.1-2.1 3.3-4.9 5.8z" fill="url(#SVGID_32_)"/></g><g id="faon_1_" class="st33"><linearGradient id="SVGID_33_" gradientUnits="userSpaceOnUse" x1="146.016" y1="225.677" x2="146.016" y2="295.642"><stop offset="0" stop-color="#9a3f1a"/><stop offset="1" stop-color="#fbc17b"/></linearGradient><path d="M167.4 251.2s4.6-5.4 5.8-7.9 2.5-6 2.7-6c.2 0 3.7 1.4 5.5 1.6 1.9.1 6.7-.1 7.1-.6.4-.5-.1-2.2-1-2.5-.9-.3-3.1-3.1-3.3-3.5-.2-.4-.9-.9-1-1.3-.1-.4-.8-1.4-1.3-2.1s-2.5-2.6-3.1-2.7-4.5-.9-5.5.1-2.3 2.7-2.5 3c-.3.3-2.9 3.7-3.5 4.7-.6 1-2.7 4.6-4 5.3s-2.7 1.9-6.7 1.6-13.4-1.1-15.9-1.7c-2.4-.6-8.8-1.8-9.4-1.8-.6-.1-3.5-.8-7.2-1s-4.7-.3-5.2-1-3.5-3.6-4.2-3.8c-.6-.2-2.7-2-3.4-2-.8 0-6.3-1-7.6-.8-1.3.2 1.6 2.9 2.3 3.5s2.3 1.8 3.6 2.2c1.3.4 4.2 1.4 5.4 2.3 1.2.9.6 1.5-.2 2-.9.5-2.5 1.5-2.2 3.2s1.7 6.2 2.7 8.1c.9 1.9 3.1 4.4 2.2 6.3-.9 1.9-1.4 5.2-5.4 7.4-4.1 2.2-4.2 2.8-4.4 3-.2.2.5 7.8.7 11.3.2 3.4 1 12 .8 12.3-.2.2 3.2-.1 3.5-.2.4-.1.1-1.3-.3-3s-.5-3.2-.5-4-.4-8.7-.1-9.8c.3-1.1 1.6-3.7 2.5-3.7s.6-.6 1.1.4c.4 1 5.7 8.9 6.7 9.7.9.9 3.9 4.6 4 5 .1.4.4 2.7.6 3.2.2.5 1.2.4 1.3 1.1.1.6-.1 1.9.6 2 .7.1 1.6-.1 1.6-.1s.2-2.3 0-2.9c-.2-.6-1.4-2.8-2.6-4.8-1.2-2-3.6-5.4-4.2-6.2s-2.4-3.8-2.4-4.1c0-.3-.9-5.9.2-6.9 1.1-.9 3.8-2.2 5.1-4.9 0 0 4.5-2.8 5.4-3.2.9-.4 1.8-.1 2.5.1s10.5 3.9 11.3 3.9c0 0-3.7 16.7-3.7 17.6-.1.9-2.1 6.1-2.5 7.2-.4 1.1-1.4 5.1-1.2 5.7.1.6 1.7.5 2 .6.3.1.9-1.7 1.3-2.7.4-.9.8-4.9 1.1-5.9.4-1.1 2.7-5.6 3.2-6.1s1.9-3.7 2.2-4.6c.3-.9 1.9-6.1 2.4-6.5.6-.4 2.2-2.7 2.5-2.6.3.1 1.8.8 2.4.8s1.6 4.5 1.9 5.4c.4.9 6.2 20.7 6.3 21.4s.3 3.2.3 3.6c0 .4 4.3-.1 4.3-.1s-.1-2-.1-2.8c-.1-.8-1.4-1.9-1.6-3-.2-1.1-3.7-10.6-3.5-11.6s.9-2.3.5-3.7c-.4-1.4-2.4-5.8-2.1-8.4.4-2.6.4-5.1 1-5.2s3.7-2.7 4.1-3.9c.3-1.7 1.1-6 1.1-6z" fill="url(#SVGID_33_)"/><path id="jambe_arrière_beige_1_" class="st29" d="M122.5 260.1c-.1 1.5-.1 3.4-1.2 4.4-.9.8-4.4 2.9-6.2 5.1-.1-.2-.1-.3-.2-.3s-.3.2-.7.2c-.9 0-2.2 2.6-2.5 3.7-.3 1.1.1 9 .1 9.8 0 .8.1 2.3.5 4 .4 1.7.6 2.9.3 3-.4.1-3.7.4-3.5.2.2-.2-.6-8.8-.8-12.3-.2-3.4-.9-11-.7-11.3.2-.2.3-.9 4.4-3 4.1-2.1 4.6-5.4 5.4-7.4.9-1.9-1.3-4.4-2.2-6.3-.7-1.5-1.8-4.7-2.3-6.7.6-1.3 1.1-2.2 1.1-2.2s3.4 1.2 3.5 2.1c.1 1 3.3 8 3.5 8.5.2.4 1.6 7 1.5 8.5z"/><path id="blanc_queue_1_" class="st30" d="M117.7 237.8c-.9.8-1.9 1.4-2.4 2.4-.5.9-1.1 1.6-1.4 2.6-.2 1 .8 3.2-.5 2.7-.5-1.4-.8-2.8-1-3.6-.3-1.6 1.4-2.6 2.2-3.2.9-.5 1.4-1.1.2-2-1.2-.9-4.1-1.9-5.4-2.3-1.3-.4-2.9-1.6-3.6-2.2-.6-.5-3.1-2.8-2.5-3.4l.3-.1s4.4 1.5 5.3 1.9c.9.4 5.6 3.2 6.4 3.7.8.4 3.3 2.7 2.4 3.5z"/><g id="oeil_1_"><path class="st31" d="M180.6 232.4s-.8-1.5-1.8-1.5c-1 .1-1.9.6-1.7.9s.4 1.4 3.5.6z"/><circle class="st30" cx="177.8" cy="231.4" r=".3"/></g><path id="museau_1_" class="st31" d="M188.6 238.3s-.1 0 0 0c-.2.1-.5.2-.9.3-.4-.2-.7-1-1.1-1.6-.5-1 1-1.2 1-1.2.9.3 1.3 2 1 2.5z"/><path id="jambes_blanches_et_ventre_1_" class="st30" d="M167.9 295.4s-4.3.5-4.3.1-.2-2.9-.3-3.6c-.1-.6-5.9-20.5-6.3-21.4-.4-.9-1.4-5.4-1.9-5.4-.6 0-2.1-.6-2.4-.8-.3-.1-1.9 2.1-2.5 2.6-.6.4-2.1 5.7-2.4 6.5-.3.9-1.6 4.1-2.1 4.6s-2.9 5-3.2 6.1c-.4 1.1-.8 5-1.1 5.9s-1 2.7-1.3 2.6c-.3-.1-1.9.1-2-.6-.1-.6.8-4.7 1.2-5.7.4-1.1 2.4-6.2 2.5-7.2.1-.9 3.7-17.6 3.7-17.6-.8 0-10.5-3.8-11.3-3.9-.7-.1-1.6-.4-2.5-.1-.2.1-.7.4-1.3.7.7-.5 2.3-1.7 2.3-3.2 0 0 2.9-1.6 4.2-1.5 1.2.1 3.6 1 3.8 2.2.2 1.2 1.6.9 3.4 1.1 1.8.2 5.2-.4 6.7.5 1.4.9 5.1 4.2 5.5 6.9.4 2.6 3.2 11.5 3.9 12.8.8 1.2 2.3 2.6 2.9 3 .9 3.2 2.9 8.6 3 9.4.2 1.1 1.6 2.2 1.6 3 .2 1 .2 3 .2 3z"/><path id="bout_haut_jambe_blanche_1_" class="st30" d="M126.2 260.8c-1.3 2.7-3.9 4-5.1 4.9-.1.1-.3.3-.3.5-.8.2-1.7.3-2 .4-.5.1-.6 1.8-1.7 1.9-1.1.1-1.8 1.2-1.8 1.2s-.2-.3-.3-.6c-.1-.3-.2-.6 0-.8.4-.4 1.7-1.4 2.9-2.1 1.2-.6 4.2-3.4 4.9-3.9.6-.3 3.4-1.5 3.4-1.5z"/><path id="bout_jambe_blanche_1_" class="st30" d="M130.2 290.7s-.9.2-1.6.1c-.7-.1-.6-1.4-.6-2-.1-.6-1.1-.6-1.3-1.1-.2-.5-.6-2.7-.6-3.2 0-.1-.1-.2-.2-.3-.2-1.4-.6-3.8-.9-5.4.9 1.3 2 2.9 2.7 4.1 1.2 2 2.4 4.2 2.6 4.8.1.7-.1 3-.1 3z"/><g id="oreille_droite_1_"><path class="st29" d="M183.2 221.3c-.1.2-.1.5-.2.8-.4 1.3-2.3 4.1-2.8 4.9-.5-.5-1-.9-1.2-.9-.4-.1-2.7-.5-4.3-.3h-.2s5.2-4.7 8.2-5.5c.6-.3.7.1.5 1z"/><path class="st30" d="M183.3 220.7s0 .2-.1.6c-.1.2-.1.5-.2.8-.4 1.3-2.3 4.1-2.8 4.9-.5-.5-1-.9-1.2-.9-.3-1.4.9-3.2 1.7-4.1.7-1 2.6-1.3 2.6-1.3z"/></g><g id="oreille_gauche_1_"><path class="st29" d="M172.4 228.5c.3-.3.4-.6.4-1 0-1.2 0-4.4-.1-4.7-.1-.4-2.6-4-5-3.9-1 0-1.5 4.6-1.2 6.3.3 1.7 1.1 2.5 1.7 2.8.6.4 1.8.7 1.9 1.1.1.4 0 .7.2.8.2.1 1.4-.7 2.1-1.4z"/><path class="st30" d="M167.9 220s3 1.2 3.2 2.5c.2 1.3.3 5.4.1 5.6s-.7.4-.8.3-3.1-1.8-3.2-3.3c-.2-1.5.4-5.1.7-5.1z"/></g><g id="tâches_1_"><path class="st30" d="M123.4 239.1c-.7 0-.7.8 0 .8s.7-.8 0-.8zM125.1 241.2c-.7 0-.7.8 0 .8s.7-.8 0-.8zM129.2 242.2c-.7 0-.7.8 0 .8s.7-.8 0-.8zM137.7 242.5c-.7 0-.7.8 0 .8s.7-.8 0-.8zM134.8 242.4c-.7 0-.7.8 0 .8s.7-.8 0-.8zM133.7 240.5c-.7 0-.7.8 0 .8s.7-.8 0-.8zM130 238.8c-.7 0-.7.8 0 .8s.7-.8 0-.8zM128.8 236.7c-.7 0-.7.8 0 .8s.7-.8 0-.8zM136.7 238.4c-.7 0-.7.8 0 .8s.7-.8 0-.8zM145.1 241.1c-.7 0-.7.8 0 .8.8 0 .8-.8 0-.8zM142.3 240c-.7 0-.7.8 0 .8s.7-.8 0-.8zM138 238.9c-.7 0-.7.8 0 .8s.7-.8 0-.8zM141 242.7c-.7 0-.7.8 0 .8s.7-.8 0-.8zM146.4 243c-.7 0-.7.8 0 .8s.7-.8 0-.8zM149.6 242.8c-.7 0-.7.8 0 .8s.7-.8 0-.8zM148.3 240.5c-.7 0-.7.8 0 .8s.7-.8 0-.8zM153.2 241.1c-.7 0-.7.8 0 .8s.7-.8 0-.8zM154.6 241.1c-.7 0-.7.8 0 .8s.7-.8 0-.8zM156.8 243.8c-.7 0-.7.8 0 .8s.7-.8 0-.8zM159.8 243.8c-.7 0-.7.8 0 .8s.7-.8 0-.8zM161.3 245c-.7 0-.7.8 0 .8.8 0 .8-.8 0-.8zM126.5 236.4c-.7 0-.7.8 0 .8s.7-.8 0-.8zM124.1 236.7c-.7 0-.7.8 0 .8.8 0 .8-.8 0-.8zM121.8 236.4c-.7 0-.7.8 0 .8s.7-.8 0-.8zM120.8 237.2c-.7 0-.7.8 0 .8s.7-.8 0-.8zM119.8 236.2c-.7 0-.7.8 0 .8s.7-.8 0-.8zM118.8 235.1c-.7 0-.7.8 0 .8s.7-.8 0-.8zM131.5 240c-.7 0-.7.8 0 .8s.7-.8 0-.8zM131.7 238.8c-.7 0-.7.8 0 .8s.7-.8 0-.8zM133.8 238c-.7 0-.7.8 0 .8s.7-.8 0-.8zM131.6 237.2c-.7 0-.7.8 0 .8s.7-.8 0-.8zM137.7 244.2c-.7 0-.7.8 0 .8.8 0 .8-.8 0-.8zM130.5 243.4c-.7 0-.7.8 0 .8s.7-.8 0-.8z"/><path class="st30" d="M129.6 243.9c-.7 0-.7.8 0 .8s.7-.8 0-.8zM139.4 244.2c-.7 0-.7.8 0 .8s.7-.8 0-.8zM133.3 244.6c-.7 0-.7.8 0 .8s.7-.8 0-.8zM131.9 244.9c-.7 0-.7.8 0 .8s.7-.8 0-.8zM133.4 246.5c-.7 0-.7.8 0 .8.8 0 .8-.8 0-.8zM134 247.5c-.7 0-.7.8 0 .8.7.1.7-.8 0-.8zM134.4 249.5c-.7 0-.7.8 0 .8s.7-.8 0-.8zM145.9 251.5c-.7 0-.7.8 0 .8s.7-.8 0-.8zM147.7 252.1c-.7 0-.7.8 0 .8s.7-.8 0-.8zM149.8 252.5c-.7 0-.7.8 0 .8s.8-.8 0-.8zM151.9 253.3c-.7 0-.7.8 0 .8s.7-.8 0-.8zM154 252.1c-.4 0-.5.2-.5.4-.1-.1-.2-.2-.5-.2-.7 0-.7.8 0 .8.4 0 .5-.2.5-.4.1.1.2.2.5.2.7 0 .7-.8 0-.8zM154.8 248c-.7 0-.7.8 0 .8s.7-.8 0-.8zM153.6 249.4c-.7 0-.7.8 0 .8s.7-.8 0-.8zM151.9 248.8c-.7 0-.7.8 0 .8s.7-.8 0-.8zM153.1 247.3c-.7 0-.7.8 0 .8s.7-.8 0-.8zM151.9 246.3c-.7 0-.7.8 0 .8s.7-.8 0-.8zM150.9 244.4c-.7 0-.7.8 0 .8s.7-.8 0-.8zM152.5 242.8c-.7 0-.7.8 0 .8s.7-.8 0-.8zM154.2 242.2c-.7 0-.7.8 0 .8s.7-.8 0-.8zM146.8 244.8c-.7 0-.7.8 0 .8s.7-.8 0-.8zM145.1 243.9c-.7 0-.7.8 0 .8s.7-.8 0-.8zM144 243c-.7 0-.7.8 0 .8s.7-.8 0-.8zM142.9 245.3c-.7 0-.7.8 0 .8s.7-.8 0-.8zM140.9 245.8c-.7 0-.7.8 0 .8s.7-.8 0-.8zM163 244.2c-.7 0-.7.8 0 .8s.7-.8 0-.8zM163.9 248.8c-.7 0-.7.8 0 .8s.7-.8 0-.8zM162.7 252c-.7 0-.7.8 0 .8.8 0 .8-.8 0-.8zM161.2 252.9c-.7 0-.7.8 0 .8s.7-.8 0-.8zM160.3 256.5c-.7 0-.7.8 0 .8s.7-.8 0-.8zM158.7 257.6c-.7 0-.7.8 0 .8s.7-.8 0-.8zM123 243.2c-.7 0-.7.8 0 .8s.7-.8 0-.8zM121.3 242.9c-.7 0-.7.8 0 .8s.7-.8 0-.8zM119.9 244.6c-.7 0-.7.8 0 .8s.7-.8 0-.8zM117.2 242.3c-.7 0-.7.8 0 .8s.7-.8 0-.8zM122.3 246.6c-.7 0-.7.8 0 .8s.7-.8 0-.8zM124.2 246.6c-.7 0-.7.8 0 .8s.7-.8 0-.8zM125.6 245c-.7 0-.7.8 0 .8s.7-.8 0-.8zM127.3 245.1c-.7 0-.7.8 0 .8s.7-.8 0-.8zM129.8 250.7c-.7 0-.7.8 0 .8s.7-.8 0-.8zM130.7 251.9c-.7 0-.7.8 0 .8s.7-.8 0-.8zM126.6 252.9c-.7 0-.7.8 0 .8s.7-.8 0-.8zM126.2 251.6c-.7 0-.7.8 0 .8s.7-.8 0-.8zM124.3 253c-.7 0-.7.8 0 .8s.7-.8 0-.8zM129.1 252.5c-.7 0-.7.8 0 .8.8 0 .8-.8 0-.8zM135.9 250c-.7 0-.7.8 0 .8s.7-.8 0-.8zM139 250.5c-.7 0-.7.8 0 .8s.7-.8 0-.8zM142.3 250.2c-.7 0-.7.8 0 .8s.7-.8 0-.8zM132.3 253.8c-.7 0-.7.8 0 .8s.7-.8 0-.8zM131.5 255.3c-.7 0-.7.8 0 .8s.7-.8 0-.8zM129.1 257.1c-.7 0-.7.8 0 .8.8 0 .8-.8 0-.8zM129.5 255.7c-.7 0-.7.8 0 .8s.7-.8 0-.8zM127.2 255.8c-.7 0-.7.8 0 .8s.7-.8 0-.8zM154.6 245c-.7 0-.7.8 0 .8s.7-.8 0-.8zM158.7 246.5c-.7 0-.7.8 0 .8s.7-.8 0-.8zM156.1 247.5c-.7 0-.7.8 0 .8.7.1.7-.8 0-.8zM160 252c-.7 0-.7.8 0 .8s.7-.8 0-.8zM158 250.8c-.7 0-.7.8 0 .8s.7-.8 0-.8zM143.9 250.9c-.7 0-.7.8 0 .8s.7-.8 0-.8zM145.5 247c-.7 0-.7.8 0 .8s.7-.8 0-.8z"/></g></g><g class="st33"><linearGradient id="SVGID_34_" gradientUnits="userSpaceOnUse" x1="93.592" y1="197.935" x2="312.072" y2="197.935" gradientTransform="translate(-175.362)"><stop offset="0" stop-color="#422a19"/><stop offset="1" stop-color="#683c14"/></linearGradient><path d="M135.3 323s-31.5-48.9-36.5-56.2c-5-7.3-22.8-36.1-25.1-41.1S56.8 119.3 54.9 110.6c-1.8-8.7-7.3-61.2-7.8-65.3-.5-4.1-115.1 10.5-122 12.8s-4.6 49.8-3.2 60.3c1.4 10.5 12.3 153.5 9.1 165.8-3.2 12.3-11.4 37-12.8 42.5-1.4 5.5 9.1 14.6 9.1 14.6l168.6 5 40.7 5-1.3-28.3z" fill="url(#SVGID_34_)"/><linearGradient id="SVGID_35_" gradientUnits="userSpaceOnUse" x1="147.505" y1="118.526" x2="147.505" y2="-44.402" gradientTransform="translate(-175.362)"><stop offset="0" stop-color="#152920"/><stop offset="1" stop-color="#6b824b"/></linearGradient><path d="M-46.2 92.7c-6.4 3.2-17.7 1.1-19.7 7-.6 1.7 0 3.6.2 5.4.7 8.3-10.9 15.6-20.6 12.9-6.8-1.9-11.5-7.4-18.3-9-4.9-1.2-10.2-.3-15.3-.8-5.1-.5-10.7-3.4-10.2-7.6.5-4.2 7.1-7.4 5.8-11.5-.5-1.5-1.9-2.6-3.3-3.7-13.8-9.9-31.8-15.8-50.2-16.3-4.9-5.2 0-12.8-2.2-19.1-.9-2.7-3.1-5-5.2-7.3-5-5.4-9.6-11.1-13.8-16.9-2.9-4.1-5.2-10.2-.5-13 1.6-1 3.7-1.3 5.2-2.4 2.7-2 2-5.5 1.2-8.4-1.4-5-2.5-10-3.3-15.1-.3-2.1-.6-4.3.5-6.1 1.5-2.5 4.9-3.7 8.1-4.7C-131-41.5-69.1-47.9-8.7-42.6c6 .5 12.1 1.2 17.6 3.3 3.8 1.4 7.2 3.5 10.8 5.1 9.6 4.3 20.9 5.6 31.9 5.4 13.9-.3 28.8-2.5 40.7 3.4 7.1 3.5 12 9.5 19.6 12.2 8.1 3 18.8 2 24.8 7.3 3.7 3.3 4.4 8.1 4.9 12.5l4.8 39.9c.1 1.2.3 2.3-.1 3.5-.8 2.3-3.4 3.7-5.5 5.3-5.2 3.9-8.1 9.7-7.6 15.3.2 2.2.6 4.8-1.4 6.3-1.2.9-3 1.1-4.7 1.5-6.4 1.3-11.8 5.2-14 10.2-.6 1.4-1.1 2.9-2.7 3.6-2.8 1.2-5.6-1.2-8.1-2.8-6.7-4.2-20.3 6.8-28 9.6-3.6 1.3-15.5 2.4-18.5.3-1.9-1.3-6.4-7.1-7.5-8.9-2.5-3.8 1.8-7.8-3.5-8-5.3-.2-5.1-2.3-10.4-1.8-1.7.1-3.5.2-4.9-.5-2.2-1.1-2.7-3.5-3.4-5.5C21.5 60.7-.8 54.4-11 67c-4.1 5.1-5.2 8.3-12.5 11-5.4 2-9.8 2-14.3 5.8-3.3 2.8-4.3 6.8-8.4 8.9z" fill="url(#SVGID_35_)"/></g><linearGradient id="SVGID_36_" gradientUnits="userSpaceOnUse" x1="264.056" y1="382.357" x2="264.056" y2="576.874"><stop offset="0" stop-color="#7c7c7b"/><stop offset="1" stop-color="#cdcccc"/></linearGradient><path d="M-5.4 413.4L7 416.8s131.8-24.8 136.3-24.2c4.5.6 64.8-5.1 69.8-5.1s67.6-4.5 77.1-3.9c9.6.6 80 1.7 86.7 1.1 6.8-.6 47.3-2.8 50.7-2.3 3.4.6 63.1 4.5 65.9 5.6 2.8 1.1 40.5 27 40.5 27s2.8 50.1-1.4 55.2c-4.2 5.1-21.1 13.5-32.9 17.7-11.8 4.2-47.3 10.1-65 11-17.7.8-33.8 7.6-52.4 11-18.6 3.4-8.4 3.4-30.4 2.5-22-.8-65-11.8-76.9-13.5-11.8-1.7-38-14.4-50.7-9.3-12.7 5.1-96.3 13.5-111.5 16.9-15.2 3.4-52.4 11-58.3 12.7-5.9 1.7-56.6 51.5-60 57.4-3.3 6 .1-163.2.1-163.2z" clip-path="url(#SVGID_12_)" fill="url(#SVGID_36_)"/><linearGradient id="SVGID_37_" gradientUnits="userSpaceOnUse" x1="295.74" y1="470.29" x2="295.74" y2="667.95"><stop offset="0" stop-color="#7c7c7b"/><stop offset="1" stop-color="#cdcccc"/></linearGradient><path d="M596.9 590.2v63.3L-5.4 668v-91.2c3.4-5.9 54.1-55.8 60-57.4 5.9-1.7 43.1-9.3 58.3-12.7 15.2-3.4 98.8-11.8 111.5-16.9s38.8 7.6 50.7 9.3c11.8 1.7 54.9 12.7 76.9 13.5 22 .8 11.8.8 30.4-2.5s34.6-10.1 52.4-11c17.7-.8 53.2-6.8 65-11 11.8-4.2 28.7-12.7 32.9-17.7 1.7.9 8.5 34.6 11.8 43.9 3.4 9.3 2.5 37.2 9.3 48.1 6.7 10.9 43.1 27.8 43.1 27.8z" clip-path="url(#SVGID_12_)" fill="url(#SVGID_37_)"/><linearGradient id="SVGID_38_" gradientUnits="userSpaceOnUse" x1="583.397" y1="415.11" x2="583.397" y2="522.66"><stop offset="0" stop-color="#7c7c7b"/><stop offset="1" stop-color="#cdcccc"/></linearGradient><path d="M633.8 493.9c-1.7 18-27 28.7-31.5 28.7h-56c-.5-3.5-1-6.4-1.7-8.4-3.4-9.3-10.1-43.1-11.8-43.9 4.2-5.1 1.4-55.2 1.4-55.2 3.4 3.9 86.2.6 86.2.6s7.3 5.6 9 13.5c1.5 7.9 6 46.7 4.4 64.7z" clip-path="url(#SVGID_12_)" fill="url(#SVGID_38_)"/><linearGradient id="SVGID_39_" gradientUnits="userSpaceOnUse" x1="574.23" y1="522.66" x2="574.23" y2="590.258"><stop offset="0" stop-color="#7c7c7b"/><stop offset="1" stop-color="#cdcccc"/></linearGradient><path d="M602.2 522.7s-2.6 68.9-5.3 67.6c0 0-.1 0-.2-.1-2.5-1.2-36.4-17.2-42.9-27.8-5.3-8.6-5.9-27.4-7.5-39.7h55.9z" clip-path="url(#SVGID_12_)" fill="url(#SVGID_39_)"/><linearGradient id="SVGID_40_" gradientUnits="userSpaceOnUse" x1="241.072" y1="324.89" x2="241.072" y2="416.86"><stop offset="0" stop-color="#b3c2da"/><stop offset="1" stop-color="#dbeff4"/></linearGradient><path d="M508.7 355.4c-.4 4.7-20.3 30.1-21.7 31.8-16.2-1.6-56.6-4.3-59.4-4.8-3.4-.6-43.9 1.7-50.7 2.2-6.8.6-77.1-.6-86.7-1.1-9.6-.6-72.1 3.9-77.2 3.9-5.1 0-65.3 5.6-69.8 5.1C138.8 392 7 416.8 7 416.8l-12.4-3.4s0 1.2-.1 3.4c-7.5-5.8-21.1-22.7-21.1-25 0-2.6 33.4-10.1 45.8-13.5s18-14.3 20.3-18c2.3-3.8 22.2-10.5 29.3-12 7.1-1.5 48-18.4 58.6-20.6 10.5-2.3 89.7-.4 95.7-.4s124.6-3 129.1-2.2c4.5.8 58.6 9.4 63.1 10.1 4.5.8 57.1 9 60.4 9.4 3.4.3 33.4 5.9 33 10.8z" clip-path="url(#SVGID_12_)" fill="url(#SVGID_40_)"/><g id="tour_du_lac" class="st33"><linearGradient id="SVGID_41_" gradientUnits="userSpaceOnUse" x1="497.745" y1="356.55" x2="497.745" y2="393.33"><stop offset="0" stop-color="#7c7c7b"/><stop offset="1" stop-color="#cdcccc"/></linearGradient><path d="M487 387.2c1.3-1.6 18.9-24 21.4-30.7l-6.5 36.8-14.9-6.1z" fill="url(#SVGID_41_)"/><linearGradient id="SVGID_42_" gradientUnits="userSpaceOnUse" x1="244.386" y1="290.099" x2="244.386" y2="391.83"><stop offset="0" stop-color="#7c7c7b"/><stop offset="1" stop-color="#cdcccc"/></linearGradient><path d="M517.8 303.6l-9 51.5c0-.1 0-.1-.1-.2 0 0 0-.1-.1-.2v-.1c0-.1-.1-.2-.2-.2-.8-1.1-3.1-2.3-6-3.4-.6-.2-1.2-.5-1.9-.7-.4-.2-.9-.3-1.3-.4-.2-.1-.5-.1-.7-.2l-2.1-.6c-.7-.2-1.4-.4-2.2-.6-.1 0-.3-.1-.4-.1-.5-.1-1-.2-1.4-.4-.1 0-.2-.1-.3-.1-.4-.1-.8-.2-1.1-.3-.4-.1-.7-.2-1.1-.3l-1.5-.3c-.6-.1-1.2-.3-1.7-.4-.2 0-.5-.1-.7-.1-.6-.1-1.2-.3-1.8-.4-1.3-.3-2.5-.5-3.7-.7-.4-.1-.7-.1-1.1-.2-.2 0-.4-.1-.6-.1-.3 0-.6-.1-.8-.1-.4-.1-.8-.1-1.2-.2-.3-.1-.6-.1-.8-.1h-.4c-3.4-.4-55.9-8.6-60.4-9.4-.2 0-.4-.1-.6-.1-.2 0-.5-.1-.7-.1h-.2c-.2 0-.5-.1-.7-.1-1-.2-2.3-.4-3.7-.6-.3 0-.6-.1-.9-.1-.7-.1-1.5-.2-2.3-.4-.5-.1-.9-.1-1.4-.2h-.3c-.3-.1-.7-.1-1.1-.2-.5-.1-.9-.1-1.4-.2-.4-.1-.8-.1-1.2-.2-2-.3-4.1-.7-6.3-1-1.7-.3-3.4-.5-5.2-.8-.2 0-.5-.1-.7-.1-3.1-.5-6.3-1-9.4-1.5-.5-.1-.9-.1-1.3-.2-1.2-.2-2.3-.4-3.5-.5-7.9-1.3-15-2.4-19-3-.4-.1-.8-.1-1.2-.2-.7-.1-1.3-.2-1.7-.3h-.2c-4.5-.8-123.1 2.2-129.1 2.2s-85.2-1.9-95.7.4c-10.5 2.2-51.4 19.1-58.6 20.6-7.1 1.5-27 8.3-29.3 12-2.2 3.8-7.9 14.6-20.3 18s-45.8 10.9-45.8 13.5c0 0-4.5-72.1-1.1-77 3.4-4.9 32.3-11.3 38.3-12.4 6-1.1 34.2.8 35.7-.4 1.5-1.1 7.5-6 11.3-6.8 3.8-.8 40.9-3 48.4-2.6 7.5.4 34.9 4.5 38.3 5.3 3.4.8 9.8-2.6 16.1-4.1s68.7-4.1 75.1-3.4 75.1-1.1 79.2 0 18.8-.4 25.9.4c7.1.8 35.3-1.1 43.5 1.1 8.3 2.2 22.2-.4 35.3-.8 13.1-.4 59.7 6.4 68.7 7.1 9 .5 29.7 5 29.7 5z" fill="url(#SVGID_42_)"/></g><linearGradient id="SVGID_43_" gradientUnits="userSpaceOnUse" x1="616.577" y1="188.004" x2="616.577" y2="417.992"><stop offset="0" stop-color="#7c7c7b"/><stop offset="1" stop-color="#cdcccc"/></linearGradient><path d="M499.7 393.1S505.3 230.7 516 218c9.1-10.9 84.5-32.1 93.5-29.8 9 2.3 63.6 64.8 67.6 70.4s58 143 56.9 147-157.7 18.6-199.9 9.6-34.4-22.1-34.4-22.1z" clip-path="url(#SVGID_12_)" fill="url(#SVGID_43_)"/><linearGradient id="SVGID_44_" gradientUnits="userSpaceOnUse" x1="-10.178" y1="255.175" x2="-10.178" y2="391.83"><stop offset="0" stop-color="#7c7c7b"/><stop offset="1" stop-color="#cdcccc"/></linearGradient><path d="M31.8 370.9c-3.1 3.1-7.2 6-12.6 7.5-12.4 3.4-45.8 10.9-45.8 13.5 0 0-30-61.2-25-73.6s25.3-63.6 31-63.1 9.6 26.5 13.7 34.9c4.1 8.5 13.9 43.9 18.4 50.7 4.5 6.7 20.3 30.1 20.3 30.1z" clip-path="url(#SVGID_12_)" fill="url(#SVGID_44_)"/><linearGradient id="SVGID_45_" gradientUnits="userSpaceOnUse" x1="237.49" y1="324.89" x2="237.49" y2="416.86"><stop offset="0" stop-color="#b3c2da"/><stop offset="1" stop-color="#dbeff4"/></linearGradient><path d="M501.6 350.7c-.3 6.7-.6 12.9-.9 18.4-5.8 8.2-12.9 17.2-13.7 18.2-16.2-1.6-56.6-4.3-59.4-4.8-3.4-.6-43.9 1.7-50.7 2.2-6.8.6-77.1-.6-86.7-1.1-9.6-.6-72.1 3.9-77.2 3.9-5.1 0-65.3 5.6-69.8 5.1C138.8 392 7 416.8 7 416.8l-12.4-3.4s0 1.2-.1 3.4c-7.5-5.8-21.1-22.7-21.1-25 0-2.6 33.4-10.1 45.8-13.5s18-14.3 20.3-18c2.3-3.8 22.2-10.5 29.3-12 7.1-1.5 48-18.4 58.6-20.6 10.5-2.3 89.7-.4 95.7-.4s124.6-3 129.1-2.2c4.5.8 58.6 9.4 63.1 10.1 4.5.8 57.1 9 60.4 9.4 2.3.2 16.9 2.9 25.9 6.1z" opacity=".75" clip-path="url(#SVGID_12_)" fill="url(#SVGID_45_)"/></g><g id="artemis_1_"><defs><path id="SVGID_46_" d="M0 0h595.3v652.8H0z"/></defs><clipPath id="SVGID_47_"><use xlink:href="#SVGID_46_" overflow="visible"/></clipPath><g id="artemis_2_" clip-path="url(#SVGID_47_)"><linearGradient id="corps_2_" gradientUnits="userSpaceOnUse" x1="206.729" y1="331.406" x2="353.326" y2="357.255"><stop offset="0" stop-color="#f6af9a"/><stop offset="1" stop-color="#fbd9cd"/></linearGradient><path id="corps" d="M356.4 315.4c-.1-1.5-8.7-31-9.9-33.8-1.1-2.8-4.6-23.2-6.9-32.5-2.2-9.3-18.6-8.9-22.4-9-3.8-.1-27.3-10.7-27.3-10.7l-5.2 1.7s5.3 5.9-8 8.3c-13.4 2.4-22.7 14.1-26.3 18.7-3.7 4.6-9.7 6.2-17.2 14.5s-15.9 20.6-19.6 25.1c-3.7 4.5-.4 5.2 4.6 14.4s10.3 18.4 18.7 28.8c8.3 10.4 17.3 17.3 19.3 18.5.4.3.9.4 1.3.6-2.6 3.7-6.8 10.4-8.3 17.6-2.4 10.9 2.2 22.1 5.6 26.3 3.4 4.1 7.9 6.6 9.2 9.2 1.3 2.6 9.2 23.7 9.6 24.4.4.8 1.7 22.3 1.7 22.7 0 .4 51.4-.2 51.4-.2s-3.9-16.1-6-19.9c0 0 3.2-19 3-26.5-.1-4.4-.6-16.6-.6-26.8v-.7c.2.5.9 1 1.6 1.4 1.1.6 6.1-4.3 6.4-3.9.3.4 7.2.4 8.9 1h.2c.3 0 .7-.1 1.2-.4 1.9-1.1 4.4-4.5 5-5.4.1-.2.2-.4.3-.9.8-3.1 2.5-13 6.3-22.7 4.4-10.8 3.6-38.2 3.4-39.8zM264.8 345c-2.2 1.3-7.2 1.3-8.2 1-1-.3-7.3-13-9.7-15.3-2.4-2.4-11.8-28.3-10.1-29.4 1.7-1.1 23-20.7 23-20.7s2.4 5.4 3.8 8c1.4 2.7 3.4 15.3 4.2 17.3.8 2 3.5 14.9 4.2 20.4.7 5.5-5 17.4-7.2 18.7zm58.4 40.5c0-.1 0-.1 0 0 0-.1 0-.1 0 0zm.1-7.6c0-1.4.1-2.5.2-3.5 0 .1.1.2.1.2.6 1.3.3 2.3-.3 3.3zm11.4-9.9c0 .1-.1.2-.1.3v.1s0 .1-.1.1v.1c-.6.9-2.7-1.1-3.3-2-.6-.9-3.1-.3-3.8-.5 0 0-.1 0-.2-.1l-.1-.1-.1-.1c-.2-.2-.5-.5-.8-.9-.1-.1-.3-.3-.4-.5-.3-.3-.6-.7-.9-1.1l-.2-.2c.5-8.9 0-19.5-.3-21.1-.6-2.7 1-6.9 2.7-9.6 6.3-9.9 4.9-21.5 5.2-19.6.3 2 2.7 9.2 3.1 10.8.4 1.7.3 33.9.4 36.3.1 1.7-.2 4.8-.6 6.8-.3.6-.4 1-.5 1.3z" fill="url(#corps_2_)"/><linearGradient id="robe_2_" gradientUnits="userSpaceOnUse" x1="206.314" y1="333.758" x2="352.911" y2="359.607"><stop offset="0" stop-color="#e4e1e0"/><stop offset="1" stop-color="#f2f2f2"/></linearGradient><path id="robe" d="M356.4 315.4c-.1-1.5-8.7-31-9.9-33.8-1.1-2.8-4.6-23.2-6.9-32.5-2.2-9.3-18.6-8.9-22.4-9-.7 0-3.1.9-4.9.7-.3 0-.7-.1-1-.1-3.8.2-5.2.2-7 .5-1.1.2-10.7 3.1-19.6 4.2-7.8 1-13-2.8-14.2-4.2-10 4.2-17 13-20.1 16.9-3.7 4.6-9.7 6.2-17.2 14.5s-15.9 20.6-19.6 25.1c-3.7 4.5-.4 5.2 4.6 14.4s10.3 18.4 18.7 28.8c5.2 6.5 10.6 11.6 14.4 14.8.1-6.6 5.2-9.8 5.2-9.8-1-.3-7.3-13-9.7-15.3-2.4-2.4-11.8-28.3-10.1-29.4 1.7-1.1 23-20.7 23-20.7s2.4 5.4 3.8 8c1.4 2.7 3.4 15.3 4.2 17.3.8 2 3.5 14.9 4.2 20.4.4 3.5-1.7 9.7-3.9 14 1.5-.4 2.2-.2 1.4 1.3-3 5.1-11.8 18.4-11.8 18.4-2.6 3.7-6.8 10.4-8.3 17.6-2.4 10.9 2.2 22.1 5.6 26.3 3.4 4.1 7.9 6.6 9.2 9.2 1.3 2.6 9.2 23.7 9.6 24.4.4.8 1.7 22.3 1.7 22.7 0 .4 51.4-.2 51.4-.2s-3.9-16.1-6-19.9c0 0 3.2-19 3-26.5-.1-4.5-.6-17.1-.6-27.4-.1-.6.4-1.8.5-2-.1.2-.6 1-1.6.5-1.1-.6-.6-4.2.2-5.4.8-1.1 1.2-3.4 1.2-5s-4.4-9.1-6.3-11.7c-1.9-2.5-2.6-5.2 0-5.7 4.3-.7 5.2 3 7.3 6.1.5-8.9 0-19.5-.3-21.1-.6-2.7 1-6.9 2.7-9.6 6.3-9.9 4.9-21.5 5.2-19.6.3 2 2.7 9.2 3.1 10.8.4 1.7.3 33.9.4 36.3.1 2.4-.5 7.6-1.1 8.5 8.3.2 12 10.4 12 10.4.7-1.5 2.3-12.6 6.6-23.4 4.3-10.8 3.5-38.2 3.3-39.8zm-30 49.8c-.5-.5-1.2-1.3-1.9-2.1.7 1 1.4 1.7 1.9 2.1z" opacity=".4" fill="url(#robe_2_)"/><linearGradient id="tête_4_" gradientUnits="userSpaceOnUse" x1="281.155" y1="207.428" x2="326.249" y2="215.379"><stop offset="0" stop-color="#f6af9a"/><stop offset="1" stop-color="#fbd9cd"/></linearGradient><path id="tête_1_" d="M309.1 184.6s4.2 2.2 7.3 5.4c3.1 3.2 5.1 7.6 6.9 13 .6 1.7-.6 2.8-.2 4.6.4 1.9 1.9 3.2 1.9 7.2s-2.1 23.5-3.7 24.4c-1.6.9-.5 1.3-7.1 1-6.6-.3-13.8-1.1-17.9-3.5-1.5-.9-6.2-7.5-7.6-7.7-1.4-.3-7.7-1.3-8.6-5.9-.8-4.6-2-9.4 2.7-9.3 3.8 0 10.8-19.4 13.9-22 3.3-2.5 6.7-7.1 12.4-7.2z" fill="url(#tête_4_)"/><path id="ombre_cou_1_" d="M315.7 240.3c-.4.2-.9.3-1.3.3-4.7.5-9.5-.3-14.1-1.2-4.2-.8-8.6-1.7-12-4.4-.4-.3-.8-.7-1-1.2-.8-1.7.8-3.7 2.3-4.2.1 0 .2-.1.2-.1 1.9 1.7 5.3 6.4 6.6 7.1 4.1 2.4 11.3 3.2 17.9 3.5.5.2 1 .2 1.4.2z" opacity=".04" fill="#6b150b"/><g id="ombres_corps" opacity=".5"><path id="ombre_bras_2_" class="st73" d="M265 345.1c-.3 1.5-1.8 2.5-3.2 3.2-1.4.7-2.8 1.4-3.7 2.6-.9 1.2-1.2 3.1-.1 4.2.8.8 2.1 1.1 2.3 2.2.1.4 0 .8-.2 1.2-.5 1.2-1.7 2.1-2.9 2.5.2-.3.4-.6.6-.8-.4-.1-.9-.3-1.3-.6-.7-.4-2.3-1.6-4.5-3.4.7-.2 1.4-.5 2-1 .3-.2.5-.4.6-.7.1-.2.1-.5.1-.8-.2-2.3-1.8-4.2-3.6-5.6-1.8-1.4-3.9-2.4-5.7-3.8-1.5-1.2-2.8-2.7-3.8-4.4-1.5-2.6-3.6-5.4-5.4-7.7-4.6-5.6-7.5-12.4-10.4-19.1-2.1-4.8-4.2-10-3.3-15.2.8-4.3 3.6-8.1 6.8-11 3.3-3 7-5.3 10.5-8 6.5-5.2 11.9-11.8 15.5-19.2.2 4.3-.1 10.7 1.8 14.6 1.4 2.8 2.8 4.8 3 7.2-.2-.4-.3-.7-.3-.7s-21.3 19.6-23 20.7c-1.7 1.1 7.8 27 10.1 29.4 2.4 2.4 8.7 15.1 9.7 15.3 1 .3 5.9.3 8.2-1 .1-.2.1-.1.2-.1z"/><path id="ombre_fesse_gauche" class="st73" d="M273.1 420.6c0 1.6-.1 3.2-.1 4.7-.1 3.3-.1 6.8-.1 10.2-.1-.3-.3-.7-.4-1.1-2.3-6.1-7.4-19.4-8.4-21.4-1.3-2.6-5.8-5.1-9.2-9.2-3.4-4.1-8.1-15.4-5.6-26.3 1.2-5.4 3.9-10.6 6.2-14.4.5-.9 1-1.7 1.5-2.4 1.3-.4 2.4-1.3 2.9-2.5.2-.4.3-.8.2-1.2-.2-1.1-1.5-1.4-2.3-2.2l-.1-.1c.4 0 .8-.1 1.2-.1 2.6 0 5.5.4 7.1 2.4-3.3 6.2-5.6 13-6.9 19.9-.5 2.8-.9 5.7-.7 8.6.4 7 4 13.3 7.4 19.3 1 1.7 2 3.5 3.2 5 1.2 1.5 2.5 2.8 3.2 4.5 1 2.2 1 4.3.9 6.3z"/><path id="ombre_fesse_droite" class="st74" d="M291.2 441.3c-.2 2.5-.5 5-.9 7.4-.6 3.9-1.2 7.7-1.8 11.6-7.5 0-13.2 0-13.2-.1 0-.4-1.3-22-1.7-22.7-.1-.1-.3-.8-.8-1.9.1-3.4 0-6.9.1-10.2 0-1.6.1-3.1.1-4.7 0-2 .1-4.1-.7-6-.7-1.7-2.1-3.1-3.2-4.5-1.2-1.6-2.2-3.3-3.2-5-.3-.5-.6-1.1-.9-1.6 2-1.2 5.3-1.3 7.1-1.8 1.2-.3 2.5-.6 3.7-.3 2.1.4 3.6 2.2 4.9 3.9 2.7 3.5 5.4 7.1 7 11.3.9 2.2 1.4 4.6 1.8 7 1.2 5.6 2 11.6 1.7 17.6z"/><path id="ombre_main" class="st73" d="M346.7 378.1c-.1.4-.2.7-.3.9-.5 1-3.1 4.3-5 5.4-.5.2-.9.4-1.2.4h-.2c-1.7-.6-8.6-.6-8.9-1-.3-.4-5.3 4.4-6.4 3.9-.7-.4-1.4-.8-1.6-1.4v.7c-1-1.5-1.8-3.2-1.8-5-.1-1.7.5-3.4.7-5 .9-5.8-3-10.8-5.7-16-2-3.8 3.3-5 5.1-2.2.8 1.3 1.2 2.9 2.3 3.9.3.3.6.5 1 .7.3.4.6.7.9 1.1.1.2.3.3.4.5.3.4.6.7.8.9l.1.1.1.1c.1.1.2.1.2.1.7.1 3.2-.4 3.8.5.6.9 2.7 2.9 3.3 2v-.1s0-.1.1-.1v-.1c0-.1.1-.2.1-.3.1-.3.2-.7.3-1.1 1.1.9 4.6.7 5.6 1.8 1.3 1.5 2.7 3 3.8 4.7 1.1 1.3 1.9 2.9 2.5 4.6z"/><path id="ombre_bras_droit" class="st75" d="M347.1 339.8c-1.3 11.6-3.2 23.1-5.6 34.5-1-1.5-2.3-2.9-3.5-4.3-1-1.1-1.9-2.2-3-3.1.4-2 .7-5.1.6-6.8-.1-2.4 0-34.6-.4-36.3-.4-1.7-2.8-8.9-3.1-10.8-.1-.7 0 .4-.1 2.7v-.1c-1.6-12.2-6.7-22.8-11.4-34.1-1.7-4.1-3.6-9.5-1.9-14 1.8-4.7 6.4-8 8.5-1.7 4 12.1 7.4 24.5 12.6 36.2 2.8 6.3 6.2 12.5 7.5 19.2 1.1 6.1.5 12.4-.2 18.6z"/><path id="ombre_dos" class="st74" d="M323.7 289c-.7 2.2-1.7 4.1-2.8 5.2-1.6 1.7-3.6 3-5.2 4.8-5.3 5.6-5.9 14.2-5 21.9.3 2.5.7 5 .3 7.5-.4 2.5-1.7 5-4 6-2.2 1-4.8.5-7.2-.1-.5-.1-1.2-.3-1.3-.9-.1-.3 0-.6.1-.9 1.7-5.6.3-11.5-.3-17.3-.7-5.8-.3-12.3 3.8-16.4 1.2-1.2 2.8-2.1 3.9-3.4 1.2-1.2 2-2.7 2.8-4.2 2.1-3.9 4.2-7.9 5.7-12.1.8-2.2 1.5-6.3 3.4-7.7 0 3.4 1.4 7 2.6 10 1.1 2.5 2.2 5.1 3.2 7.6z"/><path id="ombre_hanche" class="st75" d="M316.3 360.9c.2.4.4.8.6 1.1-.8-.2-1.6-.5-2.4-.9-1.3-.6-2.6-1.2-3.8-1.9-1.3-.7-2.5-1.4-3.6-2.5-1.3-1.3-2.2-3-3.1-4.6-.7-1.2-1.4-2.6-1.2-4 .1-1.2.9-2.2 1.6-3.1.3-.4.6-.9 1.1-1 .3-.1.7-.1 1 0 1.4.2 2.7.7 3.8 1.5 1.1.8 2 1.9 2.8 2.9 1.9 2.3 3.8 4.6 5.6 6.9.5.6 1 1.3 1.4 2.1-2.2-1-5.4.4-3.8 3.5z"/><path id="ombre_tresse" class="st76" d="M295.1 339.3c-.7 2.6-2.7 4.6-4.9 6-3 2-10.9 5.9-14.4 3.8 4.2-2.4 7.9-4.9 10.3-9.3 1.5-2.6 2.5-5.9 1.4-8.7-.6-1.5-1.7-2.8-2.6-4.1-2.5-3.4-4.4-7.4-5.4-11.5-1.9-7.5-1-15.6-2.8-23.1-.4-1.6-.8-3.1-1.2-4.6.3-3.1.6-6.3.6-8 0-2 1-4.5 1.8-6.8 2.1 6.3 3.3 13 3.6 19.7.2 5.2-.1 10.5.6 15.7.6 5.2 2.4 10.5 6.1 14.2 1.3 1.3 2.8 2.4 3.9 3.9 1 1.3 1.5 3 2 4.5.9 2.7 1.8 5.6 1 8.3z"/></g><linearGradient id="cheveux_4_" gradientUnits="userSpaceOnUse" x1="260.923" y1="258.68" x2="309.784" y2="267.296"><stop offset="0" stop-color="#8d2b13"/><stop offset="1" stop-color="#d16215"/></linearGradient><path id="cheveux_1_" d="M321.8 198.9s-.7-7.3-2.3-11.5c-1.6-4.2-7.7-8.5-14.7-10.2-7-1.7-10.6-1.6-16.6.4-6 2-12.8 7.2-15.6 16-2.8 8.8-1.6 27.9-1.5 31.3.1 3.4 1.8 11.1 2.3 12.4s-3 8.2-3 10.7-1 8.2-.1 9.9c.8 1.7.4 7.3 1.1 8.3.7 1-1.5 5.6-.8 8.6s-3 3.4-3 8.9 2.3 16.5 2.4 18.7.3 4.9-1.4 7.5c-1.7 2.5-2.8 6.3-2 9.3.8 3 4.5 7.7 4.2 10.1s-6.6 18.4-7.7 19.1c-1.1.7 15.5-13.4 15.6-19.8 0 0 2.3 4.4 1 7.5-1.3 3.1-3.9 9.2-7.3 9.9 0 0 11.5-1.8 13.1-7.5 1.5-5.6-3.4-17.5-8.3-22.8-1.7-1.8-3.8-3.2-3.4-7.7.4-4.5.7-9.4 1-12.7.3-3.2 1.3-12.1 1.3-15.3 0-3.2 2.8-8 2.8-11s2.3-6.8 2.1-9.4c-.1-2.7 1.5-4.4 1-9.7-.6-5.3-.8-8.3.4-10.1 1.3-1.8 6.6-6.8 7-8.6.4-1.8.7-2.3.7-2.8 0-.6-2.1-.1-4.5-3.4-2.4-3.2-2.5-9.6-1.4-11.6s5.1-.5 11.1-7 10.5-9.6 12.7-15c0-.3 9.2-.5 13.8 7.5z" fill="url(#cheveux_4_)"/></g><linearGradient id="SVGID_48_" gradientUnits="userSpaceOnUse" x1="264.056" y1="382.357" x2="264.056" y2="576.874"><stop offset="0" stop-color="#7c7c7b"/><stop offset="1" stop-color="#cdcccc"/></linearGradient><path d="M-5.4 413.4L7 416.8s131.8-24.8 136.3-24.2c4.5.6 64.8-5.1 69.8-5.1s67.6-4.5 77.1-3.9c9.6.6 80 1.7 86.7 1.1 6.8-.6 47.3-2.8 50.7-2.3 3.4.6 63.1 4.5 65.9 5.6 2.8 1.1 40.5 27 40.5 27s2.8 50.1-1.4 55.2c-4.2 5.1-21.1 13.5-32.9 17.7-11.8 4.2-47.3 10.1-65 11-17.7.8-33.8 7.6-52.4 11-18.6 3.4-8.4 3.4-30.4 2.5-22-.8-65-11.8-76.9-13.5-11.8-1.7-38-14.4-50.7-9.3-12.7 5.1-96.3 13.5-111.5 16.9-15.2 3.4-52.4 11-58.3 12.7-5.9 1.7-56.6 51.5-60 57.4-3.3 6 .1-163.2.1-163.2z" clip-path="url(#SVGID_47_)" fill="url(#SVGID_48_)"/><g id="carquois"><linearGradient id="SVGID_49_" gradientUnits="userSpaceOnUse" x1="487.079" y1="444.464" x2="514.274" y2="444.464" gradientTransform="matrix(.9999 -.01242 .01242 .9999 17.665 .869)"><stop offset="0" stop-color="#432017"/><stop offset="1" stop-color="#b04717"/></linearGradient><path d="M537.2 458.6c-.3 20.7-1 38-1 38-1.6 6.2-13.7 6.3-11.3-9 .5-3 .2-8.2-.6-14.8-3.2-27.3-14.8-77.1-14.8-77.1 14.1.3 26-18.3 26-18.3s.1 6.7 1.3 38.8c.7 12.9.6 28.4.4 42.4z" fill="url(#SVGID_49_)"/><linearGradient id="SVGID_50_" gradientUnits="userSpaceOnUse" x1="486.192" y1="385.393" x2="513.661" y2="385.393" gradientTransform="matrix(.9999 -.01242 .01242 .9999 17.665 .869)"><stop offset="0" stop-color="#291b19"/><stop offset="1" stop-color="#3c3a3f"/></linearGradient><path d="M535.7 377.4s-12 18.6-26 18.3c-.7-.5-1.2-1.9-.8-5.7v-.1c.7-5.4 11.2-17.1 17.9-22.6 2.5-2 4.5-3.2 5.3-2.9 5.3 2.1 3.6 13 3.6 13z" fill="url(#SVGID_50_)"/><g id="flèches"><g id="flèche_5_"><linearGradient id="SVGID_51_" gradientUnits="userSpaceOnUse" x1="494.188" y1="361.012" x2="500.495" y2="359.9" gradientTransform="matrix(.9999 -.01242 .01242 .9999 17.665 .869)"><stop offset="0" stop-color="#9d6955"/><stop offset="1" stop-color="#fbd0b1"/></linearGradient><path d="M525.2 379.5c-.4.6-.8 1.2-1.3 1.8l-.1.1c-.6.7-1.4 1.5-2.2 2.2l-1.5-10-4.8-33.1-1.7-11.5-.2-1.6 1.1.2 3.1.6 4.4 29.7 1.8 12.1 1.4 9.5z" fill="url(#SVGID_51_)"/><linearGradient id="SVGID_52_" gradientUnits="userSpaceOnUse" x1="494.597" y1="339.135" x2="494.597" y2="310.352" gradientTransform="rotate(-4.571 371.159 102.029) scale(.99998)"><stop offset="0" stop-color="#9c8880"/><stop offset="1" stop-color="#ecd9cb"/></linearGradient><path fill="url(#SVGID_52_)" d="M517.6 328.2l3.7-5.1-2.9-20.7-3 3.3v-5.4l-3.1 1.2-3-1.5-1.3 2.6-2.4-1.3 2.6 4.5-5.7-1.8 5.2 19.4 5.7 4z"/></g><g id="flèche_4_"><linearGradient id="SVGID_53_" gradientUnits="userSpaceOnUse" x1="481.565" y1="366.414" x2="486.656" y2="365.516" gradientTransform="matrix(.9999 -.01242 .01242 .9999 17.665 .869)"><stop offset="0" stop-color="#9d6955"/><stop offset="1" stop-color="#fbd0b1"/></linearGradient><path d="M514 387.9c-.1.1-.3.1-.4.2-1.4.6-2.5 1-3.6 1.4l-.4-2-11.3-54.6 4 .5h.3l10.2 48.8 1.2 5.7z" fill="url(#SVGID_53_)"/><linearGradient id="SVGID_54_" gradientUnits="userSpaceOnUse" x1="496.04" y1="333.45" x2="496.04" y2="305.77"><stop offset="0" stop-color="#9c8880"/><stop offset="1" stop-color="#ecd9cb"/></linearGradient><path fill="url(#SVGID_54_)" d="M506 328.2l-3.4 5.3-4.2-.6-6-3.7-6.3-19 3.6.9.8.2 1.4.4-2.9-4.4 2.5 1.2 1.1-2.7 3.2 1.4 2.9-1.4.4 5.3 2.8-3.5z"/><path class="st85" d="M502.3 332c-1.8.1-3.6-1.5-4.9-2.4-.7-.5-1.4-.9-1.9-1.6-.5-.8-.9-1.8-1.2-2.7-1.1-3.6-3.2-6.9-4-10.6-.2-.7-.7-2.3-.7-3.5l.9.2 5.3 16.1 6 3.7.3.1c.2.1.2.4.2.7z"/></g><g id="flèche_3_"><linearGradient id="SVGID_55_" gradientUnits="userSpaceOnUse" x1="485.104" y1="364.856" x2="490.202" y2="363.957" gradientTransform="matrix(.9999 -.01242 .01242 .9999 17.665 .869)"><stop offset="0" stop-color="#9d6955"/><stop offset="1" stop-color="#fbd0b1"/></linearGradient><path d="M517.6 386.3c-.2.1-.5.3-.7.4-.4.2-.8.4-1.3.6-.5.2-1.1.5-1.6.7-.1.1-.3.1-.4.2l-1.1-5.4-10.2-49.2-.5-2.3 2.1.3 1.5.2.6.1 9.8 46.6 1.8 7.8z" fill="url(#SVGID_55_)"/><linearGradient id="SVGID_56_" gradientUnits="userSpaceOnUse" x1="485.571" y1="345.86" x2="485.571" y2="317.077" gradientTransform="rotate(-8.008 396.705 224.476)"><stop offset="0" stop-color="#9c8880"/><stop offset="1" stop-color="#ecd9cb"/></linearGradient><path fill="url(#SVGID_56_)" d="M506.1 331.7l3.4-5.3-4.1-20.6-2.9 3.5-.3-5.3-3 1.4-3.1-1.4-1.2 2.7-2.4-1.2 2.9 4.4-5.9-1.5 6.4 19 6 3.7z"/><path class="st85" d="M505.2 330.9c-1.2-.3-2.4-.8-3.5-1.3-.6-.3-1.2-.5-1.8-.8-.1 0-.2-.1-.2-.2-.1-.1-.4-.3-.5-.4-.5-.5-.5-.6-.8-1.1-.2-.2-.5-.5-.6-.8-.2-1-.3-1.8-.7-2.7-.2-.4-.2-.9-.3-1.3-.2-.5-.4-1.1-.5-1.6-.3-1.2-.6-2.4-1-3.7-.6-2.2-1.3-4.4-2-6.6-.2-.4-.5-1.3 0-1.5l6.1 18.4 5.8 3.6z"/></g><g id="flèche_2_"><linearGradient id="SVGID_57_" gradientUnits="userSpaceOnUse" x1="488.485" y1="364.152" x2="493.553" y2="363.258" gradientTransform="matrix(.9999 -.01242 .01242 .9999 17.665 .869)"><stop offset="0" stop-color="#9d6955"/><stop offset="1" stop-color="#fbd0b1"/></linearGradient><path d="M520.7 384.3c-.1.1-.2.2-.4.3-.8.6-1.7 1.1-2.7 1.7-.2.1-.5.3-.7.4l-1.6-7.6-9.8-47.4-.1-.5 1.1.1 2.9.4h.3l9.1 43.5 1.9 9.1z" fill="url(#SVGID_57_)"/><linearGradient id="SVGID_58_" gradientUnits="userSpaceOnUse" x1="489.048" y1="346.305" x2="489.048" y2="317.522" gradientTransform="rotate(-8.008 396.705 224.476)"><stop offset="0" stop-color="#9c8880"/><stop offset="1" stop-color="#ecd9cb"/></linearGradient><path fill="url(#SVGID_58_)" d="M509.6 331.6l3.4-5.3-4.1-20.5-2.9 3.5-.3-5.4-3 1.4-3.1-1.3-1.2 2.6-2.4-1.1 2.9 4.4-5.9-1.5 6.4 19 6 3.6z"/><path class="st85" d="M509.1 329.3c0 .1-.1.2-.3.3-.2.1-.3 0-.5 0-1.2-.2-2.4-.4-3.5-.8s-2.2-1.2-2.8-2.2c-.3-.6-.5-1.2-.7-1.8-.3-.8-.8-1.6-1.1-2.3-1.4-2.9-1.7-4.9-2.2-8 .1.2-.2-.9-.1-.7-.3-1.1-.6-2.1-.9-3.2-.3-1.1-.6-2.2-.6-3.4 0-.3.1-.4.2-.4l6.3 18.8 6 3.7h.2z"/></g><g id="flèche_1_"><linearGradient id="SVGID_59_" gradientUnits="userSpaceOnUse" x1="491.968" y1="362.276" x2="497.002" y2="361.389" gradientTransform="matrix(.9999 -.01242 .01242 .9999 17.665 .869)"><stop offset="0" stop-color="#9d6955"/><stop offset="1" stop-color="#fbd0b1"/></linearGradient><path d="M523.9 381.3l-.1.1c-.6.7-1.4 1.5-2.2 2.2-.3.2-.6.5-.9.7-.1.1-.2.2-.4.3l-1.9-9.2-9.1-43.8-.5-2.3 2.1.3 2.1.3 2.2 10.6 6.6 31.3 1.8 8.8.3.7z" fill="url(#SVGID_59_)"/><linearGradient id="SVGID_60_" gradientUnits="userSpaceOnUse" x1="506.51" y1="329.82" x2="506.51" y2="302.13"><stop offset="0" stop-color="#9c8880"/><stop offset="1" stop-color="#ecd9cb"/></linearGradient><path fill="url(#SVGID_60_)" d="M516.5 324.5l-.9 1.3-1 1.6-1.5 2.4-4.3-.6-5.9-3.6-6.4-19 5.9 1.5-3-4.4 2.5 1.1 1.1-2.6 3.2 1.3 3-1.4.3 5.4.4-.4.7-1 1.8-2.1z"/><path class="st85" d="M518.4 328.1c-.1.1-.1.3-.2.4 0 .1-.1.1-.2.2h-.3c-1.1-.3-2.1-.7-3.1-1.2-.2-.1-.4-.2-.5-.2-.4-.2-.9-.4-1.2-.7-.4-.5-.6-1.1-.7-1.8-.7-3.9-.6-8-1.5-11.8-.2-1.1-.5-2.1-.7-3.2-.1-.8-.2-1.7-.2-2.6l.8-1 3.7 18.7 1.3 1 2.8 2.2z"/></g><g id="flèche"><linearGradient id="SVGID_61_" gradientUnits="userSpaceOnUse" x1="496.858" y1="361.177" x2="506.334" y2="359.506" gradientTransform="matrix(.9999 -.01242 .01242 .9999 17.665 .869)"><stop offset="0" stop-color="#9d6955"/><stop offset="1" stop-color="#fbd0b1"/></linearGradient><path d="M527.4 373.6c-.3 1.8-.9 3.9-2.2 5.9-.4.6-.8 1.2-1.3 1.8l-.1.1-.1-.8-.8-9.9-1-12.9-2.2-28.6 4.1 1.1 2.9 37 .7 6.3z" fill="url(#SVGID_61_)"/><linearGradient id="SVGID_62_" gradientUnits="userSpaceOnUse" x1="497.605" y1="335.686" x2="497.605" y2="306.903" gradientTransform="matrix(.9999 -.01242 .01242 .9999 17.665 .869)"><stop offset="0" stop-color="#9c8880"/><stop offset="1" stop-color="#ecd9cb"/></linearGradient><path fill="url(#SVGID_62_)" d="M523.9 330.3l4.1-4.8-1.5-20.9-3.3 3.1.4-5.4-3.1 1.1-3-1.8-1.5 2.5-2.3-1.5 2.4 4.8-5.6-2.3 3.8 19.7 5.5 4.4z"/></g></g><linearGradient id="SVGID_63_" gradientUnits="userSpaceOnUse" x1="489.984" y1="417.4" x2="516.168" y2="412.783" gradientTransform="matrix(.9999 -.01242 .01242 .9999 17.665 .869)"><stop offset="0" stop-color="#291b19"/><stop offset="1" stop-color="#3c3a3f"/></linearGradient><path d="M537.2 425.1c-2.7-4.6-12.2-19.4-26.2-23.4-.8-3.8-1.4-6-1.4-6s4.1-1.2 9.1-2.3h.1c6.5-1.4 14.4-2.5 17.4-.6.1 2.7.2 5.8.3 9.3-1.2-1.2-4.8-3.8-13.2-2.6 0 0 11.3 8.3 13.7 17.5.1 2.7.2 5.4.2 8.1z" fill="url(#SVGID_63_)"/><linearGradient id="SVGID_64_" gradientUnits="userSpaceOnUse" x1="500.871" y1="485.06" x2="513.839" y2="485.06" gradientTransform="matrix(.9999 -.01242 .01242 .9999 17.665 .869)"><stop offset="0" stop-color="#291b19"/><stop offset="1" stop-color="#3c3a3f"/></linearGradient><path d="M537.2 458.6c-.3 20.7-1 38-1 38-1.6 6.2-13.7 6.3-11.3-9 .5-3 .2-8.2-.6-14.8 7.9-3.8 12.9-14.2 12.9-14.2z" fill="url(#SVGID_64_)"/><linearGradient id="SVGID_65_" gradientUnits="userSpaceOnUse" x1="501.998" y1="541.492" x2="501.998" y2="397.261" gradientTransform="matrix(.9999 -.01242 .01242 .9999 17.665 .869)"><stop offset="0" stop-color="#392318"/><stop offset="1" stop-color="#c5754e"/></linearGradient><path d="M512.8 493.3c-9.1-7.3-24.4-30.6-14.6-52.4 9.6-21.4-5.5-49.7 10.7-48.8-.1 2.3.4 3.2.9 3.6 0 .1.3 1.3.8 3.5-2.5-.3.4 13.3-1.5 19.5-1.8 6 .2 3.9-5.8 22.3-6 18.2 7.1 43 15 46.9.9.4 1.7 1 2.5 1.6 4.4 3.3 15.6 12.7 23.9 27.8l12 7-2.7 2.6-6.8-3.1 2.1 5.6s-8.2-13.2-9.1-13.5c-.9-.4-8.2-4.8-8.2-4.8s16.5 20.2 18.5 20.7l-3.5 4.1s-19.7-22.6-20.8-26.3l-1.1-3.7s-11.6-12-12.3-12.6z" fill="url(#SVGID_65_)"/></g><g id="arc"><linearGradient id="SVGID_66_" gradientUnits="userSpaceOnUse" x1="298.488" y1="403.632" x2="298.488" y2="74.257" gradientTransform="scale(-1) rotate(82.415 430.11 -534.875)"><stop offset="0" stop-color="#3d1c11"/><stop offset="1" stop-color="#ae7773"/></linearGradient><path d="M354.5 546.6s-13.8-4.6-28.6 6.8l-.1-.1c-.1-.1-.2-.2-.4-.3-.5-.3-1.3-.9-2.5-1.5-.4-.2-.9-.4-1.5-.7-.4-.2-.8-.3-1.3-.5-.4-.1-.7-.2-1.1-.4-.7-.2-1.4-.4-2.2-.6l-1.5-.3-2.1-.3c-.6-.1-1.3-.1-1.9-.2h-5c-1.9.1-4 .3-6.2.7l-2.7.6c-6.4 1.5-12.7 4.5-18.4 8-11.9 7.2-21.3 16.4-23.6 18.2-3.4 2.7-30.2 29.8-38.1 32.8-1.9.7-4 .9-6.1.7-6.8-.4-13.9-3.8-15.4-2.4-2 1.8-2.6 4.5 6.5 7.9 3.9 1.4 9 1.2 13.9.3 6.4-1.3 12.2-3.9 14.1-5.9 3.3-3.5 43.5-46.4 67.2-48 23.7-1.6 35.7 8.5 37.3 7.9.3-.1 1.2-.4 2.5-.9 4.1-1.5 12.1-4.3 16.6-5.9 1.3-.5 2.2-.8 2.7-1 2.2-.9 10-14.3 23.9-21.4 5-2.6 10.9-4.3 17.5-4.3 25.1.1 93.1 8.2 97.9 6.9 1.7-.5 5.8-3.1 9.9-6.2 7.2-5.5 14.1-12.6 6.5-12.1-3.4.2-6.1 5.4-10.7 8.3-.1 0-.1.1-.2.1-4.4 2.8-4.6 5.7-20.3 2.6-13.8-2.7-55.9-9.3-74.1-11.2-2.9-.3-5.2-.5-6.7-.5-10.9 0-40.1 6.2-45.8 22.9zm-.9 4.5l-2.6 6.1c-5.8-.6-15.9 4.3-15.9 4.3l-5.2-3.7c9-8.6 23.7-6.7 23.7-6.7z" fill="url(#SVGID_66_)"/><linearGradient id="SVGID_67_" gradientUnits="userSpaceOnUse" x1="299.304" y1="266.271" x2="331.947" y2="266.271" gradientTransform="scale(-1) rotate(82.415 430.11 -534.875)"><stop offset="0" stop-color="#291b19"/><stop offset="1" stop-color="#3c3a3f"/></linearGradient><path d="M400.1 523.8c1.5 0 3.8.2 6.7.5-9.4 2.7-26.4 15.8-26.4 15.8-13.9 7.1-21.8 20.5-23.9 21.4-.5.2-1.5.6-2.7 1 .3-1.6-2.7-5.3-2.7-5.3l2.6-6.1.9-4.5c5.6-16.7 34.8-22.9 45.5-22.8z" fill="url(#SVGID_67_)"/><linearGradient id="SVGID_68_" gradientUnits="userSpaceOnUse" x1="267.969" y1="242.725" x2="300.965" y2="242.725" gradientTransform="scale(-1) rotate(82.415 430.11 -534.875)"><stop offset="0" stop-color="#1d1e1d"/><stop offset="1" stop-color="#3d3d3d"/></linearGradient><path fill="url(#SVGID_68_)" d="M230 609.5l259.4-66.7 2.2.1-263.3 67.9z"/><linearGradient id="SVGID_69_" gradientUnits="userSpaceOnUse" x1="295.045" y1="193.02" x2="319.458" y2="193.02" gradientTransform="scale(-1) rotate(82.415 430.11 -534.875)"><stop offset="0" stop-color="#291b19"/><stop offset="1" stop-color="#3c3a3f"/></linearGradient><path d="M306.2 548.7h5c.7 0 1.3.1 1.9.2l2.1.3 1.5.3c.8.2 1.5.4 2.2.6.4.1.8.2 1.1.4.5.2.9.3 1.3.5.5.2 1 .4 1.5.7 1.2.6 2 1.1 2.5 1.5.2.2.3.3.4.3l.1.1c2.8 2.5 4 4.4 4 4.4l5.2 3.7c-1.4 2.9 2.1 6.9 2.1 6.9-1.3.5-2.2.8-2.5.9-1.6.6-13.6-9.6-37.3-7.9-4-1.4-18.4-3.5-18.4-3.5 5.7-3.5 12.1-6.5 18.4-8l2.7-.6c2.2-.5 4.3-.8 6.2-.8z" fill="url(#SVGID_69_)"/><linearGradient id="SVGID_70_" gradientUnits="userSpaceOnUse" x1="265.028" y1="84.576" x2="276.063" y2="84.576" gradientTransform="scale(-1) rotate(82.415 430.11 -534.875)"><stop offset="0" stop-color="#291b19"/><stop offset="1" stop-color="#3c3a3f"/></linearGradient><path d="M211 609.6c.1 3.9 5 5.7 5 5.7-4.8 1-10 1.2-13.9-.3-9-3.3-8.5-6.1-6.5-7.9 1.5-1.3 8.6 2.2 15.4 2.5z" fill="url(#SVGID_70_)"/><linearGradient id="SVGID_71_" gradientUnits="userSpaceOnUse" x1="304.956" y1="396.116" x2="316.128" y2="396.116" gradientTransform="scale(-1) rotate(82.415 430.11 -534.875)"><stop offset="0" stop-color="#291b19"/><stop offset="1" stop-color="#3c3a3f"/></linearGradient><path d="M512.1 524.5c7.7-.5.7 6.6-6.5 12.1-3.7-.7-4.4-2.5-4.4-3.7.1 0 .1-.1.2-.1 4.6-3 7.4-8.1 10.7-8.3z" fill="url(#SVGID_71_)"/></g></g><g id="artemis_sauvegarde" class="st0"><linearGradient id="corps_3_" gradientUnits="userSpaceOnUse" x1="186.729" y1="331.406" x2="333.326" y2="357.255"><stop offset="0" stop-color="#f6af9a"/><stop offset="1" stop-color="#fbd9cd"/></linearGradient><path id="corps_1_" d="M336.4 315.4c-.1-1.5-8.7-31-9.9-33.8-1.1-2.8-4.6-23.2-6.9-32.5-2.2-9.3-18.6-8.9-22.4-9-3.8-.1-27.3-10.7-27.3-10.7l-5.2 1.7s5.3 5.9-8 8.3c-13.4 2.4-22.7 14.1-26.3 18.7-3.7 4.6-9.7 6.2-17.2 14.5s-15.9 20.6-19.6 25.1c-3.7 4.5-.4 5.2 4.6 14.4s10.3 18.4 18.7 28.8c8.3 10.4 17.3 17.3 19.3 18.5.4.3.9.4 1.3.6-2.6 3.7-6.8 10.4-8.3 17.6-2.4 10.9 2.2 22.1 5.6 26.3 3.4 4.1 7.9 6.6 9.2 9.2 1.3 2.6 9.2 23.7 9.6 24.4.4.8 1.7 22.3 1.7 22.7 0 .4 51.4-.2 51.4-.2s-3.9-16.1-6-19.9c0 0 3.2-19 3-26.5-.1-4.4-.6-16.6-.6-26.8v-.7c.2.5.9 1 1.6 1.4 1.1.6 6.1-4.3 6.4-3.9.3.4 7.2.4 8.9 1h.2c.3 0 .7-.1 1.2-.4 1.9-1.1 4.4-4.5 5-5.4.1-.2.2-.4.3-.9.8-3.1 2.5-13 6.3-22.7 4.4-10.8 3.6-38.2 3.4-39.8zM244.8 345c-2.2 1.3-7.2 1.3-8.2 1-1-.3-7.3-13-9.7-15.3-2.4-2.4-11.8-28.3-10.1-29.4 1.7-1.1 23-20.7 23-20.7s2.4 5.4 3.8 8c1.4 2.7 3.4 15.3 4.2 17.3.8 2 3.5 14.9 4.2 20.4.7 5.5-5 17.4-7.2 18.7zm58.4 40.5c0-.1 0-.1 0 0 0-.1 0-.1 0 0zm.1-7.6c0-1.4.1-2.5.2-3.5 0 .1.1.2.1.2.6 1.3.3 2.3-.3 3.3zm11.4-9.9c0 .1-.1.2-.1.3v.1s0 .1-.1.1v.1c-.6.9-2.7-1.1-3.3-2-.6-.9-3.1-.3-3.8-.5 0 0-.1 0-.2-.1l-.1-.1-.1-.1c-.2-.2-.5-.5-.8-.9-.1-.1-.3-.3-.4-.5-.3-.3-.6-.7-.9-1.1l-.2-.2c.5-8.9 0-19.5-.3-21.1-.6-2.7 1-6.9 2.7-9.6 6.3-9.9 4.9-21.5 5.2-19.6.3 2 2.7 9.2 3.1 10.8.4 1.7.3 33.9.4 36.3.1 1.7-.2 4.8-.6 6.8-.3.6-.4 1-.5 1.3z" fill="url(#corps_3_)"/><linearGradient id="robe_3_" gradientUnits="userSpaceOnUse" x1="186.314" y1="333.758" x2="332.911" y2="359.607"><stop offset="0" stop-color="#e4e1e0"/><stop offset="1" stop-color="#f2f2f2"/></linearGradient><path id="robe_1_" d="M336.4 315.4c-.1-1.5-8.7-31-9.9-33.8-1.1-2.8-4.6-23.2-6.9-32.5-2.2-9.3-18.6-8.9-22.4-9-.7 0-2.2-.5-4.2-1.1-7-.5-13.7-.9-14.1-1.1-1-.4-5.9 4.2-14.2 7.6-7.3 3-13-2.8-14.2-4.2-10 4.2-17 13-20.1 16.9-3.7 4.6-9.7 6.2-17.2 14.5s-15.9 20.6-19.6 25.1c-3.7 4.5-.4 5.2 4.6 14.4s10.3 18.4 18.7 28.8c5.2 6.5 10.6 11.6 14.4 14.8.1-6.6 5.2-9.8 5.2-9.8-1-.3-7.3-13-9.7-15.3-2.4-2.4-11.8-28.3-10.1-29.4 1.7-1.1 23-20.7 23-20.7s2.4 5.4 3.8 8c1.4 2.7 3.4 15.3 4.2 17.3.8 2 3.5 14.9 4.2 20.4.4 3.5-1.7 9.7-3.9 14 1.5-.4 2.2-.2 1.4 1.3-3 5.1-11.8 18.4-11.8 18.4-2.6 3.7-6.8 10.4-8.3 17.6-2.4 10.9 2.2 22.1 5.6 26.3 3.4 4.1 7.9 6.6 9.2 9.2 1.3 2.6 9.2 23.7 9.6 24.4.4.8 1.7 22.3 1.7 22.7 0 .4 51.4-.2 51.4-.2s-3.9-16.1-6-19.9c0 0 3.2-19 3-26.5-.1-4.5-.6-17.1-.6-27.4-.1-.6.4-1.8.5-2-.1.2-.6 1-1.6.5-1.1-.6-.6-4.2.2-5.4.8-1.1 1.2-3.4 1.2-5s-4.4-9.1-6.3-11.7c-1.9-2.5-2.6-5.2 0-5.7 4.3-.7 5.2 3 7.3 6.1.5-8.9 0-19.5-.3-21.1-.6-2.7 1-6.9 2.7-9.6 6.3-9.9 4.9-21.5 5.2-19.6.3 2 2.7 9.2 3.1 10.8.4 1.7.3 33.9.4 36.3.1 2.4-.5 7.6-1.1 8.5 8.3.2 12 10.4 12 10.4.7-1.5 2.3-12.6 6.6-23.4 4.3-10.9 3.5-38.3 3.3-39.9zm-30 49.8c-.5-.5-1.2-1.3-1.9-2.1.7 1 1.4 1.7 1.9 2.1z" opacity=".75" fill="url(#robe_3_)"/><g id="ombres_corps_1_" opacity=".4"><path id="ombre_bras_3_" class="st73" d="M245 345.1c-.3 1.5-1.8 2.5-3.2 3.2-1.4.7-2.8 1.4-3.7 2.6-.9 1.2-1.2 3.1-.1 4.2.8.8 2.1 1.1 2.3 2.2.1.4 0 .8-.2 1.2-.5 1.2-1.7 2.1-2.9 2.5.2-.3.4-.6.6-.8-.4-.1-.9-.3-1.3-.6-.7-.4-2.3-1.6-4.5-3.4.7-.2 1.4-.5 2-1 .3-.2.5-.4.6-.7.1-.2.1-.5.1-.8-.2-2.3-1.8-4.2-3.6-5.6-1.8-1.4-3.9-2.4-5.7-3.8-1.5-1.2-2.8-2.7-3.8-4.4-1.5-2.6-3.6-5.4-5.4-7.7-4.6-5.6-7.5-12.4-10.4-19.1-2.1-4.8-4.2-10-3.3-15.2.8-4.3 3.6-8.1 6.8-11 3.3-3 7-5.3 10.5-8 6.5-5.2 11.9-11.8 15.5-19.2.2 4.3-.1 10.7 1.8 14.6 1.4 2.8 2.8 4.8 3 7.2-.2-.4-.3-.7-.3-.7s-21.3 19.6-23 20.7c-1.7 1.1 7.8 27 10.1 29.4 2.4 2.4 8.7 15.1 9.7 15.3 1 .3 5.9.3 8.2-1 .1-.2.1-.1.2-.1z"/><path id="ombre_fesse_gauche_1_" class="st73" d="M253.1 420.6c0 1.6-.1 3.2-.1 4.7-.1 3.3-.1 6.8-.1 10.2-.1-.3-.3-.7-.4-1.1-2.3-6.1-7.4-19.4-8.4-21.4-1.3-2.6-5.8-5.1-9.2-9.2-3.4-4.1-8.1-15.4-5.6-26.3 1.2-5.4 3.9-10.6 6.2-14.4.5-.9 1-1.7 1.5-2.4 1.3-.4 2.4-1.3 2.9-2.5.2-.4.3-.8.2-1.2-.2-1.1-1.5-1.4-2.3-2.2l-.1-.1c.4 0 .8-.1 1.2-.1 2.6 0 5.5.4 7.1 2.4-3.3 6.2-5.6 13-6.9 19.9-.5 2.8-.9 5.7-.7 8.6.4 7 4 13.3 7.4 19.3 1 1.7 2 3.5 3.2 5 1.2 1.5 2.5 2.8 3.2 4.5 1 2.2 1 4.3.9 6.3z"/><path id="ombre_fesse_droite_1_" class="st74" d="M271.2 441.3c-.2 2.5-.5 5-.9 7.4-.6 3.9-1.2 7.7-1.8 11.6-7.5 0-13.2 0-13.2-.1 0-.4-1.3-22-1.7-22.7-.1-.1-.3-.8-.8-1.9.1-3.4 0-6.9.1-10.2 0-1.6.1-3.1.1-4.7 0-2 .1-4.1-.7-6-.7-1.7-2.1-3.1-3.2-4.5-1.2-1.6-2.2-3.3-3.2-5-.3-.5-.6-1.1-.9-1.6 2-1.2 5.3-1.3 7.1-1.8 1.2-.3 2.5-.6 3.7-.3 2.1.4 3.6 2.2 4.9 3.9 2.7 3.5 5.4 7.1 7 11.3.9 2.2 1.4 4.6 1.8 7 1.2 5.6 2 11.6 1.7 17.6z"/><path id="ombre_main_1_" class="st73" d="M326.7 378.1c-.1.4-.2.7-.3.9-.5 1-3.1 4.3-5 5.4-.5.2-.9.4-1.2.4h-.2c-1.7-.6-8.6-.6-8.9-1-.3-.4-5.3 4.4-6.4 3.9-.7-.4-1.4-.8-1.6-1.4v.7c-1-1.5-1.8-3.2-1.8-5-.1-1.7.5-3.4.7-5 .9-5.8-3-10.8-5.7-16-2-3.8 3.3-5 5.1-2.2.8 1.3 1.2 2.9 2.3 3.9.3.3.6.5 1 .7.3.4.6.7.9 1.1.1.2.3.3.4.5.3.4.6.7.8.9l.1.1.1.1c.1.1.2.1.2.1.7.1 3.2-.4 3.8.5.6.9 2.7 2.9 3.3 2v-.1s0-.1.1-.1v-.1c0-.1.1-.2.1-.3.1-.3.2-.7.3-1.1 1.1.9 4.6.7 5.6 1.8 1.3 1.5 2.7 3 3.8 4.7 1.1 1.3 1.9 2.9 2.5 4.6z"/><path id="ombre_bras_droit_1_" class="st75" d="M327.1 339.8c-1.3 11.6-3.2 23.1-5.6 34.5-1-1.5-2.3-2.9-3.5-4.3-1-1.1-1.9-2.2-3-3.1.4-2 .7-5.1.6-6.8-.1-2.4 0-34.6-.4-36.3-.4-1.7-2.8-8.9-3.1-10.8-.1-.7 0 .4-.1 2.7v-.1c-1.6-12.2-6.7-22.8-11.4-34.1-1.7-4.1-3.6-9.5-1.9-14 1.8-4.7 6.4-8 8.5-1.7 4 12.1 7.4 24.5 12.6 36.2 2.8 6.3 6.2 12.5 7.5 19.2 1.1 6.1.5 12.4-.2 18.6z"/><path id="ombre_dos_1_" class="st74" d="M303.7 289c-.7 2.2-1.7 4.1-2.8 5.2-1.6 1.7-3.6 3-5.2 4.8-5.3 5.6-5.9 14.2-5 21.9.3 2.5.7 5 .3 7.5-.4 2.5-1.7 5-4 6-2.2 1-4.8.5-7.2-.1-.5-.1-1.2-.3-1.3-.9-.1-.3 0-.6.1-.9 1.7-5.6.3-11.5-.3-17.3-.7-5.8-.3-12.3 3.8-16.4 1.2-1.2 2.8-2.1 3.9-3.4 1.2-1.2 2-2.7 2.8-4.2 2.1-3.9 4.2-7.9 5.7-12.1.8-2.2 1.5-6.3 3.4-7.7 0 3.4 1.4 7 2.6 10 1.1 2.5 2.2 5.1 3.2 7.6z"/><path id="ombre_hanche_1_" class="st75" d="M296.3 360.9c.2.4.4.8.6 1.1-.8-.2-1.6-.5-2.4-.9-1.3-.6-2.6-1.2-3.8-1.9-1.3-.7-2.5-1.4-3.6-2.5-1.3-1.3-2.2-3-3.1-4.6-.7-1.2-1.4-2.6-1.2-4 .1-1.2.9-2.2 1.6-3.1.3-.4.6-.9 1.1-1 .3-.1.7-.1 1 0 1.4.2 2.7.7 3.8 1.5 1.1.8 2 1.9 2.8 2.9 1.9 2.3 3.8 4.6 5.6 6.9.5.6 1 1.3 1.4 2.1-2.2-1-5.4.4-3.8 3.5z"/><path id="ombre_tresse_1_" class="st76" d="M275.1 339.3c-.7 2.6-2.7 4.6-4.9 6-3 2-10.9 5.9-14.4 3.8 4.2-2.4 7.9-4.9 10.3-9.3 1.5-2.6 2.5-5.9 1.4-8.7-.6-1.5-1.7-2.8-2.6-4.1-2.5-3.4-4.4-7.4-5.4-11.5-1.9-7.5-1-15.6-2.8-23.1-.4-1.6-.8-3.1-1.2-4.6.3-3.1.6-6.3.6-8 0-2 1-4.5 1.8-6.8 2.1 6.3 3.3 13 3.6 19.7.2 5.2-.1 10.5.6 15.7.6 5.2 2.4 10.5 6.1 14.2 1.3 1.3 2.8 2.4 3.9 3.9 1 1.3 1.5 3 2 4.5.9 2.7 1.8 5.6 1 8.3z"/></g><linearGradient id="tête_5_" gradientUnits="userSpaceOnUse" x1="261.155" y1="207.428" x2="306.249" y2="215.379"><stop offset="0" stop-color="#f6af9a"/><stop offset="1" stop-color="#fbd9cd"/></linearGradient><path id="tête_2_" d="M289.1 184.6s4.2 2.2 7.3 5.4c3.1 3.2 5.1 7.6 6.9 13 .6 1.7-.9 2.7-.6 4.6.4 1.9 2.3 3.3 2.3 7.2s-2.1 23.5-3.7 24.4c-1.6.9-.5 1.3-7.1 1-6.6-.3-13.8-1.1-17.9-3.5-1.5-.9-6.2-7.5-7.6-7.7-1.4-.3-7.7-1.3-8.6-5.9-.8-4.6-2-9.4 2.7-9.3 3.8 0 10.8-19.4 13.9-22 3.3-2.5 6.7-7.1 12.4-7.2z" fill="url(#tête_5_)"/><linearGradient id="cheveux_5_" gradientUnits="userSpaceOnUse" x1="240.923" y1="258.68" x2="288.225" y2="267.021"><stop offset="0" stop-color="#8d2b13"/><stop offset="1" stop-color="#d16215"/></linearGradient><path id="cheveux_2_" d="M300.7 196.3s.4-4.7-1.2-8.9-7.7-8.5-14.7-10.2c-7-1.7-10.6-1.6-16.6.4-6 2-12.8 7.2-15.6 16s-1.6 27.9-1.5 31.3c.1 3.4 1.8 11.1 2.3 12.4.4 1.3-3 8.2-3 10.7s-1 8.2-.1 9.9.4 7.3 1.1 8.3c.7 1-1.5 5.6-.8 8.6s-3 3.4-3 8.9 2.3 16.5 2.4 18.7c.1 2.3.3 4.9-1.4 7.5s-2.8 6.3-2 9.3c.8 3 4.5 7.7 4.2 10.1-.3 2.4-6.6 18.4-7.7 19.1-1.1.7 15.5-13.4 15.6-19.8 0 0 2.3 4.4 1 7.5-1.3 3.1-3.9 9.2-7.3 9.9 0 0 11.5-1.8 13.1-7.5 1.5-5.6-3.4-17.5-8.3-22.8-1.7-1.8-3.8-3.2-3.4-7.7.4-4.5.7-9.4 1-12.7.3-3.2 1.3-12.1 1.3-15.3 0-3.2 2.8-8 2.8-11s2.3-6.8 2.1-9.4c-.1-2.7 1.5-4.4 1-9.7-.6-5.3-.8-8.3.4-10.1 1.3-1.8 6.6-6.8 7-8.6.4-1.8.7-2.3.7-2.8 0-.6-2.1-.1-4.5-3.4-2.4-3.2-2.5-9.6-1.4-11.6s5.1-.5 11.1-7 14-13.9 13.7-18.7c0-.2 7.1.5 11.7 8.6z" fill="url(#cheveux_5_)"/></g><g id="nuancier" class="st0"><path fill="#37a19f" d="M819.7 356h171.2v171.2H819.7z"/><path fill="#0f4c49" d="M1049.3 356h171.2v171.2h-171.2z"/><path class="st1" d="M811.4 560.5h171.2v171.2H811.4z"/><path fill="#3d3d3d" d="M1039.2 560.5h171.2v171.2h-171.2z"/><path fill="#e4e1e0" d="M811.4 794.8h171.2V966H811.4z"/><path fill="#f2f2f2" d="M1041 794.8h171.2V966H1041z"/><path fill="#fbd9cd" d="M819.7 154.9h171.2v171.2H819.7z"/><path fill="#f6af9a" d="M1049.3 151.6h171.2v171.2h-171.2z"/><path fill="#cb9e6a" d="M806.4 1263.6h171.2v171.2H806.4z"/><path fill="#fad29c" d="M1044.4 1263.6h171.2v171.2h-171.2z"/><path fill="#871811" d="M806.4 1497.9h171.2v171.2H806.4z"/><path fill="#e5232c" d="M1044.4 1497.9h171.2v171.2h-171.2z"/><path fill="#0070a7" d="M2330.8-392.9h108.1v108.1h-108.1z"/><path fill="#8798b7" d="M2470.8-392.9h108.1v108.1h-108.1z"/><path fill="#452c28" d="M2467.8-265.9h108.1v108.1h-108.1z"/><path fill="#493c3a" d="M2327.8-132.9h108.1v108.1h-108.1z"/><path fill="#bc8210" d="M806 1029h171.2v171.2H806z"/><path fill="#feca36" d="M1043.9 1029h171.2v171.2h-171.2z"/><path fill="#8d2b13" d="M1364.7 183.1H1564v199.3h-199.3z"/><path fill="#d16215" d="M1597.8 183.1h199.3v199.3h-199.3z"/><path fill="#999898" d="M1403.5 474.5h171.2v171.2h-171.2z"/><path fill="#cdcccc" d="M1633.1 474.5h171.2v171.2h-171.2z"/><path fill="#1c1f1b" d="M1391.4 707.1h171.2v171.2h-171.2z"/><path fill="#6d7347" d="M1621 707.1h171.2v171.2H1621z"/><path fill="#6b150b" d="M1391.4 943.6h171.2v171.2h-171.2z"/><path fill="#fbc17b" d="M1621 943.6h171.2v171.2H1621z"/><path fill="#cecbcb" d="M1397.7 1165.3h171.2v171.2h-171.2z"/><path fill="#b6accb" d="M1627.3 1165.3h171.2v171.2h-171.2z"/><path fill="#b3c2da" d="M1394.5 1368.4h171.2v171.2h-171.2z"/><path fill="#dbeff4" d="M1624.1 1368.4h171.2v171.2h-171.2z"/></g></svg>