<svg id="Calque_1" xmlns="http://www.w3.org/2000/svg" xmlns:xlink="http://www.w3.org/1999/xlink" viewBox="0 0 595.3 652"><style>.st2{fill:#fff}.st13{fill:#fad29c}.st19{fill:#cb9e6a}.st33{fill:#806144}.st57{opacity:.3;fill:#f6af9a}.st65{opacity:2.000000e-02;fill:#1d1e1d}.st73{opacity:.2;fill:#bc8210}</style><defs><path id="SVGID_1_" d="M0-.5h595.3v652.9H0z"/></defs><clipPath id="SVGID_2_"><use xlink:href="#SVGID_1_" overflow="visible"/></clipPath><linearGradient id="SVGID_3_" gradientUnits="userSpaceOnUse" x1="297.638" y1="401.751" x2="297.638" y2="-92.803"><stop offset="0" stop-color="#a9dbed"/><stop offset="1" stop-color="#78b8e6"/></linearGradient><path clip-path="url(#SVGID_2_)" fill="url(#SVGID_3_)" d="M0-92.8h595.3v494.6H0z"/><g id="parthénon_1_" clip-path="url(#SVGID_2_)"><path class="st2" d="M46.9 184.2v214.9h506.2l1.3-211.6zM-54.8 505.6l118.3-45.2v-6.1L-52 495.9z"/><path class="st2" d="M63.5 454.3l-98.1-2-20.2 5.4 2.8 38.2zM63.5 460.4v26.2h-9.9L9.2 641.4H-52l-2.8-135.8z"/><path class="st2" d="M63.5 486.6h10.3L31.7 641.4H9.2l44.4-154.8zM505.2 487.5l10.8 3.6 39 150.3h24.7l-9-12-35.9-138.7-9.8-3.2z"/><path class="st2" d="M524.1 461.1l.9 26.4 9.8 3.2 35.9 138.7 9 12h80V511.3zM524.1 461.1v-9l135.6 48v11.2z"/><path class="st2" d="M524.1 452.1h102.8l32.8 9v39zM626.9 452.1h20.6l1.8-5.4-4.5-4-1.8-17.1h16.7v35.5zM-52 387.3s10.4-1.7 11.1-2.4c.7-.7 7.7-11.1 7.7-11.1l1.7-6.4 4.7-2 2.7-78.8c-3.4-4 0-9.1 0-9.1l-10.4-5.7-.7-12.5L82 261l20.9 9.8-3 9.8-4.4 2-.3 9.8-3.4 2.4-1 71.4 5.7 1.3-1.7 6.7 3.7 1 .3 9.1 13.1.7s5.4 7.7-2.4 14.1c-.7 7.7-1.7 36.4-1.7 36.4l3.7 2.7-1.3 4.4-1.3 29.3L88 480v9.4H63.5v-35l-98.1-2-20.2 5.4 2.8-70.5z"/><path class="st2" d="M-28.5 259.5V256H78.2l19.5 9.8v3.7l-15.8-8.4zM-3.6 252.3l2.4 3.7h79.5l.7-1.9s-15.7-1.3-21.7-1.9-53.5-1.4-60.9.1z"/><path class="st2" d="M81.8 253.8c-2 2.2-2.9.4-2.9.4s-15.7-1.4-21.7-1.9c-6.1-.5-53.4-1.5-60.8 0 0 0-5.7-6.2 3.2-6.2s63 0 69.5.8c6.6.9 16.9 2.1 12.7 6.9zM-52 641.4h711.8v23.9H-52z"/><path class="st2" d="M31.7 641.4l2-7.4 518.5-3.3 2.8 10.7zM33.7 634l2.8-10.5 513.3-2.4 2.4 9.6zM36.5 623.5l1.6-5.5 510.5-1.2 1.2 4.3z"/><path class="st2" d="M38.1 618l2.4-9.2 505.4-2.5 2.7 10.5z"/><path class="st2" d="M40.5 608.8l1-3.6 503.1-4.1 1.3 5.2z"/><path class="st2" d="M41.5 605.2l2.8-10.3 497.7-3.8 2.6 10zM44.3 594.9l1.5-5.5 495-2.8 1.2 4.5zM45.8 589.4l2.7-9.7 489.9-2.1 2.4 9z"/><path class="st2" d="M48.5 579.7l1.2-4.6 487.4-2.7 1.3 5.2z"/><path class="st2" d="M49.7 575.1l2.4-8.6 482.9-2 2.1 7.9z"/><path class="st2" d="M52.1 566.5l1.4-5.3 480.3-1.4 1.2 4.7z"/><path class="st2" d="M53.5 561.2l2.3-8.3 475.8-1.6 2.2 8.5zM55.8 552.9l1.2-4.5 473.6-1.1 1 4z"/><path class="st2" d="M57 548.4l2.2-8.2 469.3-.9 2.1 8z"/><path class="st2" d="M59.2 540.2l1.2-4.3 466.7-2.2 1.4 5.6zM60.4 535.9l2.2-8 462.5-1.8 2 7.6zM62.6 527.9l1.3-4.8 460.4.1.8 2.9z"/><path class="st2" d="M63.9 523.1l2.3-8.5 455.7-.8 2.4 9.4z"/><path class="st2" d="M66.2 514.6l1.1-3.8 453.4-1.4 1.2 4.4zM67.3 510.8l2.3-8.6 449-1.1 2.1 8.3z"/><path class="st2" d="M69.6 502.2l.6-2.2 447.5-2.2.9 3.3z"/><path class="st2" d="M70.2 500l2-7.2 443.8-1.7 1.7 6.7z"/><path class="st2" d="M72.2 492.8l1.6-6.2 431.4.9 10.8 3.6z"/><path class="st2" d="M88 486.7V480l413.7-1.8v9.3z"/><path class="st2" d="M88 480l20.9-8.2 372-1.6 20.8 8zM490.6 270.7l3.8-4.2 16.4-8.6h106.4l.9 4.2-109.3-1.2z"/><path class="st2" d="M510.8 257.9l1.1-2s8.5-4.7 37.7-4.5 44 2 44.9 3.3.9 3.3.9 3.3h-84.6z"/><path class="st2" d="M594.5 254.7c-.9-1.2-15.7-3-44.9-3.3-29.2-.2-37.7 4.5-37.7 4.5s-1.1-6.7 2.5-6.5c3.6.2 22.4-2.5 49.8-2s32.3 1.1 32.8 2.7-2.5 4.6-2.5 4.6zM111.5 438.2l145.9 6.3-13.4 26.8-135.1.5s-2.7-33.9 2.6-33.6z"/><path class="st2" d="M244 442.2l-18.9 29.1H244l13.4-26.8zM348.6 444.2l19.5 26.5 22.5-.1-25.9-28.4z"/><path class="st2" d="M256.9 448.9l2.1-45.4h16.8l-3.1 45.4zM330 403.5l4.8 45.4h15.4l-7-45.4z"/><path class="st2" d="M275.8 403.5H330l4.8 45.4h-62.1z"/><path class="st2" d="M257.4 444.5l91.2-.3 19.5 26.5-124.1.6zM348.6 438.1l117.6.1-101.5 4-16.1 2zM466.2 438.2v-4.1h7.3l8.5 4.1-.3 8.1z"/><path class="st2" d="M473.5 434.1l.6-3.7H347.4v3.7h118.8zM347.4 434.1l1.2 4 117.6.1v-4.1zM347.4 430.4l-.7-4.2 135.7.4-.1 1.7h-7.5l-.7 2.1z"/><path class="st2" d="M474.1 430.4l-.6 3.7 8.5 4.1v-5.9zM474.1 430.4l.7-2.1h7.5l-.3 4zM346.7 426.2l-.5-3.4h136.3l-.1 3.8zM346.2 422.8l-.6-3.4h137l-.1 3.4zM345.6 419.4l-.3-1.9h137.4l-.1 1.9M345.3 417.5l-.4-2.6h137.9l-.1 2.6zM344.9 414.9l-.3-2.4 138.3-1.3-.1 3.7z"/><path class="st2" d="M344.6 412.5l-.8-4.7H483l-.1 3.4zM343.8 407.8l-.6-4.3 140-.5-.2 4.8zM121.2 438.6l-.9-3.8h-8.5v-6.3h-3.6l-.4 7 3.7 2.7z"/><path class="st2" d="M120.3 434.8l137.1 2.5v7.2l-136.2-5.9z"/><path class="st2" d="M111.8 431.7l145.6 1.9v3.7l-145.6-2.5z"/><path class="st2" d="M111.8 431.7v-3.2l145.6 1.6v3.5z"/><path class="st2" d="M108.2 428.5l-.4-3.3H258l-.6 4.9zM107.8 425.2l.6-5.2h149.8l-.2 5.2zM108.4 420l.2-2.7h149.8l-.2 2.7zM108.6 417.3l.1-3.4h149.8l-.1 3.4zM108.7 413.9l-.5-2.2 150.5-.9-.2 3.1z"/><path class="st2" d="M108.2 411.7l.8-3.4h149.8l-.1 2.5zM109 408.3l-.4-1.8 150.3-.9-.1 2.7z"/><path class="st2" d="M108.6 406.5l.9-7.4 370.6.3 3.1 3.6-224.2.5-.1 2.1z"/><path class="st2" d="M228.7 323.7l-1.7 77.1s7.6 2.4 14.3 2.7c6.6.3 28.5-.3 27.5-4.4-1-4-2.4-75.4-2.4-75.4h-37.7z"/><path class="st2" d="M228.7 323.7V319h37.7v4.7M266.4 319v-74.7h-34.7l-3 74.7M231.7 244.3v-6.1h34.7v6.1M266.4 238.2v-37.4s-18.1-5.7-31.3 0l-3.4 37.4h34.7z"/><path class="st2" d="M235.1 200.8l-6.4-8.1V184h43.8v8.4l-6.1 8.4zM135.4 322.5l-1.7 77.1s7.6 2.4 14.3 2.7c6.6.3 28.5-.3 27.5-4.4-1-4-2.4-75.4-2.4-75.4h-37.7zM135.4 322.5v-4.7h37.7v4.7M173.1 317.8v-74.7h-34.6l-3.1 74.7M138.5 243.1V237h34.6v6.1M173.1 237v-37.4s-18.1-5.7-31.3 0l-3.4 37.4h34.7z"/><path class="st2" d="M141.8 199.6l-6.4-8v-8.8h43.8v8.4l-6.1 8.4zM335.1 322.5l-1.7 77.1s7.6 2.4 14.3 2.7c6.6.3 28.5-.3 27.5-4.4-1-4-2.4-75.4-2.4-75.4h-37.7zM335.1 322.5v-4.7h37.7v4.7M372.8 317.8v-74.7h-34.6l-3.1 74.7M338.2 243.1V237h34.6v6.1M372.8 237v-37.4s-20.4-7.2-33.7 1.2l-1 36.2h34.7z"/><path class="st2" d="M341.5 199.6l-2.4 1.2-6.7-4.1-2.5-8.3 5.2-5.6h43.8v8.4l-6.1 8.4zM427.3 322.6l-1.3 77.1s7.6 2.3 14.3 2.6c6.6.3 28.5-.5 27.5-4.5s-2.8-75.4-2.8-75.4l-37.7.2zM427.3 322.6v-4.7l37.7-.2v4.7M465 317.7l-.4-74.7-34.6.1-2.7 74.8"/><path class="st2" d="M430 243.1v-6l34.6-.2v6.1M464.6 236.9l-.2-37.4s-15.7-7-34.5-1.3V237l34.7-.1z"/><path class="st2" d="M433.2 199.7l-11.6-.1-2.7-8.4 7.8-8.3 43.8-.2v8.4l-6.1 8.5z"/><path class="st2" d="M11.9 184l573.7 3.7v-24.2l-573.7-4.1z"/><path class="st2" d="M11.9 159.4v-31l573.7 4.1v31z"/><path class="st2" d="M11.9 128.4V113l573.7 3.3v16.2z"/><path class="st2" d="M303.9 18.7l281.7 85.5v12.1l-551-3.3H11.9V99.5z"/><path class="st2" d="M67.6 113l232.9-64.9L531.7 116zM480.9 470.2l2.3-67.2-3.1-3.6-2.4-13.5 15.2-1.6V376l3.3-1.1 3.4-80.8-4.7-10.6-4.3-1.3v-11.5l18.2-9.8 115.6 1.3-2.3 11.2-6.3 5.6 1 7.2-1 2.9 2.3 76.4h4.5l.4 6.2 4.5 4.3 1.6 4.7v5.2h21.8l-2.7 5.4v7.8l-4.9 4.7-.3 21.8 1.8 17.1 4.5 4-1.8 5.4H524.1l.9 35.4h-23.3v-9.3z"/><path class="st2" d="M390.6 470.6l-25.9-28.4 101.5-4 15.5 8.1-.8 23.9z"/></g><g id="parthénon" opacity=".3" clip-path="url(#SVGID_2_)"><path fill="#997454" d="M46.9 184.2v214.9h506.2l1.3-211.6z"/><linearGradient id="SVGID_4_" gradientUnits="userSpaceOnUse" x1="-54.758" y1="479.975" x2="63.52" y2="479.975"><stop offset="0" stop-color="#fad29c"/><stop offset="1" stop-color="#cb9e6a"/></linearGradient><path fill="url(#SVGID_4_)" d="M-54.8 505.6l118.3-45.2v-6.1L-52 495.9z"/><linearGradient id="SVGID_5_" gradientUnits="userSpaceOnUse" x1="-26.991" y1="510.35" x2="19.895" y2="429.142"><stop offset="0" stop-color="#fad29c"/><stop offset="1" stop-color="#cb9e6a"/></linearGradient><path fill="url(#SVGID_5_)" d="M63.5 454.3l-98.1-2-20.2 5.4 2.8 38.2z"/><linearGradient id="SVGID_6_" gradientUnits="userSpaceOnUse" x1="4.381" y1="460.389" x2="4.381" y2="641.443"><stop offset="0" stop-color="#fad29c"/><stop offset="1" stop-color="#cb9e6a"/></linearGradient><path fill="url(#SVGID_6_)" d="M63.5 460.4v26.2h-9.9L9.2 641.4H-52l-2.8-135.8z"/><linearGradient id="SVGID_7_" gradientUnits="userSpaceOnUse" x1="41.525" y1="486.648" x2="41.525" y2="641.443"><stop offset="0" stop-color="#fad29c"/><stop offset="1" stop-color="#cb9e6a"/></linearGradient><path fill="url(#SVGID_7_)" d="M63.5 486.6h10.3L31.7 641.4H9.2l44.4-154.8z"/><linearGradient id="SVGID_8_" gradientUnits="userSpaceOnUse" x1="505.214" y1="564.494" x2="579.727" y2="564.494"><stop offset="0" stop-color="#fad29c"/><stop offset="1" stop-color="#cb9e6a"/></linearGradient><path fill="url(#SVGID_8_)" d="M505.2 487.5l10.8 3.6 39 150.3h24.7l-9-12-35.9-138.7-9.8-3.2z"/><linearGradient id="SVGID_9_" gradientUnits="userSpaceOnUse" x1="524.067" y1="551.253" x2="659.743" y2="551.253"><stop offset="0" stop-color="#fad29c"/><stop offset="1" stop-color="#cb9e6a"/></linearGradient><path fill="url(#SVGID_9_)" d="M524.1 461.1l.9 26.4 9.8 3.2 35.9 138.7 9 12h80V511.3z"/><linearGradient id="SVGID_10_" gradientUnits="userSpaceOnUse" x1="524.067" y1="481.711" x2="659.743" y2="481.711"><stop offset="0" stop-color="#fad29c"/><stop offset="1" stop-color="#cb9e6a"/></linearGradient><path fill="url(#SVGID_10_)" d="M524.1 461.1v-9l135.6 48v11.2z"/><linearGradient id="SVGID_11_" gradientUnits="userSpaceOnUse" x1="524.067" y1="476.1" x2="659.743" y2="476.1"><stop offset="0" stop-color="#fad29c"/><stop offset="1" stop-color="#cb9e6a"/></linearGradient><path fill="url(#SVGID_11_)" d="M524.1 452.1h102.8l32.8 9v39z"/><path class="st13" d="M626.9 452.1h20.6l1.8-5.4-4.5-4-1.8-17.1h16.7v35.5z"/><linearGradient id="SVGID_12_" gradientUnits="userSpaceOnUse" x1="29.476" y1="259.405" x2="29.476" y2="489.341"><stop offset="0" stop-color="#fad29c"/><stop offset="1" stop-color="#cb9e6a"/></linearGradient><path d="M-52 387.3s10.4-1.7 11.1-2.4c.7-.7 7.7-11.1 7.7-11.1l1.7-6.4 4.7-2 2.7-78.8c-3.4-4 0-9.1 0-9.1l-10.4-5.7-.7-12.5L82 261l20.9 9.8-3 9.8-4.4 2-.3 9.8-3.4 2.4-1 71.4 5.7 1.3-1.7 6.7 3.7 1 .3 9.1 13.1.7s5.4 7.7-2.4 14.1c-.7 7.7-1.7 36.4-1.7 36.4l3.7 2.7-1.3 4.4-1.3 29.3L88 480v9.4H63.5v-35l-98.1-2-20.2 5.4 2.8-70.5z" fill="url(#SVGID_12_)"/><linearGradient id="SVGID_13_" gradientUnits="userSpaceOnUse" x1="34.626" y1="256.038" x2="34.626" y2="269.505"><stop offset="0" stop-color="#fad29c"/><stop offset="1" stop-color="#cb9e6a"/></linearGradient><path fill="url(#SVGID_13_)" d="M-28.5 259.5V256H78.2l19.5 9.8v3.7l-15.8-8.4z"/><linearGradient id="SVGID_14_" gradientUnits="userSpaceOnUse" x1="37.654" y1="251.535" x2="37.654" y2="256.038"><stop offset="0" stop-color="#fad29c"/><stop offset="1" stop-color="#cb9e6a"/></linearGradient><path d="M-3.6 252.3l2.4 3.7h79.5l.7-1.9s-15.7-1.3-21.7-1.9-53.5-1.4-60.9.1z" fill="url(#SVGID_14_)"/><linearGradient id="SVGID_15_" gradientUnits="userSpaceOnUse" x1="38.682" y1="246.103" x2="38.682" y2="254.904"><stop offset="0" stop-color="#fad29c"/><stop offset="1" stop-color="#cb9e6a"/></linearGradient><path d="M81.8 253.8c-2 2.2-2.9.4-2.9.4s-15.7-1.4-21.7-1.9c-6.1-.5-53.4-1.5-60.8 0 0 0-5.7-6.2 3.2-6.2s63 0 69.5.8c6.6.9 16.9 2.1 12.7 6.9z" fill="url(#SVGID_15_)"/><linearGradient id="SVGID_16_" gradientUnits="userSpaceOnUse" x1="303.862" y1="641.443" x2="303.862" y2="665.334"><stop offset="0" stop-color="#fad29c"/><stop offset="1" stop-color="#cb9e6a"/></linearGradient><path fill="url(#SVGID_16_)" d="M-52 641.4h711.8v23.9H-52z"/><path class="st13" d="M31.7 641.4l2-7.4 518.5-3.3 2.8 10.7z"/><path class="st19" d="M33.7 634l2.8-10.5 513.3-2.4 2.4 9.6z"/><path class="st13" d="M36.5 623.5l1.6-5.5 510.5-1.2 1.2 4.3z"/><path class="st19" d="M38.1 618l2.4-9.2 505.4-2.5 2.7 10.5z"/><path class="st13" d="M40.5 608.8l1-3.6 503.1-4.1 1.3 5.2z"/><path class="st19" d="M41.5 605.2l2.8-10.3 497.7-3.8 2.6 10z"/><path class="st13" d="M44.3 594.9l1.5-5.5 495-2.8 1.2 4.5z"/><path class="st19" d="M45.8 589.4l2.7-9.7 489.9-2.1 2.4 9z"/><path class="st13" d="M48.5 579.7l1.2-4.6 487.4-2.7 1.3 5.2z"/><path class="st19" d="M49.7 575.1l2.4-8.6 482.9-2 2.1 7.9z"/><path class="st13" d="M52.1 566.5l1.4-5.3 480.3-1.4 1.2 4.7z"/><path class="st19" d="M53.5 561.2l2.3-8.3 475.8-1.6 2.2 8.5z"/><path class="st13" d="M55.8 552.9l1.2-4.5 473.6-1.1 1 4z"/><path class="st19" d="M57 548.4l2.2-8.2 469.3-.9 2.1 8z"/><path class="st13" d="M59.2 540.2l1.2-4.3 466.7-2.2 1.4 5.6z"/><path class="st19" d="M60.4 535.9l2.2-8 462.5-1.8 2 7.6z"/><path class="st13" d="M62.6 527.9l1.3-4.8 460.4.1.8 2.9z"/><path class="st19" d="M63.9 523.1l2.3-8.5 455.7-.8 2.4 9.4z"/><path class="st13" d="M66.2 514.6l1.1-3.8 453.4-1.4 1.2 4.4z"/><path class="st19" d="M67.3 510.8l2.3-8.6 449-1.1 2.1 8.3z"/><path class="st13" d="M69.6 502.2l.6-2.2 447.5-2.2.9 3.3z"/><path class="st19" d="M70.2 500l2-7.2 443.8-1.7 1.7 6.7z"/><path class="st13" d="M72.2 492.8l1.6-6.2 431.4.9 10.8 3.6z"/><path class="st19" d="M88 486.7V480l413.7-1.8v9.3z"/><path class="st13" d="M88 480l20.9-8.2 372-1.6 20.8 8z"/><linearGradient id="SVGID_17_" gradientUnits="userSpaceOnUse" x1="554.369" y1="257.946" x2="554.369" y2="270.739"><stop offset="0" stop-color="#fad29c"/><stop offset="1" stop-color="#cb9e6a"/></linearGradient><path fill="url(#SVGID_17_)" d="M490.6 270.7l3.8-4.2 16.4-8.6h106.4l.9 4.2-109.3-1.2z"/><linearGradient id="SVGID_18_" gradientUnits="userSpaceOnUse" x1="553.131" y1="251.43" x2="553.131" y2="257.946"><stop offset="0" stop-color="#fad29c"/><stop offset="1" stop-color="#cb9e6a"/></linearGradient><path d="M510.8 257.9l1.1-2s8.5-4.7 37.7-4.5 44 2 44.9 3.3.9 3.3.9 3.3h-84.6z" fill="url(#SVGID_18_)"/><linearGradient id="SVGID_19_" gradientUnits="userSpaceOnUse" x1="554.419" y1="247.345" x2="554.419" y2="255.931"><stop offset="0" stop-color="#fad29c"/><stop offset="1" stop-color="#cb9e6a"/></linearGradient><path d="M594.5 254.7c-.9-1.2-15.7-3-44.9-3.3-29.2-.2-37.7 4.5-37.7 4.5s-1.1-6.7 2.5-6.5c3.6.2 22.4-2.5 49.8-2s32.3 1.1 32.8 2.7-2.5 4.6-2.5 4.6z" fill="url(#SVGID_19_)"/><linearGradient id="SVGID_20_" gradientUnits="userSpaceOnUse" x1="257.435" y1="455.002" x2="108.18" y2="455.002"><stop offset="0" stop-color="#fad29c"/><stop offset="1" stop-color="#cb9e6a"/></linearGradient><path d="M111.5 438.2l145.9 6.3-13.4 26.8-135.1.5s-2.7-33.9 2.6-33.6z" fill="url(#SVGID_20_)"/><path class="st19" d="M244 442.2l-18.9 29.1H244l13.4-26.8zM348.6 444.2l19.5 26.5 22.5-.1-25.9-28.4z"/><path class="st19" d="M256.9 448.9l2.1-45.4h16.8l-3.1 45.4zM330 403.5l4.8 45.4h15.4l-7-45.4z"/><path class="st13" d="M275.8 403.5H330l4.8 45.4h-62.1z"/><path class="st13" d="M257.4 444.5l91.2-.3 19.5 26.5-124.1.6z"/><path class="st19" d="M348.6 438.1l117.6.1-101.5 4-16.1 2z"/><linearGradient id="SVGID_21_" gradientUnits="userSpaceOnUse" x1="466.162" y1="440.202" x2="481.985" y2="440.202"><stop offset="0" stop-color="#fad29c"/><stop offset="1" stop-color="#cb9e6a"/></linearGradient><path fill="url(#SVGID_21_)" d="M466.2 438.2v-4.1h7.3l8.5 4.1-.3 8.1z"/><path class="st19" d="M473.5 434.1l.6-3.7H347.4v3.7h118.8z"/><path class="st13" d="M347.4 434.1l1.2 4 117.6.1v-4.1zM347.4 430.4l-.7-4.2 135.7.4-.1 1.7h-7.5l-.7 2.1z"/><linearGradient id="SVGID_22_" gradientUnits="userSpaceOnUse" x1="473.456" y1="434.298" x2="481.985" y2="434.298"><stop offset="0" stop-color="#fad29c"/><stop offset="1" stop-color="#cb9e6a"/></linearGradient><path fill="url(#SVGID_22_)" d="M474.1 430.4l-.6 3.7 8.5 4.1v-5.9z"/><linearGradient id="SVGID_23_" gradientUnits="userSpaceOnUse" x1="474.073" y1="430.3" x2="482.33" y2="430.3"><stop offset="0" stop-color="#fad29c"/><stop offset="1" stop-color="#cb9e6a"/></linearGradient><path fill="url(#SVGID_23_)" d="M474.1 430.4l.7-2.1h7.5l-.3 4z"/><path class="st19" d="M346.7 426.2l-.5-3.4h136.3l-.1 3.8z"/><path class="st13" d="M346.2 422.8l-.6-3.4h137l-.1 3.4z"/><path class="st19" d="M345.6 419.4l-.3-1.9h137.4l-.1 1.9"/><path class="st13" d="M345.3 417.5l-.4-2.6h137.9l-.1 2.6z"/><path class="st19" d="M344.9 414.9l-.3-2.4 138.3-1.3-.1 3.7z"/><path class="st13" d="M344.6 412.5l-.8-4.7H483l-.1 3.4z"/><path class="st19" d="M343.8 407.8l-.6-4.3 140-.5-.2 4.8z"/><linearGradient id="SVGID_24_" gradientUnits="userSpaceOnUse" x1="107.847" y1="433.552" x2="121.202" y2="433.552"><stop offset="0" stop-color="#fad29c"/><stop offset="1" stop-color="#cb9e6a"/></linearGradient><path fill="url(#SVGID_24_)" d="M121.2 438.6l-.9-3.8h-8.5v-6.3h-3.6l-.4 7 3.7 2.7z"/><path class="st19" d="M120.3 434.8l137.1 2.5v7.2l-136.2-5.9z"/><path class="st13" d="M111.8 431.7l145.6 1.9v3.7l-145.6-2.5z"/><path class="st19" d="M111.8 431.7v-3.2l145.6 1.6v3.5z"/><path class="st13" d="M108.2 428.5l-.4-3.3H258l-.6 4.9z"/><path class="st19" d="M107.8 425.2l.6-5.2h149.8l-.2 5.2z"/><path class="st13" d="M108.4 420l.2-2.7h149.8l-.2 2.7z"/><path class="st19" d="M108.6 417.3l.1-3.4h149.8l-.1 3.4z"/><path class="st13" d="M108.7 413.9l-.5-2.2 150.5-.9-.2 3.1z"/><path class="st19" d="M108.2 411.7l.8-3.4h149.8l-.1 2.5zM109 408.3l-.4-1.8 150.3-.9-.1 2.7z"/><path class="st13" d="M108.6 406.5l.9-7.4 370.6.3 3.1 3.6-224.2.5-.1 2.1z"/><linearGradient id="SVGID_25_" gradientUnits="userSpaceOnUse" x1="247.913" y1="403.57" x2="247.913" y2="323.706"><stop offset="0" stop-color="#fad29c"/><stop offset="1" stop-color="#cb9e6a"/></linearGradient><path d="M228.7 323.7l-1.7 77.1s7.6 2.4 14.3 2.7c6.6.3 28.5-.3 27.5-4.4-1-4-2.4-75.4-2.4-75.4h-37.7z" fill="url(#SVGID_25_)"/><path fill="#feca36" d="M228.7 323.7V319h37.7v4.7"/><linearGradient id="SVGID_26_" gradientUnits="userSpaceOnUse" x1="247.536" y1="318.993" x2="247.536" y2="244.255"><stop offset="0" stop-color="#fad29c"/><stop offset="1" stop-color="#cb9e6a"/></linearGradient><path fill="url(#SVGID_26_)" d="M266.4 319v-74.7h-34.7l-3 74.7"/><linearGradient id="SVGID_27_" gradientUnits="userSpaceOnUse" x1="231.737" y1="241.225" x2="266.365" y2="241.225"><stop offset="0" stop-color="#bc8210"/><stop offset="1" stop-color="#feca36"/></linearGradient><path fill="url(#SVGID_27_)" d="M231.7 244.3v-6.1h34.7v6.1"/><linearGradient id="SVGID_28_" gradientUnits="userSpaceOnUse" x1="249.051" y1="238.196" x2="249.051" y2="198.283"><stop offset="0" stop-color="#fad29c"/><stop offset="1" stop-color="#cb9e6a"/></linearGradient><path d="M266.4 238.2v-37.4s-18.1-5.7-31.3 0l-3.4 37.4h34.7z" fill="url(#SVGID_28_)"/><path class="st33" d="M235.1 200.8l-6.4-8.1V184h43.8v8.4l-6.1 8.4z"/><linearGradient id="SVGID_29_" gradientUnits="userSpaceOnUse" x1="154.649" y1="402.374" x2="154.649" y2="322.511"><stop offset="0" stop-color="#fad29c"/><stop offset="1" stop-color="#cb9e6a"/></linearGradient><path d="M135.4 322.5l-1.7 77.1s7.6 2.4 14.3 2.7c6.6.3 28.5-.3 27.5-4.4-1-4-2.4-75.4-2.4-75.4h-37.7z" fill="url(#SVGID_29_)"/><linearGradient id="SVGID_30_" gradientUnits="userSpaceOnUse" x1="135.443" y1="320.154" x2="173.101" y2="320.154"><stop offset="0" stop-color="#bc8210"/><stop offset="1" stop-color="#feca36"/></linearGradient><path fill="url(#SVGID_30_)" d="M135.4 322.5v-4.7h37.7v4.7"/><linearGradient id="SVGID_31_" gradientUnits="userSpaceOnUse" x1="154.272" y1="317.798" x2="154.272" y2="243.06"><stop offset="0" stop-color="#fad29c"/><stop offset="1" stop-color="#cb9e6a"/></linearGradient><path fill="url(#SVGID_31_)" d="M173.1 317.8v-74.7h-34.6l-3.1 74.7"/><linearGradient id="SVGID_32_" gradientUnits="userSpaceOnUse" x1="138.473" y1="240.03" x2="173.101" y2="240.03"><stop offset="0" stop-color="#bc8210"/><stop offset="1" stop-color="#feca36"/></linearGradient><path fill="url(#SVGID_32_)" d="M138.5 243.1V237h34.6v6.1"/><linearGradient id="SVGID_33_" gradientUnits="userSpaceOnUse" x1="155.787" y1="237" x2="155.787" y2="197.087"><stop offset="0" stop-color="#fad29c"/><stop offset="1" stop-color="#cb9e6a"/></linearGradient><path d="M173.1 237v-37.4s-18.1-5.7-31.3 0l-3.4 37.4h34.7z" fill="url(#SVGID_33_)"/><path class="st33" d="M141.8 199.6l-6.4-8v-8.8h43.8v8.4l-6.1 8.4z"/><linearGradient id="SVGID_34_" gradientUnits="userSpaceOnUse" x1="354.329" y1="402.374" x2="354.329" y2="322.511"><stop offset="0" stop-color="#fad29c"/><stop offset="1" stop-color="#cb9e6a"/></linearGradient><path d="M335.1 322.5l-1.7 77.1s7.6 2.4 14.3 2.7c6.6.3 28.5-.3 27.5-4.4-1-4-2.4-75.4-2.4-75.4h-37.7z" fill="url(#SVGID_34_)"/><linearGradient id="SVGID_35_" gradientUnits="userSpaceOnUse" x1="335.123" y1="320.154" x2="372.781" y2="320.154"><stop offset="0" stop-color="#bc8210"/><stop offset="1" stop-color="#feca36"/></linearGradient><path fill="url(#SVGID_35_)" d="M335.1 322.5v-4.7h37.7v4.7"/><linearGradient id="SVGID_36_" gradientUnits="userSpaceOnUse" x1="353.952" y1="317.798" x2="353.952" y2="243.06"><stop offset="0" stop-color="#fad29c"/><stop offset="1" stop-color="#cb9e6a"/></linearGradient><path fill="url(#SVGID_36_)" d="M372.8 317.8v-74.7h-34.6l-3.1 74.7"/><linearGradient id="SVGID_37_" gradientUnits="userSpaceOnUse" x1="338.152" y1="240.03" x2="372.781" y2="240.03"><stop offset="0" stop-color="#bc8210"/><stop offset="1" stop-color="#feca36"/></linearGradient><path fill="url(#SVGID_37_)" d="M338.2 243.1V237h34.6v6.1"/><linearGradient id="SVGID_38_" gradientUnits="userSpaceOnUse" x1="355.467" y1="237" x2="355.467" y2="196.749"><stop offset="0" stop-color="#fad29c"/><stop offset="1" stop-color="#cb9e6a"/></linearGradient><path d="M372.8 237v-37.4s-20.4-7.2-33.7 1.2l-1 36.2h34.7z" fill="url(#SVGID_38_)"/><path class="st33" d="M341.5 199.6l-2.4 1.2-6.7-4.1-2.5-8.3 5.2-5.6h43.8v8.4l-6.1 8.4z"/><linearGradient id="SVGID_39_" gradientUnits="userSpaceOnUse" x1="446.886" y1="402.396" x2="446.886" y2="322.434"><stop offset="0" stop-color="#fad29c"/><stop offset="1" stop-color="#cb9e6a"/></linearGradient><path d="M427.3 322.6l-1.3 77.1s7.6 2.3 14.3 2.6c6.6.3 28.5-.5 27.5-4.5s-2.8-75.4-2.8-75.4l-37.7.2z" fill="url(#SVGID_39_)"/><linearGradient id="SVGID_40_" gradientUnits="userSpaceOnUse" x1="427.307" y1="320.164" x2="464.986" y2="320.164"><stop offset="0" stop-color="#bc8210"/><stop offset="1" stop-color="#feca36"/></linearGradient><path fill="url(#SVGID_40_)" d="M427.3 322.6v-4.7l37.7-.2v4.7"/><linearGradient id="SVGID_41_" gradientUnits="userSpaceOnUse" x1="446.135" y1="317.894" x2="446.135" y2="242.984"><stop offset="0" stop-color="#fad29c"/><stop offset="1" stop-color="#cb9e6a"/></linearGradient><path fill="url(#SVGID_41_)" d="M465 317.7l-.4-74.7-34.6.1-2.7 74.8"/><linearGradient id="SVGID_42_" gradientUnits="userSpaceOnUse" x1="429.964" y1="240.034" x2="464.62" y2="240.034"><stop offset="0" stop-color="#bc8210"/><stop offset="1" stop-color="#feca36"/></linearGradient><path fill="url(#SVGID_42_)" d="M430 243.1v-6l34.6-.2v6.1"/><linearGradient id="SVGID_43_" gradientUnits="userSpaceOnUse" x1="447.279" y1="237.083" x2="447.279" y2="196.047"><stop offset="0" stop-color="#fad29c"/><stop offset="1" stop-color="#cb9e6a"/></linearGradient><path d="M464.6 236.9l-.2-37.4s-15.7-7-34.5-1.3V237l34.7-.1z" fill="url(#SVGID_43_)"/><path class="st33" d="M433.2 199.7l-11.6-.1-2.7-8.4 7.8-8.3 43.8-.2v8.4l-6.1 8.5z"/><linearGradient id="SVGID_44_" gradientUnits="userSpaceOnUse" x1="298.731" y1="187.697" x2="298.731" y2="159.418"><stop offset="0" stop-color="#fad29c"/><stop offset="1" stop-color="#cb9e6a"/></linearGradient><path fill="url(#SVGID_44_)" d="M11.9 184l573.7 3.7v-24.2l-573.7-4.1z"/><path class="st33" d="M11.9 159.4v-31l573.7 4.1v31z"/><linearGradient id="SVGID_45_" gradientUnits="userSpaceOnUse" x1="298.731" y1="132.485" x2="298.731" y2="112.959"><stop offset="0" stop-color="#fad29c"/><stop offset="1" stop-color="#cb9e6a"/></linearGradient><path fill="url(#SVGID_45_)" d="M11.9 128.4V113l573.7 3.3v16.2z"/><linearGradient id="SVGID_46_" gradientUnits="userSpaceOnUse" x1="298.731" y1="116.326" x2="298.731" y2="18.695"><stop offset="0" stop-color="#fad29c"/><stop offset="1" stop-color="#cb9e6a"/></linearGradient><path fill="url(#SVGID_46_)" d="M303.9 18.7l281.7 85.5v12.1l-551-3.3H11.9V99.5z"/><path class="st33" d="M67.6 113l232.9-64.9L531.7 116z"/><linearGradient id="SVGID_47_" gradientUnits="userSpaceOnUse" x1="564.297" y1="260.864" x2="564.297" y2="487.546"><stop offset="0" stop-color="#fad29c"/><stop offset="1" stop-color="#cb9e6a"/></linearGradient><path fill="url(#SVGID_47_)" d="M480.9 470.2l2.3-67.2-3.1-3.6-2.4-13.5 15.2-1.6V376l3.3-1.1 3.4-80.8-4.7-10.6-4.3-1.3v-11.5l18.2-9.8 115.6 1.3-2.3 11.2-6.3 5.6 1 7.2-1 2.9 2.3 76.4h4.5l.4 6.2 4.5 4.3 1.6 4.7v5.2h21.8l-2.7 5.4v7.8l-4.9 4.7-.3 21.8 1.8 17.1 4.5 4-1.8 5.4H524.1l.9 35.4h-23.3v-9.3z"/><linearGradient id="SVGID_48_" gradientUnits="userSpaceOnUse" x1="364.716" y1="454.364" x2="481.7" y2="454.364"><stop offset="0" stop-color="#fad29c"/><stop offset="1" stop-color="#cb9e6a"/></linearGradient><path fill="url(#SVGID_48_)" d="M390.6 470.6l-25.9-28.4 101.5-4 15.5 8.1-.8 23.9z"/></g><g><defs><path id="SVGID_49_" d="M0-.5h595.3v652.9H0z"/></defs><clipPath id="SVGID_50_"><use xlink:href="#SVGID_49_" overflow="visible"/></clipPath><g id="athéna" clip-path="url(#SVGID_50_)"><linearGradient id="SVGID_51_" gradientUnits="userSpaceOnUse" x1="268.159" y1="208.526" x2="321.007" y2="217.845"><stop offset="0" stop-color="#60391f"/><stop offset="1" stop-color="#b2663b"/></linearGradient><path d="M294.3 172.1s-21.4-.4-23.9 24.5c-1 9.4 3.2 11.7 4.4 24.9 1.2 13.2-5 24.9 0 28.5 5 3.6 26.1 5 31.6 2.3s8-11.7 10-16.3c1.9-4.6 9.3-23.2 1-52.5-3.4-11.4-23.1-11.4-23.1-11.4z" fill="url(#SVGID_51_)"/><linearGradient id="SVGID_52_" gradientUnits="userSpaceOnUse" x1="210.758" y1="323.203" x2="383.913" y2="323.203"><stop offset="0" stop-color="#f6af9a"/><stop offset="1" stop-color="#fbd9cd"/></linearGradient><path d="M383.9 331.3c-.6 1.4-19.5 12.3-26.7 13.2-7.2.9-20.7 2-25.6 2.3-2.2.1-5.7-3.6-8.8-7.9-3.7-5.2-6.9-11.4-6.8-13 .1-1.5 1.3-1.5 2.8-1.3 1.4.2 3 .7 4.1.4 2.3-.6 4.3-2.6 9.2 8.3 1.1 2.6 25.3-9.8 25-11.8-.2-1.7-22.4-26.9-29.5-33.7-.4-.4-.9-.8-1.2-1.1-.4-.3-.7-.6-.9-.6-1.1-.2-21.3 4.5-38.3 3.5-14-.8-25.1-7.1-26.9-8 0 0-3 5.4-6.9 12.8-7.4 14.3-18.3 36.2-18.2 42.5.2 9.6-11.7 64-10.5 69.3 1.2 5.4 6.9.4 8.1 10.7 1.1 10.3-2.7 12.2-6.5 12.6-3.8.4-8.8-2.1-13-6.1-.6-.5-1-1.7-1.4-3.5-2.3-11.5-.7-46.9 1-75.4 1.9-32.3 34.9-101.1 40.7-104.5.1-.1.2-.1.3-.1 3.3-.4 16.7-.8 22.3-1.5 1.6-.2 2.6-.4 2.6-.4 2.2-1.2 3.9-.2 4.4-.9.1-.2.1-.3.1-.3.4-1.2.6-8.6.8-12.1.2-3.4 19.5-8.3 19.5-8.3s-2.9 25 0 26.1c.7.3 2.5.7 4.8 1.2 1 .2 2.1.4 3.2.7.3.1.7.1 1 .2 6.3 1.1 13.6 1.4 15.1 1.4 2.7 0 16.1 19 18.4 27.3 2.3 8.3 28.1 41.4 30.5 44 2.4 2.8 7.8 12.5 7.3 14z" fill="url(#SVGID_52_)"/><path id="ombre_bras_droit" class="st57" d="M327.6 287.8c-.4-.4-.9-.8-1.2-1.1-1.4-18.1-14.7-42.1-14.7-42.1-1.1-.2-2.2-.4-3.2-.7.9-.4 2.8.1 4.2.9.9.4 1.7.9 2 1.3 1.2 1.2 2 2.9 2.8 4.5 1 2 1.9 3.9 2.8 5.9 3.8 7.8 6.1 16.1 7.6 24.7.4 1.8.6 4.9-.3 6.6z"/><path id="ombre_poitrine_gauche" class="st57" d="M283.9 241c-2.8 11.7-4.3 23.6-4.4 35.6 0 .5 0 1-.2 1.5-6.4-14.3 1.9-36.2 3.7-40.4 1 .4 1.2 1.9.9 3.3z"/><path id="ombre_bras_gauche_1_" d="M250.7 248.1c-9.8 26.1-23.1 53-27.2 82.4-4.1 30.1-11.3 62.7-10.2 93.1-1.3-1.7-.7-2.2-1.4-3.5-2.3-11.5-.7-46.9 1-75.4 1.9-32.3 34.9-101.1 40.7-104.5 0 0-2 5.6-2.9 7.9z" opacity=".8" fill="#f6af9a"/><linearGradient id="SVGID_53_" gradientUnits="userSpaceOnUse" x1="273.995" y1="203.215" x2="309.774" y2="209.524"><stop offset="0" stop-color="#f6af9a"/><stop offset="1" stop-color="#fbd9cd"/></linearGradient><path d="M307.5 216.6c-5 6.4-16.9 14.1-21.1 12.7-.6-.2-1.1-.4-1.7-.8-3.4-2.2-6.1-8.1-9.2-21-3.7-14.9 6.3-23.4 6.3-23.4 1.4-.4 2.8-.8 4.1-1 26.1-5 26.4 27.4 21.6 33.5z" fill="url(#SVGID_53_)"/><path id="ombre_visage" d="M278.8 191.1c-2.2 5.6-1.7 11.9-.3 17.8s3.6 11.5 4.8 17.4c.2 1.1 1.4 2.2 1.4 2.2-3.4-2.2-6.1-8.1-9.2-21-3.7-14.9 6.3-23.4 6.3-23.4 1.4-.4 2.8-.8 4.1-1v.3c-.1.9-4.2 3.1-4.7 3.7-1 1.2-1.8 2.6-2.4 4z" opacity=".6" fill="#f6af9a"/><linearGradient id="jambe_principale_2_" gradientUnits="userSpaceOnUse" x1="314.534" y1="583.624" x2="358.64" y2="591.401" gradientTransform="scale(-1 1) rotate(-6.603 .116 6304.783)"><stop offset="0" stop-color="#f6af9a"/><stop offset="1" stop-color="#fbd9cd"/></linearGradient><path id="jambe_principale" d="M308.3 574c3.2 12 3.4 56.1 2.5 60.3-.9 4.2-3.9 13.4-5.3 29.1-1.4 15.6 11.3 15.6 11.3 15.6 9.6-3.3 14.4-10.7 16.1-17.8.8-3.6.8-7.1.3-10-1.7-8.7-2.8-72.1.5-80.9 7.6-20.2 8.7-38.6 7.8-51.9-.8-13.3-3.6-21.6-3.6-21.6s-31.6-4.7-32.5 2.9c-.9 7.5-.4 62.4 2.9 74.3z" fill="url(#jambe_principale_2_)"/><path id="ombre_jambe_principale" class="st57" d="M327.7 579.5c-.8 6-.8 12-.8 18 .1 15.1.5 30.2 1.2 45.2.3 6.4.7 12.9 3.5 18.6.4-.1.9-.2 1.3-.3.8-3.6.8-7.1.3-10-1.7-8.7-2.8-72.1.5-80.9 7.6-20.2 8.7-38.6 7.8-51.9-1.6.2-3.1.7-3.8 1.1-2.7 1.7-2.5 3.4-2.2 6.4.7 8.3 1.1 15.6-.7 23.9-2.2 10.1-5.8 19.8-7.1 29.9z"/><linearGradient id="jambe_principale_3_" gradientUnits="userSpaceOnUse" x1="234.475" y1="576.264" x2="278.581" y2="584.042" gradientTransform="rotate(-6.88 320.52 407.136)"><stop offset="0" stop-color="#f6af9a"/><stop offset="1" stop-color="#fbd9cd"/></linearGradient><path id="jambe_principale_1_" d="M295.7 571.5c-3.2 12-6.4 58.7-5.6 62.8.9 4.1 3.9 13.4 5.4 29.1C297 679 284.3 679 284.3 679c-9.7-3.2-14.5-10.6-16.1-17.8-.8-3.6-.9-7.1-.3-10 1.6-8.7 2.5-72.1-.9-80.9-7.7-20.1-8.8-38.5-8.1-51.9.8-13.3 3.5-21.7 3.5-21.7s34-5.2 34.9 2.4c1 7.7 1.6 60.4-1.6 72.4z" fill="url(#jambe_principale_3_)"/><path id="ombre_jambe_principale_1_" class="st57" d="M273.1 579.6c.8 6 .9 12 .9 18 0 15.1-.3 30.2-1 45.2-.3 6.4-.7 12.9-3.4 18.6-.4-.1-.9-.2-1.3-.3-.8-3.6-.9-7.1-.3-10 1.6-8.7 2.5-72.1-.9-80.9-7.7-20.1-8.8-38.5-8.1-51.9 1.6.2 3.1.7 3.8 1.1 2.7 1.6 2.5 3.4 2.3 6.3-.6 8.3-1 15.6.8 23.9 2.2 10.1 5.7 19.8 7.2 30z"/><path id="ombre_seins" d="M292.1 273c-.7.4-2 3.6-2.4 4.5-.4 1.3-.8 2.6-1.1 3.9-.5-2.7-2-9.5-2.9-9.3-1.1.2.4 3.9.5 4.6.4 1.9.6 3.9.7 5.8.1 1.6.1 3.4.8 4.8 0 .4 0 .8.2 1 .1.1.3.1.5 0 .1 0 .1 0 .2-.1.6-.5.9-1.6 1.1-2.6.7-2.9 1.3-5.8 1.9-8.8.2-.8 1.6-4.3.5-3.8z" opacity=".5" fill="#f6af9a"/><linearGradient id="SVGID_54_" gradientUnits="userSpaceOnUse" x1="231.81" y1="403.327" x2="425.137" y2="437.415"><stop offset="0" stop-color="#e4e1e0"/><stop offset="1" stop-color="#f2f2f2"/></linearGradient><path d="M356 556.5c-13.8-18.9-16.1-25.9-40.2-31-24.1-5.2-53.5-1.1-56 2.3-2.6 3.5 4.3 27 0 29.9-4.3 2.9-9.3 4-11.1 5.7-1.8 1.7 3.5 20.1 0 17.8-3.6-2.3-33-7.5-38.1-24.2 0 0 9.5-10.5 11.3-16.6.4-1.5.4-2.7-.3-3.5-4.9-5.4-11.6-1.1-4.9-12.6.2-.3.4-.7.6-1.1 7.4-13.4 30.9-65.1 24.9-107.9-4.6-32.5 8.9-49.6 14.3-65.3 4-11.7 4-29.6 2.2-39.9-.2-1.4-.5-2.7-.7-3.8-.2-1.2-.4-2.2-.6-2.8-.1-.5-.2-.8-.2-.8-1.8-2.5-3-5.3-3.7-8.2-4.4-18.6 12-43.9 22.7-56 1.6-.2 2.6-.4 2.6-.4 2.2-1.2 3.9-.2 4.5-.9-1.4 2.9-16.1 39.2 4.8 50.3 0 0 21.7-8.6 15.6-44.8 1 .4 4.3 1.2 8 1.9 0 0 13.3 24 14.7 42.1.7 8.1-1.1 15-7.5 18.1 0 0 0 .1-.1.2 0 .2-.1.7-.2 1.4-.2 1.2-.4 2.9-.5 5.1v.1c0 .6 0 1.1-.1 1.8-.1 3.1.1 6.9.8 11.1.7 4.4 1.9 9.2 4 14.3 2.6 6.4 4.6 13 9.7 20.1 19.3 26.7 25.7 110.8 25.7 117.7 0 6.9 10.1 74.3 43.1 89.6 7.1 3.4-31.5 9.3-45.3-9.7z" fill="url(#SVGID_54_)"/><g id="ombres_robe"><path class="st65" d="M269.4 342.6c-1.8 8.7-6.8 16.4-10.9 24.3-5.7 10.7-10 22.3-11.6 34.3-3.3 25.1 5.6 50.4 4.6 75.7-.7 18.3-6.8 36.3-17.3 51.3-3.3 4.7-7.5 9.3-12.4 12.4.4-1.5.4-2.7-.3-3.5-4.9-5.4-11.6-1.1-4.9-12.6.2-.3.4-.7.6-1.1 7.4-13.4 30.9-65.1 24.9-107.9-4.6-32.5 8.9-49.6 14.3-65.3 5.9-10.8 4-29.6 2.2-39.9-.2-1.4-.5-2.7-.7-3.8-.2-1.2-.4-2.2-.6-2.8 3.2 0 6.1 1.8 7.7 5.2 4.5 9.8 6.7 22.9 4.4 33.7z"/><path class="st65" d="M262.9 270.7c-3.7 9.6-3.7 21-1.1 31 .3 1.3.8 2.6.5 4-.2 1.3-1.5 2.6-2.8 2.2-.7-.2-1.2-.8-1.6-1.4-.4-2.3-.8-3.6-.8-3.6-1.8-2.5-3-5.3-3.7-8.2-4.4-18.6 12-43.9 22.7-56 1.6-.2 2.6-.4 2.6-.4-1.2 10-12.1 22.7-15.8 32.4z"/><path class="st65" d="M318.9 305.1c0 .3-.1.7-.2 1.4-.8 1.2-2.5 1.6-4 1.9-2.7.5-5.3.9-8 1.1-8 .7-16.1.1-24.2-.4-5-.3-10.1-.7-15.1-1.2-1.3-.1-2.8-.3-3.8-1-.9-.6-1.1-2.9-1.1-2.9 1.3-.6 4.8-.1 6.2 0 4 .3 8 .8 12.1 1.1 9 .7 18.1.2 27.1-.7 3.2-.3 6.4-.7 9.6-.1.5.1 1.1.3 1.4.8z"/></g><g id="casque"><linearGradient id="SVGID_55_" gradientUnits="userSpaceOnUse" x1="221.53" y1="451.479" x2="267.94" y2="451.479"><stop offset="0" stop-color="#bc8210"/><stop offset="1" stop-color="#feca36"/></linearGradient><path d="M221.5 460.6c3.4-25.4 23.1-32.2 23.1-32.2 2.6.6 4.2.8 5.8.8 0 0 31.3 23.4 10.1 41.5-10 8.5-33.8 2.6-39-10.1z" fill="url(#SVGID_55_)"/><linearGradient id="SVGID_56_" gradientUnits="userSpaceOnUse" x1="188.479" y1="470.573" x2="299.816" y2="470.573"><stop offset="0" stop-color="#bc8210"/><stop offset="1" stop-color="#feca36"/></linearGradient><path d="M291.8 485.2c-13 23.8-72 10-76.2 10-4.2 0-27.6 38.3-27.1 34.1.1-.6.4-1.8.9-3.4 3.1-9.8 13.4-35.2 17-39.8 2.5-3.1 8.5-6.5 12.9-9.2 1.1-.7 2.1-1.3 3-1.9 1.7 3.2 6.6 8.1 19.5 8.1 16.3 0 38.8-.5 33-30.4-3.4-17.4-16.5-26.1-17-26.1 5.6-4.6 13-14.9 13-14.9 33.8 19 34 49.7 21 73.5z" fill="url(#SVGID_56_)"/><linearGradient id="SVGID_57_" gradientUnits="userSpaceOnUse" x1="188.502" y1="438.868" x2="244.677" y2="438.868"><stop offset="0" stop-color="#bc8210"/><stop offset="1" stop-color="#feca36"/></linearGradient><path d="M244.7 428.3s-19.7 6.9-23.2 32.2c-.4-.2-.7-.4-1-.6-1.9-1-3.4-1.2-4.5-1.1-3.5.3-3.7 4.6-3.7 4.6-10.2-13.2 2.9-19.8-1.8-19.5-4.6.3-21.5-28.7-22-29.6.3.1 3.8.9 8.9 2.2 1.2.3 2.6.7 4 1 3.2.8 6.9 1.7 10.6 2.7.3 1.7.8 2.9 1.3 3.4 4.2 4 9.2 6.5 13 6.1 2.5-.2 4.9-1.1 6.1-4.5 5.7 1.5 9.5 2.5 12.3 3.1z" fill="url(#SVGID_57_)"/><linearGradient id="SVGID_58_" gradientUnits="userSpaceOnUse" x1="221.53" y1="454.735" x2="275.722" y2="454.735"><stop offset="0" stop-color="#bc8210"/><stop offset="1" stop-color="#feca36"/></linearGradient><path d="M241.8 483c-12.9 0-17.8-4.9-19.5-8.1 1.5-1.1 2.4-1.9 2.1-2.5-1-2.1-2.9-11.8-2.9-11.8 5.2 12.7 28.9 18.7 39.1 10 21.2-18-10.1-41.5-10.1-41.5 1.2 0 2.3-.2 3.6-.5 1-.2 2.3-1 3.6-2.1.6 0 13.6 8.7 17 26.1 5.9 29.9-16.6 30.4-32.9 30.4z" fill="url(#SVGID_58_)"/></g><linearGradient id="SVGID_59_" gradientUnits="userSpaceOnUse" x1="257.228" y1="302.416" x2="317.889" y2="313.113"><stop offset="0" stop-color="#bc8210"/><stop offset="1" stop-color="#feca36"/></linearGradient><path d="M318.9 304.8s-.5 2.1-.7 5.7c0 .4-.1.8-.1 1.2-10.3 3.1-31.6 7.1-59.5-1.6-.1-.4-.1-.7-.2-1.1-.7-3.9-1.3-6.3-1.3-6.3s24.6 8.9 61.8 2.1z" fill="url(#SVGID_59_)"/><linearGradient id="mèche_cheveux_1_" gradientUnits="userSpaceOnUse" x1="277.004" y1="196.759" x2="318.95" y2="204.155"><stop offset="0" stop-color="#60391f"/><stop offset="1" stop-color="#b2663b"/></linearGradient><path id="mèche_cheveux" d="M280.4 179.1s-3.1 2.4 7.8 11.4 20.5 19.9 18.2 31.6 11.7-1.8 10.7-9.2c-1-7.3 0-27-13-34.8-10-6-23.7 1-23.7 1z" fill="url(#mèche_cheveux_1_)"/><path d="M219.3 478.8c-1.4 3.9-3.7 7.6-6.7 10.5-2 2-4.3 3.7-5.9 6-1.9 2.6-2.8 5.6-3.9 8.6-1.9 5.2-4.5 10.1-7.1 15-1.4 2.7-2.9 5.5-5 7.8l-1.2 1.2c3.1-9.8 13.4-35.2 17-39.8 2.4-3.2 8.4-6.6 12.8-9.3z" opacity=".5" fill="#bc8210"/><path class="st73" d="M188.5 416.3c.3.1 3.8.9 8.9 2.2 1.9 4.9 4.8 9.4 8.4 13.2 1.8 1.8 3.8 3.5 5.5 5.5 3.6 4.3 5.2 9.8 6.8 15.2.9 3.1 1.9 6.3 2.4 9.5-1.9-1-3.4-1.2-4.5-1.1-3.5.3-3.7 4.6-3.7 4.6-10.2-13.2 2.9-19.8-1.8-19.6-4.6.4-21.5-28.6-22-29.5zM318.2 310.6c0 .4-.1.8-.1 1.2-10.3 3.1-31.6 7.1-59.5-1.6-.1-.4-.1-.7-.2-1.1.5-.6 1.9-.1 2.6 0 3.4.7 6.8 1.4 10.2 1.9 6.9 1 13.9 1.4 20.9 1.9 2.4.2 4.9.3 7.3.2 6.3-.3 12.5-2.2 18.8-2.5z"/><g id="shield"><radialGradient id="SVGID_60_" cx="383.741" cy="605.082" r="53.228" gradientUnits="userSpaceOnUse"><stop offset=".729" stop-color="#7f5e28"/><stop offset="1" stop-color="#bc8210"/></radialGradient><circle cx="383.7" cy="605.1" r="53.2" fill="url(#SVGID_60_)"/><radialGradient id="SVGID_61_" cx="383.913" cy="605.283" r="71.678" gradientUnits="userSpaceOnUse"><stop offset=".729" stop-color="#bc8210"/><stop offset="1" stop-color="#feca36"/></radialGradient><path d="M383.9 533.6c-39.6 0-71.7 32.1-71.7 71.7s32.1 71.7 71.7 71.7 71.7-32.1 71.7-71.7-32.1-71.7-71.7-71.7zm0 133.3c-34 0-61.6-27.6-61.6-61.6s27.6-61.6 61.6-61.6 61.6 27.6 61.6 61.6-27.6 61.6-61.6 61.6z" fill="url(#SVGID_61_)"/><radialGradient id="SVGID_62_" cx="383.913" cy="605.283" r="75.641" gradientUnits="userSpaceOnUse"><stop offset=".729" stop-color="#bc8210"/><stop offset="1" stop-color="#feca36"/></radialGradient><path d="M383.9 529.6c-41.8 0-75.6 33.9-75.6 75.6s33.9 75.6 75.6 75.6 75.6-33.9 75.6-75.6-33.8-75.6-75.6-75.6zm0 147.4c-39.6 0-71.7-32.1-71.7-71.7s32.1-71.7 71.7-71.7 71.7 32.1 71.7 71.7-32.1 71.7-71.7 71.7z" fill="url(#SVGID_62_)"/><radialGradient id="SVGID_63_" cx="383.915" cy="605.282" r="61.572" gradientUnits="userSpaceOnUse"><stop offset=".852" stop-color="#bc8210"/><stop offset="1" stop-color="#feca36"/></radialGradient><path d="M391.2 544.1c-2-.2-4.1-.4-6.2-.4h-1.1c-1.5 0-3 .1-4.5.2-1.2.1-2.4.2-3.5.4-30.2 3.9-53.5 29.8-53.5 61.1 0 34 27.6 61.6 61.6 61.6s61.6-27.6 61.6-61.6c-.1-31.7-23.8-57.6-54.4-61.3zm-7.3 114.2c-29.3 0-53.1-23.8-53.1-53.1 0-26.4 19.3-48.3 44.6-52.4 1.5-.2 3-.4 4.6-.5 1.2-.1 2.3-.1 3.5-.1h.4c1.5 0 2.9.1 4.3.2 27.3 2.2 48.7 25 48.7 52.9.1 29.3-23.7 53-53 53z" fill="url(#SVGID_63_)"/><linearGradient id="SVGID_64_" gradientUnits="userSpaceOnUse" x1="401.74" y1="603.067" x2="429.829" y2="603.067"><stop offset=".002" stop-color="#bc8210"/><stop offset="1" stop-color="#feca36"/></linearGradient><path d="M401.9 590.1c.2-1.2 7.5-.3 7.7-5.4.2-5.2-2.3-10.1 3.4-10.5 5.7-.4 10.1-1 14.9 13.7 4.8 14.7-.9 32.2-.7 35.3.2 3.1.4 7.2 1.8 8.6 1.4 1.4-15.6-2.4-18.2-10-2.7-7.7-10.3-24.4-8.9-31.7z" fill="url(#SVGID_64_)"/><linearGradient id="SVGID_65_" gradientUnits="userSpaceOnUse" x1="369.093" y1="637.731" x2="381.78" y2="637.731"><stop offset=".002" stop-color="#bc8210"/><stop offset="1" stop-color="#feca36"/></linearGradient><path d="M380.7 630.9s-10.5-2.7-11.6 6 9.1 8.2 10.4 7.9 2.6-1.4-.1-2.6c-2.7-1.2-5.6-1.4-5.7-2.8-.1-1.4-1.3-5.3 4.6-5.3 6-.1 2.4-3.2 2.4-3.2z" fill="url(#SVGID_65_)"/><linearGradient id="SVGID_66_" gradientUnits="userSpaceOnUse" x1="384.728" y1="643.369" x2="419.103" y2="643.369"><stop offset=".002" stop-color="#bc8210"/><stop offset="1" stop-color="#feca36"/></linearGradient><path d="M386.5 648.9s3.6 1 6-1.2c2.3-2.2 5.2-5.2 8.9-6.2 3.6-1 10.9 2.4 5.4 6.8s-10.1-5.9-.8-6.9c4.3-.5 3.6 3.8 5.8 2.3 2.3-1.4-2.7-1-2.3-4.3.5-3.3 3.7-1.5 4.3-.9.6.6 1.6 1 1.6-1.5 0-1.4 1.5 0 2.3-.6.8-.6 1.4-1.5 1.4-1.5s.3 3.3-2.2 2.6c-1.5-.4 1.2 1.5 0 2.1s-1.7.9-5.4-.5c-.9-.4.4 1.9 1.3 2.4s2.4 3.2 1.2 3.7-3.1 2.7-7.3-.5c-1.1-.9-3.4-1.1-3.9-.1s.8 3.9 2.9 1.9c2-2-1.6-5-8.6 1.2s-11.9 4.5-12.3 4.2c-.4-.6 1.7-3 1.7-3z" fill="url(#SVGID_66_)"/><linearGradient id="SVGID_67_" gradientUnits="userSpaceOnUse" x1="347.107" y1="643.556" x2="389.135" y2="643.556"><stop offset=".002" stop-color="#bc8210"/><stop offset="1" stop-color="#feca36"/></linearGradient><path d="M349 634s-1.5 1.8.7 1.3 2.5.8 1.5 3.6c-.4 1.1 2.5-1.7 2.8-1.8.4-.1 3.1-.3 2.7 2s-1.3 5.9 0 5.8c1.3-.1 4.4-3.3 7.3-2.3 3 .9 3.9 5-.5 6.2-4.4 1.2-4.3-5.5-3.4-7.4.8-1.9 4.9-2.6 6.9-.6s9 7.8 9.8 8.1c.8.3 3.8 1.8 7 .6 3.2-1.2.4-4.9 0-5.9-.4-1.1 5.1-2 5-.4-.1 1.7 2 7.8-4.1 9.5-6.1 1.7-11.3-2.1-14.2-5.2s-5.4-8-8.7-5.7.3 6 1.5 5.3c1.2-.7 1.2-2.6-.1-2.7-1.3-.1-4.5 3.9-7.2 2.1-2.7-1.8-1.7-4.5-1.7-5.7s-1.5-.3-2.6 0c-1.6.4-2.4-.7-2.3-3 0 0 .1-.8-1.5-1.1-.5-.2-2-.9 1.1-2.7z" fill="url(#SVGID_67_)"/><linearGradient id="SVGID_68_" gradientUnits="userSpaceOnUse" x1="378.221" y1="639.758" x2="399.535" y2="639.758"><stop offset=".002" stop-color="#bc8210"/><stop offset="1" stop-color="#feca36"/></linearGradient><path d="M394.3 643.8c-1.9.3-3.8.4-5.4.5-1.8.1-3.4 0-4.7 0-2.5 0-3.8.2-3.5 1.6.4 1.7.8 3.1 1.2 4-1.1.1-2.1 0-2.9-.3-.8-2.1-1.2-4.6-.5-5.9.8-1.5 2.8-2.6 7.8-2.5 5 .1 9.4-.3 8.9-3.5s-5.4-3.6-8-3.4c-2.6.1-4.2-3.4-3.3-4.4.8-1 4.1.6 4.1.6s8.6 0 9.8 2.6c1.2 2.6 4.6 9.4-3.5 10.7z" fill="url(#SVGID_68_)"/><linearGradient id="SVGID_69_" gradientUnits="userSpaceOnUse" x1="336.042" y1="601.555" x2="361.921" y2="601.555"><stop offset="0" stop-color="#feca36"/><stop offset=".998" stop-color="#bc8210"/></linearGradient><path d="M361.9 588.4s-3 2-2.8-1.8c.2-3.7-1.1-20.1-12.3-13.7-11.2 6.4-12.3 29.7-9.4 38.4 2.8 8.7 2.5 17.3 1.8 19.4-.7 2.1 14.5.8 18.2-6.5 3.7-7.3 3.5-32.2 4.5-35.8z" fill="url(#SVGID_69_)"/><linearGradient id="SVGID_70_" gradientUnits="userSpaceOnUse" x1="385.087" y1="565.749" x2="385.087" y2="582.157"><stop offset=".002" stop-color="#bc8210"/><stop offset="1" stop-color="#feca36"/></linearGradient><path d="M384.8 578s.3-4-4.5-4.5c-4.9-.5-6.4-2.7-3.4-3.6 3-.8 6.5.4 6.6 1 .1.6 2.6.1 2.7-1.3s-4.3-4-7.4-3.9c-3 .2-10 2.1-7.8 7.2 2.1 5.1 9.2 2.3 10 2.8s.9 6 2.7 6.2 3.8.3 4.4-5.7c.3-3.1 6.9 0 9.6-1.7 2.7-1.7 4.2-9-7.6-8.1-4.7.4-9.2 4.9-8.3 7.1.5 1.3 4.9-2.6 5.5-3 1.5-1 5.3-2.1 6.9-1.1 1.6 1.1 3.5 3.3-2.1 3.2-5.8.2-7.2-.9-7.3 5.4z" fill="url(#SVGID_70_)"/><linearGradient id="SVGID_71_" gradientUnits="userSpaceOnUse" x1="356.754" y1="570.953" x2="381.577" y2="570.953"><stop offset="0" stop-color="#feca36"/><stop offset=".998" stop-color="#bc8210"/></linearGradient><path d="M378.6 580.6s-3-2.1-7.6-1.2c-4.6.9-14.6.4-14.2-9.2s10.9-11 12.8-10 6.2 2.8 6.4 6.8c.2 3.9-1.4 6-2.7 4.6s-3.2-5.1-4.4-7.2c-1.2-2.1-10.1.1-8.9 6 1.2 5.9 5.3 6.8 7.7 5.9 2.4-.9 8.2-.9 9.5-.2 1.9 1.1 3.6 3.2 4.3 5.3.7 2-2.9-.8-2.9-.8z" fill="url(#SVGID_71_)"/><linearGradient id="SVGID_72_" gradientUnits="userSpaceOnUse" x1="387.253" y1="571.613" x2="411.411" y2="571.613"><stop offset=".002" stop-color="#bc8210"/><stop offset="1" stop-color="#feca36"/></linearGradient><path d="M388 579.4s3.2-4.5 5.6-4.1c2.4.4 9.4.9 10.2.6 2.6-.8 10.1-8.4 1-12.4-5.7-2.5-4.5 1.2-4.9 1.9-.4.7-.2 5.5-6 6.1 0 0-3.3-5.2 1.4-8.8 0 0 2.7-1.2 3.1-1.9.4-.7 3.3-2.9 8.2.8 4.6 3.4 7.2 8.9 1.3 15.1-2.6 2.7-11 1.3-13.3 1.8-2.3.5-6.5 4.5-7.2 5.2-.6.7.6-4.3.6-4.3z" fill="url(#SVGID_72_)"/><radialGradient id="SVGID_73_" cx="383.447" cy="609.521" r="37.177" gradientUnits="userSpaceOnUse"><stop offset=".002" stop-color="#bc8210"/><stop offset="1" stop-color="#feca36"/></radialGradient><path d="M380.1 578.4c-.5.1-.9.4-1.3.7-2.4 1.8-5.6 1.9-8.6 1.5-1-.1-2-.3-2.9.1-.9.4-1.3 1.9-.5 2.4-1.9.3-3.7.4-5.6.4-.2.5-.3 1-.1 1.5 1-.1 2-.2 2.8.5.4.3.6.8.5 1.3-.2.7-.9.9-1.6 1-1.6.2-3.2.1-4.7-.2-.6-.1-1.3-.3-1.8.1-.3.3-.4.7-.7 1-.5.7-1.4.9-2.2 1-2.5.3-5-.2-7.2-1.4-.4-.2-1-.1-1.3.3-.4.7.8 1.3 1.2 2.1.5 1-.6 2.5.3 3.3.6.6 1.8.1 2.5.7.6.6.2 1.6.5 2.4.3.8 1.2 1.1 2.1 1.4 2.1.6 4.2 1 6.3 1.3-.9.6-2.1.5-3.1.3-1.1-.2-2.2-.5-3.2-.2s-2 1.4-1.6 2.4c-1.6-.3-3.2-.5-4.8-.3-1.6.2-3.2 1-3.9 2.5 1.2 1 2.8 1.5 4.4 1.3.6-.1 1.4-.2 1.9.2.3.2.4.6.6.9.5.8 1.7 1.2 2.6.9-.4 1.7 1.7 3 3.4 2.9 1.7 0 3.5-.8 5.2-.4-2.3.3-4.2 1.7-6.5 2.1-3.5.7-7.4-1-10.4 1-.4.3-.7.8-.6 1.3.1.5.5.7.9.7 1.6.4 3.4.8 5 .4.8.9 2.2 1 3.4.9 2.5 0 5-.1 7.4-.1-3.1 1.1-6.2 2.3-9.3 3.4-1.2.4-2.5.9-3.3 1.9-.4 0-.8.1-1.1.1.8 1.7 2.9 2.9 4.7 2.4.8-.2 1.5-.7 2.2-1.1 2-1.2 4.2-1.9 6.5-2.3-1.1 1.8-2.5 3.4-3.7 5.1-1.5 2.2-2.5 4.7-3.3 7.2 2.9-4.4 7.3-7.9 12.3-9.8-1.7 1.6-3.5 3.2-5.2 4.8-.3.3-.7.6-.7 1.1-.1.7.5 1.3.4 2 0 .6-.6 1.1-.9 1.6-.3.5-.4 1.4.2 1.6 2.4-2.7 4.8-5.4 7.2-8.2l-2.6 11.9c2.7-2.6 5.3-5.3 7.8-8.1.2 1.6.2 3.2.1 4.8 1 1 1.2 2.8.5 4 1-1.6 2.8-2.7 4.6-2.8.7-.1 1.4 0 2-.2 1.1-.4.7-1.6 1.6-2.6 0 0-1.1 5.2-1.6 7.2 0 0 .4-.6 1-1 3.2-2.3 6.8-8.6 6.8-8.6 1.2.8 2.7 1.2 4.2 1.2 1 0 2-.3 2.9.1.7.3 1.1 1 1.8 1.3.6.4 2.6 1.6 2.8.9-.6.7-2.7-1.6-3-2.5 0 0 .9-.4.8-2.5 2.3 2.9 3.6 1.1 7.2 1.8-1.7-2.3-1.8-3-2.2-5.8.7 1.4 1.1.3 2.6.5.8.1 1.6 0 2.4.2 1.2.4 1.9 1.6 2.8 2.6.9.9 2.6 1.5 3.4.5-1.7-3.2-3.6-6.3-5.7-9.2 2.5 1.4 4.4 3.7 7.1 4.6 2.1.7 4.5.3 6.7-.1-.7.2-1.4-.2-1.7-.8-.4-.6-.5-1.3-.8-1.9-.9-1.7-3.1-2.4-5-2.8.4-1.5-1.1-2.8-2.4-3.7 3.7 1.1 7.5 2.1 11.2 3.2 1 .3 2.7.1 2.5-1-.9.4-1.5-.9-2.1-1.7-2.1-3.3-7.9-1.3-10.7-4.1 4.9 1.1 10.1 1.2 15 .3.6-.1 1.2-.3 1.2-1 0-.5-.3-.9-.8-1.1l-5-1.8c-.8-.3-1.6-.6-2.4-.6-.9-.1-1.8.1-2.7.1-2.5.2-5-.3-7.3-1.3 2.6-.8 5.3-1.6 7.9-2.4 2.4-.7 5.3-1.9 5.7-4.4-2.6 0-5.2 0-7.6.8-1.2.4-2.4 1-3.7 1.2-1.3.2-2.8-.3-3.4-1.4 1.8.3 2.9-2 4.2-3.3 1.4-1.3 3.4-1.6 5.3-2.2 1.8-.5 3.8-1.6 4.2-3.5-3.6 1.1-7.3 2.1-11 2.8-1.8.4-3.7.6-5.2-.3 1.5-2.7 5.4-2.4 8.4-3.2 3.5-1 6.2-4.2 6.6-7.8l-11.1 5.1c-.6.3-1.2.6-1.9.6-.5.1-1.1 0-1.6-.1-1.2-.1-2.3-.3-3.5-.4l5.8-6c-.2-.4-.3-.9-.3-1.4-3.2 3.1-8.2 4.3-12.4 2.9-.5-.2-1.1-.4-1.4-.9-.2-.4-.2-1-.4-1.4-.5-1.6-2.8-1.7-4.4-1.1-1.7.7-2.5 1.1-4 .2-1-.8-1.7-2.4-3.6-1.8z" fill="url(#SVGID_73_)"/><linearGradient id="SVGID_74_" gradientUnits="userSpaceOnUse" x1="369.572" y1="612.046" x2="399.967" y2="612.046"><stop offset="0" stop-color="#feca36"/><stop offset=".998" stop-color="#bc8210"/></linearGradient><path d="M382.6 631.8c-16.9-6.9-12.4-34-12.4-34 1.6.3 3.6.3 4.3-.6 1.3-1.7.6-5.2 2.8-4.9 2.1.3 5.8 1.7 6.7 1.1.9-.6 3.9 1.2 5 0s2.6-.8 2.6 0 1.9 2.3 3.4 2.1c1.5-.2 1.2 3.9 4.6 3.4 4 31.3-17 32.9-17 32.9z" fill="url(#SVGID_74_)"/><linearGradient id="SVGID_75_" gradientUnits="userSpaceOnUse" x1="375.42" y1="548.317" x2="391.216" y2="548.317"><stop offset="0" stop-color="#feca36"/><stop offset=".998" stop-color="#bc8210"/></linearGradient><path d="M391.2 544.1c-2.4.7-4.8 2.3-6.8 3.9-.8.6-1.5 1.3-2.1 1.9-1 1-1.8 1.8-2.3 2.4-1.6.1-3.1.3-4.6.5 1.7-1.8 3.5-3.6 5.1-5.1.6-.6 1.2-1.1 1.8-1.7 1.2-1.1 2.1-1.9 2.8-2.5 2 .3 4.1.4 6.1.6z" fill="url(#SVGID_75_)"/><linearGradient id="SVGID_76_" gradientUnits="userSpaceOnUse" x1="375.881" y1="548.14" x2="388.248" y2="548.14"><stop offset="0" stop-color="#feca36"/><stop offset=".998" stop-color="#bc8210"/></linearGradient><path d="M388.2 552.4c-1.4-.1-2.9-.2-4.3-.2h-.4c-.2-.5-.6-1.3-1.2-2.2-.4-.7-1-1.4-1.8-2.2-1.1-1.2-2.6-2.4-4.6-3.6 1.2-.2 2.3-.3 3.5-.4.6.5 1.7 1.3 2.9 2.3.7.6 1.4 1.2 2.1 1.9 1.5 1.5 3 3 3.8 4.4z" fill="url(#SVGID_76_)"/><g><linearGradient id="SVGID_77_" gradientUnits="userSpaceOnUse" x1="191.343" y1="-247.289" x2="207.139" y2="-247.289" gradientTransform="rotate(180 291.28 207.485)"><stop offset="0" stop-color="#feca36"/><stop offset=".998" stop-color="#bc8210"/></linearGradient><path d="M375.4 666.4c2.4-.7 4.8-2.3 6.8-3.9.8-.6 1.5-1.3 2.1-1.9 1-1 1.8-1.8 2.3-2.4 1.6-.1 3.1-.3 4.6-.5-1.7 1.8-3.5 3.6-5.1 5.1-.6.6-1.2 1.1-1.8 1.7-1.2 1.1-2.1 1.9-2.8 2.5-2-.2-4.1-.3-6.1-.6z" fill="url(#SVGID_77_)"/><linearGradient id="SVGID_78_" gradientUnits="userSpaceOnUse" x1="191.804" y1="-247.465" x2="204.171" y2="-247.465" gradientTransform="rotate(180 291.28 207.485)"><stop offset="0" stop-color="#feca36"/><stop offset=".998" stop-color="#bc8210"/></linearGradient><path d="M378.4 658.2c1.4.1 2.9.2 4.3.2h.4c.2.5.6 1.3 1.2 2.2.4.7 1 1.4 1.8 2.2 1.1 1.2 2.6 2.4 4.6 3.6-1.2.2-2.3.3-3.5.4-.6-.5-1.7-1.3-2.9-2.3-.7-.6-1.4-1.2-2.1-1.9-1.5-1.5-2.9-3-3.8-4.4z" fill="url(#SVGID_78_)"/></g><g><linearGradient id="SVGID_79_" gradientUnits="userSpaceOnUse" x1="680.919" y1="57.875" x2="696.716" y2="57.875" gradientTransform="rotate(90 291.28 207.485)"><stop offset="0" stop-color="#feca36"/><stop offset=".998" stop-color="#bc8210"/></linearGradient><path d="M445.1 612.9c-.7-2.4-2.3-4.8-3.9-6.8-.6-.8-1.3-1.5-1.9-2.1-1-1-1.8-1.8-2.4-2.3-.1-1.6-.3-3.1-.5-4.6 1.8 1.7 3.6 3.5 5.1 5.1.6.6 1.1 1.2 1.7 1.8 1.1 1.2 1.9 2.1 2.5 2.8-.3 2-.4 4.1-.6 6.1z" fill="url(#SVGID_79_)"/><linearGradient id="SVGID_80_" gradientUnits="userSpaceOnUse" x1="681.38" y1="57.698" x2="693.747" y2="57.698" gradientTransform="rotate(90 291.28 207.485)"><stop offset="0" stop-color="#feca36"/><stop offset=".998" stop-color="#bc8210"/></linearGradient><path d="M436.8 610c.1-1.4.2-2.9.2-4.3v-.4c.5-.2 1.3-.6 2.2-1.2.7-.4 1.4-1 2.2-1.8 1.2-1.1 2.4-2.6 3.6-4.6.2 1.2.3 2.3.4 3.5-.5.6-1.3 1.7-2.3 2.9-.6.7-1.2 1.4-1.9 2.1-1.5 1.4-3 2.9-4.4 3.8z" fill="url(#SVGID_80_)"/></g><g><linearGradient id="SVGID_81_" gradientUnits="userSpaceOnUse" x1="64.434" y1="60.929" x2="80.231" y2="60.929" gradientTransform="rotate(-90 472.207 206.115)"><stop offset="0" stop-color="#feca36"/><stop offset=".998" stop-color="#bc8210"/></linearGradient><path d="M322.8 598.1c.7 2.4 2.3 4.8 3.9 6.8.6.8 1.3 1.5 1.9 2.1 1 1 1.8 1.8 2.4 2.3.1 1.6.3 3.1.5 4.6-1.8-1.7-3.6-3.5-5.1-5.1-.6-.6-1.1-1.2-1.7-1.8-1.1-1.2-1.9-2.1-2.5-2.8.3-2 .4-4.1.6-6.1z" fill="url(#SVGID_81_)"/><linearGradient id="SVGID_82_" gradientUnits="userSpaceOnUse" x1="64.895" y1="60.752" x2="77.262" y2="60.752" gradientTransform="rotate(-90 472.207 206.115)"><stop offset="0" stop-color="#feca36"/><stop offset=".998" stop-color="#bc8210"/></linearGradient><path d="M331.1 601.1c-.1 1.4-.2 2.9-.2 4.3v.4c-.5.2-1.3.6-2.2 1.2-.7.4-1.4 1-2.2 1.8-1.2 1.1-2.4 2.6-3.6 4.6-.2-1.2-.3-2.3-.4-3.5.5-.6 1.3-1.7 2.3-2.9.6-.7 1.2-1.4 1.9-2.1 1.5-1.5 3-3 4.4-3.8z" fill="url(#SVGID_82_)"/></g></g></g></g></svg>