<svg xmlns="http://www.w3.org/2000/svg" width="32.198" height="20.034" viewBox="0 0 32.198 20.034"><defs><style>.a{fill:#aa80ff;}</style></defs><path class="a" d="M29.077,84.082H21.01v-2h8.068v2ZM15.639,92.3a5.3,5.3,0,0,1,.781,2.935,5.844,5.844,0,0,1-.89,3.2A5.543,5.543,0,0,1,14.112,100a5.477,5.477,0,0,1-2.261,1.006,13.979,13.979,0,0,1-2.829.271H0V81.247H9.675c2.439.04,4.168.746,5.189,2.134a5.1,5.1,0,0,1,.916,3.059,4.459,4.459,0,0,1-.926,2.949,4.723,4.723,0,0,1-1.525,1.14A4.448,4.448,0,0,1,15.639,92.3ZM4.62,89.145H8.86a4.017,4.017,0,0,0,2.118-.5,1.894,1.894,0,0,0,.813-1.761,1.793,1.793,0,0,0-1.076-1.848,7.568,7.568,0,0,0-2.365-.313H4.62Zm7.578,5.8A2.148,2.148,0,0,0,10.924,92.8a5.02,5.02,0,0,0-2-.34H4.62V97.8H8.854a4.7,4.7,0,0,0,2.029-.351A2.526,2.526,0,0,0,12.2,94.948Zm19.872-3.259a18.845,18.845,0,0,1,.124,2.849H21.746a3.43,3.43,0,0,0,1.5,3.028,3.778,3.778,0,0,0,2.068.539,2.914,2.914,0,0,0,2.853-1.643H32a4.664,4.664,0,0,1-1.39,2.594,6.971,6.971,0,0,1-5.4,2.1,7.833,7.833,0,0,1-5.055-1.766q-2.185-1.77-2.188-5.749a7.77,7.77,0,0,1,1.975-5.721,6.921,6.921,0,0,1,5.134-1.99,8.182,8.182,0,0,1,3.375.671,5.812,5.812,0,0,1,2.477,2.125A7.083,7.083,0,0,1,32.071,91.689Zm-3.77.374a3.134,3.134,0,0,0-1-2.268,3.27,3.27,0,0,0-2.224-.777,2.975,2.975,0,0,0-2.239.823,3.868,3.868,0,0,0-1,2.222H28.3Z" transform="translate(0 -81.247)"/></svg>