<svg xmlns="http://www.w3.org/2000/svg" viewBox="0 0 33.1 21.1"><path d="M28.7 5.1h-7.5V3.3h7.5v1.8zm-12.6 7.7c.5.8.8 1.8.7 2.7 0 1.1-.3 2.1-.8 3-.3.6-.8 1.1-1.3 1.5-.6.5-1.3.8-2.1.9-.9.2-1.8.3-2.6.3H1.6V2.5h9c2.3 0 3.9.7 4.8 2 .6.8.9 1.8.9 2.8 0 1-.3 2-.9 2.7-.4.4-.9.8-1.4 1.1.9.3 1.6.9 2.1 1.7zm-10.2-3h3.9c.7 0 1.4-.1 2-.5.5-.4.8-1 .8-1.6.1-.7-.3-1.4-1-1.7-.7-.2-1.5-.3-2.2-.3H5.9v4.1zm7 5.4c.1-.9-.4-1.7-1.2-2-.6-.2-1.2-.3-1.9-.3h-4v5h3.9c.6 0 1.3-.1 1.9-.3 1-.5 1.4-1.4 1.3-2.4zm18.5-3c.1.9.1 1.8.1 2.7h-9.7c-.1 1.1.5 2.2 1.4 2.8.6.3 1.2.5 1.9.5 1.1.1 2.2-.5 2.7-1.5h3.6c-.2.9-.6 1.8-1.3 2.4-1.3 1.4-3.1 2.1-5 2-1.7 0-3.4-.6-4.7-1.6-1.4-1.1-2-2.9-2-5.4-.1-2 .5-3.9 1.8-5.3 1.3-1.3 3-1.9 4.8-1.9 1.1 0 2.2.2 3.1.6.9.4 1.7 1.1 2.3 2 .5.8.9 1.7 1 2.7zm-3.5.4c0-.8-.3-1.6-.9-2.1-.6-.5-1.3-.7-2.1-.7s-1.5.2-2.1.8c-.5.6-.9 1.3-.9 2.1 0-.1 6-.1 6-.1z" fill="#aa80ff"/></svg>