<svg xmlns="http://www.w3.org/2000/svg" xmlns:xlink="http://www.w3.org/1999/xlink" width="204" height="204" viewBox="0 0 204 204"><defs><style>.a{fill:url(#a);}</style><linearGradient id="a" x1="0.5" x2="0.5" y2="1" gradientUnits="objectBoundingBox"><stop offset="0" stop-color="#ffd039"/><stop offset="1" stop-color="#b97200"/></linearGradient></defs><path class="a" d="M102,204a102.751,102.751,0,0,1-20.557-2.072A101.44,101.44,0,0,1,44.971,186.58,102.3,102.3,0,0,1,8.016,141.7a101.489,101.489,0,0,1-5.943-19.146,103,103,0,0,1,0-41.113A101.441,101.441,0,0,1,17.42,44.971,102.3,102.3,0,0,1,62.3,8.016,101.488,101.488,0,0,1,81.443,2.072a103,103,0,0,1,41.113,0A101.441,101.441,0,0,1,159.029,17.42,102.3,102.3,0,0,1,195.984,62.3a101.487,101.487,0,0,1,5.943,19.146,103,103,0,0,1,0,41.113,101.44,101.44,0,0,1-15.348,36.473A102.3,102.3,0,0,1,141.7,195.984a101.488,101.488,0,0,1-19.146,5.943A102.75,102.75,0,0,1,102,204Zm0-184.364a82.974,82.974,0,0,0-16.6,1.673A81.913,81.913,0,0,0,55.949,33.7,82.6,82.6,0,0,0,26.108,69.94a81.948,81.948,0,0,0-4.8,15.461,83.168,83.168,0,0,0,0,33.2A81.913,81.913,0,0,0,33.7,148.051,82.6,82.6,0,0,0,69.94,177.892a81.949,81.949,0,0,0,15.461,4.8,83.17,83.17,0,0,0,33.2,0A81.913,81.913,0,0,0,148.051,170.3a82.6,82.6,0,0,0,29.841-36.238,81.949,81.949,0,0,0,4.8-15.461,83.17,83.17,0,0,0,0-33.2A81.913,81.913,0,0,0,170.3,55.949,82.6,82.6,0,0,0,134.06,26.108a81.948,81.948,0,0,0-15.461-4.8A82.974,82.974,0,0,0,102,19.636Z"/></svg>