<svg xmlns="http://www.w3.org/2000/svg" xmlns:xlink="http://www.w3.org/1999/xlink" width="440" height="440" viewBox="0 0 440 440"><defs><style>.a{fill:url(#a);}</style><linearGradient id="a" x1="0.5" x2="0.5" y2="1" gradientUnits="objectBoundingBox"><stop offset="0" stop-color="#96f"/><stop offset="1" stop-color="#617fdf"/></linearGradient></defs><path class="a" d="M220-1540a221.622,221.622,0,0,1-44.337-4.47,218.9,218.9,0,0,1-41.3-12.819A220.024,220.024,0,0,1,97-1577.573a221.591,221.591,0,0,1-32.559-26.864A221.583,221.583,0,0,1,37.573-1637a220.02,220.02,0,0,1-20.284-37.37,218.9,218.9,0,0,1-12.819-41.3A221.623,221.623,0,0,1,0-1760a221.621,221.621,0,0,1,4.47-44.337,218.892,218.892,0,0,1,12.819-41.3A220.015,220.015,0,0,1,37.573-1883a221.576,221.576,0,0,1,26.864-32.559A221.576,221.576,0,0,1,97-1942.427a220.02,220.02,0,0,1,37.37-20.284,218.894,218.894,0,0,1,41.3-12.819A221.622,221.622,0,0,1,220-1980a221.625,221.625,0,0,1,44.338,4.47,218.9,218.9,0,0,1,41.3,12.819A220.019,220.019,0,0,1,343-1942.427a221.59,221.59,0,0,1,32.559,26.864A221.572,221.572,0,0,1,402.427-1883a220.022,220.022,0,0,1,20.284,37.37,218.892,218.892,0,0,1,12.819,41.3A221.622,221.622,0,0,1,440-1760a221.624,221.624,0,0,1-4.47,44.338,218.9,218.9,0,0,1-12.819,41.3A220.028,220.028,0,0,1,402.427-1637a221.574,221.574,0,0,1-26.864,32.56A221.592,221.592,0,0,1,343-1577.573a220.024,220.024,0,0,1-37.37,20.284,218.9,218.9,0,0,1-41.3,12.819A221.625,221.625,0,0,1,220-1540Zm0-367a148.081,148.081,0,0,0-29.625,2.987,146.26,146.26,0,0,0-27.593,8.566,147,147,0,0,0-24.97,13.553,148.065,148.065,0,0,0-21.756,17.95,148.066,148.066,0,0,0-17.95,21.755,147.012,147.012,0,0,0-13.553,24.97,146.259,146.259,0,0,0-8.565,27.593A148.084,148.084,0,0,0,73-1760a148.085,148.085,0,0,0,2.987,29.626,146.257,146.257,0,0,0,8.565,27.594,147.008,147.008,0,0,0,13.553,24.97,148.057,148.057,0,0,0,17.95,21.756,148.062,148.062,0,0,0,21.756,17.95,146.993,146.993,0,0,0,24.97,13.553,146.253,146.253,0,0,0,27.593,8.566A148.082,148.082,0,0,0,220-1613a148.086,148.086,0,0,0,29.626-2.987,146.253,146.253,0,0,0,27.594-8.566,147,147,0,0,0,24.97-13.553,148.061,148.061,0,0,0,21.756-17.95,148.054,148.054,0,0,0,17.95-21.756,147.01,147.01,0,0,0,13.553-24.97,146.258,146.258,0,0,0,8.565-27.594A148.085,148.085,0,0,0,367-1760a148.084,148.084,0,0,0-2.987-29.625,146.26,146.26,0,0,0-8.565-27.593,147.021,147.021,0,0,0-13.553-24.97,148.057,148.057,0,0,0-17.95-21.755,148.061,148.061,0,0,0-21.756-17.95,147,147,0,0,0-24.97-13.553,146.265,146.265,0,0,0-27.594-8.566A148.084,148.084,0,0,0,220-1907Z" transform="translate(0 1980)"/></svg>