<svg version="1.1" id="Calque_3" xmlns="http://www.w3.org/2000/svg" x="0" y="0" viewBox="0 0 33.1 21.1" xml:space="preserve"><style>.st0{fill:#aa80ff}</style><path class="st0" d="M12.6 7.5c-.4-.5-.9-.8-1.4-1.1-.6-.2-1.2-.4-1.9-.4s-1.4.1-2 .4c-.8.4-1.3.8-1.8 1.3-.4.5-.8 1.1-1 1.8s-.4 1.5-.4 2.3c0 .8.1 1.6.4 2.3.3.7.6 1.3 1.1 1.8.5.5 1 .9 1.6 1.2.6.3 1.3.4 2 .4.8 0 1.5-.2 2.1-.5.6-.3 1.1-.8 1.5-1.4L16 18c-.8 1.1-1.7 1.8-2.9 2.3-1.2.5-2.3.8-3.6.8-1.4 0-2.7-.2-3.8-.7-1.2-.4-2.2-1.1-3-1.9-.9-.8-1.5-1.8-2-2.9-.5-1.1-.7-2.4-.7-3.8s.2-2.7.7-3.9c.5-1.2 1.1-2.1 2-2.9.9-.8 1.9-1.4 3-1.9s2.4-.7 3.8-.7c.5 0 1 0 1.6.1.5.1 1.1.2 1.6.4s1 .5 1.5.8c.5.3.9.7 1.3 1.2l-2.9 2.6zM17 6.8h4.7l3.6 9.6h.1l3.3-9.6h4.4L27.5 21h-4.6L17 6.8z"/></svg>