<?xml version="1.0" encoding="utf-8"?>
<!-- Generator: Adobe Illustrator 23.0.4, SVG Export Plug-In . SVG Version: 6.00 Build 0)  -->
<svg version="1.1" id="Calque_1" xmlns="http://www.w3.org/2000/svg" xmlns:xlink="http://www.w3.org/1999/xlink" x="0px" y="0px"
	 viewBox="0 0 36 43" style="enable-background:new 0 0 36 43;" xml:space="preserve">
<style type="text/css">
	.st0{enable-background:new    ;}
	.st1{fill:#AA80FF;}
</style>
<g class="st0">
	<path class="st1" d="M16.4,13l-2,2.4c-1.2-1-2.4-1.5-3.8-1.5c-2.9,0-5.1,2.1-5.1,7.7c0,5.5,2.2,7.7,5.1,7.7c1.8,0,3-0.8,4.2-1.7
		l1.9,2.4c-1.3,1.3-3.4,2.5-6.2,2.5c-5.4,0-9.1-3.8-9.1-10.9c0-7,4-10.8,9-10.8C13,10.8,14.7,11.6,16.4,13z"/>
	<path class="st1" d="M23.5,32l-6.3-20.7h4.3l4.5,17.2l4.4-17.2h4L28.2,32H23.5z"/>
</g>
</svg>
