<svg xmlns="http://www.w3.org/2000/svg" width="20.966" height="20.034" viewBox="0 0 20.966 20.034"><defs><style>.a{fill:#aa80ff;}</style></defs><path class="a" d="M20.966,21.841v7.751H16.472V22.36c0-1.817-.65-3.057-2.277-3.057a2.459,2.459,0,0,0-2.306,1.644,3.075,3.075,0,0,0-.149,1.1v7.549h-4.5s.061-12.249,0-13.518h4.495V17.99c-.009.014-.021.03-.03.044h.03V17.99a4.463,4.463,0,0,1,4.051-2.234C18.749,15.757,20.966,17.689,20.966,21.841ZM2.544,9.558a2.342,2.342,0,1,0-.06,4.672h.03a2.343,2.343,0,1,0,.03-4.672ZM.267,29.592H4.76V16.074H.267Z" transform="translate(0 -9.558)"/></svg>