<svg xmlns="http://www.w3.org/2000/svg" width="265.721" height="196.835" viewBox="0 0 265.721 196.835"><defs><style>.a{fill:#1f536d;stroke:#fff;stroke-miterlimit:10;stroke-width:0.96px;}.b{fill:#fff;}.c{fill:#069ca1;}.d{fill:#079ca1;}</style></defs><g transform="translate(-6.9 -11.22)"><ellipse class="a" cx="97.937" cy="97.937" rx="97.937" ry="97.937" transform="translate(47.138 11.7)"/><g transform="translate(66.118 65.538)"><path class="b" d="M42.791,51.5c.759.759,1.518,1.518.759,3.037a1.633,1.633,0,0,1-1.518,1.518c-1.518.759-4.555,1.518-5.314-.759,0,4.555,0,8.351,1.518,12.906A83.656,83.656,0,0,1,24.57,69.724,84.089,84.089,0,0,0,26.088,55.3c-.759.759-1.518.759-2.278,1.518-.759,0-2.278,0-2.278-.759-.759-.759-.759-2.278-.759-3.037a3.944,3.944,0,0,1-3.037,1.518,2.424,2.424,0,0,1-2.278-2.278c0-.759.759-2.278,1.518-2.278-.759,0-2.278-.759-2.278-1.518s1.518-1.518,2.278-2.278l2.278-2.278c-.759,0-.759.759-1.518.759s-1.518,0-1.518-.759c-.759-.759.759-1.518,1.518-2.278s1.518-1.518,1.518-2.278a2.309,2.309,0,0,1-3.037,0c-.759-.759-1.518-2.278-.759-3.037a.744.744,0,0,1,.759-.759c.759-.759,1.518-.759,1.518,0a2.651,2.651,0,0,1,1.518.759,1.455,1.455,0,0,1-.759-2.278,1.455,1.455,0,0,1,2.278-.759c-.759-.759-.759-.759-.759-1.518s0-1.518.759-1.518c.759-.759,1.518,0,2.278.759.759-1.518.759-3.8,1.518-6.074.759-1.518,1.518-3.8,3.037-5.314l-.759.759.759-.759a.744.744,0,0,1-.759.759.744.744,0,0,0,.759-.759c-.759.759-.759,1.518-1.518,1.518h.759c-1.518,1.518-1.518,3.8-2.278,6.074a6.242,6.242,0,0,1,4.555-3.037l-.759-.759v-.759h.759a3.266,3.266,0,0,1,3.037,3.037c0-1.518,0-3.037.759-3.8a9.629,9.629,0,0,1,.759,4.555c0-.759,2.278-.759,3.037-.759a9.629,9.629,0,0,1,4.555.759h.759V24.172a2.651,2.651,0,0,0-1.518-.759.744.744,0,0,0,.759-.759c0-.759,0-1.518-.759-1.518a.744.744,0,0,0,.759-.759h.759l.759,3.037v9.87c.759,0,1.518-.759,2.278-.759v.759a3.266,3.266,0,0,1-3.037,3.037c1.518.759,1.518,3.037,1.518,4.555,0,.759.759,0,1.518,0s.759-.759,1.518-.759c2.278.759,0,3.8-.759,3.8m97.937-15.184s-1.518-7.592-.759-7.592c.759-.759,4.555,2.278,4.555,2.278a7.853,7.853,0,0,1,3.037-.759h.759s-.759-1.518,0-1.518c0,0,.759-.759.759,0a.744.744,0,0,0,.759.759l.759-.759a.744.744,0,0,1,.759.759.744.744,0,0,0,.759.759h1.518s.759-3.037,2.278-3.8,3.037,5.314,3.037,5.314,0,.759.759,0,.759-.759,1.518-.759.759.759.759,1.518-1.518,1.518-1.518,1.518,2.278.759,2.278,1.518.759,2.278,0,2.278l-.759.759a3.32,3.32,0,0,0,2.278,3.037c2.278.759,1.518.759,1.518,1.518s-2.278,1.518-2.278,1.518,3.8,1.518,3.8,2.278,0,3.037-2.278,3.8c-3.037.759-3.8-.759-3.8-.759s-1.518-1.518-2.278-.759,0,3.037-1.518,3.037a2.013,2.013,0,0,1-2.278-2.278h0c0,.759,0,1.518-2.278,1.518,0,0,6.833,9.87,12.906,10.629l3.037-.759-.759.759h.759s0,.759-1.518.759h1.518a3.325,3.325,0,0,1-2.278.759,1.487,1.487,0,0,1-1.518,1.518V56.058s-5.314-.759-11.388-6.833a65.763,65.763,0,0,1,1.518,7.592v6.074a13.247,13.247,0,0,1-10.629-2.278c0-.759.759-1.518.759-2.278.759-1.518.759-3.037.759-5.314s-.759-3.8-.759-6.074c0,0-11.388,11.388-12.906,11.388h-.759v1.518l-.759-.759s-1.518.759-2.278,0,.759-.759.759-.759-1.518,0-1.518-.759,1.518,0,1.518,0h.759l-.759-.759h1.518s1.518,1.518,7.592-4.555l1.518-1.518,5.314-6.074h.759a.759.759,0,1,0-1.518,0l-.759-1.518s-.759,3.037-3.037,2.278a5.3,5.3,0,0,1-3.037-1.518V41.633s-3.037.759-4.555-1.518,3.8-3.8,3.8-3.8,2.278,0,2.278-.759V33.282s-2.278,0-2.278-.759V31l3.8-2.278Z" transform="translate(-14.7 -18.791)"/></g><path class="b" d="M114.707,35.188l3.037-6.074,25.813-.759,2.278,3.8,8.351-3.8L159.5,27.6l12.147,3.8,3.037,3.8,10.629-6.833,7.592-2.278,9.11,3.8,9.87-4.555,9.87,4.555,8.351-3.8h6.833l4.555,3.037,9.87-5.314,18.221,3.037,3.037,3.8-4.555,9.11L271.1,52.65l-3.8,9.11-6.833,6.833H238.457l-9.11,2.278-7.592-2.278L211.126,71.63l-4.555-3.8-7.592,1.518-4.555.759-5.314-1.518-14.425,5.314-3.037-3.8-3.8,1.518-7.592.759-3.8-2.278-8.351,2.278h-9.87l-5.314,3.037-22.017-2.278-4.555-2.278-12.147.759L82.061,77.7l-22.017-.759L48.656,78.463,35.75,77.7,22.084,79.222H6.9l.759-15.943,3.037-9.11.759-18.221V33.67l15.184-.759.759,8.351,9.11-.759V35.188l17.462-3.037,9.87,1.518.759,2.278,8.351-4.555L85.1,30.633l11.388,4.555" transform="translate(0 79.764)"/><g transform="translate(85.098 146.079)"><path class="b" d="M18.918,38.051,17.4,81.326l3.8,3.8H35.621l7.592-3.037,9.87-6.833,4.555-15.184v-3.8l8.351-1.518,2.278.759L66.748,79.048l2.278,5.314H78.9l3.8-3.8.759-10.629h7.592l-.759,9.87,6.074,2.278,8.351-1.518,3.037,2.278,28.85-1.518,3.8-3.037.759-13.666-2.278-2.278-12.147.759L128.244,33.5l-2.278-3.8-12.147.759L108.5,35.014l-7.592-2.278-9.87-1.518-5.314.759L75.1,36.533l-3.8,4.555-2.278-6.833h-9.11l-3.8,6.074L50.046,33.5l-16.7.759L18.918,36.533" transform="translate(-15.882 -27.422)"/><path class="b" d="M18.718,36.233l1.518,3.8,7.592-3.037,19.739-.759,9.11,8.351,6.074-8.351h7.592V46.1l9.11-7.592,9.11-5.314,21.258,3.8,7.592-3.8h9.11l-2.278-3.8L17.2,35.474l1.518.759" transform="translate(-17.2 -29.4)"/></g><g transform="translate(88.894 64.507)"><path class="b" d="M68.448,19.752a10.5,10.5,0,0,1,5.314,1.518l-1.518.759s-.759,0,0,.759,3.037,3.037,3.037,3.8-1.518,2.278-1.518,2.278h.759L73,29.622h.759c0,.759-1.518,3.037-1.518,3.8s-1.518.759-1.518.759c-1.518,3.8-4.555,3.8-4.555,3.8a1.663,1.663,0,0,0,.759,2.278,7.666,7.666,0,0,1,3.8,1.518c2.278,1.518,3.8,7.592,3.8,7.592h-.759L75.281,52.4c.759,1.518.759,5.314.759,5.314v3.8l-.759.759V56.953c0-3.037-3.8-5.314-3.8-5.314H69.967L69.207,65.3c-.759.759-9.87.759-11.388.759s0-4.555,0-4.555C60.1,58.472,60.1,50.88,60.1,50.88l-2.278.759H57.06c-1.518,1.518-8.351,3.037-8.351,3.037l.759-1.518a35.746,35.746,0,0,0,3.8-1.518,5.669,5.669,0,0,0,2.278-2.278s3.8-4.555,3.8-5.314,3.8-1.518,3.8-1.518V41.01S56.3,39.491,55.542,35.7V31.14l-.759.759V30.381l-1.518-.759.759-.759h-.759l1.518-.759v-.759a13.358,13.358,0,0,1,.759-4.555,5.185,5.185,0,0,1,3.037-3.037v1.518a30.27,30.27,0,0,1,3.037-2.278s1.518-.759,1.518,0a2.651,2.651,0,0,1-.759,1.518h.759a20.032,20.032,0,0,1,5.314-.759M28.21,40.251V37.214h.759c.759,0,1.518,3.037,1.518,3.037a5.258,5.258,0,0,1,3.8,0L35.8,37.214a18.893,18.893,0,0,1,2.278,5.314L39.6,44.806c0-.759,1.518-2.278,2.278-1.518,1.518.759,0,5.314,0,6.074s-.759,2.278,0,3.8h1.518c0,1.518-2.278,3.8-3.037,4.555-1.518,1.518-2.278,3.8-3.8,5.314v1.518c0,2.278.759,4.555.759,6.833H25.174c.759-.759.759-2.278.759-3.8L20.618,72.9c-.759-.759-.759-2.278-1.518-3.037A20.129,20.129,0,0,0,22.9,65.3l2.278-2.278c.759-1.518.759-1.518,0-2.278-6.833-5.314-5.314-17.462,3.037-20.5Zm59.977-5.314a7.565,7.565,0,0,0-3.037.759,21.843,21.843,0,0,0-3.037,4.555v.759c0-.759.759,0,.759,0v3.037c0,1.518.759,3.8,1.518,3.037,0,0,.759,0,.759,1.518s2.278,4.555,3.8,4.555h1.518v1.518c-.759,0-2.278,0-3.037.759-2.278,2.278-4.555,3.8-6.074,6.833a7.5,7.5,0,0,0-1.518,4.555V69.86c.759.759,2.278-.759,2.278-.759s-.759-2.278,0-3.037c0-1.518,3.037-5.314,4.555-6.833s2.278-.759,2.278-.759v9.11l9.11,3.037v-3.8L97.3,65.3v-.759l-.759-5.314s3.8,3.037,4.555,5.314a10.16,10.16,0,0,1,.759,3.8h1.518a12.677,12.677,0,0,0-2.278-6.833c-.759-1.518-2.278-2.278-3.037-3.8-.759-.759-1.518-2.278-3.037-2.278a.744.744,0,0,1-.759-.759v-.759c.759,0,2.278,0,3.037-.759,1.518-.759,3.8-3.037,3.8-4.555V47.084a.744.744,0,0,1,.759-.759V44.047l.759,1.518c.759,0,.759-1.518.759-2.278V41.769c0-.759-.759-1.518-.759-2.278l2.278,2.278a10.16,10.16,0,0,0-.759-3.8l-3.037-1.518h1.518s-.759-3.8-6.833-5.314-7.592,3.8-7.592,3.8Z" transform="translate(-8.471 -18.656)"/><path class="c" d="M38.2,33.9c9.87,0,15.184,6.833,14.425,21.258S41.995,77.171,36.68,78.689c-3.037,1.518-7.592,1.518-11.388,1.518H19.218L17.7,78.689l1.518-22.776c0-3.8,2.278-21.258,2.278-21.258A68.88,68.88,0,0,1,36.68,33.137H38.2Zm3.8,21.258V49.08a6.249,6.249,0,0,0-4.555-5.314H34.4a9.212,9.212,0,0,0-3.8.759L29.088,71.856h2.278a9.23,9.23,0,0,0,9.11-6.833c.759-4.555.759-7.592,1.518-9.87ZM89.065,63.5H81.473c-.759,0-1.518,0-1.518,1.518V68.06c0,1.518,0,4.555-.759,6.074,0,.759-.759,1.518-.759,2.278A3.944,3.944,0,0,1,75.4,77.93H70.085c-1.518,0-1.518,0-1.518-1.518V65.783l1.518-19.739v-.759c.759-2.278.759-3.8,1.518-6.074.759-1.518,1.518-3.037,3.037-3.8a10.48,10.48,0,0,1,3.037-2.278l4.555-2.278c1.518,0,2.278-.759,3.8-.759h4.555c2.278,0,3.8.759,6.074.759,2.278.759,4.555,1.518,6.074,3.037,0,.759.759.759.759,1.518a27.293,27.293,0,0,1,1.518,8.351v9.11a14.822,14.822,0,0,1-.759,5.314v3.8c0,1.518-.759,3.037-.759,5.314s-.759,3.8-.759,5.314v.759a3.266,3.266,0,0,1-3.037,3.037c-1.518,0-3.037.759-4.555.759H94.38c-.759,0-2.278-.759-3.037-.759V74.893L92.1,63.5Zm3.8-12.906V45.284c0-1.518,0-3.037-.759-3.8,0-.759-.759-1.518-2.278-1.518H88.306a8.255,8.255,0,0,0-3.8.759c-.759,0-1.518.759-2.278,1.518L79.955,46.8c0,1.518-.759,3.037-.759,5.314v3.037h7.592c1.518,0,3.037,0,3.8-.759,2.278-.759,2.278-2.278,2.278-3.8ZM120.193,63.5h15.184a1.633,1.633,0,0,1,1.518,1.518v3.8c0,.759-.759,3.037-.759,3.8v.759a2.651,2.651,0,0,1-.759,1.518c-1.518.759-2.278,1.518-3.8,1.518H116.4c-1.518,0-3.037,0-3.8.759h-3.037c-.759,0-.759,0-.759-.759V60.468l.759-5.314c0-1.518,0-3.8.759-5.314l.759-9.87V33.137c0-.759,0-1.518,1.518-2.278h1.518a25.828,25.828,0,0,0,7.592-.759h1.518c.759,0,.759,0,.759,1.518v5.314c0,2.278-.759,5.314-.759,7.592l-.759,7.592v-.759l-2.278,12.147Z" transform="translate(-17.7 56.787)"/><path class="d" d="M27.42,43.506a5.876,5.876,0,0,1-2.278-.759,2.651,2.651,0,0,0-1.518-.759,1.663,1.663,0,0,1-.759-2.278l1.518-1.518,4.555-6.833L29.7,30.6h.759l1.518.759,1.518.759,1.518.759-.759,3.037-2.278,3.037-3.037,5.314-1.518-.759Z" transform="translate(15.095 60.083)"/><path class="b" d="M23.278,25.059l3.8,1.518-3.8,3.037L21,25.818,23.278,24.3h.759" transform="translate(4.054 18.553)"/></g><g transform="translate(11.455 106.601)"><path class="c" d="M18.129,56.227H30.276c.759,0,.759,0,.759.759v3.8c0,.759-.759,2.278-.759,3.037s-.759.759-.759,1.518c-.759.759-1.518.759-3.037.759H13.574c-.759,0-2.278,0-3.037.759H8.259c-.759,0-.759,0-.759-.759V52.431l.759-4.555a9.629,9.629,0,0,1,.759-4.555l.759-7.592V30.414c0-.759,0-1.518,1.518-1.518h1.518a16.716,16.716,0,0,0,6.074-.759h1.518c.759,0,.759,0,.759.759v4.555c0,2.278-.759,4.555-.759,6.074L18.888,45.6v-.759l-.759,11.388ZM36.35,30.414c0-.759,0-.759.759-.759a7.647,7.647,0,0,0,2.278-.759l12.906-2.278h5.314s.759,0,.759,1.518v5.314c0,.759,0,.759-.759.759s-4.555.759-4.555.759l-5.314.759a2.651,2.651,0,0,0-.759,1.518v5.314h7.592c.759,0,1.518,0,1.518,1.518v5.314a.744.744,0,0,1-.759.759H45.46L44.7,54.709v1.518h1.518l6.074-.759h.759c1.518,0,3.037,0,3.037.759v1.518l.759,5.314v.759a1.633,1.633,0,0,1-1.518,1.518h-3.8L40.146,66.1H34.831a.744.744,0,0,1-.759-.759V53.191l.759-7.592s.759-7.592.759-9.87V31.174l.759-.759Zm48.589-3.8a31.92,31.92,0,0,1,3.8,1.518l-.759.759c0,.759,0,.759-.759,1.518,0,.759,0,.759-.759,1.518L85.7,33.451l-.759,2.278L83.42,34.97H76.588a2.808,2.808,0,0,0-2.278,1.518v.759c0,.759,1.518,1.518,1.518,1.518s3.8,1.518,5.314,2.278,4.555,3.037,6.074,3.8c.759.759.759,2.278.759,4.555v3.037a14.209,14.209,0,0,1-3.037,6.833A44.961,44.961,0,0,1,80.384,62.3l-4.555,1.518H62.163l.759-9.11.759-.759h.759l1.518.759,6.074.759h3.8a4.58,4.58,0,0,0,3.8-3.037v-.759c0-1.518-.759-1.518-1.518-2.278l-1.518-.759a2.789,2.789,0,0,1-2.278-.759c-.759,0-2.278-.759-3.037-.759a7.853,7.853,0,0,1-3.037-.759c-2.278-1.518-3.037-6.833-3.037-9.87v-.759c0-3.037,2.278-6.833,2.278-6.074l.759-.759A.744.744,0,0,0,69,28.137a10.921,10.921,0,0,0,2.278-1.518A27.293,27.293,0,0,1,79.624,25.1c.759,0,4.555.759,5.314,1.518ZM88.735,28.137Zm45.552,21.258c1.518.759,1.518.759,2.278,2.278v1.518a9.629,9.629,0,0,1-.759,4.555v1.518a.744.744,0,0,1-.759.759,2.651,2.651,0,0,0-1.518.759c-.759,0-.759,0-1.518.759s0,0-.759,0H113.789a5.756,5.756,0,0,1-3.037-1.518V56.987a6.844,6.844,0,0,1,.759-3.8,5.756,5.756,0,0,1,1.518-3.037h.759l.759-.759.759-.759h.759c0-.759.759-.759,1.518-1.518l3.037-2.278.759-.759.759-.759c.759-.759,1.518-2.278,2.278-3.037l.759-.759,1.518-1.518.759-1.518c-.759-.759-2.278-.759-3.037-.759h-6.074a5.756,5.756,0,0,1-3.037-1.518c0-.759-.759-1.518,0-1.518s0-1.518.759-2.278l.759-2.278a1.633,1.633,0,0,1,1.518-1.518h2.278c.759,0,2.278,0,3.037-.759h14.425c.759,0,2.278.759,2.278,1.518v3.8a5.756,5.756,0,0,1-1.518,3.037l-3.037,6.074c0,.759-.759,1.518-1.518,2.278L123.658,53.191l10.629-3.8Z" transform="translate(-7.5 -18.267)"/><path class="c" d="M40.743,55.327H34.67c-.759,0-.759,0-1.518,1.518v3.037c0,.759,0,3.8-.759,4.555,0,.759,0,1.518-.759,1.518,0,.759-1.518,1.518-2.278,1.518H26.318c-.759,0-1.518,0-1.518-1.518V57.605l.759-16.7v-.759a10.791,10.791,0,0,1,1.518-4.555c.759-.759.759-2.278,2.278-3.037.759-.759,1.518-.759,2.278-1.518a12.826,12.826,0,0,1,3.8-1.518,5.739,5.739,0,0,0,3.037-.759h3.8c1.518,0,3.8.759,4.555.759,1.518.759,3.8.759,4.555,3.037a2.651,2.651,0,0,1,.759,1.518c.759,2.278,1.518,4.555.759,6.833v6.833c0,1.518,0,3.037-.759,3.8v3.037c0,1.518,0,3.037-.759,3.8,0,1.518-.759,3.037-.759,4.555v.759a2.013,2.013,0,0,1-2.278,2.278,6.844,6.844,0,0,0-3.8.759H43.78a2.789,2.789,0,0,1-2.278-.759V65.2l.759-9.11-1.518-.759Zm3.8-11.388v-3.8a8.255,8.255,0,0,0-.759-3.8c0-.759-.759-.759-1.518-.759H41.5a5.739,5.739,0,0,0-3.037.759c-.759,0-1.518.759-2.278,1.518a5.8,5.8,0,0,0-1.518,3.8c0,1.518-.759,3.037-.759,3.8v2.278h6.074c.759,0,2.278,0,3.037-.759C44.539,46.217,44.539,45.458,44.539,43.939Zm22.776,20.5c-.759,0-.759.759-1.518.759h-.759l-4.555.759H58.2c-.759,0-.759-.759-.759-1.518s-.759-2.278,0-3.8v-9.11c0-3.037.759-5.314.759-8.351,0-.759.759-.759.759-1.518a25.657,25.657,0,0,1,4.555-9.11c.759-.759,1.518-1.518,1.518-2.278a12.192,12.192,0,0,1,8.351-3.8h2.278c3.037.759,5.314,1.518,7.592,3.8l.759.759.759.759,2.278-2.278C88.573,28,89.332,28,90.851,27.237h.759c.759,0,.759,0,1.518-.759h3.037l2.278.759c1.518,0,3.037,1.518,3.8,3.8a21.016,21.016,0,0,1,2.278,9.87v6.833c-.759,3.8-.759,6.833-1.518,10.629v1.518c0,1.518-.759,3.037-2.278,3.037s-3.8.759-5.314.759h-.759a2.651,2.651,0,0,1-1.518-.759l.759-9.11V44.7a9.629,9.629,0,0,0-.759-4.555c-.759-.759-.759-1.518-1.518-1.518a.744.744,0,0,0-.759.759v.759c-.759.759-.759,2.278-1.518,3.8-1.518,1.518-1.518,6.074-2.278,9.11L86.3,57.605v3.8c0,1.518-1.518,3.037-2.278,3.037H82.5a6.844,6.844,0,0,0-3.8.759H76.426c-.759,0-.759-.759-.759-1.518l.759-9.11.759-3.8V44.7a9.629,9.629,0,0,0-.759-4.555c-.759-.759-1.518-2.278-3.037-2.278-.759,0-1.518,0-1.518.759a23.07,23.07,0,0,0-3.8,5.314,44.433,44.433,0,0,0-1.518,9.87v9.11l.759,1.518Zm44.034-39.479h2.278l4.555.759,1.518,1.518L117.423,61.4l-3.037,1.518h-7.592V62.16c0-.759.759-2.278.759-3.037l2.278-33.405,1.518-.759Zm35.683,0a31.923,31.923,0,0,1,3.8,1.518l-.759.759c0,.759,0,.759-.759,1.518s0,.759-.759,1.518l-.759,2.278-.759,2.278-1.518-.759h-6.833a2.808,2.808,0,0,0-2.278,1.518v.759c0,.759,1.518,1.518,1.518,1.518s3.8,1.518,5.314,2.278,4.555,3.037,6.074,3.8a4.255,4.255,0,0,1,.759,4.555v3.037c-.759,3.8-2.278,5.314-3.037,6.833a44.967,44.967,0,0,1-4.555,3.037l-4.555,1.518H124.256l.759-9.11.759-.759h.759l1.518.759,6.074.759h1.518a4.58,4.58,0,0,0,3.8-3.037v-.759c0-1.518-1.518-1.518-1.518-2.278l-1.518-.759a2.789,2.789,0,0,1-2.278-.759c-.759,0-2.278-.759-3.037-.759a7.853,7.853,0,0,1-3.037-.759c-2.278-1.518-3.037-6.833-3.037-9.87v-.759c0-3.037,2.278-6.833,2.278-6.074l.759-.759.759-.759a10.921,10.921,0,0,0,2.278-1.518A27.293,27.293,0,0,1,139.44,24.2c3.037,0,6.833.759,7.592.759ZM150.828,26.478Z" transform="translate(106.542 -24.2)"/></g><path class="b" d="M27.055,23.2H24.018s-1.518,0-1.518.759,1.518,0,3.037,0v.759c.759,0,.759-1.518.759-1.518h.759Z" transform="translate(102.836 75.809)"/></g></svg>