<svg xmlns="http://www.w3.org/2000/svg" width="188.277" height="181.112" viewBox="0 0 188.277 181.112"><defs><style>.a{fill:#f9b61c;}.b{fill:#ca364c;}</style></defs><g transform="translate(-143.684 286.574) rotate(-30)"><g transform="translate(295.977 -137.912)"><path class="a" d="M110.768-185.38c0-.642-.642-.962-1.283-.962H99.861l4.17-12.832a1.543,1.543,0,0,0-.642-1.925H93.765c-.642,0-.962.321-1.283.962l-6.1,19.569a1.543,1.543,0,0,0,.642,1.925H97.936l-5.775,18.607c0,.321,0,.642.321.642H92.8l17.644-24.061A5.644,5.644,0,0,0,110.768-185.38Z" transform="translate(-86.261 201.1)"/></g><path class="b" d="M320.747-28.241c-3.208-8.662,1.6-17.965,9.945-21.173a11.4,11.4,0,0,1,3.208-.642,19.412,19.412,0,0,1,15.4-22.777,18.961,18.961,0,0,1,18.286,6.416,2.061,2.061,0,0,0,2.887.321c.321-.321.321-.642.642-.962,10.266-25.985,6.1-51.008-15.4-59.67a48.7,48.7,0,0,0-51.008,8.983.976.976,0,0,1-1.283,0,48.7,48.7,0,0,0-51.008-8.983c-40.1,16.361-20.852,88.543,42.667,119.661a19.713,19.713,0,0,0,17.965,0c5.133-2.566,9.945-5.454,14.757-8.341a2.488,2.488,0,0,0,.642-3.208c-.321-.321-.321-.642-.642-.642A17.838,17.838,0,0,1,320.747-28.241Z" transform="translate(0 16.765)"/></g></svg>