<?xml version="1.0" encoding="utf-8"?>
<!-- Generator: Adobe Illustrator 23.1.0, SVG Export Plug-In . SVG Version: 6.00 Build 0)  -->
<svg version="1.1" id="Calque_1" xmlns="http://www.w3.org/2000/svg" xmlns:xlink="http://www.w3.org/1999/xlink" x="0px" y="0px"
	 viewBox="0 0 400 297.9" style="enable-background:new 0 0 400 297.9;" xml:space="preserve">
<style type="text/css">
	.st0{fill:#F7D6E0;}
	.st1{fill:#E5A5BD;}
	.st2{fill:#23151A;}
</style>
<g id="mascotte">
	<path class="st0" d="M367,124.4c6.5-14.1,6.4-31.8-4-49.3c-2.9-4.8-7-8.8-11.8-11.7c-9.7-5.7-19.5-8.3-28.6-8.3
		c-6,0-11.4-3.3-14.4-8.5C296.1,25.3,273.2,11,247,11c-13.7,0-26.5,3.9-37.3,10.7c-5.6,3.5-12.8,3.5-18.4,0
		C180.4,14.9,167.6,11,153.9,11c-26.2,0-49.1,14.3-61.2,35.6c-3,5.2-8.4,8.5-14.4,8.5c-9.4,0-19.5,2.7-29.4,8.7
		c-4.4,2.7-8.2,6.5-10.8,10.9c-10.1,16.8-10.6,33.8-5,47.7c3,7.2,1.1,15.5-4.5,20.8c-22.2,20.9-30.8,55.9-11.5,90.5
		c4.7,8.5,11.7,15.5,20.2,20.3c22.7,12.8,45.6,13.6,64.5,6.4c7.3-2.8,15.6-0.1,20.2,6.3c9.3,12.9,24.4,21.3,41.4,21.3
		c9.7,0,18.8-2.7,26.5-7.4c6.5-3.9,14.5-3.9,21,0c7.7,4.7,16.8,7.4,26.5,7.4c17.1,0,32.3-8.4,41.5-21.4c4.5-6.3,12.6-8.5,19.8-5.9
		c18.5,6.8,40.6,6,62.7-6.1c9.3-5.1,16.9-12.7,21.9-22c18.7-34.8,9.6-69.7-13-90.2C365.4,137.8,364.1,130.5,367,124.4z"/>
	<path class="st1" d="M200.4,24.7c0,0,34.7,88.8-0.5,252.9C199.9,277.6,255.7,135.9,200.4,24.7z"/>
	<g id="faussettes_1_">
		<g>
			<circle class="st1" cx="340.1" cy="206.8" r="5.4"/>
			<circle class="st1" cx="340.1" cy="191.4" r="5.4"/>
			<circle class="st1" cx="353.6" cy="199.1" r="5.4"/>
		</g>
		<g>
			<circle class="st1" cx="77.6" cy="186.4" r="6.1"/>
			<circle class="st1" cx="73.7" cy="169.2" r="6.1"/>
			<circle class="st1" cx="90.6" cy="174.4" r="6.1"/>
		</g>
	</g>
	<g id="yeux_1_">
		<circle class="st2" cx="170.8" cy="120.2" r="10.4"/>
		<circle class="st2" cx="262.5" cy="118.6" r="10.4"/>
	</g>
</g>
</svg>
