<?xml version="1.0" encoding="utf-8"?>
<!-- Generator: Adobe Illustrator 23.0.4, SVG Export Plug-In . SVG Version: 6.00 Build 0)  -->
<svg version="1.1" id="Calque_1" xmlns="http://www.w3.org/2000/svg" xmlns:xlink="http://www.w3.org/1999/xlink" x="0px" y="0px"
	 viewBox="0 0 120 17" style="enable-background:new 0 0 120 17;" xml:space="preserve">
<style type="text/css">
	.st0{enable-background:new    ;}
	.st1{fill:#FFFFFF;}
</style>
<g class="st0">
	<path class="st1" d="M3.5,8l1.8-3.5h1.7V15H5.2V8.2L4.4,9.9l-0.9,1.8L2.5,9.9L1.7,8.2V15H0V4.6h1.7L3.5,8z"/>
	<path class="st1" d="M14.3,4.5L17.2,15h-2l-0.4-1.4h-3.1L11.3,15h-2l3-10.5H14.3z M14.4,11.9L13.3,8l-1.1,3.9H14.4z"/>
	<path class="st1" d="M18.9,4.6h3c1.6,0,3,1.3,3,3v0.6c0,1.4-0.9,2.5-2.1,2.9l3,4h-2.1l-2.9-3.9h-0.1V15h-1.7V4.6z M20.6,6.2v3.3
		h1.3c0.7,0,1.3-0.6,1.3-1.4V7.5c0-0.7-0.6-1.3-1.3-1.3H20.6z"/>
	<path class="st1" d="M30,4.5h0.2c1.6,0,2.9,1.3,2.9,2.9V8h-1.7V7.4c0-0.7-0.6-1.2-1.2-1.2H30c-0.7,0-1.2,0.5-1.2,1.2v4.7
		c0,0.7,0.5,1.2,1.2,1.2h0.2c0.7,0,1.2-0.6,1.2-1.2v-0.9h-1.1V9.5h2.8v0.1v1.5v0.9c0,1.6-1.3,2.9-2.9,2.9H30c-1.6,0-2.9-1.3-2.9-2.9
		V7.4C27.1,5.8,28.4,4.5,30,4.5z"/>
	<path class="st1" d="M40.5,4.5L43.4,15h-2l-0.4-1.4h-3.1L37.5,15h-2l3-10.5H40.5z M40.6,11.9L39.5,8l-1.1,3.9H40.6z"/>
	<path class="st1" d="M51.2,4.5v7.6c0,1.6-1.3,2.9-2.9,2.9H48c-1.6,0-2.9-1.3-2.9-2.9V4.5h1.7v7.6c0,0.7,0.6,1.2,1.2,1.2h0.2
		c0.7,0,1.2-0.6,1.2-1.2V4.5H51.2z"/>
	<path class="st1" d="M59.6,4.6l-2.1,5.1l2.2,5.4h-1.8l-1.3-3.1L55.3,15h-1.8l2.2-5.4l-2.1-5.1h1.8l1.2,2.8l1.1-2.8H59.6z"/>
	<path class="st1" d="M71.5,8l1.8-3.5h1.7V15h-1.7V8.2l-0.8,1.6l-0.9,1.8l-0.9-1.8l-0.8-1.6V15H68V4.6h1.7L71.5,8z"/>
	<path class="st1" d="M82.9,4.5v1.7l-3.7,0v2.7l2.8,0v1.7l-2.8,0v2.7l3.6,0V15l-3.6,0h-1.9c0-3.5,0-7,0-10.4L82.9,4.5z"/>
	<path class="st1" d="M88.7,8l1.8-3.5h1.7V15h-1.7V8.2l-0.8,1.6l-0.9,1.8l-0.9-1.8l-0.8-1.6V15h-1.7V4.6h1.7L88.7,8z"/>
	<path class="st1" d="M94.4,4.5h1.9h1.8c1.5,0,2.8,1.1,2.8,2.4v0.7c0,0.6-0.3,1.2-0.8,1.6c0.7,0.6,1.1,1.3,1.1,2.1V12
		c0,1.6-1.5,3-3.4,3h-3.5v-0.1C94.4,11.5,94.4,8,94.4,4.5z M96.4,6.2v2.3h1.8c0.5,0,0.9-0.4,0.9-0.8V6.9c0-0.4-0.4-0.8-0.9-0.8H96.4
		z M97.9,10.1h-1.6v3.3h1.6c0.9,0,1.5-0.6,1.5-1.4v-0.6C99.5,10.7,98.8,10.1,97.9,10.1z"/>
	<path class="st1" d="M103.7,4.6h3c1.6,0,3,1.3,3,3v0.6c0,1.4-0.9,2.5-2.1,2.9l3,4h-2.1l-2.9-3.9h-0.2V15h-1.7V4.6z M105.4,6.2v3.3
		h1.3c0.7,0,1.3-0.6,1.3-1.4V7.5c0-0.7-0.6-1.3-1.3-1.3H105.4z"/>
	<path class="st1" d="M117.5,4.5v1.7l-3.7,0v2.7l2.8,0v1.7l-2.8,0v2.7l3.6,0V15l-3.6,0h-1.9c0-3.5,0-7,0-10.4L117.5,4.5z M115.8,1
		l1.3,0.8l-2.2,2.3l-0.7-0.4L115.8,1z"/>
</g>
</svg>
