<?xml version="1.0" encoding="utf-8"?>
<!-- Generator: Adobe Illustrator 23.0.4, SVG Export Plug-In . SVG Version: 6.00 Build 0)  -->
<svg version="1.1" id="Calque_1" xmlns="http://www.w3.org/2000/svg" xmlns:xlink="http://www.w3.org/1999/xlink" x="0px" y="0px"
	 viewBox="0 0 140.2 137.9" style="enable-background:new 0 0 140.2 137.9;" xml:space="preserve">
<style type="text/css">
	.st0{fill:#F9B61C;}
	.st1{fill:#CA364C;}
</style>
<g transform="translate(-143.684 286.574) rotate(-30)">
	<g transform="translate(295.977 -137.912)">
		<path class="st0" d="M18.6,0.4c0-0.6-0.6-1-1.3-1l-9.6,0l4.2-12.8c0.3-0.7,0-1.5-0.6-1.9l-9.6,0c-0.6,0-1,0.3-1.3,1L-5.8,5.2
			c-0.3,0.7,0,1.5,0.6,1.9l10.9,0L0,25.7c0,0.3,0,0.6,0.3,0.6h0.3L18.3,2.3C18.5,1.7,18.6,1.1,18.6,0.4z"/>
	</g>
	<path class="st1" d="M314.9-26.8c-3.2-8.7,1.6-18,9.9-21.2c1-0.4,2.1-0.6,3.2-0.6c-2.1-10.5,4.8-20.7,15.3-22.8c0,0,0,0,0.1,0
		c6.8-1.4,13.8,1.1,18.3,6.4c0.7,0.9,2,1,2.9,0.3c0.3-0.3,0.3-0.6,0.6-1c10.3-26,6.1-51-15.4-59.7c-17.3-7-37.1-3.6-51,9
		c-0.4,0.3-0.9,0.3-1.3,0c-13.9-12.5-33.7-16-51-9c-40.1,16.4-20.9,88.5,42.7,119.7c5.6,2.9,12.3,2.9,18,0c5.1-2.6,9.9-5.5,14.8-8.3
		c1-0.8,1.3-2.1,0.6-3.2c-0.3-0.3-0.3-0.6-0.6-0.6C318.6-20,316.2-23.1,314.9-26.8z"/>
</g>
</svg>
