<?xml version="1.0" encoding="utf-8"?>
<!-- Generator: Adobe Illustrator 23.1.0, SVG Export Plug-In . SVG Version: 6.00 Build 0)  -->
<svg version="1.1" id="Calque_1" xmlns="http://www.w3.org/2000/svg" xmlns:xlink="http://www.w3.org/1999/xlink" x="0px" y="0px"
	 viewBox="0 0 684.5 794.8" style="enable-background:new 0 0 684.5 794.8;" xml:space="preserve">
<style type="text/css">
	.st0{fill:url(#SVGID_1_);}
	.st1{fill:url(#SVGID_2_);}
	.st2{fill:url(#SVGID_3_);}
	.st3{clip-path:url(#SVGID_5_);}
	.st4{fill:#ECF7FE;}
	.st5{fill:#F9DED7;}
	.st6{fill:#FFF4E6;}
	.st7{opacity:5.000000e-02;fill:#BF947C;enable-background:new    ;}
	.st8{fill:none;stroke:#ECF7FE;stroke-width:0.5;stroke-miterlimit:10;}
	.st9{fill:#E2D7C6;}
	.st10{opacity:0.2;}
	.st11{fill:#D5B5AB;}
	.st12{opacity:5.000000e-02;fill:#A38D7B;enable-background:new    ;}
	.st13{fill:#C4AE9A;}
	.st14{opacity:0.1;fill:#CFAE9E;enable-background:new    ;}
	.st15{fill:none;stroke:#BB9B8A;stroke-width:0.25;stroke-linecap:round;stroke-linejoin:round;stroke-miterlimit:10;}
	.st16{opacity:0.5;}
	.st17{fill:#CFAE9E;}
	.st18{fill:#C4AA9C;}
	.st19{fill:#F6E3BA;}
	.st20{fill:#F2DDC0;}
	.st21{fill:#CEA5A5;}
	.st22{opacity:0.3;fill:#B39F8B;enable-background:new    ;}
	.st23{fill:#EFE1DA;}
	.st24{opacity:0.2;fill:#A97967;enable-background:new    ;}
	.st25{opacity:0.1;fill:#CAA794;enable-background:new    ;}
	.st26{opacity:3.000000e-02;fill:#635E5D;enable-background:new    ;}
	.st27{fill:#FBD7CB;}
	.st28{opacity:5.000000e-02;fill:#B69682;enable-background:new    ;}
	.st29{opacity:0.1;fill:#D0AF9D;enable-background:new    ;}
	.st30{opacity:0.1;fill:#FCEFE7;enable-background:new    ;}
	.st31{fill:#F3F3EF;}
	.st32{fill:#7A6E6C;}
	.st33{opacity:0.4;fill:#FCE4E0;enable-background:new    ;}
	.st34{opacity:5.000000e-02;fill:#757171;enable-background:new    ;}
	.st35{opacity:0.1;fill:#726E6F;enable-background:new    ;}
	.st36{opacity:0.3;fill:#E5CABE;enable-background:new    ;}
	.st37{opacity:0.4;fill:#D8AFAF;enable-background:new    ;}
	.st38{fill:#B09185;}
	.st39{fill:#EDE6E2;}
	.st40{fill:#635E5D;}
	.st41{fill:url(#SVGID_6_);}
	.st42{opacity:0.8;fill:#F3F3EF;enable-background:new    ;}
	.st43{fill:url(#SVGID_7_);}
	.st44{opacity:0.2;fill:#DDBFA1;enable-background:new    ;}
	.st45{fill:#F9DED4;}
	.st46{fill:#FEEFE6;}
</style>
<g transform="translate(-748.4 -68.222)">
	
		<linearGradient id="SVGID_1_" gradientUnits="userSpaceOnUse" x1="927.1084" y1="-118.301" x2="927.1084" y2="-117.301" gradientTransform="matrix(203.9983 0 0 204.0002 -188255.6406 24388.4297)">
		<stop  offset="0" style="stop-color:#FFD039"/>
		<stop  offset="1" style="stop-color:#B97200"/>
	</linearGradient>
	<path class="st0" d="M873,459c-6.9,0-13.8-0.7-20.6-2.1c-13-2.7-25.4-7.9-36.5-15.3c-16.4-11.1-29.2-26.7-37-44.9
		c-2.6-6.2-4.6-12.6-5.9-19.1c-2.8-13.6-2.8-27.5,0-41.1c2.7-13,7.9-25.4,15.3-36.5c11.1-16.4,26.7-29.2,44.9-37
		c6.2-2.6,12.6-4.6,19.1-5.9c13.6-2.8,27.5-2.8,41.1,0c13,2.7,25.4,7.9,36.5,15.3c16.4,11.1,29.2,26.7,37,44.9
		c2.6,6.2,4.6,12.6,5.9,19.1c2.8,13.6,2.8,27.5,0,41.1c-2.7,13-7.9,25.4-15.3,36.5c-11.1,16.4-26.7,29.2-44.9,37
		c-6.2,2.6-12.6,4.6-19.1,5.9C886.8,458.3,879.9,459,873,459z M873,274.6c-5.6,0-11.1,0.6-16.6,1.7c-10.5,2.2-20.5,6.4-29.5,12.4
		c-13.2,8.9-23.6,21.5-29.8,36.2c-2.1,5-3.7,10.2-4.8,15.5c-2.2,11-2.2,22.2,0,33.2c2.2,10.5,6.4,20.5,12.4,29.5
		c8.9,13.2,21.5,23.6,36.2,29.8c5,2.1,10.2,3.7,15.5,4.8c11,2.2,22.2,2.2,33.2,0c10.5-2.2,20.5-6.4,29.4-12.4
		c13.2-8.9,23.6-21.5,29.8-36.2c2.1-5,3.7-10.2,4.8-15.5c2.2-11,2.2-22.2,0-33.2c-2.2-10.5-6.4-20.5-12.4-29.5
		c-8.9-13.2-21.5-23.6-36.2-29.8c-5-2.1-10.2-3.7-15.5-4.8C884.1,275.2,878.6,274.6,873,274.6z"/>
	
		<linearGradient id="SVGID_2_" gradientUnits="userSpaceOnUse" x1="929.274" y1="-110.1128" x2="929.274" y2="-109.1131" gradientTransform="matrix(41.0122 -41.0122 41.0122 41.0122 -32238.1055 43077.0391)">
		<stop  offset="0" style="stop-color:#FFD039"/>
		<stop  offset="1" style="stop-color:#B97200"/>
	</linearGradient>
	<polygon class="st1" points="1337,470 1378,429 1419,470 1378,511 	"/>
	
		<linearGradient id="SVGID_3_" gradientUnits="userSpaceOnUse" x1="944.0587" y1="-113.4206" x2="944.0587" y2="-112.4206" gradientTransform="matrix(29 0 0 29 -26067.2012 3554.1963)">
		<stop  offset="0" style="stop-color:#9966FF"/>
		<stop  offset="1" style="stop-color:#617FDF"/>
	</linearGradient>
	<circle class="st2" cx="1310.5" cy="279.5" r="14.5"/>
	<g transform="translate(748.7 68.222)">
		<g transform="translate(-0.3)">
			<g>
				<g>
					<defs>
						<rect id="SVGID_4_" x="0" y="0" width="684.5" height="794.8"/>
					</defs>
					<clipPath id="SVGID_5_">
						<use xlink:href="#SVGID_4_"  style="overflow:visible;"/>
					</clipPath>
					<g class="st3">
						<path class="st4" d="M528.9,473.7c0,0-9.1,93.7-9.8,122.9c-0.8,29.1-8.8,117.4-5.8,140c3,22.7,1.4,72.9,10.2,73.7
							s11.7,4.4,25.5-18.9c13.9-23.3,47.4-51,48.8-126.9c1.4-75.9,6.6-131.9-5.8-161.9s-9.5-49.6-30.7-55.4
							C540.3,441.3,535.2,442.7,528.9,473.7z"/>
						<polygon class="st4" points="136.7,755.9 164.3,647.8 170.8,583 169.4,547.5 164.7,546.5 148.3,577.9 127.7,715.6 						"/>
						<path class="st5" d="M278.1,257.9c0,0,3.6,28.7,7.3,32.5s18.6,24.1,29.5,24.1s66.3-6.6,80.2-17.5
							c13.9-10.9,24.7-33.9,26.7-42.6s-6.2-27.7-6.2-27.7s-33.9,52.2-50,59.4s-57.6-8-64.9-13.5C293.4,267,278.1,257.9,278.1,257.9z
							"/>
						<path class="st6" d="M468.5,295.1l-8,68.9c0,0-12.2,10.5-25.8,21.9c-4.5,3.8-9.2,7.6-13.6,11.3c-7.1,5.8-13.6,11-17.9,14.1
							c-3.2,2.3-5,3.4-5,2.7c0.4-4,1-26.5,2.8-38.3c1.8-11.7-8-30.9-5.8-42c2.2-10.9,12.4-25.9,13.9-42.3s1.8-24.9,1-27.3
							c-0.8-2.6,4-15.7,4-19.3s3.6-32.8,4-42.3s-5-28.5-10.6-41.2c-5.4-12.7-12.4-26.3-20.7-45.6c-8.4-19.3-14.6-28.5-25.1-33.5
							c-4.8-2.3-12.2-8-18.8-13.5c-8.3-6.9-15.4-13.5-15.4-13.5l14.9-5.4l43.5-6c1,1,2.1,2.2,3.1,3.4c17.5,21.1,28.7,29.5,31.7,34.7
							c2.1,3.6,17.4,24,28.4,44.3l10.2,24.2l4,101L468.5,295.1z"/>
						<path class="st5" d="M654.4,591.1c2.2,21.9-3.5,102.2-3.5,111.5c0,9.2-9.2,100.1-9.2,100.1s-111.4,3.4-110.3-2.5
							s0-66.2,0.5-74.3c0.5-8.3,12.7-59.3,13.6-62.2s-1-14.1-0.5-18.9c0.5-4.9-1.4-24.9-1.4-24.9c7.3-22.8-2.5-58.3-2.5-60.7
							c0-2.5,9.7-17,9.2-32.1c-0.5-15-11.7-32.5-11.7-32.5l-289.3,78.7c0,0-77.8-58.3-80.2-50.5c-2.5,7.8-4.9,15-4.4,23.8
							s-5.8,52.4-7.8,60.3c-1.9,7.8-3.4,37.4-3.4,41.8s-15,84.2-14.6,88.4c0.5,4.4-8.3,59.8-8.3,59.8L20.1,800c0,0,0-9.2,1-13.6
							s1-37.4,1.9-43.2c1-5.8,18.9-125.5,18.9-125.5s3-32.1,32.6-135.2c30.7-106.7,88.4-137,156-140.4s54-65,54-65l0,0l0.9,0.9
							c0.1,0,0.1,0.1,0.1,0.1l0,0c9.8,10,19.3,16.7,28.2,21.1c13.6,6.6,25.8,7.5,36.6,4.9c32-7.4,51.7-43.9,55.2-48.6
							c2.7-3.6,6.9-12.2,10.5-19.8l11.9,4.3c0,0,54.5,99.2,56.5,103.6s59.3,31.6,61.8,33.5s35.5,8.8,54.9,20.8
							c19.4,12.2,36,77.8,38.5,93.4C642.1,507.1,652.5,571.8,654.4,591.1z"/>
						<path class="st7" d="M285.9,278.4c0,0,56.7,64.9,106.8-4.5s-42.5,58.5-43.1,67.6c-0.5,7.3-12,82.6-24.5,74.1
							c-22.9-16.1-40.8-55-40.8-55L285.9,278.4z"/>
						<path class="st4" d="M554.1,379.9c-4.8,4.5-10.7,11.1-11.7,16.8c-1.4,9.5-13.5,76.9-13.5,76.9l-14.2-28.5
							c0,0,19.2-67.2,20.3-73.8c6.2,3.1,10.6,5.3,11.3,5.8C546.9,377.8,549.9,378.7,554.1,379.9z"/>
						<path class="st4" d="M239.2,431.8l-15.7,7.6l-26.7-92.7c6.1-1.3,12.3-2.3,18.6-3.1C223.2,370.1,239.2,431.8,239.2,431.8z"/>
						<g transform="translate(276.58 334.589)">
							<path class="st8" d="M82.6,90.8c7.8-1.4,15.3-5.4,24.9-9.6C129.9,71.5,176,8.3,175.6,0"/>
							<path class="st8" d="M82.6,90.8"/>
							<path class="st8" d="M51,82"/>
							<path class="st8" d="M0,0.4c0,0,16.6,55.4,45.2,77.3c1.9,1.5,3.8,2.9,5.8,4.1"/>
						</g>
						<path class="st9" d="M67.8,391.6c0,0.1-0.1,0.1-0.1,0.3C67.7,391.7,67.8,391.6,67.8,391.6z"/>
						<g transform="translate(154.605 500.33)" class="st10">
							<path class="st11" d="M0,0l2.7,11.3c0.9,3.8,1.8,7.5,2.7,11.1c0.9,3.8,1.9,7.4,3.1,11c0.6,1.8,1.2,3.6,1.9,5.3
								c0.7,1.8,1.6,3.5,2.8,4.9c-2.8-2.7-4.3-6.5-5.7-10C6.1,30,5,26.2,4,22.6c-0.9-3.8-1.8-7.5-2.5-11.3C0.9,7.6,0.4,3.8,0,0z"/>
						</g>
						<path class="st4" d="M142.3,761.3l-5.6-5.4c1.3-9.5,2.3-17.2,2.1-18.8c-0.5-4.4,14.6-84,14.6-88.4s1.4-34.1,3.4-41.8
							s8.3-51.5,7.8-60.3c-0.2-5.1,0.4-10.1,1.8-15l2.6-8.8c0.1-0.2,0.3-0.4,0.5-0.5c2.7-3,14.9-16.4,26.4-31.2
							c13.1-16.8,25.5-47.4,26.9-51s13.1-6.6,16.1-8c0,0,18.9,45.2,47.4,70.7s118.1,21.1,145.8,8s84.6-67.9,85.3-71.5
							s20.8,55.4,20.8,55.4s11.1,17.5,11.7,32.5c0.5,15-9.2,29.7-9.2,32.1c0.3,2.3,10,37.8,2.7,60.5c0,0,1.9,19.9,1.4,24.9
							s1.4,16.1,0.5,18.9l0,0c-1,3.1-13.1,54-13.6,62.2c-0.1,1.9-0.1,7-0.1,13.6c0,10.4,0.1,24.3,0.1,36.5c0,10.2,0,19-0.3,22.8v0.3
							c0,0.5-0.1,1-0.1,1.3h-3.5l-378-3.2L142.3,761.3z"/>
						<path class="st6" d="M567.3,442.7c-2.8-0.8-12-16.8-19.3-29.5c-7.3-12.8-32.8-20.1-34.7-25.9c-0.9-2.8-5-11-9.5-19.2
							c7.5-4.4,17.5-11.7,18.3-19.4c1-11.3-8.8-39.8-12-43.8s-24.9-39-26.7-47c-1.8-8-7.3-23.3-10.2-25.1c-2.8-1.8-5.4-13.5-4-20.7
							s-3.6-36.8-9.8-61.6c-1.8-7.3-5.7-15.8-10.2-24.2c-11-20.3-26.3-40.7-28.4-44.3c-2.8-5.1-14.2-13.5-31.7-34.7
							c-1-1.2-2.1-2.3-3.1-3.4c-17.9-17.7-47.1-17.6-69.8-15.5c-24.1,2.2-51.8,28.1-60.5,35.3c-8.8,7.3-30.6,50.4-33.1,63.4
							c-2.5,13-18.6,42.7-25.5,51.8c-7,9.1-10.2,51-13.9,58.7s-17.9,22.9-21.1,38.3c-3.2,15.3,6.9,31.3-8.8,30.6
							s-36.8,18.3-44.4,26.7s-16.8,31.7-23.7,35.7c-6.1,3.5-15.4,20.1-17,22.8c1.2-1.6,7.3-4,10.1-5.3c-3.6,3.9-11.9,18.5-15,24.5
							c-3.6,6.9,1.8,28.1,2.2,35.3S44,469.1,44,469.1c1,3.2,24.1,8.8,32.1,7s18.6-29.1,19.7-32.8s6.2-22.9,8.4-28.1
							s13.1-10.6,16.8-8.4c3.6,2.2,35.7-0.4,35.7-0.4c-4.8,9.8-41.2,12.4-41.2,12.4c1,2.6,3.2,2.2,13.5,3.6s27.7-11,31.7-11
							s15.3,0.8,24.9-1.8c9.5-2.6,28.7-21.5,28.7-18.9s-13.1,18.3-25.1,24.1s-43.4,32.1-48.6,39.4c-5.1,7.3-17.9,42.7-23.7,47
							c-5.8,4.4-24.5,33.9-21.5,30.3c2.8-3.6,13.5-13.1,23.7-19.3s36.1-17.9,40.4-21.9c4.4-4,8.8-25.5,10.2-30.3s6.6-14.6,11.7-19.7
							s36.5-15.3,44.5-21.9s14.9-46.6,14.9-46.6c9.8,2.2,40.1-32.1,40.1-32.1c-4.4,33.9-38.6,36.5-38.6,36.5
							c12.7,7.3,22.9,1,36.5-5.8c13.5-6.9,8.4-39.8,8.4-45.2s0.4-46-1-46.6c-1.4-0.8-12.8-18.3-14.9-21.5
							c-2.2-3.2-28.1-67.5-26.3-86.8c0.7-5.1,1.9-10.1,3.8-14.9c7.1-20.5,22.1-47.1,24.7-54c3.2-8.8,25.1-25.9,39-30.3
							c8.3-2.6,21.5-2.6,30.7-2.2c6.3,0.3,10.9,0.8,10.9,0.8c11.3-1.7,23.3,7.8,30.7,13.6l0,0c1.9,1.4,3.5,2.7,4.7,3.5
							s2.2,1.9,3,3.1c4.1,6.2,6.9,18.1,7.3,20.6c0.4,2.8,8.4,19.3,12.4,26.7c4,7.3,8.8,33.1,9.8,30.9s5.8-5.4,6.6-7.3
							s-0.8-9.1,0-10.9s3.6-8.8,6.6-8.8s5,2.6,7.3,4.8s2.6,26.3,1.8,39.4s-8.8,24.1-13.9,28.7c-5,4.8-10.2,3-10.2,3
							c-0.3,4.4-0.9,8.8-1.8,13.1c-1.4,5.8-4.4,18.6-4.4,24.1c0,5.4,2.8,18.9,3.6,21.5s-1.2,16.8-2.6,25.5
							c-1.4,8.8-13.9,32.8-11.7,37.6s8,28.5,5.8,38.3s-8.4,14.2-8.8,22.7c-0.1,3.2,1.3,7.4,3.2,11.9c3.1,7.1,7.8,14.9,10.4,20.6
							c4,9.1-0.8,32.1-0.8,32.1c16.4-4.8,8-46.4,4-52.4c-2.8-4.4,0.6-9.3,4.3-14.2c1.5-1.8,2.8-3.8,4-5.8c3.6-6.3,7-15.4,9.6-5.4
							c0.3,0.9,0.4,1.9,0.6,3.2c2.6,14.9,8.4,16.7,6.2,19.7c-18.3,24.3-15.3,34.3-12.8,43c2.6,8.8,16.1,3.6,16.1,3.6l-8.4-7
							c-8.4-6.9,9.1-32.1,8-25.9s0.4,19.7,3.6,25.5s23.3,17.1,28.5,26.9c5,9.8-0.8,22.7-0.8,22.7c11.3-3.2,13.5-24.7,10.2-29.9
							c-3.2-5-4-16.8-4-16.8c5.4-2.6,9.1-18.9,9.1-18.9c3,4.4,17.9,9.1,23.7,13.1c5.8,4,14.2,28.5,14.2,28.5
							c1.4-4.8-0.4-13.1-0.4-13.1c5.8,6.6,15.7,8.8,15.7,8.8c-0.4-3.6-10.9-26.9-8-23.3s9.1,15.3,9.1,15.3c-0.7-5.1-2.1-10.1-4-14.9
							c-2.2-5.8-0.8-14.9,2.6-11.7c3.2,3.2,15.7,14.9,13.1,17.9c-14.2,16.3-5.8,26.3-5.8,26.3c-2.2-4.8,1.8-4.4,9.8-13.5
							C569.1,456.2,570.1,443.5,567.3,442.7z M492.6,348.3c-2.8-4.4,1-17.1,1-17.1s13.1,5.8,15.3,17.1c1,5.6-3,11.8-7,16.4
							C497.9,357.2,493.9,350.3,492.6,348.3L492.6,348.3z"/>
						<path class="st12" d="M278.5,370.2c-13.5,6.9-23.7,13.1-36.5,5.8c0,0,34.3-2.6,38.6-36.5c0,0-30.3,34.3-40.1,32.1
							c-1.4-2.3,7.3-46.4,5.3-52.6s-1.4-23.8,0.5-38.5s-4.9-69.5-8.8-86c-3.9-16.6,11.4-41.6,11.4-41.6l-0.8,2.2
							c-1.8,4.8-3.1,9.8-3.8,14.9c-1.8,19.3,24.1,83.5,26.3,86.8c2.2,3.2,13.5,20.7,14.9,21.5s1,41.2,1,46.6
							C286.9,330.4,292,363.2,278.5,370.2z"/>
						<path class="st5" d="M443.6,184.9c-0.8,13.1-8.8,24.1-13.9,28.7c-5,4.8-10.2,3-10.2,3c-0.3,4.4-0.9,8.8-1.8,13.1
							c-0.4,1.7-0.9,3.8-1.4,6.2c-3.6,7.6-7.8,16.2-10.5,19.8c-3.4,4.7-23.2,41.2-55.2,48.6c-10.9,2.5-23.2,1.7-36.6-4.9
							c-8.8-4.3-18.3-11.1-28.2-21.1l-0.1-0.1l-0.9-0.9l0,0c-3.1-3.9-12-17.6-14-20.5c-2.2-3.2-28.1-67.5-26.3-86.8
							s25.1-60.2,28.5-68.9c3.2-8.8,25.1-25.9,39-30.3c4.2-1.2,8.6-1.9,12.9-2.1c9.5-0.5,19.1-0.3,28.6,0.6
							c14.2-2.2,29.5,13.5,35.3,17.1s9.8,20.7,10.2,23.7c0.4,2.8,8.4,19.3,12.4,26.7c4,7.3,8.8,33.1,9.8,30.9s5.8-5.4,6.6-7.3
							s-0.8-9.1,0-10.9s3.6-8.8,6.6-8.8s5,2.6,7.3,4.8S444.4,171.8,443.6,184.9z"/>
						<path class="st7" d="M351,304.2c-0.1,0.1-0.2,0.2-0.4,0.3c-10.9,2.5-23.2,1.7-36.6-4.9c-8.8-4.3-18.3-11.1-28.2-21.1l-0.1-0.1
							l-0.9-0.9l0,0c-3.1-3.9-12-17.6-14-20.5c-2.2-3.2-28.1-67.5-26.3-86.8s25.1-60.2,28.5-68.9c3.2-8.8,25.1-25.9,39-30.3
							c4.2-1.2,8.6-1.9,12.9-2.1c0.4,0.3,0.9,0.4,1.3,0.6c0,0-36.9,16.1-47.4,36.5c-9.8,19-17.7,15.9-20.5,62
							c-0.8,14,8.4,59.8,14.6,75.5s30.3,45.6,50,53.2C332,300.1,341.5,302.6,351,304.2z"/>
						<path class="st13" d="M405,152.5l10.5-5l0.6,2.1l-10.6,6.7L405,152.5z"/>
						<path class="st14" d="M349.2,211.7c-3.6-1.3-7.4-2.4-11.1-3.2c-3.5-0.5-6-3-10.2,1.3c-3.4,3.4-9.6,2.6-11.4,1.4
							c-1.8-1.3-6.6-5.4-7.3-5.8c0,0-11.9,8.3-4.1,14.4c4.4,3.5,9.7,6.2,19.2,4.9C331.7,223.6,342.9,220.3,349.2,211.7z"/>
						<path class="st15" d="M298.5,164.2c0,0-15.9-10.7-28.7,6.7"/>
						<path class="st15" d="M345.1,161.6c0,0,21.8-21.5,39.4,1"/>
						<g transform="translate(302.963 160.691)" class="st16">
							<path class="st17" d="M1.5,58.1c-0.8-1.1-1.3-2.3-1.4-3.6c-0.2-1.4,0.2-2.7,0.9-3.9c0.8-1,1.7-2,2.7-2.8c0.8-1,1.6-2,2.2-3.1
								c2.4-4.6,4.1-9.5,4.9-14.6c0.3-2.6,0.2-5.2-0.1-7.8s-0.6-5.2-1-7.8C9.2,11.9,8.5,9.4,7.5,7C7.2,5.8,6.6,4.5,6.1,3.4
								C5.9,2.7,5.6,2.1,5.2,1.6C4.9,1,4.5,0.4,4,0c0.5,0.4,1,1,1.3,1.6c0.4,0.5,0.6,1.2,1,1.7C7,4.4,7.5,5.6,8.1,6.7
								c1,2.4,1.8,4.9,2.3,7.5s0.9,5.2,1.2,7.8c0.4,2.6,0.4,5.3,0.1,7.9c-0.4,2.6-1.1,5.1-1.9,7.6C9,40,7.9,42.4,6.6,44.8
								C5.8,46,5.1,47,4.2,48s-2.1,1.7-2.7,2.7c-0.7,1.1-1.1,2.3-1,3.6C0.4,55.7,0.8,57,1.5,58.1z"/>
						</g>
						<g transform="translate(234.238 150.491)">
							<path class="st18" d="M74.7,24.3L73,21.5C63.1,9,47.1,10.2,34.3,12.4C21.6,14.6,8,23,8,23l-8,1v5.3L7.5,29l0.4,1.8
								c3.2,18.3,14.2,31.5,22.7,35c8.5,3.5,18.6,7,33-2.7C77.9,53.2,74.6,25.2,74.7,24.3z M72.3,43.3c-0.4,3.9-3,18.3-18.3,23.2
								c-15.1,4.9-26.2-4.1-32.6-10.6c-6.6-6.5-8.7-18.9-7.9-23.6s3.8-12.6,16.8-16.6c10.9-3.4,18.8-2.3,21.2-1.8
								c8.2,0.3,12.6,3.5,15.3,7.3c1.7,1.7,3.2,3.7,4.4,5.8C73.9,32.7,72.6,39.5,72.3,43.3z"/>
							<path class="st18" d="M162.1,9.2L160.9,3c-2.9,0.2-5.8,0-8.5-0.6c-14.1-4.1-28.2-2.2-39.5,1.9c-6.8,2.5-12.6,7.2-16.4,13.3
								L95,20.8c2.6,17,10.4,24.6,14.4,29.4S125,60.6,137,57.7c11-2.6,18.9-11,22.7-21s1.3-23.3,1-24.5
								C160.6,11.6,161.3,10.3,162.1,9.2z M159.4,28.1c-0.1,0.9-0.3,1.8-0.5,2.7v0.1c-3.2,14.1-17.1,21.4-18.6,21.9
								c-1.6,0.6-7,2.8-17.5,1c-10.5-1.7-18.3-12.7-22-23.2c-1.4-3.9-1.4-8.1-0.1-12c0.6-1.8,1.5-3.5,2.6-5.1l0,0
								c0.3-0.4,0.6-0.8,0.9-1.2c18.6-15.9,42.6-8.8,45.1-8C151.8,5.2,161.2,12,159.4,28.1L159.4,28.1z"/>
						</g>
						<path class="st19" d="M242.4,173.3l-0.3,3.4l-0.3,2.7l-7.5,0.4v-5.3L242.4,173.3z"/>
						<path class="st20" d="M405.5,156.3c0,0-6.7,0.4-8,1.8c-0.4,0.4-0.8,0.9-1.2,1.4l-1.2-6.2c1.9-0.1,3.4-0.3,3.8-0.3
							c0.9,0,6-0.8,6-0.8l0.4,3L405.5,156.3z"/>
						<polygon class="st21" points="300.4,249.6 303.9,251.8 334.5,251.8 361,243.6 367.5,242 360.6,241 335,244.5 318.9,247.8 
							304.7,248.6 						"/>
						<path class="st20" d="M330.7,168.2l-0.8,1.7l-0.6,1.6c-1.6-0.7-3.2-1.4-4.9-1.9c-0.5,0-11.3,0.4-12.4,1.4
							c-1,1-2.7,2.8-2.8,3.8l0,0l-1.7-2.8c0,0,2.6-3.2,4.1-3.5c1.7-0.1,15.7-1,16.4-1C328.9,167.5,329.8,167.8,330.7,168.2z"/>
						<path class="st22" d="M335.5,151.1c0,0,20.1-17.2,58.8-8.2c0,0-14.9-7.4-21.4-7.8C366.3,134.8,341.6,132.5,335.5,151.1z"/>
						<path class="st22" d="M304.8,155c0,0-4.3-14.9-40.5-5.8c-6.9,1.7-9.7,5.6-9.7,5.6S288,147,304.8,155z"/>
						<path class="st23" d="M290.4,168.5c-0.7,0-1.4,0-2.1-0.1h0.5C289.4,168.3,289.9,168.5,290.4,168.5z"/>
						<path class="st21" d="M367.5,242c0,0-9.8,0-12.6,0.4s-10.4,4.8-14.4,5.3s-10.4,2.7-12.2,2.2s-18-1.2-20.1-0.8
							c-2.6,0.3-5.2,0.5-7.8,0.5l0,0c0.9-0.6,17-11.3,29.9-9.6c0,0,10.2-4.1,19.8-3c4.3,0.6,8.6,1.5,12.8,2.7
							C365.4,240.6,367,241.4,367.5,242L367.5,242z"/>
						<path class="st21" d="M358.2,250.8c-11.4,10.4-27.8,11.1-36.1,11.7c-8.2,0.5-21.8-12.7-21.8-12.7c2.6,0,5.2-0.2,7.8-0.5
							c1-0.1,2-0.2,3-0.1c5.3,0,15.7,0.4,17.1,0.9c1.8,0.5,8.2-1.7,12.2-2.2s11.7-4.9,14.4-5.3c0.3,0,0.6,0,0.9-0.1l1.9-0.3l9.7-0.1
							C367.5,242,368.5,241.4,358.2,250.8z"/>
						<path class="st24" d="M332.4,218.4c-0.4,0.6-2.8,1.7-2.6,0.9c0.1-0.8,3.2-5.1,6.3-4.9s8.5-0.9,8.4,0.5s-7.5,1.3-8.5,1.8
							C334.8,217.4,333,217.5,332.4,218.4z"/>
						<path class="st24" d="M315.5,221.3c0,0-1.4-4.3-7.5-2.6c-1.3,0.4,0.8,1.3,1.8,1.6C311,220.5,314.6,220.6,315.5,221.3z"/>
						<g transform="translate(329.932 182.444)" class="st16">
							<path class="st17" d="M0.4,0C0.1,1.6,0.3,3.2,0.9,4.7s1.3,3,2.1,4.4s1.7,2.8,2.5,4.1c0.9,1.3,1.8,2.6,2.8,3.9
								c2.2,2.4,4.6,4.6,7.3,6.5c1.3,1,2.5,2.1,3.6,3.4c0.6,0.7,0.7,1.6,0.4,2.5c-0.4,0.7-1,1.3-1.8,1.7c0.7-0.4,1.2-1,1.6-1.7
								c0.2-0.7,0-1.5-0.5-2.1c-1.1-1.1-2.4-2.1-3.6-3.1c-2.7-1.9-5.2-4-7.5-6.3c-1.1-1.2-2.1-2.6-2.8-4c-1.1-1.5-1.9-3-2.7-4.4
								S0.9,6.6,0.5,5C-0.1,3.4-0.2,1.6,0.4,0z"/>
						</g>
						<path class="st25" d="M349.9,264.3c1.1,0.6,1.5,2,0.8,3.1c-0.4,0.8-1.3,1.2-2.1,1.1c-9.3-0.5-25.1,2.7-30.6,2.7
							c-4.9,0-1.8-5.8,3.9-8.9h0.1c4.3-0.2,8.7-0.8,12.9-1.6C340.2,261,345.7,261.8,349.9,264.3z"/>
						<path class="st9" d="M332.5,189.7"/>
						<path class="st26" d="M367.5,242c0,0-9.8,0-12.6,0.4s-10.4,4.8-14.4,5.3s-10.4,2.7-12.2,2.2s-18-1.2-20.1-0.8
							c-2.6,0.3-5.2,0.5-7.8,0.5l0,0c0.5-0.3,7-3.2,9.1-3.1c2.2,0.1,12.7,0.4,16.6,0.1c3.8-0.1,14.9-3.6,16.1-4c0,0,7.1-0.5,8.8-0.8
							c1.6-0.1,8.7-2.1,12-2.2h0.1C364.9,239.7,366.6,240.5,367.5,242L367.5,242z"/>
						<path class="st27" d="M290.7,168.5"/>
						<path class="st4" d="M323.2,413.3c0,0,5.3,1.3,6.3,2.6c1,1.3,1.8,4.5,2.2,5s1.3,3.5,2.3,3.5s8.9,3.1,13.1,3s11.5-3.6,12.6-3.5
							s-0.5,2.6-1,2.7c-1.2,0.5-2.1,1.4-2.7,2.6c-0.4,1-2.6,1.4-3.5,0.8c-0.9-0.8-3.2,0.5-4.5,1.7c-1.3,1-4.9,0.1-4.9,0.1
							s-3.5,1.9-4.1,1.8c-1.6-0.8-3-1.9-4.1-3.2c-0.5-0.9-3-1.3-3-1.3s-0.5-4.8-1.8-5.4c-1-0.6-1.9-1.4-2.7-2.3c0,0,1.7-3.1,0.9-3.9
							C327.3,416.7,323.2,413.3,323.2,413.3z"/>
						<path class="st28" d="M427.9,160.6c0,0,6.6-11.1,9.2-11.4c2.7-0.3,5,12.7,5.6,14.6s-2.3,2.7-2.6,3.4c-0.3,0.8-2.3-13.7-4-14
							C434.5,152.9,428.2,159.8,427.9,160.6z"/>
						<path class="st29" d="M432.9,170.3c0,0,5.8-0.5,5,3.4s-5.8,14.4-8.9,14.9C425.7,188.9,434.8,172.7,432.9,170.3z"/>
						<path class="st30" d="M424.2,197.7c0,0,15.7-10,16.8-14.1c1-4.1-0.8-16.6-0.8-16.6s-2.3-13.1-3.2-13.3
							c-0.9-0.3-0.4-3.2-8.9,6.9c-8.7,10.1-6.6,7.3-6.6,7.3c3.2-0.6,6.4-0.9,9.6-1c3.1,0.3,8.2,1.8,8.2,4s-0.9,10.2-6.1,15.4
							C427.7,191.6,426.3,193.6,424.2,197.7z"/>
						<circle class="st31" cx="440.5" cy="193.7" r="3"/>
						<path class="st31" d="M421.3,208.7c0,0,0.5-5.1,1.3-4.8c0.6,0.3,1,0.7,1.3,1.3c0,0,0.1-3.1,1.2-3.1s1.3,2.1,1.3,2.1
							s1.9-3,2.8-3c0.9-0.1,0.9,2.5,0.9,3.2c0,0.8,2.5-0.6,3,0.8c0.6,1.3-3.1,2.1-3.9,2.2s2.6,1,1.7,1.6c-1.6,0.6-3.4,0.4-4.9-0.4
							c-1-0.9,0.4,1-0.4,1.6C425.1,210.7,421.6,209.2,421.3,208.7z"/>
						<circle class="st32" cx="435.1" cy="203.6" r="3.6"/>
						<path class="st7" d="M285.8,278.3c0,0,72.5,82.7,130.5-42.3c0,0-12.6,50.4-51,67.5C332.5,318,293.2,300.9,285.8,278.3z"/>
						<path class="st12" d="M441.8,145.5c-2.2-2.2-4.4-4.8-7.3-4.8s-5.8,6.9-6.6,8.8c-0.8,1.8,0.8,9.1,0,10.9s-5.4,5.1-6.6,7.3
							c-1,2.2-5.8-23.7-9.8-30.9s-12-23.7-12.4-26.7c-0.3-2.3-3-14.2-7.3-20.6c-0.8-1.2-1.8-2.3-3-3.1c-1.2-0.8-2.7-1.9-4.7-3.5l0,0
							l-0.3-0.3c1.2,0.5,32.2,4.5,40.5,17.2C428.2,105.4,443.2,145.9,441.8,145.5z"/>
						<path class="st33" d="M316.1,201.3c-0.5,2.9,0.7,5.9,3,7.8c2.2,1.7,5.2,2.3,8.8-1.8c4.8-5.4-6.9-43.8-6.7-47.3
							C321.4,157.1,317.4,190.5,316.1,201.3z"/>
						<path class="st34" d="M531.8,725.9c-0.1,1.9-0.1,7-0.1,13.6l-12-9.7c0,0-21.9-24.2-28.6-35C492,695.7,525.1,725.4,531.8,725.9
							z"/>
						<path class="st34" d="M531.8,775.9c0,10.2,0,19-0.3,22.8v0.3l-0.1,1.3c0,0-54.9-59.8-53.5-64.6c1.4-4.9,13.6,10.2,13.6,10.2
							C502.9,760.5,525.1,772.5,531.8,775.9z"/>
						<path class="st35" d="M531.8,725.9c-0.1,1.9-0.1,7-0.1,13.6c0,10.4,0.1,24.3,0.1,36.5c0,10.2,0,19-0.3,22.8v0.3
							c0,0.5-0.1,1-0.1,1.3h-3.5c-1.4-6.1-2.2-14.4-1.7-17.7c0.8-5.1-0.8-29.9-1.8-38.3c-1-8.4,0-30.9,2.2-33.5
							c2.2-2.5,18.4-45.6,18.9-47C544.4,666.8,532.3,717.6,531.8,725.9z"/>
						<path class="st35" d="M167.2,570.3c-4.4,12.2-5.3,34.1-6.3,41.8c-1,7.8-1.4,35-4.4,44.3c-2.8,9.4-5,18.9-6.3,28.6
							c-1,7.3,2.5,14.1,0,18.9c-2.5,4.9-6.9,13.6-6.9,22.8c0,8,0,28.5-0.9,34.3l-5.6-5.4c1.3-9.5,2.3-17.2,2.1-18.8
							c-0.5-4.4,14.6-84,14.6-88.4s1.4-34.1,3.4-41.8c1.9-7.8,8.3-51.5,7.8-60.3C164.7,546.4,171.6,558.2,167.2,570.3z"/>
						<path class="st36" d="M156.9,606.8c-1.9,7.8-3.4,37.4-3.4,41.8s-15,84.2-14.6,88.4c0.5,4.4-8.3,59.8-8.3,59.8
							c-9.2-14.1-9.7-95.3-7.5-106.2s16.1-62.7,22.7-73.7c6.6-11,18.9-70.4,18.9-70.4C165.2,555.2,158.9,599,156.9,606.8z"/>
						<path class="st37" d="M357.8,242.1c-1.4,5.2-13.9,11.5-28.5,14s-21.1-6.9-21.1-6.9c1-0.1,2-0.2,3-0.1c5.3,0,15.7,0.4,17.1,0.9
							c1.8,0.5,8.2-1.7,12.2-2.2s11.7-4.9,14.4-5.3c0.3,0,0.6,0,0.9-0.1L357.8,242.1z"/>
						<g transform="translate(269.458 165.207)">
							<path class="st38" d="M31.6,8.3c-1.3,1.1-2.7,2.1-4.1,2.8c-0.6,0.3-1.2,0.6-1.8,0.9l-0.8,0.4c-0.8,0.3-1.6,0.5-2.2,0.8
								c-0.3,0.1-0.7,0.2-1,0.3c-1.2,0.3-2.3,0.5-3.5,0.6c-0.2,0-0.5,0-0.6,0.1c-0.3,0-0.6,0-0.9,0.1h-6.1c-0.8,0-1.6-0.1-2.5-0.3
								c-0.3,0-0.5-0.1-0.8-0.1s-0.5-0.1-0.8-0.1c-0.2,0-0.4,0-0.5-0.1l0,0c-1.7-0.3-2.8-0.6-3.4-0.6c-0.9-0.1-1.8,0-2.6,0.4
								c1.7-1.9,3.6-3.7,5.7-5.3c3.1-2.5,6.7-4.1,10.6-4.7c0.5-0.1,1-0.2,1.6-0.1h1.7c2.7,0.1,5.4,0.8,7.8,2.1l0,0
								C28.9,6.1,30.4,7.1,31.6,8.3z"/>
							<path class="st39" d="M27.5,11.2c-0.6,0.3-1.2,0.6-1.8,0.9l-0.8,0.4c-0.8,0.3-1.6,0.5-2.2,0.8c-0.3,0.1-0.7,0.2-1,0.3
								c-1.2,0.3-2.3,0.5-3.5,0.6c-0.2,0-0.5,0-0.6,0.1c-0.3,0-0.6,0-0.9,0.1h-6.1c-0.8,0-1.6-0.1-2.5-0.3c-0.3,0-0.5-0.1-0.8-0.1
								s-0.5-0.1-0.8-0.1c-0.2,0-0.4,0-0.5-0.1l0,0c-0.1-0.1-0.3-0.1-0.3-0.3C3.9,11.9,4.3,10,5.7,8c3.1-2.4,6.7-4,10.6-4.6
								c0.5-0.1,1-0.2,1.6-0.1h1.7c2.7,0.1,5.4,0.8,7.8,2.1v0.1l0,0C27.6,6.1,28.7,9.2,27.5,11.2z"/>
							<path class="st40" d="M18.9,3.1h-1.3c-0.5,0-1,0.1-1.6,0.1C12.2,3.9,8.5,5.5,5.4,7.9c-0.6,0.6-1,1.4-1.2,2.2
								c-0.2,0.1-0.3,0.1-0.5,0.1c-0.6,0-2.3-1.8-2.7-2.3c1,0.3,1.9,0.4,2.9,0.4c-0.3,0-0.9-0.8-1-0.9C3.4,8,5.2,6.9,5.2,6.9
								C4.1,6.7,4,5.6,4,5.6C4.3,6,7.6,6,7.1,5.7C6.8,5.6,6.5,5.4,6.2,5.2c0.9,0.4,2.3-0.8,2.3-0.8C7.6,4.3,7.4,2.9,7.4,2.9
								C7.8,3.5,11,3.1,11,3.1l-0.3-1.9c0.4,0.6,2.8,1.4,2.7,1.2c-0.1-0.8-0.1-1.6,0-2.3c0,0,0-0.3,1,1.3C15.3,2.5,17.2,3,18.9,3.1z
								"/>
							<g transform="translate(9.97 3.273)">
								
									<radialGradient id="SVGID_6_" cx="-64.7277" cy="452.6983" r="8.744" gradientTransform="matrix(0.744 0 0 0.5208 55.4978 -230.4038)" gradientUnits="userSpaceOnUse">
									<stop  offset="0.871" style="stop-color:#7B867D"/>
									<stop  offset="1" style="stop-color:#55615F"/>
								</radialGradient>
								<path class="st41" d="M14.8,5c0,2.5-1.8,4.5-4.4,5.4c-1,0.3-2,0.5-3,0.5H7c-3.9-0.1-7-2.7-7-5.8c0-1.5,0.7-2.9,1.8-3.9
									C4.8,0.1,8-0.3,11.1,0C13.3,0.8,14.7,2.8,14.8,5z"/>
								<ellipse class="st40" cx="7.9" cy="5.5" rx="1.7" ry="1"/>
								<path class="st42" d="M7.8,1c1.8,0.6,3.3,1.9,4.1,3.6C12.2,5.5,14.6-0.4,7.8,1z"/>
							</g>
						</g>
						<g transform="translate(345.984 153.181)">
							<path class="st38" d="M37.4,12.6c-1.1-0.6-2.4-1-3.6-1h-1.2c-0.5,0-0.9,0.1-1.3,0.1h-0.1c-0.4,0.1-0.9,0.2-1.3,0.4
								c-0.1,0-0.1,0-0.3,0.1c-1.3,0.6-12.9,4-19.6,1.6c-1.7-0.1-3.5,0-5.2,0.3c-1.6,0.2-3.3,0.1-4.9-0.1c1.9-1.2,3.8-2.5,5.4-4
								l0.4-0.4c1.4-1.1,2.9-2,4.5-2.7c4.3-1.9,10.7-3.5,17.4,0c1.9,1,3.5,1.8,4.7,2.5C36.5,11.9,37.3,12.4,37.4,12.6z"/>
							<path class="st39" d="M33.7,11.7h-1.6c-0.4,0-0.6,0.1-0.9,0.1h-0.1c-0.4,0.1-0.9,0.2-1.3,0.4c-0.1,0-0.1,0-0.3,0.1
								c-1.3,0.6-12.9,4-19.6,1.6c-1.7-0.1-3.5,0-5.2,0.3c-0.1-1.5,0.2-3,0.8-4.4c1.4-1.1,2.9-2,4.5-2.7c4.3-1.9,10.7-3.5,17.4,0
								c1.9,1,3.5,1.8,4.7,2.5C32.7,10.2,33.2,10.9,33.7,11.7z"/>
							<path class="st40" d="M35.7,8.3c0,0-1.6,2.2-2.5,2.5h-0.1c-0.3-0.4-0.7-0.8-1-1.2c-1.3-0.6-2.8-1.4-4.7-2.5
								C23,4.9,17.9,4.4,13.2,6l0,0c0.3-0.2,0.7-0.4,1-0.5c0.5-0.3,1-0.5,1.7-0.8c2.5-1.2,5.6-3,5.3-4.7c0.1,0.8,0.8,3.4-0.4,4.3
								c0,0,4.1-0.9,4.8-2.1c-0.3,0.8-1,2.7-1.4,2.8c-0.5,0.1,2.7,0.3,3.2-0.3L26.8,6c0,0,3.1-0.1,3.6-0.6L29.8,7
								c0,0,3.8,0.3,4.1-0.4c-0.2,0.6-0.6,1.2-1,1.7C33.8,8.5,34.8,8.5,35.7,8.3z"/>
							<g transform="translate(11.265 4.92)">
								
									<radialGradient id="SVGID_7_" cx="-436.397" cy="233.1803" r="8.8333" gradientTransform="matrix(0.679 0 0 0.475 303.5292 -105.8407)" gradientUnits="userSpaceOnUse">
									<stop  offset="0.892" style="stop-color:#7B867D"/>
									<stop  offset="1" style="stop-color:#55615F"/>
								</radialGradient>
								<ellipse class="st43" cx="7.3" cy="4.9" rx="7.3" ry="4.9"/>
								<ellipse class="st40" cx="7.1" cy="5.2" rx="1.8" ry="1.2"/>
								<path class="st42" d="M8.3,2.8c0,0,1.8,0.5,1.9,1.2C10.2,4.5,11.5,1.7,8.3,2.8z"/>
								<path class="st42" d="M4.3,3.1C4,3.3,3.7,3.6,3.6,3.9C3.6,4.4,2.3,2.7,4.3,3.1z"/>
							</g>
						</g>
						<path class="st44" d="M329.9,169.9l-0.6,1.6c-1.6-0.7-3.2-1.4-4.9-1.9c-0.5,0-11.3,0.4-12.4,1.4c-1,1-2.7,2.8-2.8,3.8
							c0-0.4,0.5-3.6,1.9-4.3c1.6-0.6,9.3-3.2,17.1-1.2C328.7,169.5,329.3,169.8,329.9,169.9z"/>
						<path class="st44" d="M242.3,176.6l-0.4,2.7l-7.5,0.4v-1.6l7.8-1.6L242.3,176.6z"/>
						<path class="st44" d="M405.5,156.3c0,0-6.7,0.4-8,1.8c-0.4,0.4-0.8,0.9-1.2,1.4l-0.3-1.6c0,0,1.2-3.6,9.2-2.6h0.1L405.5,156.3
							z"/>
						<path class="st45" d="M297.8,213.4c0.9-0.5,1.6-1.2,2.3-1.9l-6.2,8.4l-20.3,1.8l-15-4.3l-10.9-14.6l-0.4-6.1
							c4.9,10,11.8,17,17.5,19.3C273.2,219.6,283.4,223.1,297.8,213.4z"/>
						<path class="st46" d="M255.6,206.4c-6.6-6.5-8.7-18.9-7.9-23.6s3.8-12.6,16.8-16.6c2.2-0.6,4.3-1.2,6.2-1.6
							c-1.6,0.5-13.7,4.1-16.8,9.2c-3.2,5.4-5.7,16.1,0.1,25s15.3,21.1,33,16.8s18-22.8,17.9-23.4c-0.1-0.5,1.6-13.3-4.7-21.5
							c0.3,0.3,0.5,0.6,0.6,0.9c1.7,1.7,3.2,3.7,4.4,5.8c2.7,5.7,1.4,12.4,1,16.3s-3,18.3-18.3,23.2
							C273.1,222.1,262.1,212.9,255.6,206.4z"/>
						<path class="st46" d="M393.1,181.4c-0.8,5.4-3.1,12.2-7.5,16.1c-9.1,8.2-13.1,10.9-25.8,9.8c-16.1-1.4-24.2-19.3-24.5-20.5
							c-0.1-1-3.6-12.8-1.3-18c1.2-2.5,3.2-5.1,3.4-4.8l0,0c-1.1,1.5-2,3.2-2.6,5.1c-1.3,3.9-1.3,8.2,0.1,12
							c3.8,10.6,11.5,21.5,22,23.2s15.9-0.5,17.5-1S389.9,195.5,393.1,181.4z"/>
					</g>
				</g>
			</g>
		</g>
	</g>
</g>
</svg>
