<svg xmlns="http://www.w3.org/2000/svg" width="29.085" height="29.449" viewBox="0 0 29.085 29.449"><defs><style>.a{fill:#fff;}</style></defs><g transform="translate(-4.382 0.191)"><path class="a" d="M1.884.37,35.392.193a1.838,1.838,0,0,1,1.852,1.852,1.886,1.886,0,0,1-1.871,1.871L1.864,4.093A1.838,1.838,0,0,1,.012,2.242,1.886,1.886,0,0,1,1.884.37Z" transform="translate(4.237 26.372) rotate(-45)"/><path class="a" d="M1.842-.01,35.351.167a1.886,1.886,0,0,1,1.871,1.871A1.838,1.838,0,0,1,35.37,3.89L1.861,3.713A1.886,1.886,0,0,1-.01,1.842,1.838,1.838,0,0,1,1.842-.01Z" transform="translate(7.14 -0.176) rotate(45)"/></g></svg>