<svg id="Calque_1" xmlns="http://www.w3.org/2000/svg" xmlns:xlink="http://www.w3.org/1999/xlink" viewBox="0 0 595.3 652"><style>.st7,.st9{fill:none;stroke-miterlimit:10}.st7{display:none;stroke-width:2;stroke:#e51d2a}.st9{stroke:#78b8e6}.st10{opacity:.3}.st15{opacity:.2;fill:#f6af9a;enable-background:new}</style><defs><path id="SVGID_1_" d="M.1-.7h595.3v652.3H.1z"/></defs><clipPath id="SVGID_2_"><use xlink:href="#SVGID_1_" overflow="visible"/></clipPath><linearGradient id="SVGID_3_" gradientUnits="userSpaceOnUse" x1="364.85" y1="370.39" x2="364.85" y2="652.59" gradientTransform="matrix(1 0 0 -1 0 651.89)"><stop offset="0" stop-color="#a9dbed"/><stop offset="1" stop-color="#78b8e6"/></linearGradient><path d="M-237.7-.7v282.2L967.4 259 959.5-.7H-237.7z" clip-path="url(#SVGID_2_)" fill="url(#SVGID_3_)"/><defs><path id="SVGID_4_" d="M.1-.7h595.3v652.3H.1z"/></defs><clipPath id="SVGID_5_"><use xlink:href="#SVGID_4_" overflow="visible"/></clipPath><linearGradient id="SVGID_6_" gradientUnits="userSpaceOnUse" x1="378.95" y1="167.59" x2="378.95" y2="406.59" gradientTransform="matrix(1 0 0 -1 0 651.89)"><stop offset=".01" stop-color="#90adbe"/><stop offset=".569" stop-color="#3c8eaa"/><stop offset="1" stop-color="#23569c"/></linearGradient><path d="M-247.8 245.3l10.1 211.2 107 15.8h112.6l182.5 7.9 718.5 4.1 122.8-4.9L967.4 259l-474.5-5.2L-160 259h-77.7l-10.1-13.7z" clip-path="url(#SVGID_5_)" fill="url(#SVGID_6_)"/><defs><path id="SVGID_7_" d="M.1-.7h595.3v652.3H.1z"/></defs><clipPath id="SVGID_8_"><use xlink:href="#SVGID_7_" overflow="visible"/></clipPath><linearGradient id="SVGID_9_" gradientUnits="userSpaceOnUse" x1="386.85" y1="155.89" x2="386.85" y2="203.29" gradientTransform="matrix(1 0 0 -1 0 651.89)"><stop offset=".353" stop-color="#b59c90"/><stop offset="1" stop-color="#969191"/></linearGradient><path d="M-237.7 448.6v36.6L1011.4 496l-5.8-16.6s-786.1-2.6-814.3-4.9-248.9-13.1-266.9-9.9-50.7 5.8-77.7 0-84.4-16-84.4-16z" clip-path="url(#SVGID_8_)" fill="url(#SVGID_9_)"/><defs><path id="SVGID_10_" d="M.1-.7h595.3v652.3H.1z"/></defs><clipPath id="SVGID_11_"><use xlink:href="#SVGID_10_" overflow="visible"/></clipPath><linearGradient id="SVGID_12_" gradientUnits="userSpaceOnUse" x1="375.5" y1="-47.91" x2="375.5" y2="177.39" gradientTransform="matrix(1 0 0 -1 0 651.89)"><stop offset="0" stop-color="#cb9e6a"/><stop offset="1" stop-color="#fad29c"/></linearGradient><path d="M-237.7 474.5s102.5 11.3 123.9 7.9 245.5-1 265.8.6 339-1.6 372.8 0 132.9 1.6 166.7.5 164.4-1.8 191.5.8c27 2.6 109.2-9 122.8-4.9 13.5 4.1 16.9 220.4 16.9 220.4H-224.2l-47.5-47.5 34-177.8z" clip-path="url(#SVGID_11_)" fill="url(#SVGID_12_)"/><g><defs><path id="SVGID_13_" d="M.1-.7h595.3v652.3H.1z"/></defs><clipPath id="SVGID_14_"><use xlink:href="#SVGID_13_" overflow="visible"/></clipPath><linearGradient id="SVGID_15_" gradientUnits="userSpaceOnUse" x1="-21.58" y1="382.774" x2="76.154" y2="382.774" gradientTransform="matrix(1 0 0 -1 0 651.89)"><stop offset="0" stop-color="#3d3d3d"/><stop offset="1" stop-color="#1d1e1d"/></linearGradient><path d="M-19.1 232.6s20.3-1 30.4 12.7 55.2 43.6 64.2 43.5-77.7 17.9-90.1 16.8-4.5-73-4.5-73z" clip-path="url(#SVGID_14_)" fill="url(#SVGID_15_)"/></g><g><defs><path id="SVGID_16_" d="M.1-.7h595.3v652.3H.1z"/></defs><clipPath id="SVGID_17_"><use xlink:href="#SVGID_16_" overflow="visible"/></clipPath><linearGradient id="SVGID_18_" gradientUnits="userSpaceOnUse" x1="650.693" y1="464.79" x2="650.693" y2="397.19" gradientTransform="matrix(1 0 0 -1 0 651.89)"><stop offset="0" stop-color="#a69646"/><stop offset="1" stop-color="#706827"/></linearGradient><path d="M565.3 235.6s7.7-19 34.1-24c26.4-5.1 49.4-8.4 66.3-10.1 16.9-1.7 65.5-14.4 69.1-14.4s-1.5 42.2-1.5 42.2l-23.7 25.4h-99.7l-44.6-19.1z" clip-path="url(#SVGID_17_)" fill="url(#SVGID_18_)"/></g><g><defs><path id="SVGID_19_" d="M.1-.7h595.3v652.3H.1z"/></defs><clipPath id="SVGID_20_"><use xlink:href="#SVGID_19_" overflow="visible"/></clipPath><linearGradient id="SVGID_21_" gradientUnits="userSpaceOnUse" x1="599.405" y1="423.235" x2="599.405" y2="363.024" gradientTransform="matrix(1 0 0 -1 0 651.89)"><stop offset="0" stop-color="#cb9e6a"/><stop offset="1" stop-color="#997552"/></linearGradient><path d="M464.1 265.1s187.2 17 207.3 16.4c20.2-.6 58.4 8.6 61.8 7.3s0-59.5 0-59.5-59.7 16.6-77.7 16.1-54.1-20.3-75.5-16.1c-21.4 4.3-25.9 22.3-34.9 22.3s-24.8 6.3-33.8 6.2c-8.9-.2-47.2 7.3-47.2 7.3z" clip-path="url(#SVGID_20_)" fill="url(#SVGID_21_)"/></g><g><defs><path id="SVGID_22_" d="M.1-.7h595.3v652.3H.1z"/></defs><clipPath id="SVGID_23_"><use xlink:href="#SVGID_22_" overflow="visible"/></clipPath></g><path class="st7" d="M-.1.2h198.4v218.3H-.1V.2z"/><path class="st7" d="M197.9.2h198.4v218.3H197.9V.2zm199 0h198.4v218.3H396.9V.2z"/><path class="st7" d="M-.1 218.2h198.4v218.3H-.1V218.2z"/><path class="st7" d="M197.9 218.2h198.4v218.3H197.9V218.2zm199 0h198.4v218.3H396.9V218.2z"/><g opacity=".7"><ellipse class="st9" cx="289.3" cy="394.6" rx="179.6" ry="26.6"/><ellipse class="st9" cx="289.3" cy="394.6" rx="144.3" ry="21.4"/><ellipse class="st9" cx="288.6" cy="394.6" rx="97.9" ry="14.5"/></g><g class="st10"><ellipse class="st9" cx="182.9" cy="391.6" rx="60.2" ry="8.9"/><ellipse class="st9" cx="182.9" cy="391.6" rx="48.4" ry="7.2"/><ellipse class="st9" cx="182.7" cy="391.6" rx="32.8" ry="4.9"/></g><g class="st10"><ellipse class="st9" cx="426.9" cy="386.6" rx="60.2" ry="8.9"/><ellipse class="st9" cx="426.9" cy="386.6" rx="48.4" ry="7.2"/><ellipse class="st9" cx="426.7" cy="386.6" rx="32.8" ry="4.9"/></g><g><defs><ellipse id="SVGID_24_" cx="288.4" cy="205.4" rx="379.7" ry="194.7"/></defs><clipPath id="SVGID_25_"><use xlink:href="#SVGID_24_" overflow="visible"/></clipPath><g id="poséidon" clip-path="url(#SVGID_25_)"><linearGradient id="SVGID_26_" gradientUnits="userSpaceOnUse" x1="238.494" y1="414.141" x2="332.027" y2="397.649" gradientTransform="matrix(1 0 0 -1 0 651.89)"><stop offset="0" stop-color="#0f4c49"/><stop offset="1" stop-color="#37a19f"/></linearGradient><path d="M274.6 175.3c-.9.8-1.8 1.7-2.8 2.4-2.5 1.6-5.7 1.6-8.6 2.1s-6.1 2.3-6.4 5.3c-.1 1.5.6 3 0 4.4-.3.9-1.2 1.6-2 2.2-2.2 1.7-4.4 3.5-6 5.8-1.5 2.3-2.3 5.3-1.4 8 .4 1.1 1.1 2.2 1.2 3.4.2 2.1-1.6 3.9-3.2 5.3-2.6 2.4-5.1 5.8-3.9 9.2 1.2 3.5 6.2 5.9 5.1 9.4-.4 1.2-1.4 2-2.6 2.5-1.7.7-2.6 2.6-2 4.4.4 1.1 1.4 2 2.6 2.1 5 .4 3.4 3.2 4 8.1.6 4-2 7.7-3.9 11.3-2.7 4.9-4.4 10.4-4.9 16-.1 1.1-.2 2.3.3 3.4.4.9 1.2 1.6 2.1 2.1 4.8 3.1 18.1 3.5 22 7.7 4.6 4.9 3.4 12.8 1.5 19.2-.3.9-.5 1.8-.3 2.7.2.8.9 1.5 1.5 2.1 3.9 3.2 9.5 3.9 14.4 2.8s9.4-3.9 13.4-6.9c4.2-3.1 8.1-6.6 10.8-11 2.5-4.2 3.8-9.1 5.7-13.7.4-1.1 1-2.2 1.9-2.8 1.5-1 3.6-.5 5.4-.5 5.9-.1 10.3-6.3 10.3-12.2.1-5.9-3-11.4-6.3-16.2-1.4-2-2.8-4.1-3-6.5-.4-4.4 3.3-8.9 1.4-12.8-1.6-3.2-6.4-4.1-7.6-7.5-1.3-3.6 2.2-7.2 2.7-11-4.2-1.8-5.5-7.4-4.1-11.7.6-1.8 1.5-3.5 1.4-5.4-.1-2.8-2.9-5.3-5.8-5 .5-2.3.8-4.7.8-7.1 0-1 0-2.2-.6-3-.5-.7-1.2-1.1-2-1.4-5.1-2.4-9.5-3.1-14-6.5-4.9-4.5-11.9-5.2-17.1-.7z" fill="url(#SVGID_26_)"/><linearGradient id="tong_gauche_1_" gradientUnits="userSpaceOnUse" x1="247.876" y1="17.212" x2="283.894" y2="17.212" gradientTransform="matrix(1 0 0 -1 0 651.89)"><stop offset="0" stop-color="#1d1e1d"/><stop offset="1" stop-color="#3d3d3d"/></linearGradient><path id="tong_gauche_2_" d="M283.1 623.7s1.1 2.6.8 3.6c-.4 1-6.8 8.2-7 9s-1.8 7.1-3.8 8c-2 .8-9.6 2.6-17.1 0s-9.1-1.7-7.4-8.3c1.7-6.6 19.8-7.6 24-9.2 4.2-1.7 10.5-3.1 10.5-3.1z" fill="url(#tong_gauche_1_)"/><linearGradient id="SVGID_27_" gradientUnits="userSpaceOnUse" x1="266.087" y1="255.471" x2="266.087" y2="8.811" gradientTransform="matrix(1 0 0 -1 0 651.89)"><stop offset="0" stop-color="#f6af9a"/><stop offset=".414" stop-color="#fbd9cd"/></linearGradient><path d="M279.6 594.2c-.6 7 3.5 24.7 3.5 29.5 0 2.1-2.3 5.4-5 8.7l-.2.2-1.8 2.1c-2.8 3.2-5.6 6.1-6.3 7.4-1.6 2.8-19.8-.9-21.2-4.9 0-.1 0-.1-.1-.2-.5-2.4 1.7-4.2 5.3-7.5 1-.9 2.1-1.9 3.2-3 1.9-1.9 3.9-4.1 6-6.9 4.2-5.6 6.4-26.9.4-41.6-7.1-17.4-7.6-41.9-6.7-45.7s3.2-18.4 0-26.3c-17.8-44.5-8.8-102.4-8.8-102.4s3.7-3.5 8.7-5.6c8.5-3.5 20.9-3.3 26.5 23.3 9 42.5-2.6 98.3-1.4 106.6 3.9 24.9-1.5 59.3-2.1 66.3z" fill="url(#SVGID_27_)"/><path class="st15" d="M269.6 623.4c-3.9 8-12.2 14.3-21 13.8 0-.1 0-.1-.1-.2-.5-2.4 1.7-4.2 5.3-7.5 1-.9 2.1-1.9 3.2-3 1.9-1.9 3.9-4.1 6-6.9 4.2-5.6 6.4-26.9.4-41.6-7.1-17.4-7.6-41.9-6.7-45.7s3.2-18.4 0-26.3c-17.8-44.5-8.8-102.4-8.8-102.4s3.7-3.5 8.7-5.6c.1.9.1 1.9 0 2.9-1.2 9.2-3.8 17.9-4.1 27.3-.3 10.4.5 20.7 2.1 30.9 1.8 11.8 4.4 23.5 7.3 35.1 2.4 9.7 5 19.4 5.7 29.3 1.1 15-1.9 30.2-.4 45.2.9 9.2 3.6 18.2 5 27.4s1.4 19-2.6 27.3z"/><linearGradient id="lacets_tong_gauche_1_" gradientUnits="userSpaceOnUse" x1="253.775" y1="21.24" x2="278.075" y2="21.24" gradientTransform="matrix(1 0 0 -1 0 651.89)"><stop offset="0" stop-color="#1d1e1d"/><stop offset="1" stop-color="#3d3d3d"/></linearGradient><path id="lacets_tong_gauche_2_" d="M278.1 632.4l-.2.2-1.8 2.1c-.7-5.7-4.7-3.6-6.4-3.4-1.8.3-6.7 3.4-6.7 3.4-.3-1-1.2-1.7-2.2-1.9-2.6-.4-6.5-2.9-7-3.2 1-.9 2.1-1.9 3.2-3 0 0 0 .1.1.1.8 2.6 7.3 4.9 7.3 4.9 4.2-3.1 7.5-3.6 9.5-3.6s4.2 4.4 4.2 4.4z" fill="url(#lacets_tong_gauche_1_)"/><linearGradient id="tong_droite_1_" gradientUnits="userSpaceOnUse" x1="313.606" y1="17.727" x2="345.571" y2="17.727" gradientTransform="matrix(1 0 0 -1 0 651.89)"><stop offset="0" stop-color="#1d1e1d"/><stop offset="1" stop-color="#3d3d3d"/></linearGradient><path id="tong_droite_2_" d="M315.3 623.3s-4.5-1.3 1 8.3c2.3 4-.8 10 4.8 12.5s22.4 0 23.9-4.8-1.1-4.3-1.1-4.3-14.9-3.6-21.1-7.8-7.5-3.9-7.5-3.9z" fill="url(#tong_droite_1_)"/><linearGradient id="SVGID_28_" gradientUnits="userSpaceOnUse" x1="315.775" y1="252.318" x2="315.775" y2="10.493" gradientTransform="matrix(1 0 0 -1 0 651.89)"><stop offset="0" stop-color="#f6af9a"/><stop offset=".414" stop-color="#fbd9cd"/></linearGradient><path d="M322.1 641.2c-3.1-.7-3.4-5.5-3.9-9.2-.1-.8-.2-1.6-.3-2.2-.1-.7-.3-1.2-.5-1.6-1.6-2.5-3.5-5.1-2.9-12.1s1.3-14.9 1.3-17.8c0-2.9-11.1-40-11.1-48.8s2.8-21.4 2.2-27.2c-.6-5.6-12.1-43.5-18.6-103.3-.2-2.3-.5-4.6-.7-6.9-2.1-21.4 37-8.9 37-8.9s16.5 49.5 3.9 99.9c-2.2 8.9 3.1 8.1.4 19.3-1.4 5.7 7.2 15.2 1.8 48.2s2.5 40.6 2.5 43.1-1.3 5.4 0 7c.6.7 2.7 2.7 4.8 5.2l2.1 2.4c1.9 2.3 3.5 4.7 3.9 6.6.9 5-17.5 7.2-21.9 6.3z" fill="url(#SVGID_28_)"/><linearGradient id="SVGID_29_" gradientUnits="userSpaceOnUse" x1="294.469" y1="408.155" x2="294.469" y2="213.394" gradientTransform="matrix(1 0 0 -1 0 651.89)"><stop offset="0" stop-color="#f6af9a"/><stop offset=".414" stop-color="#fbd9cd"/></linearGradient><path d="M440.7 281.1c-.5 2-4.4 7.1-7.5 10.7-5.1 7-8 18.4-8.7 19.1-1 1-6.7 10.8-10.1 15.5-3.5 4.8-11.4 11.4-12.7 11.4-.7 0-4.3 2.2-8 4.1-2.8 1.5-5.7 2.9-7.5 3.2-4.1.6-8.6-.6-26.6-14-18.1-13.3-16.8-22.8-18.1-22.8-1.3 0-5.7-6.4-5.4-4.8.3 1.6-2.5 13.6-3.5 19.7-1 6-5.7 17.8-5.4 23.3.3 5.5-3.7 44.1-4.3 45.7-.6 1.6-25.5 5.3-41.4 6.3s-32.3-6-31.4-8.9c.1-.2.1-.7.2-1.4.6-8.3-.2-48.8-.2-48.8-.4-.7-.9-1.5-1.3-2.2-7.3-14.8-4.9-45.5-6.7-36.5-7.4 36.9-24.1 36.5-24.4 42.2-.3 5.7-7.9 22.8-10.2 26.9-2.2 4.1-.4 7.8-18.1 24.8 0 0-8.6 7.2-10.2 10.7 0 0-2.7 6.9-8.3 14.1-5.5 7.1-5 10.5-5 10.5s-4 3-3.2-2.7-5 7.1-5.3 9.8c-.3 2.7-6 1.3-7.8-.7-.8-.9-1.6-2.8-2.1-5-.6-2.9-.7-6.2.7-8.4 2.3-3.9 5.3-12.7 7.3-14.5s8.1-5 10.8-7.6 9.8-19.8 9.8-19.9c3.4-11.2 7.9-28 9.8-32.5 2.6-6.4 6.4-7.9 6.4-9.8s.7-4 3.1-7.8c2.4-3.8 8.1-5 8.1-11.9 0-13.9 9.7-25.2 9.7-25.2 3.2-20.3 7.9-24 15.7-28.8 0 0 .1-.1.2-.1 1-.6 2-1.1 3-1.4 6.7-2.2 12.2 1.4 12.2 1.4 1.6-2.5 8.9-4.8 15.2-6.4 3.2-1.7 9.4-10.1 9.9-12.8.7-3.5 26.7-1 26.7-1s3.9 10.9 13.3 13.5c.7.2 1.3.3 1.9.5h.2c.4.1.7.2.9.2 16.6 4.4 18.9 6.4 20.6 7.4 1 .6 9.4-1.4 16.8 1.7 21.4 9 12.9 22.4 18.3 26.4 15.9 11.7 12.5 25.3 16 22.4 16-13.1 25.4-21 30.8-25.8 1-.9.7-2.4-.4-3-2-1.5-5-9.5-.5-16.6 1.6-2.6 2-4.3 6.6-5.9 4.4-1.5 10.2-.9 13.9-.6 1.9.1 4.3 2.3 5.4 3.8 3.3 4.4 1.6 9.3.8 12.5z" fill="url(#SVGID_29_)"/><path class="st15" d="M319 628.3c-.2 1.2-.4 2.5-.8 3.6-.1-.8-.2-1.6-.3-2.2-.1-.7-.3-1.2-.5-1.6-1.6-2.5-3.5-5.1-2.9-12.1s1.3-14.9 1.3-17.8c0-2.9-11.1-40-11.1-48.8s2.8-21.4 2.2-27.2c-.6-5.6-12.1-43.5-18.6-103.3v-.3c0-1.2.1-2.4.6-3.5 1.3-2.9 6.8-4.5 9.5-2.3 3.3 2.7.2 8-.2 11.5-1.3 10.5 1.5 21.2 4.4 31.2 3.8 13.6 7.7 27.2 11.5 40.8 2.1 7.4 4.2 14.9 4.2 22.6 0 6.4-1.3 12.8-2.1 19.2-3.6 30.2 7.3 60.5 2.8 90.2z"/><linearGradient id="lacet_tong_droite_1_" gradientUnits="userSpaceOnUse" x1="315.715" y1="21.59" x2="340.112" y2="21.59" gradientTransform="matrix(1 0 0 -1 0 651.89)"><stop offset="0" stop-color="#1d1e1d"/><stop offset="1" stop-color="#3d3d3d"/></linearGradient><path id="lacet_tong_droite_2_" d="M340.1 628.5s-1.8 1.8-7.8 3.2c-2.8.6-3.6 2.8-3.6 2.8s-6.3-5.3-10.8-4.7c-4.5.7-.5-1.6-.5-1.6s3.4-2 5.6-.8c2.2 1.3 4.8 3.5 4.8 3.5.7-.7 10.3-1.5 10.4-4.8.5.7 1.2 1.6 1.9 2.4z" fill="url(#lacet_tong_droite_1_)"/><path class="st15" d="M242.2 301.8c-.6 1.1-1.3 1.6-2.1 0s-.9-3-.9-4.7c-.1-5-.1-10-.1-15v-9c0-2.4 0-4.9-1.1-7-.2-.4-.4-.7-.8-1-1.1-.8-3.9-.6-3.8-2 .8 0 5.3-.2 6.2.2.8.5 2.7 22.1 2.6 38.5zm11.6 64.5c-.1 8.5 1.9 15.8-.7 23.9-1.2-.3-2.1-1-2.8-2.1.6-8.3-.2-48.8-.2-48.8-.5-.7-.9-1.4-1.3-2.2 3.4-3.4 3.2 5.1 3.9 7.9 1.7 6.9 1.3 14.4 1.1 21.3z"/><linearGradient id="SVGID_30_" gradientUnits="userSpaceOnUse" x1="261.773" y1="385.093" x2="306.841" y2="385.093" gradientTransform="matrix(1 0 0 -1 0 651.89)"><stop offset="0" stop-color="#e4e1e0"/><stop offset="1" stop-color="#f2f2f2"/></linearGradient><path d="M306.2 263.8c-1 4.4-10.7 8.5-12.8 8.8-2.2.3-2.7 2.2-3 2.6-.3.5-2.5 5.8-2.9 5.8l-.2-.2c-1-1.2-5.2-7.9-7-8.1h-.2c-2.2-.2-8-.4-14.4-6.6-6.7-6.4-2.8-12.3-2.3-12.8s3.7-1.3 2 0c-4 2.9-1.1 9.4 3.6 13.2s11.9 3.9 19 4.2c7.1.3 14.9-1.7 16.9-8.9 1.5-5.2-.4-6.2-1.7-7.1-.4-.3-3.7-2.7 1-1.8 3.1.7 3 6.6 2 10.9z" fill="url(#SVGID_30_)"/><linearGradient id="slip_1_" gradientUnits="userSpaceOnUse" x1="248.354" y1="252.039" x2="323.814" y2="238.733" gradientTransform="matrix(1 0 0 -1 0 651.89)"><stop offset="0" stop-color="#1d1e1d"/><stop offset="1" stop-color="#3d3d3d"/></linearGradient><path id="slip_2_" d="M250.7 387.9c7.2 2.1 45 11.6 72.4 2.9 0 0 .1.8.3 1.9.6 2.7 1.5 6.9 1.7 12.7 0 0-7.5-2.5-20.9 13.1s-22.5 9.5-26 6.7c-3.5-2.9-15-20.8-27.9-19.3l-2.9.3 2.6-16.6c.3-.8.7-1.7.7-1.7z" fill="url(#slip_1_)"/><linearGradient id="SVGID_31_" gradientUnits="userSpaceOnUse" x1="285.499" y1="458.015" x2="285.499" y2="403.783" gradientTransform="matrix(1 0 0 -1 0 651.89)"><stop offset="0" stop-color="#f6af9a"/><stop offset=".414" stop-color="#fbd9cd"/></linearGradient><path d="M305.1 230.7c-1.1.6-1.8 1.1-2.5.8-1.1 3.5-2.6 6.7-4.2 9.3-5.5 9.1-17.1 7.2-17.1 7.2s-11 0-15.2-8c-.4-.8-.8-1.7-1.2-2.5 0 0 0-.1-.1-.1.1-.1.2-.3.2-.5l-2.7-19.8c-.1-1.7-.1-3.4.3-5 1.9-8.7 9.8-19.1 23.6-18.1 6.4.5 10 2.3 12.5 1.2.6.6 1.1 1.3 1.6 2 1.2 1.6 2.1 3.5 2.7 5.4 1.7 5.4 2.2 10.9 1.9 16.2l.1-.2s1-5.4 3.1-3.2c2.1 2.1-1.4 14.4-3 15.3z" fill="url(#SVGID_31_)"/><path d="M300.5 197.1c0 .3-.1.5-.2.7-.3.4-.9.5-1.4.5-6.5.5-11.3 0-17.7.1-2 0-4.3 1.1-6.4 2.6-2.4 1.7-4.3 4.1-5.2 7-3.1 9.8-.8 20-4.5 29.5 0 0 0-.1-.1-.1.1-.1.2-.3.2-.5l-2.7-19.8c-.1-1.7-.1-3.4.3-5 1.9-8.7 9.8-19.1 23.6-18.1 6.4.5 10 2.3 12.5 1.2.5.5 1.1 1.2 1.6 1.9z" opacity=".5" fill="#f6af9a"/><linearGradient id="serviette_1_" gradientUnits="userSpaceOnUse" x1="228.417" y1="362.214" x2="292.208" y2="350.966" gradientTransform="matrix(1 0 0 -1 0 651.89)"><stop offset="0" stop-color="#e4e1e0"/><stop offset="1" stop-color="#f2f2f2"/></linearGradient><path id="serviette_2_" d="M233.2 263.2s-.2-10.4 12.9-10.4c4.5 0 2.1-3.2 9.1-3.5 2.9-.1 2.7-3.7 6.7-1.9 4 1.9 16.4 47.1 23.7 91-6.7 2.6-11.7 5-15.5 4.8-3.7-.3-18.9-1.6-22.7-1.9-3.7-.3-8.2.1-5.6-29.6 1.3-15.5-1.2-47.9-2.3-48.4-1-.4-6.3-.1-6.3-.1z" fill="url(#serviette_1_)"/><linearGradient id="SVGID_32_" gradientUnits="userSpaceOnUse" x1="401.959" y1="231.417" x2="455.714" y2="221.938" gradientTransform="matrix(1 0 0 -1 0 651.89)"><stop offset="0" stop-color="#bc8210"/><stop offset="1" stop-color="#feca36"/></linearGradient><path d="M425.3 559.1c-1.2-1.2-2.3-2.4-3.3-3.7-9.6-12.4-8.5-29.3-6-22.4 2.8 7.6 7.7 7.7 7.7 7.7s.3-176.4 1-248.4v-.8l2.3.1c1.4.1 2.8-.1 4.1-.5l-3.5 249.4c9.5-2.4 7.7-12 8.7-7.7 2.8 12.6-11 26.3-11 26.3z" fill="url(#SVGID_32_)"/><linearGradient id="SVGID_33_" gradientUnits="userSpaceOnUse" x1="399.652" y1="466.92" x2="449.679" y2="458.099" gradientTransform="matrix(1 0 0 -1 0 651.89)"><stop offset="0" stop-color="#bc8210"/><stop offset="1" stop-color="#feca36"/></linearGradient><path d="M454 169.5l-2.4 3c0 6.3-2.4 10.1-4 12.4-1.6 2.2-7.5 6.5-12.8 9-5.4 2.5-2.4 13.5-.6 14.8 1.7 1.3 9.7.3 9.7.3v4s-8.4-.8-11.1.3-1.2 50.9-1.2 50.9v.5c-1.4-.1-2.9-.2-4.5-.1-.6 0-1.3 0-1.9.1.9-30 .5-49.3-.9-51.2s-10.1-1.6-10.1-1.6l-.4-2.9H424c4.8 0 2.9-16.4 0-16.4-15.6 0-19.3-22.6-18.7-24.5.5-1.9 3.5-16.4 3.2-19.5-.4-3.1-2.5-2.9-1.3-3.9.9-.8 1.9-7.4 2.4-10.7.2-1.6.7-3.2 1.4-4.6.3-.7.6-1.1.6-.6 0 1.3 0 17.6-.5 38.5-.4 16.7 8.1 19.4 12.5 19.5 1.1 0 1.9-.1 2.3-.3 1.9-.6 1-37.6.9-38.9-.2-1.3-1.6-1.4-1.4-2.1.2-.6 4.9-31.2 5.1-30.3.2.9 4.4 28.7 4.3 29.5-.2.8-1.7 1.3-2.2 1.9-.5.6-.8 17.6-.9 21.1s-.7 19.3 3.1 18.7c12.6-2.1 12.8-14.9 13.3-16.5s1.6-24.1 1.4-27.4c-.2-3.3 0-14.4.6-8.4s3 11.9 3 11.9-1.6-.3-2.1 1.4c-.4 1.9.3 14.7.5 17.3.1 2.6 2.5 4.8 2.5 4.8z" fill="url(#SVGID_33_)"/><linearGradient id="SVGID_34_" gradientUnits="userSpaceOnUse" x1="263.582" y1="414.721" x2="302.3" y2="414.721" gradientTransform="matrix(1 0 0 -1 0 651.89)"><stop offset="0" stop-color="#0f4c49"/><stop offset="1" stop-color="#37a19f"/></linearGradient><path d="M295.2 240.7c0-.4.6-7.2-1.1-9.6-1.7-2.5-3.8-3.4-13.6-3.2-9.8.3-7.4 10.9-7.4 10.9-7.6-.8-9.4-13.4-9.4-13.4-.3 13 3 19.7 13.9 22.5s15.7-.7 19.7-3c2.6-1.5 4.3-8.5 5.1-12-1.6 3.9-7.2 8.1-7.2 7.8zm-3.1.4c-2.5.6-4.8 1.2-5.4 1s.4-3.5-2.6-3.6c-2.3-.1-1.9 3.6-1.9 3.6s-6.3.5-7.2-3.3-1-6.2 1.7-6.6c2.6-.4 6.7-1.1 8.9-.7 2.2.4 6.9 1.2 7.5 2.6.5 1.3 1.5 6.4-1 7z" fill="url(#SVGID_34_)"/><linearGradient id="SVGID_35_" gradientUnits="userSpaceOnUse" x1="302.289" y1="420.116" x2="302.715" y2="420.116" gradientTransform="matrix(1 0 0 -1 0 651.89)"><stop offset="0" stop-color="#0f4c49"/><stop offset="1" stop-color="#37a19f"/></linearGradient><path d="M302.3 232.8c.2-.4.3-.9.3-1.3.2-1.5.1-.6-.3 1.3z" fill="url(#SVGID_35_)"/><path class="st15" d="M393.7 342c-2.8 1.5-5.7 2.9-7.5 3.2-4.1.6-8.6-.6-26.6-14-18.1-13.3-16.8-22.8-18.1-22.8s-5.7-6.3-5.4-4.8c0 0-1.3.2.8-2.2 1.9-2.1 1-1.5 1-1.5 8.3 5.3 11.9 15.2 19 21.9 8.4 7.9 17.3 13.8 28.1 17.8 1.9.7 7.2.6 8.5 2.1.1.1.2.2.2.3z"/><path d="M285.6 338.5c-4-23.8-9.4-47.9-14.2-65.3.4 0 1 .4 1.6 1.3 5 6.8 4.8 17.5 6.9 25.2 1.9 10.5 3.9 21 5.8 31.5.5 2.9 1.9 5.2-.1 7.3zm1.9-57.4c-.3.3-.7-.1-1.1-.3-.8-.4-1.3-1-2-1.7-.8-.8-1.4-1.9-2-2.9-.3-.6-2.3-2.3-2.3-3.4h.2c1.8.2 5.9 6.8 7.2 8.3z" opacity=".3" fill="#f6af9a"/><path d="M428.5 199.9c-.4 11-.9 23.7-.8 35.3.1 10.1.3 19.3-.7 29.3-.6 0-1.3 0-1.9.1.9-30 .5-49.3-.9-51.2s-10.1-1.6-10.1-1.6l-.4-2.9h10.2c4.8 0 2.9-16.4 0-16.4-15.6 0-19.3-22.6-18.7-24.5.5-1.9 3.5-16.4 3.2-19.5-.4-3.1-2.5-2.9-1.3-3.9.9-.8 1.9-7.4 2.4-10.7.2-1.6.7-3.2 1.4-4.6.3-.7.6-1.1.6-.6 0 1.3 0 17.6-.5 38.5-.4 16.7 8.1 19.4 12.5 19.5 3.2 3.7 5.1 8.5 5 13.2zm-.9 101.2l-2.2 233.1c-.8 10-2 16.7-3.5 21.2-9.6-12.4-8.5-29.3-6-22.4 2.8 7.6 7.7 7.7 7.7 7.7s.3-176.4 1-248.4c.7.1 1.4.3 2 .8 2.2 1.7.1 5.3 1 8z" opacity=".2" fill="#bc8210"/><path class="st15" d="M228.1 270.4c-1.3 2-3.2 3.6-4.7 5.5-5.6 7.1-4.4 17.3-7.2 25.9-1.3 3.8-3.8 12.1-5.8 15.6-11.9 20.8-21.1 38.1-28.1 61.1-2.3 7.7-4.5 15.6-9.2 22.1-7.2 9.8-19.9 15.7-24 27.1-.4 1.2-.9 2.4-1.4 3.6-.6-2.9-.7-6.2.7-8.4 2.3-3.9 5.3-12.7 7.3-14.5s8.1-5 10.8-7.6 9.8-19.8 9.8-19.9c3.4-11.2 7.9-28 9.8-32.5 2.6-6.4 6.4-7.9 6.4-9.8s.7-4 3.1-7.8c2.4-3.8 8.1-5 8.1-11.9 0-13.9 9.7-25.2 9.7-25.2 3.2-20.3 7.9-24 15.7-28.8.6 1.5.4 3.2-1 5.5z"/></g></g></svg>