<svg xmlns="http://www.w3.org/2000/svg" xmlns:xlink="http://www.w3.org/1999/xlink" viewBox="0 0 277.9 277.9"><defs><style>.cls-1{fill:url(#Dégradé_sans_nom_121);}.cls-2,.cls-3,.cls-4,.cls-5{fill:none;stroke-miterlimit:10;}.cls-2{stroke:url(#Dégradé_sans_nom_128);}.cls-3{stroke:url(#Dégradé_sans_nom_128-2);}.cls-4{stroke:url(#Dégradé_sans_nom_128-3);}.cls-5{stroke:url(#Dégradé_sans_nom_128-4);}.cls-6{fill:url(#Dégradé_sans_nom_128-5);}.cls-7{fill:url(#Dégradé_sans_nom_128-6);}.cls-8{fill:url(#Dégradé_sans_nom_128-7);}.cls-9{fill:url(#Dégradé_sans_nom_128-8);}.cls-10{fill:url(#Dégradé_sans_nom_128-9);}.cls-11{fill:url(#Dégradé_sans_nom_128-10);}.cls-12{fill:url(#Dégradé_sans_nom_128-11);}.cls-13{fill:url(#Dégradé_sans_nom_128-12);}.cls-14{fill:url(#Dégradé_sans_nom_128-13);}.cls-15{fill:url(#Dégradé_sans_nom_128-14);}.cls-16{fill:url(#Dégradé_sans_nom_128-15);}.cls-17{fill:url(#Dégradé_sans_nom_128-16);}.cls-18{fill:url(#Dégradé_sans_nom_128-17);}.cls-19{fill:url(#Dégradé_sans_nom_128-18);}</style><linearGradient id="Dégradé_sans_nom_121" x1="138.95" y1="277.9" x2="138.95" gradientUnits="userSpaceOnUse"><stop offset="0" stop-color="#1d2547"/><stop offset="1" stop-color="#36477f"/></linearGradient><linearGradient id="Dégradé_sans_nom_128" x1="171.59" y1="87.86" x2="171.59" y2="54.12" gradientUnits="userSpaceOnUse"><stop offset="0" stop-color="#bc8210"/><stop offset="1" stop-color="#feca36"/></linearGradient><linearGradient id="Dégradé_sans_nom_128-2" x1="222.29" y1="150.13" x2="222.29" y2="82.27" xlink:href="#Dégradé_sans_nom_128"/><linearGradient id="Dégradé_sans_nom_128-3" x1="113.22" y1="236.02" x2="113.22" y2="154.69" xlink:href="#Dégradé_sans_nom_128"/><linearGradient id="Dégradé_sans_nom_128-4" x1="86.58" y1="155.66" x2="86.58" y2="59.32" xlink:href="#Dégradé_sans_nom_128"/><linearGradient id="Dégradé_sans_nom_128-5" x1="64.99" y1="67.48" x2="64.99" y2="53.85" xlink:href="#Dégradé_sans_nom_128"/><linearGradient id="Dégradé_sans_nom_128-6" x1="89.06" y1="91.56" x2="89.06" y2="77.92" xlink:href="#Dégradé_sans_nom_128"/><linearGradient id="Dégradé_sans_nom_128-7" x1="92.34" y1="119.92" x2="92.34" y2="105.97" xlink:href="#Dégradé_sans_nom_128"/><linearGradient id="Dégradé_sans_nom_128-8" x1="106.35" y1="162.55" x2="106.35" y2="148.58" xlink:href="#Dégradé_sans_nom_128"/><linearGradient id="Dégradé_sans_nom_128-9" x1="145.95" y1="229.01" x2="145.95" y2="215.05" xlink:href="#Dégradé_sans_nom_128"/><linearGradient id="Dégradé_sans_nom_128-10" x1="78.07" y1="190.83" x2="78.07" y2="176.87" xlink:href="#Dégradé_sans_nom_128"/><linearGradient id="Dégradé_sans_nom_128-11" x1="114.13" y1="242.45" x2="114.13" y2="228.49" xlink:href="#Dégradé_sans_nom_128"/><linearGradient id="Dégradé_sans_nom_128-12" x1="250.57" y1="155.21" x2="250.57" y2="141.71" xlink:href="#Dégradé_sans_nom_128"/><linearGradient id="Dégradé_sans_nom_128-13" x1="241.38" y1="126.22" x2="241.38" y2="112.72" xlink:href="#Dégradé_sans_nom_128"/><linearGradient id="Dégradé_sans_nom_128-14" x1="224.34" y1="105.09" x2="224.34" y2="91.76" xlink:href="#Dégradé_sans_nom_128"/><linearGradient id="Dégradé_sans_nom_128-15" x1="194.5" y1="90.04" x2="194.5" y2="76.08" xlink:href="#Dégradé_sans_nom_128"/><linearGradient id="Dégradé_sans_nom_128-16" x1="196.07" y1="60.35" x2="196.07" y2="46.98" xlink:href="#Dégradé_sans_nom_128"/><linearGradient id="Dégradé_sans_nom_128-17" x1="148.27" y1="66.42" x2="148.27" y2="52.63" xlink:href="#Dégradé_sans_nom_128"/><linearGradient id="Dégradé_sans_nom_128-18" x1="153.76" y1="93.06" x2="153.76" y2="79.49" xlink:href="#Dégradé_sans_nom_128"/></defs><title>shootingstars</title><g id="Calque_2" data-name="Calque 2"><g id="Calque_20" data-name="Calque 20"><circle class="cls-1" cx="138.95" cy="138.95" r="138.95"/><polygon class="cls-2" points="153.35 87.31 193.89 82.72 195.82 54.69 147.43 60.38 153.35 87.31"/><polyline class="cls-3" points="193.89 82.72 224.27 97.25 241.69 120.55 250.43 149.99"/><polygon class="cls-4" points="107.53 155.5 147.13 221.97 115.31 235.4 79.25 183.78 107.53 155.5"/><polyline class="cls-5" points="107.53 155.5 93.42 113.25 89.58 83.75 65.5 59.67"/><polygon class="cls-6" points="58.04 61.76 61.84 58.71 61.47 53.85 65.55 56.52 70.06 54.67 68.79 59.37 71.94 63.09 67.07 63.33 64.5 67.48 62.77 62.92 58.04 61.76"/><polygon class="cls-7" points="82.11 85.84 85.91 82.78 85.55 77.92 89.63 80.59 94.14 78.75 92.86 83.45 96.01 87.17 91.14 87.41 88.58 91.56 86.85 87 82.11 85.84"/><polygon class="cls-8" points="85.58 112.66 90.07 110.75 91.04 105.97 94.24 109.65 99.09 109.1 96.58 113.28 98.6 117.72 93.85 116.62 90.26 119.92 89.83 115.06 85.58 112.66"/><polygon class="cls-9" points="99.69 155.62 104.03 153.41 104.68 148.58 108.12 152.03 112.92 151.15 110.7 155.5 113.02 159.78 108.2 159.02 104.84 162.55 104.08 157.73 99.69 155.62"/><polygon class="cls-10" points="139.28 222.09 143.63 219.88 144.28 215.05 147.72 218.5 152.51 217.62 150.3 221.96 152.62 226.25 147.8 225.48 144.44 229.01 143.68 224.2 139.28 222.09"/><polygon class="cls-11" points="71.4 183.91 75.75 181.7 76.39 176.87 79.84 180.32 84.63 179.44 82.41 183.78 84.73 188.07 79.92 187.3 76.56 190.83 75.8 186.01 71.4 183.91"/><polygon class="cls-12" points="107.46 235.53 111.81 233.32 112.45 228.49 115.9 231.94 120.69 231.06 118.48 235.4 120.8 239.69 115.98 238.92 112.62 242.45 111.86 237.63 107.46 235.53"/><polygon class="cls-13" points="243.6 147.17 248.37 146.2 250.28 141.71 252.68 145.95 257.54 146.37 254.25 149.97 255.35 154.72 250.91 152.7 246.73 155.22 247.28 150.37 243.6 147.17"/><polygon class="cls-14" points="234.4 118.18 239.18 117.2 241.08 112.72 243.49 116.96 248.35 117.38 245.06 120.98 246.16 125.73 241.72 123.71 237.54 126.22 238.09 121.38 234.4 118.18"/><polygon class="cls-15" points="217.36 100.11 220.81 96.66 219.92 91.87 224.26 94.08 228.55 91.76 227.79 96.58 231.32 99.94 226.5 100.69 224.4 105.09 222.19 100.75 217.36 100.11"/><polygon class="cls-16" points="188.08 87.65 190.2 83.26 187.79 79.02 192.62 79.68 195.9 76.08 196.77 80.88 201.21 82.89 196.91 85.19 196.38 90.04 192.86 86.66 188.08 87.65"/><polygon class="cls-17" points="191.58 60.17 192.51 55.38 189.09 51.9 193.93 51.31 196.18 46.98 198.25 51.4 203.05 52.21 199.49 55.53 200.21 60.35 195.94 57.99 191.58 60.17"/><polygon class="cls-18" points="142.74 65.09 144.29 60.47 141.37 56.57 146.25 56.62 149.05 52.63 150.51 57.29 155.17 58.73 151.19 61.55 151.27 66.42 147.35 63.52 142.74 65.09"/><polygon class="cls-19" points="148.84 92.42 150.02 87.69 146.79 84.03 151.66 83.69 154.13 79.49 155.96 84.01 160.72 85.07 156.99 88.2 157.45 93.06 153.31 90.47 148.84 92.42"/></g></g></svg>