<svg id="Calque_1" xmlns="http://www.w3.org/2000/svg" xmlns:xlink="http://www.w3.org/1999/xlink" viewBox="0 0 595.3 652.8"><style>.st16{fill:#fad29c}.st17{fill:#e5bf91}.st18{fill:#f1c998}.st19{fill:#cda883}.st20{opacity:.6;fill:#664c49;enable-background:new}.st60,.st66,.st69,.st79{opacity:.3;fill:#f6b09b;enable-background:new}.st66,.st69,.st79{opacity:.5;fill:#1d1e1d}.st69,.st79{opacity:2.000000e-02}.st79{display:none;opacity:.1}</style><g id="Fond"><defs><path id="SVGID_1_" d="M0 0h595.1v652.8H0z"/></defs><clipPath id="SVGID_2_"><use xlink:href="#SVGID_1_" overflow="visible"/></clipPath><g clip-path="url(#SVGID_2_)"><linearGradient id="ciel_1_" gradientUnits="userSpaceOnUse" x1="297.997" y1="652.1" x2="297.997" y2="-.9" gradientTransform="matrix(1 0 0 -1 0 652)"><stop offset="0" stop-color="#2f3153"/><stop offset="1" stop-color="#455288"/></linearGradient><path id="ciel" fill="url(#ciel_1_)" d="M0-.1h596v653H0z"/><g id="montagne"><linearGradient id="SVGID_3_" gradientUnits="userSpaceOnUse" x1="298.396" y1="305.4" x2="298.396" y2="118" gradientTransform="matrix(1 0 0 -1 0 652)"><stop offset="0" stop-color="#b18049"/><stop offset="1" stop-color="#493c3a"/></linearGradient><path d="M579.7 404.6c.3 8-2.8 3.9-6.3 6.3-3.6 2.5 0 27.2 0 27.2l-5.8 4.7 3 2.5-.3 30.8-6.3 4.4-2.5-1.6-6.9 3.3 1.1 15.9 5.8 6.3-.3 1.9 5 7.1-1.1 20.6-207.3-6.6-42.5.1-296 .4 1.6-30.7-4.1-6.9 5.8-28.3 6.3-2.7 5-27.2 3.8 3.3 3-3.3 5.5 3.8-.6-5.8-6.9-6.9-3.3-6-.3-11.5-8-9.1 2.5-12.6-5.8-4.7 2.7-27.5 19.5-4.1 4.4 1.4 6.6-2.5h7.2l9.3 1.9 9.9 1.9.8 13.6v.4s0 11.5 3 11c1.2-.2 2-.8 2.7-1.5.2-.3.4-.5.6-.7.1-.1.2-.3.2-.4.4-.6.6-1.1.6-1.2l1.9 8.2 4.1 2.5 1.6 5.2 12.3.8 26.7 1.8 12.8 4.5 11.1-.4 15.3 2.9 5.8-1.6 1.2-5h7.8l8.7-3.3 12.8 5 6.6 3.7 7.4-2.9 4.1 9.5 12.4 6.6L276 419l9.1-10.7 15.3 7.8 6.6 2.1-1.2 4.5 7 4.1 14.4 3.7 15.3-40.8.3 18.4 6-8.5 11.3 11.8 5-9.1 7.4-7.1 6.3 4.4 7.4-.6 5.8 3.3 4.1 6 9.9-3.9 7.4-6.9 9.9 6.3 4.4 5.5 2.5-3 1.1-8.8 5.5-6.9 2.2 4.4 5.2 5.2 4.7 2.8 7.2-.6 2.7-10.4 8 .5v-.1s.1-.1.1-.2l.2-.4.2-.3c.1-.1.1-.2.2-.3l.1-.1c.1-.2.2-.4.4-.6l.1-.1c.1-.1.1-.2.2-.3l.1-.2.1-.2.5-.8c.1-.2.2-.3.3-.5l.2-.4.3-.6c.1-.1.2-.3.3-.4.7-1.2 1.5-2.5 2.3-3.7l.9-1.5c.1-.1.1-.2.2-.3.1-.2.3-.5.4-.7.1-.2.3-.4.4-.6.2-.3.4-.6.5-.9.6-1 1.2-1.9 1.6-2.6l.3-.6c.1-.1.1-.2.1-.2l.1-.1.2-.4c0-.1.1-.1.1-.1 1.4-2.5 10.7-9.3 12.4-9.6h.2l.3-.1.3-.1h.1l.3-.1.4-.1h.3l1.1-.2h.4c.1 0 .3 0 .4-.1.1 0 .3 0 .4-.1h.1l.4-.1h.2c5-.7 12.2-1.6 15-1.8 2.2-.1 7.8.1 12.9.3 4.7.2 9 .4 10.2.2 2.3-.3 10.5 1.6 11.9 1.9h.2l.6-2.2h.1l.3-.1 11.2-1.9 5.7 1.1h.1s1.1 1.9 2.5 2.2c.9.2 2.1-1.8 3.1-3.3l1.6-1.7 8-.8 2.8 11.3-3.8 6.6v.5l2.8 27.5z" fill="url(#SVGID_3_)"/><linearGradient id="SVGID_4_" gradientUnits="userSpaceOnUse" x1="90.062" y1="272.45" x2="99.247" y2="272.45" gradientTransform="matrix(1 0 0 -1 0 652)"><stop offset="0" stop-color="#b18049"/><stop offset="1" stop-color="#493c3a"/></linearGradient><path d="M97.5 382.3l-4.1-2.5-1.9-8.2s-.6 1.2-1.5 2.4c1-1.1 1.5-2.4 1.5-2.4l1.9 8.2 4.1 2.5 1.6 5.2-1.6-5.2z" fill="url(#SVGID_4_)"/><linearGradient id="SVGID_5_" gradientUnits="userSpaceOnUse" x1="83.456" y1="374.55" x2="530.708" y2="374.55" gradientTransform="matrix(1 0 0 -1 0 652)"><stop offset="0" stop-color="#b18049"/><stop offset="1" stop-color="#493c3a"/></linearGradient><path d="M530.5 206.7l-2.5.3-5.5-16.8-3.6-1.9 1.9-3-4.7-9.9h-10.7l-2.2-28.3-8-.3-4.4-.3-4.7-.5-2.5 2.7v-6l-4.1-3-48.3 3.6-2.5-7.7-3.6-2.2-3.9-8.8-3.6 6.3-3.9 1.1-4.7 8.5-4.7-.5-16-1.9-4.4 6.3-11 15.4-1.9 9.1-8.8 8.5-13.5 17-5.5-3-1.9-5.5-8.8-7.4-6.3-3-2-4.5-4.1-2.5-2.5 4.9-6.3-1.4-3 .5-10.2-1.9-11-.5h-10.2l-9.9.8-13.2 1.9-20.9.5-31.5 2.2-18.7 6.3-5.8 9.1-17.9 40.4.8 14.6 4.9 1.9-.5 26.1 6.3 4.7 2.2 15.1-5 .5-3.6-4.7-2.2 2.2-2.2 12.6-3.9 1.4-1.9 7.1-4.4 5.5-2.5 7.7-5.2-3.8-5.2 2.5-.8-3.9-7.2.8-6.1 11.8-7.2 1.9-4.1 11.5-19.5 1.4-8.8 1.9.8 13.6v-1.8l4.1 2.2 6.1-5.5 3.6 3.8 1.1 12.6 3.3-.5L103 363l4.7-1.1 4.4 2.5-.8 4.7 4.4 13.2-4.7 5.8 26.7 1.8 12.8 4.5 11.5-.4 15.3 2.9 5.8-1.6 1.2-4.9h7.8l8.7-3.3 12.8 4.9 6.6 3.7 7.4-2.9 4.1 9.5 12.4 6.6 32.1 9.9 9.1-10.7 15.3 7.8 6.6 2.1-1.2 4.5 7 4.1 14.4 3.7 15.3-40.8.3 18.4 6-8.5 11.3 11.8 4.9-9.1 7.4-7.1 6.3 4.4 7.4-.5 5.8 3.3 4.1 6 9.9-3.9 7.4-6.9 9.9 6.3 4.4 5.5 2.5-3 1.1-8.8 5.5-6.9 2.2 4.4 5.2 5.2 4.7 2.8 7.2-.5 2.2-10.7 8 .5s9.4-14.8 10.7-17.3c1.4-2.5 10.7-9.3 12.4-9.6.5-.1 2.3-.4 4.7-.7l-5.9-11.4-5.8-9.5-3.7-15.3 2.1-11.5 3.7-8.7-.8-6.2 2.5-5.8 1.2-12 9.2 8.9 14.9-3.8 5.8-8.2 4.1-.3.3-21.4-4.4-1.9 7.7-3.8 1.4-28.3 4.7-2.2-.7-16.5zM124.2 388.4c-2.8-2.2-2.2-6.6-2.2-6.6l-1.7-5.5 3-2.7 1.4-5.8 1.4-3.3 2.8 1.1.3 7.4 1.9 8.8s-4.1 8.8-6.9 6.6z" fill="url(#SVGID_5_)"/></g><linearGradient id="SVGID_6_" gradientUnits="userSpaceOnUse" x1="177.199" y1="435.3" x2="262.955" y2="435.3" gradientTransform="matrix(1 0 0 -1 0 652)"><stop offset="0" stop-color="#b18049"/><stop offset="1" stop-color="#493c3a"/></linearGradient><path fill="url(#SVGID_6_)" d="M186.2 238.4l.6 15.5 7.5 7.1-.3-12.5h-2.7l-1.4-2.7 30.4-13.8 32.9 2.1 3.9-3.1-.9-13.3 5.1-9.6-1.1-12.9-2.6-1.7 3.4-4.3.3-5.9 1.7-3.1-1.7-4.8-3.3-3-3.8.5-12.7.6H231.6l-2.5.3-2.9.2-6 .6-3 .1-15.5 1L183 182l-5.8 9.1 10 8.6.5 8.1 10.9 6.6.2 13.3-9.8 3z"/><linearGradient id="SVGID_7_" gradientUnits="userSpaceOnUse" x1="159.378" y1="429.5" x2="198.812" y2="429.5" gradientTransform="matrix(1 0 0 -1 0 652)"><stop offset="0" stop-color="#b18049"/><stop offset="1" stop-color="#493c3a"/></linearGradient><path fill="url(#SVGID_7_)" d="M177.2 191.1l10 8.6.5 8.1 10.9 6.6.2 13.3-9.8 3-2.8 7.7.6 15.5-21.7-6-4.9-1.9-.9-14.5z"/><linearGradient id="SVGID_8_" gradientUnits="userSpaceOnUse" x1="168.164" y1="219.9" x2="168.164" y2="124.2" gradientTransform="matrix(1 0 0 -1 0 652)"><stop offset="0" stop-color="#b18049"/><stop offset="1" stop-color="#493c3a"/></linearGradient><path fill="url(#SVGID_8_)" d="M76.5 447l39.1 2.3 4.2 2.6 6 26 14.3.4 14.6 13.2 9.1-19.2 4.9-10.6 15.4 10.2 11.3 2.3 19.2-4.2 18.1 19.6 2.6-7.5 20 9.7 11.2-15 7.5 9.8 7.2-11.7 10.2-5.3 7.5 8.3 14-11.7 6.7 12.9L313 509l-31.4 2.8-2.5 9.6 3.3-.3-1.4 6.6-261.6.1 1.6-30.6-4.2-6.9 5.8-28.3 6.2-2.7 5-27.2 3.9 3.3 18.8 13.5 12.8-12.8z"/><linearGradient id="SVGID_9_" gradientUnits="userSpaceOnUse" x1="314.669" y1="205.7" x2="580.125" y2="205.7" gradientTransform="matrix(1 0 0 -1 0 652)"><stop offset="0" stop-color="#b18049"/><stop offset="1" stop-color="#493c3a"/></linearGradient><path d="M579.7 404.6c.3 8-2.8 3.9-6.3 6.3-3.6 2.5 0 27.2 0 27.2l-5.8 4.7 3 2.5-.3 30.8-6.3 4.4-2.5-1.6-6.9 3.3 1.1 15.9 5.8 6.3-.3 1.9 5 7.1-1.1 20.6-249.7-6.2v-.4l-.8-10.8 10.7-2.1.8-6.6 35-2.9.4-19.8-6.2-6.2 42.4-11.5 47.4 5.5 5.8-23.1-4.5-18.6 9.6-28.7 2.1-10.6 8 .5v-.1s.1-.1.1-.2l.2-.4.2-.3c.1-.1.1-.2.2-.3l.1-.1c.1-.2.2-.4.4-.6l.1-.1c.1-.1.1-.2.2-.3l.1-.2.1-.2.5-.8c.1-.2.2-.3.3-.5l.2-.4.3-.6 7.2-11.6.1-.1.2-.4c0-.1.1-.1.1-.1l12.4-9.6h.2l.3-.1.3-.1h.1l.3-.1.4-.1h.3l1.1-.2h.4l.4-.1c.1 0 .3 0 .4-.1h.1l.4-.1h.2l15-1.8 12.9.3 10.2.2 11.9 1.9h.2l.6-2.2h.1l.3-.1 11.2-1.9 5.7 1.1h.1l2.5 2.2 3.1-3.3 1.6-1.7 8-.8 2.8 11.3-3.8 6.6v.5l3.3 27.6z" fill="url(#SVGID_9_)"/><linearGradient id="SVGID_10_" gradientUnits="userSpaceOnUse" x1="415.4" y1="425.993" x2="534.469" y2="357.248" gradientTransform="matrix(1 0 0 -1 0 652)"><stop offset="0" stop-color="#b18049"/><stop offset="1" stop-color="#493c3a"/></linearGradient><path fill="url(#SVGID_10_)" d="M441.5 217.2l1.5-24.9 3.8-1.4.8-15.1 3.3-1.6 1.3-12 8.4-6.8 9.3 8.7 6.2 11.7 3.3-.4 2.3-7 1.8.6.3-20.3 2.5-2.7 17.1 1.1 2.1 28.3h10.7l4.7 9.9-2 3 3.6 1.9L528 207l2.5-.3.3 16.8-4.7 2.2-1.4 28.3-7.7 3.8 4.4 2-.3 21.4-4.1.3-5.8 8.2-14.7 3.9-9.2-9-1.3 12-2.5 5.8.9 6.1-3.7 8.7-2.1 11.5 3.7 15.3 11.7 20.9-50.4-7.5-10.3 2.3-13.9-1.7 17.2-54 2.1-21 2-22.7-14.4-8.6 16.1-25.2z"/><linearGradient id="SVGID_11_" gradientUnits="userSpaceOnUse" x1="312.547" y1="437.802" x2="462.868" y2="287.481" gradientTransform="matrix(1 0 0 -1 0 652)"><stop offset="0" stop-color="#b18049"/><stop offset="1" stop-color="#493c3a"/></linearGradient><path fill="url(#SVGID_11_)" d="M441.5 217.2l-8.2-7.2 1.6-20.2-4.5-1.6v-19.8l-8.3-7.4-7.4.8-5.4-9.1-13.6 7 2.1-13.6-9.1-8.1-15.3 21.7-1.9 9.1-8.8 8.5-13.5 17.1 6.6 9.9v12.3l8.2 21-.4 21.9 5 14.4-.4 21.9-10.8 8.2-4.5 21.9-13.4 35.4 3.1 28.4.3 18.5 6-8.6 11.3 11.9 4.9-9.1 7.5-7.2 6.3 4.4 7.3-.5 5.8 3.3 4.1 6 9.9-3.8 7.5-6.9 9.9 6.3-3-40.5-2.7-1.1 18.9-58.4 4.1-43.7-14.4-8.6 16.1-25.2z"/><linearGradient id="SVGID_12_" gradientUnits="userSpaceOnUse" x1="244.786" y1="311.2" x2="368.579" y2="311.2" gradientTransform="matrix(1 0 0 -1 0 652)"><stop offset="0" stop-color="#b18049"/><stop offset="1" stop-color="#493c3a"/></linearGradient><path fill="url(#SVGID_12_)" d="M269.1 358.9l-10.4-34.2-7.6-33.9-3-19.6-3.3-10.3 18.2 8.8 2.2 4.9 8.4.8 21.5 4.8 11.7 1.9 1.5 4.5 10.2-11.6 7.8.4 6.8-.8 5.7 5.3h4.5l21.9-14.7 3.4 8.7-.4 21.9-10.8 8.2-4.5 21.9-13 37.9 2.7 25.9-11.4 30.6-4.9-18.1-3.3 1.9-1.8 16.6-3.4-3.8-3.8-13.2h-4.5l1.1 9.8-3.4 4.7-25.3-51-6.7-8.3-4.6 7.9z"/><linearGradient id="SVGID_13_" gradientUnits="userSpaceOnUse" x1="111.808" y1="308.55" x2="192.174" y2="308.55" gradientTransform="matrix(1 0 0 -1 0 652)"><stop offset="0" stop-color="#b18049"/><stop offset="1" stop-color="#493c3a"/></linearGradient><path fill="url(#SVGID_13_)" d="M185.3 305.8l-7.2-5.6-5-6.4-4.9.6-3.6-4.7-2.2 2.2-2.2 12.7-3.9 1.3-1.9 7.2-4.4 5.5-2.5 7.7-5.1-3.9-5.2 2.5-.9-3.9-7.1.9-6.1 11.8-7.1 1.9-4.2 11.6 14.4 17.3 2.7 1.1.3 7.4 1.9 8.8 7.2 8.4 12.7 4.5 11.1-.4 15.3 2.9 5.7-1.7 1.3-4.9h7.8l-.9-13.9-16.7-15.8 2-34.4 4.5-2z"/><linearGradient id="SVGID_14_" gradientUnits="userSpaceOnUse" x1="173.106" y1="320.2" x2="236.999" y2="320.2" gradientTransform="matrix(1 0 0 -1 0 652)"><stop offset="0" stop-color="#b18049"/><stop offset="1" stop-color="#493c3a"/></linearGradient><path fill="url(#SVGID_14_)" d="M177.4 283.5l5.4-6.5 6.2-3.9 1.7-5.4 21.1 1.1 6.4 13.2 16.3 28.6-1.4 18.2 3.9 14.9-1.1 24-4 6.5 4.2 4.2-2.2 12.4-6.3 2.2-7.4 2.9-6.6-3.7-12.7-4.9-8.7 3.3-.9-13.9-16.7-15.8 2-34.4 4.5-2 4.2-18.7-7.2-5.6-5-6.4.5-9.4z"/><linearGradient id="SVGID_15_" gradientUnits="userSpaceOnUse" x1="211.841" y1="312.05" x2="307.181" y2="312.05" gradientTransform="matrix(1 0 0 -1 0 652)"><stop offset="0" stop-color="#b18049"/><stop offset="1" stop-color="#493c3a"/></linearGradient><path fill="url(#SVGID_15_)" d="M211.8 268.8l6.4 13.2 16.3 28.6-1.4 18.2 3.9 14.9-1.1 24-4 6.5 4.2 4.2-2.2 12.4-6.3 2.2 4.2 9.5 12.3 6.6 32.1 9.9 9.1-10.7 15.3 7.8 6.6 2.1-25.3-51-6.7-8.3-4.6 7.9-1.5-7.9-10.4-34.2-4.4-19.5-3.2-14.4-3-19.6-3.3-10.3-12.4 7.4-4.6.5-3.9-1.6-8.2-.6z"/><linearGradient id="SVGID_16_" gradientUnits="userSpaceOnUse" x1="164.62" y1="381.15" x2="194.57" y2="381.15" gradientTransform="matrix(1 0 0 -1 0 652)"><stop offset="0" stop-color="#b18049"/><stop offset="1" stop-color="#493c3a"/></linearGradient><path fill="url(#SVGID_16_)" d="M165.1 247.9l21.7 6 7.5 7.1.3 4.3-5.3.5 1.4 1.9-1.7 5.4-6.2 3.9-5.4 6.5-3.8.9-.5 9.4-2.2-15.1-6.3-4.6z"/><g id="bâtiment_droite_bas"><path class="st16" d="M543.9 358.2l-3.3-.4-1-14.8 1.4-.2.8-5.6-2.3-2.3-.6-2.5c-.6-2.5-40.6-12-39.9-10.9.6 1-.4 8.2-.4 8.2l-6.8-2.3-7.2 5.4 1.7 2.7 3.3.4-.2 16.7-.9 1.5-2.6 4.3-2.1.4.2 4.5-40.4-6-10.3 2.3-15.3-1.9-40.4 5.8-24.8-3.9-13.4 1.7.2 6.6 2.7 1.2.5 39 6-8.5 11.3 11.8 4.9-9.1 7.4-7.1 6.3 4.4 7.4-.5 5.8 3.3 4.1 6 9.9-3.9 7.4-6.9 9.9 6.3 4.4 5.5 2.5-3 1.1-8.8 5.5-6.9 2.2 4.4 5.2 5.2 4.7 2.8 7.2-.5 2.2-10.7 8 .5s9.4-14.8 10.7-17.3c1.4-2.5 10.7-9.3 12.4-9.6.1 0 .2 0 .3-.1h.3c.4-.1.9-.1 1.5-.2.3-.1.7-.1 1.1-.2h.2c.1 0 .3 0 .4-.1.3 0 .6-.1.9-.1 5-.7 12.3-1.6 15.1-1.8 4.1-.3 20.6.8 23.1.5s12.1 1.9 12.1 1.9l-.4-7.2zM504.6 339l-4.1.4v4.5l3.9.2-.2 11.1-7.1-.1-.1-19.9s5.2-6.2 10.3 1.4l-2.7 2.4zm6.9-4.7c7-1.2 8.1 4.4 8.1 4.4h-8.3l.2-4.4zm10 20.2l-2.9.1-.7-.9s-3.9 0-6 .2-1-9.3-1-9.3c7.2-4.1 8.3 2.3 8.3 2.3s1.4-.2 2.3.8c.5.8 0 6.8 0 6.8zm6.5-19c3.1-.4 3.5 3.5 3.5 3.5h-5.6c.1 0-1-3 2.1-3.5zm-1.6 19.7s-1.1-11.7 1.8-12.1c2.9-.4 3.4 3.4 3.6 12.2l-5.4-.1z"/><path class="st16" d="M543.9 358.2l-3.3-.4-1-14.8 1.4-.2.8-5.6-2.3-2.3-.6-2.5c0-.1-.1-.2-.2-.2l-.1-.1c-.2-.1-.4-.3-.7-.4-.1 0-.2-.1-.2-.1-.2-.1-.5-.2-.8-.4-.2-.1-.5-.2-.7-.3-2.2-.8-5.4-1.9-9.1-2.9-.5-.1-.9-.3-1.4-.4-.9-.3-1.9-.5-2.9-.8-.3-.1-.6-.2-.9-.2-3.7-1-7.5-1.9-10.9-2.7-.4-.1-.9-.2-1.3-.3-.8-.2-1.6-.4-2.3-.5-.2-.1-.5-.1-.7-.2-1.3-.3-2.4-.5-3.4-.7-.2 0-.4-.1-.6-.1h-.2c-.3-.1-.5-.1-.7-.1-.8-.2-1.5-.3-2-.3h-.5c-.3 0-.4 0-.3.1.6 1-.4 8.2-.4 8.2l-6.8-2.3-7.2 5.4 1.7 2.7 3.3.4-.2 16.7-.9 1.5-2.6 4.3-2.1.4.2 4.5-40.4-6-10.3 2.3L418 358l-40.4 5.8-24.8-3.9-13.4 1.7.2 6.6 2.7 1.2.5 39 6-8.5 11.3 11.8 4.9-9.1 7.4-7.1 6.3 4.4 7.4-.5 5.8 3.3 4.1 6 9.9-3.9 7.4-6.9 9.9 6.3 4.4 5.5 2.5-3 1.1-8.8 5.5-6.9 2.2 4.4 5.2 5.2 4.7 2.8 7.2-.5 2.2-10.7 8 .5s9.4-14.8 10.7-17.3c1.4-2.5 10.7-9.3 12.4-9.6.1 0 .2 0 .3-.1h.3c.4-.1.9-.1 1.5-.2.3-.1.7-.1 1.1-.2h.2c.1 0 .3 0 .4-.1.3 0 .6-.1.9-.1 5-.7 12.3-1.6 15.1-1.8 4.1-.3 20.6.8 23.1.5 2.5-.3 12.1 1.9 12.1 1.9l-.4-7.5zm-17.5-3s-1.1-11.7 1.8-12.1c2.9-.4 3.4 3.4 3.6 12.2l-5.4-.1zm1.6-19.7c3.1-.4 3.5 3.5 3.5 3.5h-5.6c.1 0-1-3 2.1-3.5zm-16.5-1.2c7-1.2 8.1 4.4 8.1 4.4h-8.3l.2-4.4zm-.6 10.3c7.2-4.1 8.3 2.3 8.3 2.3s1.4-.2 2.3.8c.6.8.1 6.8.1 6.8l-2.9.1-.7-.9s-3.9 0-6 .2-1.1-9.3-1.1-9.3zm-6.3-5.6l-4.1.4v4.5l3.9.2-.2 11.1-7.1-.1-.1-19.9s5.2-6.2 10.3 1.4l-2.7 2.4z"/><g id="ombres"><path class="st17" d="M352.9 359.7l.3 6.4-2.5 1.5-.4 33.6 9.9 10.3 4.9-9.1 7.5-7.2 3.7 2.7 1.4-34.3zM444.2 371.7l-1 27.1-.1.5-4-4.1-2.2-4.4-5.5 6.9-1.1 8.8-2.5 3-4.4-5.5-2.8-1.7-.2-38.8-2.7-1.1 1.7-4.4 13.9 1.7z"/><path class="st17" d="M494 364.9c-.3 0-.6.1-.9.1-.1 0-.3 0-.4.1h-.2c-.4.1-.8.1-1.1.2-.6.1-1.1.2-1.5.2h-.3c-.1 0-.2 0-.3.1-1.6.3-11 7.1-12.4 9.6s-10.7 17.3-10.7 17.3l-8-.5-2.2 10.7-7.2.5-4.7-2.8-1.1-1.1v-.5l1-27.1-.5-14.4 40.4 6 10.1 1.6zM540.6 357.8l-1-14.8 1.4-.2.8-5.6-2.3-2.3-.6-2.5c0-.1-.1-.2-.2-.2l-.1-.1c-.2-.1-.4-.3-.7-.4-.1 0-.2-.1-.2-.1-.2-.1-.5-.2-.8-.4-.2-.1-.5-.2-.7-.3-2.2-.8-5.4-1.9-9.1-2.9-.5-.1-.9-.3-1.4-.4-.9-.3-1.9-.5-2.9-.8-.3-.1-.6-.2-.9-.2-3.7-1-7.5-1.9-10.9-2.7-.4-.1-.9-.2-1.3-.3-.8-.2-1.6-.4-2.3-.5-.2-.1-.5-.1-.7-.2-1.3-.3-2.4-.5-3.4-.7-.2 0-.4-.1-.6-.1h-.2c-.3-.1-.5-.1-.7-.1-.8-.2-1.5-.3-2-.3h-.5l-.3.1 1.4.8-.1 5.9-1.7 1.6-6.8-2.3 5.2 7.8s5.2-6.2 10.3 1.4l.8 17.5 27 2.8-2.2-14.8 3.7.3 1.4 16.5.3.2 3.7.2 2.1-1.2-3.5-.7zm-29.1-23.5c7-1.2 8.1 4.4 8.1 4.4h-8.3l.2-4.4zm10 20.2l-2.9.1-.7-.9s-3.9 0-6 .2-1-9.3-1-9.3c7.2-4.1 8.3 2.3 8.3 2.3s1.4-.2 2.3.8c.5.8 0 6.8 0 6.8zm6.5-19c3.1-.4 3.5 3.5 3.5 3.5h-5.6c.1 0-1-3 2.1-3.5zm-1.6 19.7s-1.1-11.7 1.8-12.1c2.9-.4 3.4 3.4 3.6 12.2l-5.4-.1z"/><path class="st17" d="M544.3 365.6s-9.6-2.2-12.1-1.9c-2.5.3-19-.8-23.1-.5-2.8.2-10.2 1.1-15.1 1.8l3.4-8.1 40.6 2.4 3.7.2 2.1-1.2.1 1.4.4 5.9z"/></g></g><g id="bâtiment_gauche_bas"><path class="st16" d="M97.3 327.5l1.5-2.2-.1-2.2-17.2-13.7-17.7 12-39.7 3.5.3 2.5.4 3.2 4.8 1.5.4 15.1-3.3 4.7 19.5-4.1 4.4 1.4 6.6-2.5-.3-17.7.8-1.2.1-3.2 3.3.1.3 2.7 1.5.3-.6 18.8h1.9l19.3 3.8 15.2-2.4-1.6-2 .2-18.4zm-63.6 18.9l-.3-12.8-1.5-3.4 1.8.9-.1-2.3 5.9.3.3 7.7.1 9.6h-6.2zm18.4.1l-2.8 1.1-2.1-1.4-4.4-.3.3-16.1 2.1.1V328l1.1-1.4h4.1l.4 1.4 1.8 1.5-.5 17zm38.6-1.8l-.3-2.1h-2.8l-.3-15.9 1.7.5 3.2-1.1.3 18.4-1.8.2z"/><path class="st18" d="M24.1 324.9l.3-2.3 22.8-10.8 34.8-4.6 19.7 13.5-.6 2.8-2.5-.4-17.1-13.7-17.6 12z"/><path class="st17" d="M63.9 321.4v2.1l4.2.4.2 2.5-2.6.3.2 18.4 4.1-.1-1.5 2.3 15.1 3.2 15.1-2.4-1.6-2 .2-18.6 1.5-2.2-.2-2.2-17.1-13.7z"/><path class="st16" d="M74.5 325.6l-.2 16.8 1.6 2.2-.1 2-1.6.6.2 1.5 7.9.8-.2-2.9-3-.3-.8-21.3-3.9.1zM87.5 325.4l.1 17.2-3.6.2v-17.6z"/></g><g id="bâtiment_middle"><path class="st16" d="M273.6 275.4l6.3-7.1-1.1-16-6.8.3-23-3.8-28.7-16.8-30.4 13.8 1.4 2.7h2.7l.3 4.9.3 11.9-5.3.5 1.4 1.9 21.1 1.1 3.9-2.2 8.2.6 3.9 1.6 4.6-.5 12.4-7.4 5.3 1.9 4.4 2.5 8.5 4.4 2.2 4.9z"/><path class="st18" d="M189.9 245.8l30.4-13.8 32.9 2.1 37.1 18.4-11.5-.2-6.8.3-23-3.8-28.1-16.5z"/><path class="st17" d="M250.1 251.2l-.2 9.7 4.6 2.2v-9.8l-2.5-2.5zM258.3 253l-.4 10.9 5.2 2.7.2-12.5-2.7-2.2zM265.7 254.3l.5 9.6 4 .4.5-8.1-3-2.2zM208.8 250.3l-.6 11.5h3.9l.1-8.6h-.8l-.1-2.9zM216.2 250l-.1 11.6 3.3.4v-8.1l-1.8-.1v-2.4h1.5V250zM223 249.1v2h1v2.1h-1.7v8.6h3.9v-8.9h-1v-2.1h1.1v-1.7zM234.6 249.4h-5.5v1h1.8v2.5h-2.3v4.4h2.2v4.1h3v-3.1h1.1v-1.6h-2.2v-1.9h1.9v-1.9h-1.7v-2.3h2z"/></g><g id="bâtimebnt_haut"><path class="st16" d="M226.7 111.9l-.5 62.1 2.9-.2-.2-43.7h2.7v43.4h3.3v-43.4l23.4-2-.3 44.3 4.2-.6-.5-44.8 2.2-.4v45.1l3.4-.7-.3-44.7v-7.6l1.7-.7-.6-11.7-20.2-11.4-28.4 17z"/><path class="st16" d="M226.2 174l-20.6 1.6 3.7-3.1-.2-7.2 1.8-1.2-.4-35.3-3.7-4.9.4-9.7-4.7-5.4 50.3-21.2v-9.5l52.1-6.4.2 13.6 84.4 19 21.1 9.1-78.3-18-2.3 3.9-2.9 2.3 2.9 1.5-.6 8.8 1.6 1.9-.2 1.8-16.4.4-37.1-15.8-17.3 1.5-12.1-6.8-28.4 17h7.2z"/><path class="st17" d="M260 101.7l8.1 4.6.6 11.7-1.7.7.3 52.3 9.9-.8h10.2l11 .5 10.2 2 3-.6 6.3 1.4 2.5-5 4.1 2.5 2.1 4.4 3.4 1.6-1.7-61.6-13.9.6-37.1-15.8z"/><path class="st17" d="M261.7 127l2.2-.4v45.1l-1.7.1zM218.5 117.7l-.1 4 6.8-.2.2-4.1zM229.4 111.4l.2 11.1 2.8-.4.3-10.7zM237.8 110.3v11h3.2V110zM244.4 109.9v10h4.3v-10.3zM252.3 108.6h2.8v11.7h-2.8zM261.1 107.9v10.5h2.8v-10.3z"/><path class="st16" d="M265.4 76.6l.2-9.2-2.5-2.1-1.6-.4-.4-3.3 29.8-20.4L325.8 53l-.2 1.4-5 .6-.2 21.5-15.5-4.8z"/><path class="st17" d="M265.6 67.4l3.9-.3v6.7h-4s.1-6.8.1-6.4zM272.7 66.4v6.4l3.2-.1v-1.3h2.2v1.2h1.4v-7.4zM283.7 65v6.1h3.6v-6.4zM291.7 64v5l1.5 2.2h4.1V62zM301 61.7v8.4h5.2V61zM310.1 60v10.3l3.4.4.3 1.3h2.5V60z"/><path class="st18" d="M290.9 41.2l66.3 13.3 38.3 15.8.1 1.9-70-17.8.2-1.4z"/><path class="st19" d="M304.9 71.7l15.5 4.8 70.4 16.9 2.9-.9.8 13.9-5-2.1-84.4-19z"/><path class="st19" d="M395.6 72.2l-5.8 1-1.8 16 2.8 4.2-70.4-16.9.2-21.5 5-.6zM405.4 112.1v28.1l-16.7-2.2-15.3 21.7-1.9 9.1-8.8 8.5-13.5 17.1-5.5-3.1-1.9-5.5-8.8-7.4-3-1.4-1.7-61.6 2.5.2.2-1.8-1.6-1.9.6-8.8-2.9-1.5 2.9-2.3 2.3-3.9z"/><path class="st18" d="M332.3 95.4l-55 4.8-17.3 1.5-12.1-6.8-28.4 17h7.2l-.2 1.9-19.3.4-4.7-5.4 50.3-21.2 39.7-5.1 12.6 2.8 84.4 19 21.1 9.1z"/><path class="st18" d="M268.1 106.3l35.5 7 2.3 3.3 8.5-.6-37.1-15.8-17.3 1.5z"/><path class="st17" d="M234.9 130.1v43.4h6.6l12.7-.6 3.8-.5.3-44.3-23.4.9zM228.9 130.1h2.7v43.4l-2.5.3zM217.7 129.1l-.5 45.6 3-.1v-45.8z"/></g><g id="marches"><path class="st16" d="M315.4 527.5l-34.4.2 1.4-6.6-3.3.3 2.5-9.6 44.5-3.7-.8 6.5-10.7 2.1zM313 509l6.6-29.9 42-4.7.5 3-6.7 1.8 6.2 6.2-.4 19.8zM361.6 474.4l6.3-11.7 32.1-1.5 9.3 4.7-2.2 3-9.3-1.2-35.7 9.7M327.3 430.6l48.9 3.3.2-2.5-48.1-3.3z"/><path class="st20" d="M327.3 430.6l7.6 3.3 46.9 3.3-5.6-3.3z"/><path class="st16" d="M334.9 433.9l2.5 2.8 45.8 3.5-1.4-3z"/><path class="st20" d="M337.4 436.7l3.5 3.8 44.4 2-2.1-2.3z"/><path class="st16" d="M340.9 440.5l5.6 4.9 41.6.2-2.8-3.1z"/><path class="st20" d="M346.5 445.4l1.2 2.5 45.8 1-5.4-3.3z"/><path class="st16" d="M347.7 447.9l.9 2.9 48 .8-3.1-2.7z"/><path class="st20" d="M348.6 450.8l3.1 3.7 47.5.6-2.6-3.5z"/><path class="st16" d="M351.7 454.5l.8 2 47.8 1.1-1.1-2.5z"/><path class="st20" d="M352.5 456.5l15.4 6.2 32.1-1.5.3-3.6z"/></g><g id="nuages"><linearGradient id="SVGID_17_" gradientUnits="userSpaceOnUse" x1="-27.718" y1="99.666" x2="257.424" y2="99.666" gradientTransform="matrix(1 0 0 -1 0 652)"><stop offset="0" stop-color="#e4e4e4"/><stop offset="1" stop-color="#f2f2f2"/></linearGradient><path d="M257.4 556.3c-.9-12.6-11.8-22.1-24.3-21.2-1.1.1-2.2.2-3.3.5-6.7-9.3-17.9-15-30.1-14.2-3.8.3-7.3 1.1-10.7 2.5.9-2.8 1.4-5.8 1.1-8.8-.9-12.6-11.8-22.1-24.3-21.2-6.1.4-11.5 3.2-15.3 7.4-2.2-10.3-11.4-17.9-22.3-17.9-4.7 0-9.2 1.4-12.8 3.9-1.8-3.7-5.6-6.3-10-6.3-5.5 0-10.1 4-11 9.3-3.9-1.2-8.2-1.8-12.6-1.5-10 .7-18.6 5.5-24.4 12.7-6.7-6.4-16-10-25.9-9.3-18.8 1-33 17.4-31.7 36.2 0 .3.1.6.1.9-2.1-.5-4.3-.7-6.6-.5-12.6.9-22.1 11.7-21.2 24.3.8 11.7 10.4 20.8 21.9 21.2 0 1.1 0 2.2.1 3.4 1.3 18.9 17.6 33.1 36.4 31.8 7.3-.5 14-3.3 19.3-7.6 2 2.3 5 3.8 8.3 3.8 4.4 0 8.2-2.5 10-6.2 5.7 12.6 18.9 21 33.4 20 11.1-.8 20.5-6.7 26.2-15.2 5.9 12.2 18.8 20.2 33.1 19.3 18.4-1.3 32.4-16.9 31.8-35.2 3.6 1 7.5 1.4 11.5 1.2 8.8-.6 16.7-4.5 22.4-10.4 3 1.1 6.2 1.6 9.5 1.4 12.8-.9 22.3-11.8 21.4-24.3z" fill="url(#SVGID_17_)"/><linearGradient id="SVGID_18_" gradientUnits="userSpaceOnUse" x1="129.243" y1="80.678" x2="337.778" y2="80.678" gradientTransform="matrix(1 0 0 -1 0 652)"><stop offset="0" stop-color="#e4e4e4"/><stop offset="1" stop-color="#f2f2f2"/></linearGradient><path d="M129.3 568.4c.6 9.2 8.6 16.1 17.8 15.5l2.4-.3c4.9 6.8 13.1 11 22.1 10.4 2.8-.2 5.4-.8 7.8-1.8-.7 2-1 4.2-.8 6.5.6 9.2 8.6 16.1 17.8 15.5 4.5-.3 8.4-2.3 11.2-5.4 1.6 7.5 8.3 13.1 16.3 13.1 3.5 0 6.7-1.1 9.4-2.9 1.3 2.7 4.1 4.6 7.3 4.6 4 0 7.4-2.9 8-6.8 2.9.9 6 1.3 9.2 1.1 7.3-.5 13.6-4 17.9-9.3 4.9 4.6 11.7 7.3 18.9 6.8 13.8-.9 24.2-12.9 23.3-26.7 0-.2 0-.4-.1-.7 1.5.3 3.1.5 4.8.4 9.2-.6 16.2-8.6 15.5-17.8-.6-8.6-7.6-15.2-16-15.5v-2.5c-.9-13.8-12.9-24.2-26.7-23.3-5.4.4-10.2 2.4-14.1 5.5-1.5-1.7-3.7-2.7-6.1-2.7-3.2 0-6 1.9-7.3 4.6-4.2-9.2-13.8-15.4-24.5-14.6-8.1.5-15 4.9-19.2 11.1-4.3-8.9-13.8-14.8-24.3-14.1-13.5.9-23.8 12.3-23.3 25.7-2.7-.7-5.5-1-8.4-.9-6.5.4-12.2 3.3-16.4 7.6-2.2-.8-4.5-1.2-7-1-9.1.8-16.1 8.7-15.5 17.9z" fill="url(#SVGID_18_)"/><linearGradient id="SVGID_19_" gradientUnits="userSpaceOnUse" x1="144.531" y1="128.672" x2="294.837" y2="128.672" gradientTransform="matrix(1 0 0 -1 0 652)"><stop offset="0" stop-color="#e4e4e4"/><stop offset="1" stop-color="#f2f2f2"/></linearGradient><path d="M294.8 525.5c-.5-6.6-6.2-11.6-12.8-11.2-.6 0-1.2.1-1.7.2-3.5-4.9-9.4-7.9-15.9-7.5-2 .1-3.9.6-5.6 1.3.5-1.5.7-3 .6-4.7-.5-6.6-6.2-11.6-12.8-11.2-3.2.2-6 1.7-8.1 3.9-1.2-5.4-6-9.4-11.8-9.4-2.5 0-4.8.8-6.7 2.1-.9-2-3-3.3-5.3-3.3-2.9 0-5.3 2.1-5.8 4.9-2.1-.7-4.3-.9-6.6-.8-5.2.4-9.8 2.9-12.9 6.7-3.5-3.3-8.4-5.3-13.6-4.9-9.9.7-17.5 9.3-16.8 19.2v.5c-1.1-.2-2.3-.3-3.5-.3-6.6.5-11.6 6.2-11.2 12.8.4 6.2 5.5 11 11.5 11.2v1.8c.7 9.9 9.3 17.4 19.2 16.8 3.9-.3 7.4-1.7 10.1-4 1.1 1.2 2.6 2 4.4 2 2.3 0 4.3-1.3 5.3-3.3 3 6.7 9.9 11.1 17.7 10.5 5.8-.4 10.8-3.5 13.8-8 3.1 6.4 9.9 10.7 17.5 10.1 9.7-.7 17.1-8.9 16.8-18.5 1.9.5 3.9.8 6 .6 4.7-.3 8.8-2.4 11.8-5.5 1.6.6 3.3.9 5 .7 6.9-.4 11.9-6.1 11.4-12.7z" fill="url(#SVGID_19_)"/><linearGradient id="SVGID_20_" gradientUnits="userSpaceOnUse" x1="436.143" y1="141.772" x2="586.437" y2="141.772" gradientTransform="matrix(1 0 0 -1 0 652)"><stop offset="0" stop-color="#e4e4e4"/><stop offset="1" stop-color="#f2f2f2"/></linearGradient><path d="M586.4 512.4c-.5-6.6-6.2-11.6-12.8-11.2-.6 0-1.2.1-1.7.2-3.5-4.9-9.4-7.9-15.9-7.5-2 .1-3.9.6-5.6 1.3.5-1.5.7-3 .6-4.7-.5-6.6-6.2-11.6-12.8-11.2-3.2.2-6 1.7-8.1 3.9-1.2-5.4-6-9.4-11.8-9.4-2.5 0-4.8.8-6.7 2.1-.9-2-3-3.3-5.3-3.3-2.9 0-5.3 2.1-5.8 4.9-2.1-.7-4.3-.9-6.6-.8-5.2.4-9.8 2.9-12.9 6.7-3.5-3.3-8.4-5.3-13.6-4.9-9.9.7-17.5 9.3-16.8 19.2v.5c-1.1-.2-2.3-.3-3.5-.3-6.6.5-11.6 6.2-11.2 12.8.4 6.2 5.5 11 11.5 11.2v1.8c.7 9.9 9.3 17.4 19.2 16.8 3.9-.3 7.4-1.7 10.1-4 1.1 1.2 2.6 2 4.4 2 2.3 0 4.3-1.3 5.3-3.3 3 6.7 9.9 11.1 17.7 10.5 5.8-.4 10.8-3.5 13.8-8 3.1 6.4 9.9 10.7 17.5 10.1 9.7-.7 17.1-8.9 16.8-18.5 1.9.5 3.9.8 6 .6 4.7-.3 8.8-2.4 11.8-5.5 1.6.6 3.3.9 5 .7 6.8-.4 11.8-6.1 11.4-12.7z" fill="url(#SVGID_20_)"/><linearGradient id="SVGID_21_" gradientUnits="userSpaceOnUse" x1="237.143" y1="97.31" x2="537.353" y2="97.31" gradientTransform="matrix(1 0 0 -1 0 652)"><stop offset="0" stop-color="#e4e4e4"/><stop offset="1" stop-color="#f2f2f2"/></linearGradient><path d="M537.3 558.8c-.9-13.2-12.4-23.2-25.6-22.3-1.2.1-2.4.2-3.5.5-7-9.8-18.8-15.8-31.6-14.9-4 .3-7.7 1.2-11.2 2.6 1-2.9 1.4-6.1 1.2-9.3-.9-13.2-12.4-23.2-25.6-22.3-6.4.4-12.1 3.4-16.1 7.7-2.4-10.8-12-18.9-23.5-18.9-5 0-9.6 1.5-13.5 4.1-1.9-3.9-5.9-6.6-10.6-6.6-5.8 0-10.6 4.2-11.6 9.8-4.2-1.3-8.6-1.9-13.2-1.6-10.5.7-19.6 5.8-25.7 13.4-7.1-6.7-16.8-10.5-27.3-9.8-19.9 1.3-34.8 18.5-33.4 38.4 0 .3.1.6.1 1-2.2-.5-4.5-.7-6.9-.5-13.2.9-23.3 12.4-22.4 25.6.8 12.4 10.9 21.9 23 22.4 0 1.2 0 2.4.1 3.5 1.4 19.8 18.6 34.8 38.3 33.5 7.7-.5 14.7-3.4 20.3-8 2.1 2.4 5.3 4 8.8 4 4.6 0 8.6-2.7 10.5-6.6 6 13.3 19.9 22.1 35.2 21.1 11.6-.8 21.6-7 27.6-16 6.2 12.8 19.8 21.3 34.8 20.3 19.4-1.3 34.1-17.7 33.5-37 3.8 1.1 7.9 1.5 12.1 1.2 9.3-.6 17.6-4.7 23.5-11 3.1 1.2 6.5 1.7 10.1 1.5 13.5-1.2 23.5-12.6 22.6-25.8z" fill="url(#SVGID_21_)"/><linearGradient id="SVGID_22_" gradientUnits="userSpaceOnUse" x1="453.768" y1="52.539" x2="558.758" y2="52.539" gradientTransform="matrix(1 0 0 -1 0 652)"><stop offset="0" stop-color="#e4e4e4"/><stop offset="1" stop-color="#f2f2f2"/></linearGradient><path d="M558.8 601c-.3-4.6-4.3-8.1-9-7.8-.4 0-.8.1-1.2.2-2.5-3.4-6.6-5.5-11.1-5.2-1.4.1-2.7.4-3.9.9.3-1 .5-2.1.4-3.3-.3-4.6-4.3-8.1-9-7.8-2.2.2-4.2 1.2-5.6 2.7-.8-3.8-4.2-6.6-8.2-6.6-1.7 0-3.4.5-4.7 1.4-.7-1.4-2.1-2.3-3.7-2.3-2 0-3.7 1.5-4 3.4-1.5-.5-3-.7-4.6-.5-3.7.2-6.9 2-9 4.7-2.5-2.3-5.9-3.7-9.5-3.4-7 .5-12.2 6.5-11.7 13.4v.3c-.8-.2-1.6-.2-2.4-.2-4.6.3-8.1 4.3-7.8 8.9.3 4.3 3.8 7.7 8.1 7.8v1.2c.5 6.9 6.5 12.2 13.4 11.7 2.7-.2 5.1-1.2 7.1-2.8.8.8 1.8 1.4 3.1 1.4 1.6 0 3-.9 3.7-2.3 2.1 4.6 6.9 7.7 12.3 7.4 4.1-.3 7.6-2.5 9.6-5.6 2.2 4.5 6.9 7.4 12.2 7.1 6.8-.5 12-6.2 11.8-12.9 1.3.4 2.8.5 4.2.4 3.3-.2 6.1-1.7 8.2-3.8 1.1.4 2.3.6 3.5.5 4.6-.2 8.1-4.2 7.8-8.9z" fill="url(#SVGID_22_)"/><linearGradient id="SVGID_23_" gradientUnits="userSpaceOnUse" x1="487.846" y1="88.575" x2="662.214" y2="88.575" gradientTransform="matrix(1 0 0 -1 0 652)"><stop offset="0" stop-color="#e4e4e4"/><stop offset="1" stop-color="#f2f2f2"/></linearGradient><path d="M662.2 565.9c-.5-7.7-7.2-13.5-14.9-13-.7 0-1.4.1-2 .3-4.1-5.7-10.9-9.2-18.4-8.7-2.3.2-4.5.7-6.5 1.5.6-1.7.8-3.5.7-5.4-.5-7.7-7.2-13.5-14.9-13-3.7.3-7 1.9-9.4 4.5-1.4-6.3-7-11-13.6-11-2.9 0-5.6.9-7.8 2.4-1.1-2.3-3.4-3.9-6.1-3.9-3.4 0-6.2 2.5-6.7 5.7-2.4-.8-5-1.1-7.7-.9-6.1.4-11.4 3.4-14.9 7.8-4.1-3.9-9.8-6.1-15.8-5.7-11.5.8-20.3 10.8-19.5 22.3 0 .2 0 .4.1.6-1.3-.3-2.6-.4-4-.3-7.7.5-13.5 7.2-13 14.9.5 7.2 6.3 12.7 13.4 13v2.1c.8 11.5 10.8 20.2 22.3 19.5 4.5-.3 8.5-2 11.8-4.6 1.2 1.4 3.1 2.3 5.1 2.3 2.7 0 5-1.6 6.1-3.8 3.5 7.7 11.5 12.8 20.5 12.2 6.8-.5 12.5-4.1 16-9.3 3.6 7.5 11.5 12.4 20.3 11.8 11.3-.8 19.9-10.3 19.5-21.5 2.2.6 4.6.9 7 .7 5.4-.4 10.2-2.8 13.7-6.4 1.8.7 3.8 1 5.8.9 7.6-.7 13.4-7.3 12.9-15z" fill="url(#SVGID_23_)"/></g><g id="nuages_2"><linearGradient id="SVGID_24_" gradientUnits="userSpaceOnUse" x1="590.116" y1="-329.009" x2="706.267" y2="-329.009" gradientTransform="matrix(-1 0 0 1 858.978 632.092)"><stop offset="0" stop-color="#e4e4e4"/><stop offset="1" stop-color="#f2f2f2"/></linearGradient><path d="M152.7 301.6c.3 5.1 4.8 9 9.9 8.6.5 0 .9-.1 1.3-.2 2.7 3.8 7.3 6.1 12.3 5.8 1.5-.1 3-.5 4.3-1-.4 1.1-.6 2.3-.5 3.6.3 5.1 4.8 9 9.9 8.6 2.5-.2 4.7-1.3 6.2-3 .9 4.2 4.6 7.3 9.1 7.3 1.9 0 3.7-.6 5.2-1.6.7 1.5 2.3 2.6 4.1 2.6 2.2 0 4.1-1.6 4.5-3.8 1.6.5 3.3.7 5.1.6 4.1-.3 7.6-2.3 9.9-5.2 2.7 2.6 6.5 4.1 10.6 3.8 7.7-.5 13.5-7.2 13-14.9v-.4c.9.2 1.8.3 2.7.2 5.1-.3 9-4.8 8.7-9.9-.3-4.8-4.2-8.5-8.9-8.7v-1.4c-.5-7.7-7.2-13.5-14.9-13-3 .2-5.7 1.3-7.9 3.1-.8-.9-2-1.5-3.4-1.5-1.8 0-3.3 1-4.1 2.5-2.3-5.1-7.7-8.6-13.7-8.2-4.5.3-8.4 2.7-10.7 6.2-2.4-5-7.7-8.2-13.5-7.8-7.5.5-13.2 6.9-13 14.3-1.5-.4-3.1-.6-4.7-.5-3.6.2-6.8 1.8-9.1 4.2-1.2-.5-2.5-.7-3.9-.6-5 .8-8.9 5.2-8.5 10.3z" fill="url(#SVGID_24_)"/><linearGradient id="SVGID_25_" gradientUnits="userSpaceOnUse" x1="86.834" y1="354.083" x2="202.972" y2="354.083" gradientTransform="matrix(1 0 0 -1 0 652)"><stop offset="0" stop-color="#e4e4e4"/><stop offset="1" stop-color="#f2f2f2"/></linearGradient><path d="M203 299.4c-.3-5.1-4.8-9-9.9-8.6-.5 0-.9.1-1.3.2-2.7-3.8-7.3-6.1-12.3-5.8-1.5.1-3 .5-4.3 1 .4-1.1.6-2.3.5-3.6-.3-5.1-4.8-9-9.9-8.6-2.5.2-4.7 1.3-6.2 3-.9-4.2-4.6-7.3-9.1-7.3-1.9 0-3.7.6-5.2 1.6-.7-1.5-2.3-2.6-4.1-2.6-2.2 0-4.1 1.6-4.5 3.8-1.6-.5-3.3-.7-5.1-.6-4.1.3-7.6 2.3-9.9 5.2-2.7-2.6-6.5-4.1-10.6-3.8-7.7.5-13.5 7.2-13 14.9v.4c-.9-.2-1.8-.3-2.7-.2-5.1.3-9 4.8-8.7 9.9.3 4.8 4.2 8.5 8.9 8.7v1.4c.5 7.7 7.2 13.5 14.9 13 3-.2 5.7-1.3 7.9-3.1.8.9 2 1.5 3.4 1.5 1.8 0 3.3-1 4.1-2.5 2.3 5.1 7.7 8.6 13.7 8.2 4.5-.3 8.4-2.7 10.7-6.2 2.4 5 7.7 8.2 13.5 7.8 7.5-.5 13.2-6.9 13-14.3 1.5.4 3.1.6 4.7.5 3.6-.2 6.8-1.8 9.1-4.2 1.2.5 2.5.7 3.9.6 4.9-.7 8.8-5.1 8.5-10.3z" fill="url(#SVGID_25_)"/><linearGradient id="SVGID_26_" gradientUnits="userSpaceOnUse" x1="162.912" y1="372.136" x2="238.807" y2="372.136" gradientTransform="matrix(1 0 0 -1 0 652)"><stop offset="0" stop-color="#e4e4e4"/><stop offset="1" stop-color="#f2f2f2"/></linearGradient><path d="M238.8 280.9c-.2-3.3-3.1-5.9-6.5-5.6-.3 0-.6.1-.9.1-1.8-2.5-4.8-4-8-3.8-1 .1-2 .3-2.8.7.2-.7.4-1.5.3-2.4-.2-3.3-3.1-5.9-6.5-5.6-1.6.1-3.1.8-4.1 2-.6-2.7-3-4.8-5.9-4.8-1.3 0-2.4.4-3.4 1-.5-1-1.5-1.7-2.7-1.7-1.5 0-2.7 1.1-2.9 2.5-1.1-.3-2.2-.5-3.3-.4-2.6.2-5 1.5-6.5 3.4-1.8-1.7-4.2-2.7-6.9-2.5-5 .3-8.8 4.7-8.5 9.7v.2c-.6-.1-1.1-.2-1.7-.1-3.3.2-5.9 3.1-5.7 6.5.2 3.1 2.8 5.5 5.8 5.7v.9c.3 5 4.7 8.8 9.7 8.5 2-.1 3.7-.9 5.1-2 .5.6 1.3 1 2.2 1 1.2 0 2.2-.7 2.7-1.7 1.5 3.4 5 5.6 8.9 5.3 2.9-.2 5.5-1.8 7-4 1.6 3.2 5 5.4 8.8 5.1 4.9-.3 8.6-4.5 8.5-9.4 1 .3 2 .4 3.1.3 2.4-.2 4.4-1.2 6-2.8.8.3 1.6.4 2.5.4 3.4-.3 5.9-3.2 5.7-6.5z" fill="url(#SVGID_26_)"/><linearGradient id="SVGID_27_" gradientUnits="userSpaceOnUse" x1="768.527" y1="-442.626" x2="820.061" y2="-442.626" gradientTransform="matrix(-1 0 0 1 984.477 746.417)"><stop offset="0" stop-color="#e4e4e4"/><stop offset="1" stop-color="#f2f2f2"/></linearGradient><path d="M164.4 303.1c.2 2.3 2.1 4 4.4 3.8.2 0 .4 0 .6-.1 1.2 1.7 3.2 2.7 5.4 2.6.7 0 1.3-.2 1.9-.4-.2.5-.2 1-.2 1.6.2 2.3 2.1 4 4.4 3.8 1.1-.1 2.1-.6 2.8-1.3.4 1.9 2.1 3.2 4 3.2.9 0 1.7-.3 2.3-.7.3.7 1 1.1 1.8 1.1 1 0 1.8-.7 2-1.7.7.2 1.5.3 2.3.3 1.8-.1 3.4-1 4.4-2.3 1.2 1.1 2.9 1.8 4.7 1.7 3.4-.2 6-3.2 5.8-6.6v-.2c.4.1.8.1 1.2.1 2.3-.2 4-2.1 3.8-4.4-.1-2.1-1.9-3.8-4-3.8v-.6c-.2-3.4-3.2-6-6.6-5.7-1.3.1-2.5.6-3.5 1.4-.4-.4-.9-.7-1.5-.7-.8 0-1.5.5-1.8 1.1-1-2.3-3.4-3.8-6.1-3.6-2 .1-3.7 1.2-4.7 2.7-1.1-2.2-3.4-3.7-6-3.5-3.3.2-5.9 3-5.8 6.3-.7-.2-1.4-.3-2.1-.2-1.6.1-3 .8-4 1.9-.5-.2-1.1-.3-1.7-.3-2.2.3-3.9 2.2-3.8 4.5z" fill="url(#SVGID_27_)"/></g><g id="nuages_3"><linearGradient id="SVGID_28_" gradientUnits="userSpaceOnUse" x1="317.775" y1="448.74" x2="380.895" y2="448.74" gradientTransform="matrix(1 0 0 -1 16.848 608.198)"><stop offset="0" stop-color="#e4e4e4"/><stop offset="1" stop-color="#f2f2f2"/></linearGradient><path d="M397.7 160.5c-.2-2.8-2.6-4.9-5.4-4.7-.3 0-.5.1-.7.1-1.5-2.1-4-3.3-6.7-3.1-.8.1-1.6.2-2.4.5.2-.6.3-1.3.3-2-.2-2.8-2.6-4.9-5.4-4.7-1.4.1-2.5.7-3.4 1.6-.5-2.3-2.5-4-4.9-4-1.1 0-2 .3-2.8.9-.4-.8-1.2-1.4-2.2-1.4-1.2 0-2.2.9-2.4 2.1-.9-.3-1.8-.4-2.8-.3-2.2.1-4.1 1.2-5.4 2.8-1.5-1.4-3.5-2.2-5.7-2.1-4.2.3-7.3 3.9-7.1 8.1v.2c-.5-.1-1-.1-1.5-.1-2.8.2-4.9 2.6-4.7 5.4.2 2.6 2.3 4.6 4.8 4.7v.7c.3 4.2 3.9 7.3 8.1 7 1.6-.1 3.1-.7 4.3-1.7.5.5 1.1.8 1.8.8 1 0 1.8-.6 2.2-1.4 1.3 2.8 4.2 4.7 7.4 4.4 2.4-.2 4.5-1.5 5.8-3.4 1.3 2.7 4.2 4.5 7.3 4.3 4.1-.3 7.2-3.7 7.1-7.8.8.2 1.7.3 2.5.3 2-.1 3.7-1 5-2.3.7.2 1.4.4 2.1.3 2.9 0 5-2.4 4.8-5.2z" fill="url(#SVGID_28_)"/><linearGradient id="SVGID_29_" gradientUnits="userSpaceOnUse" x1="442.243" y1="-425.547" x2="505.364" y2="-425.547" gradientTransform="matrix(-1 0 0 1 875.826 588.29)"><stop offset="0" stop-color="#e4e4e4"/><stop offset="1" stop-color="#f2f2f2"/></linearGradient><path d="M370.5 161.7c.2 2.8 2.6 4.9 5.4 4.7.3 0 .5-.1.7-.1 1.5 2.1 4 3.3 6.7 3.1.8-.1 1.6-.2 2.4-.5-.2.6-.3 1.3-.3 2 .2 2.8 2.6 4.9 5.4 4.7 1.4-.1 2.5-.7 3.4-1.6.5 2.3 2.5 4 4.9 4 1.1 0 2-.3 2.8-.9.4.8 1.2 1.4 2.2 1.4 1.2 0 2.2-.9 2.4-2.1.9.3 1.8.4 2.8.3 2.2-.1 4.1-1.2 5.4-2.8 1.5 1.4 3.5 2.2 5.7 2.1 4.2-.3 7.3-3.9 7.1-8.1v-.2c.5.1 1 .1 1.5.1 2.8-.2 4.9-2.6 4.7-5.4-.2-2.6-2.3-4.6-4.8-4.7v-.7c-.3-4.2-3.9-7.3-8.1-7-1.6.1-3.1.7-4.3 1.7-.5-.5-1.1-.8-1.8-.8-1 0-1.8.6-2.2 1.4-1.3-2.8-4.2-4.7-7.4-4.4-2.4.2-4.5 1.5-5.8 3.4-1.3-2.7-4.2-4.5-7.3-4.3-4.1.3-7.2 3.7-7.1 7.8-.8-.2-1.7-.3-2.5-.3-2 .1-3.7 1-5 2.3-.7-.2-1.4-.4-2.1-.3-2.9 0-5 2.4-4.8 5.2z" fill="url(#SVGID_29_)"/><linearGradient id="SVGID_30_" gradientUnits="userSpaceOnUse" x1="483.619" y1="-415.893" x2="524.865" y2="-415.893" gradientTransform="matrix(-1 0 0 1 875.826 588.29)"><stop offset="0" stop-color="#e4e4e4"/><stop offset="1" stop-color="#f2f2f2"/></linearGradient><path d="M351 171.8c.1 1.8 1.7 3.2 3.5 3.1.2 0 .3 0 .5-.1 1 1.3 2.6 2.2 4.4 2.1.5 0 1.1-.2 1.5-.4-.1.4-.2.8-.2 1.3.1 1.8 1.7 3.2 3.5 3.1.9-.1 1.7-.5 2.2-1.1.3 1.5 1.6 2.6 3.2 2.6.7 0 1.3-.2 1.9-.6.3.5.8.9 1.5.9.8 0 1.5-.6 1.6-1.3.6.2 1.2.3 1.8.2 1.4-.1 2.7-.8 3.5-1.8 1 .9 2.3 1.4 3.7 1.3 2.7-.2 4.8-2.5 4.6-5.3v-.1c.3.1.6.1.9.1 1.8-.1 3.2-1.7 3.1-3.5-.1-1.7-1.5-3-3.2-3.1v-.5c-.2-2.7-2.5-4.8-5.3-4.6-1.1.1-2 .5-2.8 1.1-.3-.3-.7-.5-1.2-.5-.6 0-1.2.4-1.4.9-.8-1.8-2.7-3-4.9-2.9-1.6.1-3 1-3.8 2.2-.9-1.8-2.7-2.9-4.8-2.8-2.7.2-4.7 2.4-4.6 5.1-.5-.1-1.1-.2-1.7-.2-1.3.1-2.4.7-3.2 1.5-.4-.2-.9-.2-1.4-.2-1.7.1-3.1 1.7-2.9 3.5z" fill="url(#SVGID_30_)"/><linearGradient id="SVGID_31_" gradientUnits="userSpaceOnUse" x1="472.055" y1="334.619" x2="500.057" y2="334.619" gradientTransform="matrix(1 0 0 -1 -108.65 493.873)"><stop offset="0" stop-color="#e4e4e4"/><stop offset="1" stop-color="#f2f2f2"/></linearGradient><path d="M391.4 159.7c-.1-1.2-1.2-2.2-2.4-2.1h-.3c-.7-.9-1.8-1.5-3-1.4-.4 0-.7.1-1 .2.1-.3.1-.6.1-.9-.1-1.2-1.2-2.2-2.4-2.1-.6 0-1.1.3-1.5.7-.2-1-1.1-1.8-2.2-1.8-.5 0-.9.1-1.3.4-.2-.4-.6-.6-1-.6-.5 0-1 .4-1.1.9-.4-.1-.8-.2-1.2-.1-1 .1-1.8.5-2.4 1.3-.7-.6-1.6-1-2.5-.9-1.9.1-3.3 1.7-3.1 3.6v.1c-.2 0-.4-.1-.6 0-1.2.1-2.2 1.2-2.1 2.4.1 1.2 1 2 2.1 2.1v.3c.1 1.9 1.7 3.3 3.6 3.1.7 0 1.4-.3 1.9-.7.2.2.5.4.8.4.4 0 .8-.2 1-.6.6 1.2 1.9 2.1 3.3 2 1.1-.1 2-.7 2.6-1.5.6 1.2 1.8 2 3.3 1.9 1.8-.1 3.2-1.7 3.1-3.5.4.1.7.1 1.1.1.9-.1 1.6-.4 2.2-1 .3.1.6.2.9.1 1.2-.1 2.1-1.2 2.1-2.4z" fill="url(#SVGID_31_)"/></g><g id="nuages_4"><linearGradient id="SVGID_32_" gradientUnits="userSpaceOnUse" x1="926.584" y1="-174.491" x2="974.413" y2="-174.491" gradientTransform="matrix(-1 0 0 1 1430.041 427.082)"><stop offset="0" stop-color="#e4e4e4"/><stop offset="1" stop-color="#f2f2f2"/></linearGradient><path d="M455.6 251.8c.1 2.1 2 3.7 4.1 3.6.2 0 .4 0 .6-.1 1.1 1.6 3 2.5 5.1 2.4.6 0 1.2-.2 1.8-.4-.2.5-.2 1-.2 1.5.1 2.1 2 3.7 4.1 3.6 1-.1 1.9-.5 2.6-1.2.4 1.7 1.9 3 3.7 3 .8 0 1.5-.2 2.1-.7.3.6.9 1.1 1.7 1.1.9 0 1.7-.7 1.8-1.6.7.2 1.4.3 2.1.2 1.7-.1 3.1-.9 4.1-2.1 1.1 1.1 2.7 1.7 4.3 1.6 3.2-.2 5.6-3 5.3-6.1v-.2c.4.1.7.1 1.1.1 2.1-.1 3.7-2 3.6-4.1-.1-2-1.7-3.5-3.7-3.6v-.6c-.2-3.2-3-5.6-6.1-5.3-1.2.1-2.3.5-3.2 1.3-.3-.4-.8-.6-1.4-.6-.7 0-1.4.4-1.7 1-1-2.1-3.2-3.5-5.6-3.4-1.9.1-3.4 1.1-4.4 2.6-1-2-3.2-3.4-5.6-3.2-3.1.2-5.4 2.8-5.4 5.9-.6-.2-1.3-.2-1.9-.2-1.5.1-2.8.8-3.8 1.7-.5-.2-1-.3-1.6-.2-2 .1-3.6 1.9-3.5 4z" fill="url(#SVGID_32_)"/><linearGradient id="SVGID_33_" gradientUnits="userSpaceOnUse" x1="952.877" y1="-177.778" x2="987.868" y2="-177.778" gradientTransform="matrix(-1 0 0 1 1430.041 427.082)"><stop offset="0" stop-color="#e4e4e4"/><stop offset="1" stop-color="#f2f2f2"/></linearGradient><path d="M477.2 249.7c-.1-1.5-1.4-2.7-3-2.6-.1 0-.3 0-.4.1-.8-1.1-2.2-1.8-3.7-1.7-.5 0-.9.1-1.3.3.1-.3.2-.7.1-1.1-.1-1.5-1.4-2.7-3-2.6-.7.1-1.4.4-1.9.9-.3-1.3-1.4-2.2-2.7-2.2-.6 0-1.1.2-1.6.5-.2-.5-.7-.8-1.2-.8-.7 0-1.2.5-1.3 1.1-.5-.2-1-.2-1.5-.2-1.2.1-2.3.7-3 1.6-.8-.8-2-1.2-3.2-1.1-2.3.2-4.1 2.2-3.9 4.5v.1c-.3-.1-.5-.1-.8-.1-1.5.1-2.7 1.4-2.6 3 .1 1.4 1.3 2.6 2.7 2.6v.4c.2 2.3 2.2 4.1 4.5 3.9.9-.1 1.7-.4 2.4-.9.3.3.6.5 1 .5.5 0 1-.3 1.2-.8.7 1.5 2.3 2.6 4.1 2.5 1.4-.1 2.5-.8 3.2-1.9.7 1.5 2.3 2.5 4.1 2.4 2.3-.2 4-2.1 3.9-4.3.4.1.9.2 1.4.1 1.1-.1 2-.6 2.7-1.3.4.1.8.2 1.2.2 1.5-.2 2.7-1.5 2.6-3.1z" fill="url(#SVGID_33_)"/><linearGradient id="SVGID_34_" gradientUnits="userSpaceOnUse" x1="960.647" y1="-179.44" x2="1023.284" y2="-179.44" gradientTransform="matrix(-1 0 0 1 1430.041 427.082)"><stop offset="0" stop-color="#e4e4e4"/><stop offset="1" stop-color="#f2f2f2"/></linearGradient><path d="M406.8 246.7c.2 2.8 2.6 4.8 5.3 4.7.2 0 .5-.1.7-.1 1.5 2 3.9 3.3 6.6 3.1.8-.1 1.6-.2 2.3-.5-.2.6-.3 1.3-.3 1.9.2 2.8 2.6 4.8 5.3 4.7 1.3-.1 2.5-.7 3.4-1.6.5 2.3 2.5 3.9 4.9 3.9 1 0 2-.3 2.8-.9.4.8 1.2 1.4 2.2 1.4 1.2 0 2.2-.9 2.4-2 .9.3 1.8.4 2.8.3 2.2-.1 4.1-1.2 5.4-2.8 1.5 1.4 3.5 2.2 5.7 2 4.1-.3 7.3-3.9 7-8v-.2c.5.1.9.1 1.4.1 2.8-.2 4.9-2.6 4.7-5.3-.2-2.6-2.3-4.6-4.8-4.7v-.7c-.3-4.1-3.9-7.3-8-7-1.6.1-3.1.7-4.2 1.7-.4-.5-1.1-.8-1.8-.8-1 0-1.8.6-2.2 1.4-1.3-2.8-4.1-4.6-7.4-4.4-2.4.2-4.5 1.5-5.8 3.3-1.3-2.7-4.1-4.4-7.3-4.2-4.1.3-7.1 3.7-7 7.7-.8-.2-1.6-.3-2.5-.3-1.9.1-3.7 1-4.9 2.3-.6-.2-1.4-.4-2.1-.3-2.7.1-4.8 2.5-4.6 5.3z" fill="url(#SVGID_34_)"/><linearGradient id="SVGID_35_" gradientUnits="userSpaceOnUse" x1="942.956" y1="-163.591" x2="990.798" y2="-163.591" gradientTransform="matrix(-1 0 0 1 1430.041 427.082)"><stop offset="0" stop-color="#e4e4e4"/><stop offset="1" stop-color="#f2f2f2"/></linearGradient><path d="M439.3 262.7c.1 2.1 2 3.7 4.1 3.6.2 0 .4 0 .6-.1 1.1 1.6 3 2.5 5.1 2.4.6 0 1.2-.2 1.8-.4-.2.5-.2 1-.2 1.5.1 2.1 2 3.7 4.1 3.6 1-.1 1.9-.5 2.6-1.2.4 1.7 1.9 3 3.7 3 .8 0 1.5-.2 2.1-.7.3.6.9 1.1 1.7 1.1.9 0 1.7-.7 1.8-1.6.7.2 1.4.3 2.1.2 1.7-.1 3.1-.9 4.1-2.1 1.1 1.1 2.7 1.7 4.3 1.6 3.2-.2 5.6-3 5.3-6.1v-.2c.4.1.7.1 1.1.1 2.1-.1 3.7-2 3.6-4.1-.1-2-1.7-3.5-3.7-3.6v-.6c-.2-3.2-3-5.6-6.1-5.3-1.2.1-2.3.5-3.2 1.3-.3-.4-.8-.6-1.4-.6-.7 0-1.4.4-1.7 1-1-2.1-3.2-3.5-5.6-3.4-1.9.1-3.4 1.1-4.4 2.6-1-2-3.2-3.4-5.6-3.2-3.1.2-5.4 2.8-5.4 5.9-.6-.2-1.3-.2-1.9-.2-1.5.1-2.8.8-3.8 1.7-.5-.2-1-.3-1.6-.2-2.1.1-3.7 1.9-3.5 4z" fill="url(#SVGID_35_)"/></g><linearGradient id="SVGID_36_" gradientUnits="userSpaceOnUse" x1="35.835" y1="487.327" x2="35.835" y2="496.045" gradientTransform="matrix(1 0 0 -1 0 652)"><stop offset="0" stop-color="#bc8211"/><stop offset="1" stop-color="#feca37"/></linearGradient><path fill="url(#SVGID_36_)" d="M32.6 164.3l.8-3.1-2.1-2.3 3.2-.2 1.6-2.7 1.1 2.9 3.1.6-2.4 2.1.3 3.1-2.7-1.7z"/><linearGradient id="SVGID_37_" gradientUnits="userSpaceOnUse" x1="470.066" y1="634.256" x2="470.066" y2="639.568" gradientTransform="scale(1 -1) rotate(58.406 954.828 -31.275)"><stop offset="0" stop-color="#bc8211"/><stop offset="1" stop-color="#feca37"/></linearGradient><path fill="url(#SVGID_37_)" d="M132.8 97l-1.4-1.3-1.8.3.8-1.7-.8-1.7 1.8.3 1.4-1.3.2 1.8 1.8.9-1.7.8z"/><linearGradient id="SVGID_38_" gradientUnits="userSpaceOnUse" x1="532.505" y1="515.214" x2="532.505" y2="523.932" gradientTransform="matrix(1 0 0 -1 0 652)"><stop offset="0" stop-color="#bc8211"/><stop offset="1" stop-color="#feca37"/></linearGradient><path fill="url(#SVGID_38_)" d="M529.3 136.4l.8-3.1-2.1-2.3 3.1-.2 1.6-2.7 1.2 2.9 3.1.7-2.4 2 .3 3.1-2.7-1.7z"/><linearGradient id="SVGID_39_" gradientUnits="userSpaceOnUse" x1="476.164" y1="728.308" x2="476.164" y2="733.617" gradientTransform="scale(1 -1) rotate(58.406 954.828 -31.275)"><stop offset="0" stop-color="#bc8211"/><stop offset="1" stop-color="#feca37"/></linearGradient><path fill="url(#SVGID_39_)" d="M55.8 42.6l-1.3-1.4-1.9.3.9-1.7-.9-1.6 1.9.3 1.3-1.4.3 1.9 1.7.8-1.7.9z"/><linearGradient id="SVGID_40_" gradientUnits="userSpaceOnUse" x1="524.138" y1="174.292" x2="524.138" y2="179.605" gradientTransform="scale(1 -1) rotate(58.406 954.828 -31.275)"><stop offset="0" stop-color="#bc8211"/><stop offset="1" stop-color="#feca37"/></linearGradient><path fill="url(#SVGID_40_)" d="M552.9 291.9l-1.3-1.3-1.9.3.9-1.7-.9-1.7 1.9.3 1.3-1.3.3 1.8 1.7.9-1.7.8z"/><linearGradient id="SVGID_41_" gradientUnits="userSpaceOnUse" x1="227.515" y1="609.84" x2="227.515" y2="618.558" gradientTransform="matrix(1 0 0 -1 0 652)"><stop offset="0" stop-color="#bc8211"/><stop offset="1" stop-color="#feca37"/></linearGradient><path fill="url(#SVGID_41_)" d="M224.4 41.7l.7-3-2.1-2.3 3.2-.3 1.6-2.7 1.1 2.9 3.1.7-2.4 2 .3 3.2-2.7-1.7z"/><linearGradient id="SVGID_42_" gradientUnits="userSpaceOnUse" x1="652.638" y1="382.664" x2="652.638" y2="387.976" gradientTransform="scale(1 -1) rotate(58.406 954.828 -31.275)"><stop offset="0" stop-color="#bc8211"/><stop offset="1" stop-color="#feca37"/></linearGradient><path fill="url(#SVGID_42_)" d="M442.8 73.3l-1.4-1.4-1.9.4.9-1.7-.9-1.7 1.9.3 1.3-1.4.3 1.9 1.7.9-1.7.8z"/><linearGradient id="SVGID_43_" gradientUnits="userSpaceOnUse" x1="746.608" y1="312.307" x2="746.608" y2="317.616" gradientTransform="scale(1 -1) rotate(58.406 954.828 -31.275)"><stop offset="0" stop-color="#bc8211"/><stop offset="1" stop-color="#feca37"/></linearGradient><path fill="url(#SVGID_43_)" d="M551.9 30.1l-1.4-1.3-1.8.3.8-1.7-.9-1.7 1.9.3 1.4-1.3.2 1.9 1.8.8-1.8.9z"/><linearGradient id="SVGID_44_" gradientUnits="userSpaceOnUse" x1="326.153" y1="555.526" x2="326.153" y2="560.838" gradientTransform="scale(1 -1) rotate(58.406 954.828 -31.275)"><stop offset="0" stop-color="#bc8211"/><stop offset="1" stop-color="#feca37"/></linearGradient><path fill="url(#SVGID_44_)" d="M124.4 260.9l-1.3-1.4-1.9.3.9-1.7-.9-1.7 1.9.4 1.3-1.4.3 1.9 1.7.8-1.7.9z"/><linearGradient id="SVGID_45_" gradientUnits="userSpaceOnUse" x1="276.831" y1="636.822" x2="276.831" y2="642.135" gradientTransform="scale(1 -1) rotate(58.406 954.828 -31.275)"><stop offset="0" stop-color="#bc8211"/><stop offset="1" stop-color="#feca37"/></linearGradient><path fill="url(#SVGID_45_)" d="M29.3 260.3l-1.3-1.4-1.8.4.8-1.7-.8-1.7 1.7.3 1.4-1.4.3 1.9 1.7.9-1.7.8z"/><linearGradient id="SVGID_46_" gradientUnits="userSpaceOnUse" x1="85.252" y1="548.562" x2="85.252" y2="557.279" gradientTransform="matrix(1 0 0 -1 0 652)"><stop offset="0" stop-color="#bc8211"/><stop offset="1" stop-color="#feca37"/></linearGradient><path fill="url(#SVGID_46_)" d="M82.1 103l.8-3-2.1-2.4 3.2-.2 1.5-2.7 1.2 2.9 3 .7-2.4 2 .3 3.1-2.6-1.6z"/><linearGradient id="SVGID_47_" gradientUnits="userSpaceOnUse" x1="170.061" y1="273.9" x2="170.061" y2="160.2" gradientTransform="matrix(1 0 0 -1 0 652)"><stop offset="0" stop-color="#b18049"/><stop offset="1" stop-color="#493c3a"/></linearGradient><path fill="url(#SVGID_47_)" d="M27.2 396.6l13.9-17.9 25.4-.6 9.9 7.4 7.1-.9 11.2 7.9h12.7l11.9 5.4.3-3.9 14.9 8.4 7.1-3.1 9.2 3.1 6.6 7.9 18.9 5.4 2.5-5.1 11.4 7.6 3.1-5.3 9.3 5.3 5.5-5.3-.2-10.8 12.3-6.2 6.9 3.7.3 7.6 51.3 16.7 4.8-13.6 13.1 10.8.5 14.1 15.8 31-14 11.7-7.5-8.3-10.2 5.3-7.2 11.7-7.5-9.8-11.2 15-20-9.7-2.6 7.5-18.1-19.6-19.2 4.2-11.3-2.3-15.4-10.2-14 29.8-14.6-13.2-14.3-.4-6-26-4.2-2.6-39.1-2.3-7.2-10.9-12.8 12.8-18.8-13.5 3-3.3 5.5 3.8-.6-5.8-6.9-6.8-3.2-6.1-.3-11.5z"/><linearGradient id="SVGID_48_" gradientUnits="userSpaceOnUse" x1="360.193" y1="220.1" x2="456.033" y2="220.1" gradientTransform="matrix(1 0 0 -1 0 652)"><stop offset="0" stop-color="#b18049"/><stop offset="1" stop-color="#493c3a"/></linearGradient><path fill="url(#SVGID_48_)" d="M360.2 411.5l16.2 19.9-.2 2.5 5.6 3.3 1.4 3 2.1 2.3 2.8 3.1 5.4 3.3 3.1 2.7 2.6 3.5 1.1 2.5-.3 3.6 9.3 4.7-2.2 3 38.2 4.1 5.6-23.1-4.5-18.5 9.6-28.7-7.1.5-4.6-2.7-5.2-5.3-2.2-4.4-5.5 6.9-1.1 8.8-2.5 3-4.4-5.5-9.9-6.3-7.5 6.9-9.9 3.8-4.1-6-5.8-3.3-7.3.5-6.3-4.4-7.5 7.2z"/></g></g><g id="Zeus"><path fill="none" d="M-.5-.1H595v653H-.5z"/><g id="Zeus_2_"><linearGradient id="visage_1_" gradientUnits="userSpaceOnUse" x1="276.415" y1="393.769" x2="358.748" y2="379.252" gradientTransform="matrix(1 0 0 -1 0 652)"><stop offset="0" stop-color="#f6b09b"/><stop offset="1" stop-color="#fbd9cd"/></linearGradient><path id="visage_2_" d="M279.7 239.6s3.5 19.5 5.6 21.6 14.1 28.3 16 31.1c1.9 2.8 15.3 16.7 17.6 17.4 2.3.7 13.2.9 15.3 0 2.1-.9 12.8-5.3 13.9-7.4 1.2-2.1 9.7-30.6 9.7-33.2s-.9-5.6-.9-5.6 3.9.5 4.2-4.4c.2-4.9 1.2-12.1 0-15.1s-3.5-8.6-6.7-8.8-.2 8.8-.7 9.7-1.6 7.4-3.5 7.2-2.6-3.2-2.6-3.2 1.4-6.5.9-7.4-6.5-14.4-10.4-15.8c-3.9-1.4-19.7-5.6-29.2 0s-12.8 7-14.6 7-11.4-.5-14.6 6.9z" fill="url(#visage_1_)"/><path id="ombre_visage_3_" d="M308.7 309.3c-.2.1-.3.1-.5.2-.1-.3-.2-.6-.2-.8-.2-3.5 0-8.9 0-8.9-3.1-3.3-5.9-6.4-6.7-7.5-1.8-2.8-13.9-29-16-31.1s-5.6-21.6-5.6-21.6c1.3-2.9 3.5-4.6 5.8-5.6-.1 1.3-.3 2.6-.3 3.9 0 4.7.8 9.3 2.1 13.8 2.1 7.7 5.6 14.9 9.1 22 3.1 6.3 6.3 12.5 9.5 18.7 1.4 2.8 2.9 5.8 3.6 8.9.6 2.7.5 5.5-.8 8z" opacity=".7" fill="#f6b09b"/><linearGradient id="cheveux_1_" gradientUnits="userSpaceOnUse" x1="275.427" y1="238.5" x2="368.876" y2="222.023"><stop offset="0" stop-color="#e4e1e0"/><stop offset="1" stop-color="#f2f2f2"/></linearGradient><path id="cheveux" d="M368.5 248c-2.7 0-6.5-5.2-5.4-2.1 1 3.1-1.6 25.2-1.6 25.2l-4.5-7.2-.2-.4H357.1c.8 0 3.7-.2 4-4.4.2-4.9 1.2-12.1 0-15.1s-3.5-8.6-6.7-8.8c-3.2-.2-.2 8.8-.7 9.7-.5.9-1.6 7.4-3.5 7.2-1.9-.2-2.6-3.2-2.6-3.2s1.4-6.5.9-7.4-6.5-14.4-10.4-15.8c-3.9-1.4-19.7-5.6-29.2 0-8.6 5.1-12.1 6.7-14 7h-3.2c-.2 0-.5 0-.8.1-3.6.3-8.9 1.7-11.1 6.9 0 0 .5 2.6 1.1 5.9-.2-.1-.3-.2-.4-.4-4.9-4.9-7-17.6-7.4-21.1-.5-3.5 11.6-25.5 16.5-28 4.9-2.6 4.9 0 4.9 0s5.8-10.7 23.4-12.8c31.6-3.7 40.3 20.3 41.6 22.7s2.2 6.6 2.3 8.2c.1 1.6 2.7-.9 2.7 0 0 1.8 3.7 12.4 3.8 12.7l-3.2-1.9c.9 3.6-1.4 4.8-1.4 4.8 2 1.9-.3 2.9-.3 2.9 1.5 3.5 8.6 5.6 8.6 5.6-5.9.7-7.8-.9-7.8-.9l1 4.4c.8 4.4 5.9 6.2 3.3 6.2z" fill="url(#cheveux_1_)"/><path id="ombre_cheveux_1_" d="M294.2 195.6v.1c-.5.7-1 2.1-1.8 2.6-2.4 1.4-3.2 2-4.7 4.4-2.1 3.5-8.8 13.4-9.6 17.4-1.6 8.1-.4 7.5.5 15.8.1 1.1 1.5 5.8 1.7 6.9 0 .1 0 .3.1.5.1.6.2 1.4.1 2-4.9-4.9-7-17.6-7.4-21.1-.5-3.5 11.6-25.5 16.5-28 3.4-2 4.3-1.2 4.6-.6z" opacity=".05" fill="#1d1e1d"/><linearGradient id="SVGID_49_" gradientUnits="userSpaceOnUse" x1="306.462" y1="300.156" x2="365.089" y2="289.819"><stop offset="0" stop-color="#f6b09b"/><stop offset="1" stop-color="#fbd9cd"/></linearGradient><path d="M364.5 286.9c.2 1-7.4 21.1-8.6 21.6-1.2.5-24.4 16-33.6 16.2 0 0-14.1-12.5-14.4-16-.2-3.1-.1-8.1-.1-9.1 4.5 4.6 9.7 9.7 11.1 10.1 2.3.7 13.2.9 15.3 0 2.1-.9 12.8-5.3 13.9-7.4 1.2-2.1 9.7-30.6 9.7-33.2 0-2.1-.6-4.5-.8-5.3l4.5 7.1c.1 0 2.8 15 3 16z" fill="url(#SVGID_49_)"/><path class="st60" d="M359.2 267.4c-.1.7-.3 1.3-.4 1.9-.6 3.6-1 7.1-1.9 10.7-1.7 7.1-4.2 14.1-7.5 20.6-.2.4-.4.8-.7 1.1-.1.1-.3.2-.4.2 1.5-3.6 9.6-30.4 9.6-32.9 0-1.7-.4-3.7-.7-4.8l2 3.2z"/><g id="pilosité_faciale_3_"><linearGradient id="barbe_1_" gradientUnits="userSpaceOnUse" x1="313.529" y1="351.986" x2="345.855" y2="346.286" gradientTransform="matrix(1 0 0 -1 0 652)"><stop offset="0" stop-color="#e4e1e0"/><stop offset="1" stop-color="#f2f2f2"/></linearGradient><path id="barbe_4_" d="M316 296.6s0 7.9-3 9.5 5.8-.9 6-3-1.6 7.7 0 9.3c0 0 1.4-7.4 3-7.9 0 0-3.2 7.2 3 11.1 0 0 6.5-5.3 4.9-8.3 0 0 2.8 3.9 6.7 4.6 0 0-5.3-6.5-3-10.4 0 0-.2 4.9 6.7 4.6 0 0-6.3-2.8-2.8-7.4 0 0 1.4 6.3 8.6 5.3 0 0-6.6-8.5-7.9-13.2.1 0-12.5 6.8-22.2 5.8z" fill="url(#barbe_1_)"/><linearGradient id="moustache_1_" gradientUnits="userSpaceOnUse" x1="304.697" y1="368.425" x2="342.449" y2="361.769" gradientTransform="matrix(1 0 0 -1 0 652)"><stop offset="0" stop-color="#e4e1e0"/><stop offset="1" stop-color="#f2f2f2"/></linearGradient><path id="moustache_3_" d="M303.3 291.5l11.8-5.6 15.7-4.6 13.1.7c-.1 0-33.9 13.7-40.6 9.5z" fill="url(#moustache_1_)"/></g><g id="col_chemise_3_"><linearGradient id="SVGID_50_" gradientUnits="userSpaceOnUse" x1="324.539" y1="339.996" x2="367.923" y2="332.346" gradientTransform="matrix(1 0 0 -1 0 652)"><stop offset="0" stop-color="#1d1e1d"/><stop offset="1" stop-color="#3d3d3d"/></linearGradient><path d="M370.1 304.3c-1.2 4.3.4 7.9-3 13.7-7.9 13.6-23.9 30.2-28.1 30.8-6 .9-16.7-24.1-16.7-24.1 9.3-.2 32.5-15.8 33.6-16.2 1.2-.5 8.8-20.6 8.6-21.6 0 0 2.1-3 2.8-1.3.7 1.5 6.7 4.3 2.8 18.7z" fill="url(#SVGID_50_)"/><linearGradient id="SVGID_51_" gradientUnits="userSpaceOnUse" x1="301.162" y1="325.168" x2="321.333" y2="321.611" gradientTransform="matrix(1 0 0 -1 0 652)"><stop offset="0" stop-color="#1d1e1d"/><stop offset="1" stop-color="#3d3d3d"/></linearGradient><path d="M322.3 324.7c-7.1 1.8-10.4 14.6-13 15.7-2.6 1-5.6 6.1-5.6 6.1.2-3.5.5-31.1 0-33.8-.5-2.8 4.2-3.9 4.2-3.9.3 3.4 14.4 15.9 14.4 15.9z" fill="url(#SVGID_51_)"/></g><linearGradient id="chemise_1_" gradientUnits="userSpaceOnUse" x1="204.336" y1="261.442" x2="436.585" y2="220.49" gradientTransform="matrix(1 0 0 -1 0 652)"><stop offset="0" stop-color="#1d1e1d"/><stop offset="1" stop-color="#3d3d3d"/></linearGradient><path id="chemise_2_" d="M433 420.5s8.7 33.6-46.6 104c-2.9 3.7-24 4.5-49.3 4-6.5-.1-13.2-.4-20-.6-21.3-.9-43-2.5-57.5-4-4.7-.5-8.7-1-11.6-1.4-3.8-.5-5.9-1-6-1.4-.3-3.1-2.1-17.7-2.1-17.7s-10.1 9-13.2 8c-3.1-1-7.3 2.4-8 1-.7-1.4-3.5-5.6-5.9-6.6s-16.7 2.4-17.7-.3c-1-2.8.7-7.7 0-10.1s-8.7-3.3-5.6-20.7c3.1-17.4 4.9-15.5 5.6-16.3.7-.9 4.9-30.8 10.4-41.7s14.7-26.9 19.1-30c.7-2.1 5.3-33.8 24.6-41.7 10.3-4.2 19.9-8.2 26.9-11.2 3.5-1.5 6.3-2.8 8.2-3.7 1.4-.6 2.2-1.1 2.5-1.3 1.2-1 14.5-14.8 17.4-17.8-.4.5-.6 1.1-.5 1.8.5 2.8.2 30.4 0 33.8 0 0 3-5.1 5.6-6.1s5.9-13.9 13-15.7c0 0 10.7 25 16.7 24.1 4.2-.6 20.2-17.2 28.1-30.8 3.4-5.8 1.8-9.4 3-13.7.1-.5.3-1 .4-1.5.3-1.2.5-2.3.6-3.3.2-1.3.3-2.3.3-3.4v-.5s17.5 22.2 21.6 25.7c2.4 2 7.6 5.7 12.3 8.7 3.4 2.3 6.5 4.2 7.9 4.9.7.4 1.4.7 2.1 1 2.4 1.2 4.5 2.4 6.3 4.5 2.3 2.7 19.8 15.2 21.6 30.5 1.7 15.1-.1 39.8-10.2 49.5z" fill="url(#chemise_1_)"/><path id="ombre_col_chemise_1_1_" class="st66" d="M322.8 325.8c-1 .9-3.1 1.5-4.2 2.8-1.4 1.6-2.6 3.3-3.8 5.1-2.3 3.7-3.7 6.2-7 9.2-.4.4-1.6 1.3-2 1.8-.3.3-1.3.7-1.2.5 0 0 2.2-3.8 4.7-4.8 1.5-.6 3.2-5.2 5.8-9.3.1-.2.3-.4.4-.6.4-.6.8-1.2 1.3-1.7.4-.5.9-1.1 1.4-1.5l.5-.5c.3-.3.7-.6 1-.8.4-.2.7-.5 1.1-.7.5-.2.9-.4 1.4-.5 0 .1.1.3.2.5v.1c.4.1.5.4.4.4z"/><path id="ombre_col_chemise_2_1_" class="st66" d="M303 340c-1.4-6.1-1.4-5.8-.9-12.1.3-3.6.5-7.2.6-11 0-.7.5-4.9.5-4.9.2 0 .9-1.1.8-.5-.1.3-.2.7-.1 1.2.5 2.8.4 26.1.2 29.5-.1 0-.8-1.7-1.1-2.2z"/><path id="ombre_col_chemise_3_1_" class="st66" d="M338.2 348.8c-1.7.2-3.3-.5-4.5-1.6-3.1-2.7-4.1-7-6.2-10.5-1.6-2.6-5.2-5.6-5-8.9 0-.8.2-1.3.5-1.5 2.4 5.1 10.1 21.5 15.2 22.5z"/><path id="ombre_col_chemise_4_1_" class="st66" d="M373.2 301.4c-.3 1.6-.4 3.2-.8 4.7-1.6 5.5-1.6 13.6-5.5 17.8-2.4 2.5-5.1 4.7-7.5 7.2-1.9 2-3.6 4.2-5.6 6-1 .9-2.2 1.7-3.4 2.5.4-.4.8-.9 1.3-1.4.7-.7 1.4-1.5 2.1-2.3 1.4-1.6 2.8-3.2 4.2-5 .3-.4.7-.8 1-1.3.7-.9 1.3-1.7 2-2.6.3-.4.6-.9 1-1.3 1.9-2.6 3.7-5.3 5.2-7.8 3.4-5.8 1.8-9.4 3-13.7 1-3.6 1.3-6.4 1.3-8.7.1.1.8 1.1 2 2.5 0 .9 0 1.9-.3 3.4z"/><path id="ombre_chemise_1_" d="M301.7 317.5c-2.4 4.2-6.6 7.4-10.5 10.1-3.9 2.8-7.9 5.5-12.3 7.6-4.8 2.3-9.9 3.8-14.9 5.7-13 4.7-26.4 12.7-30.7 25.9-1.3 4-1.7 8.2-2.8 12.3-3.6 14.1-14.7 25.1-19.8 38.7-1.9 5.1-2.9 10.4-3.9 15.7-3.8 20-7.6 39.9-11.5 59.9-.1.5-.2 1.1-.4 1.7-1.3-2.2-8.4-3.8-5.4-20.3 3.1-17.4 4.9-15.5 5.6-16.3.7-.9 4.9-30.8 10.4-41.7 5.6-11 14.7-26.9 19.1-30 .7-2.1 5.3-33.9 24.6-41.7 10.3-4.2 19.9-8.2 26.9-11.2 3.5-1.5 6.3-2.8 8.2-3.7 1.4-.6 2.2-1.1 2.5-1.3 1.1-.9 11.5-11.7 15.9-16.3.9.4.7 1.9-1 4.9z" fill="#1d1e1d"/><linearGradient id="bras_1_1_" gradientUnits="userSpaceOnUse" x1="226.996" y1="204.614" x2="325.72" y2="187.206" gradientTransform="matrix(1 0 0 -1 0 652)"><stop offset="0" stop-color="#f6b09b"/><stop offset="1" stop-color="#fbd9cd"/></linearGradient><path id="bras_1_3_" d="M331.2 432.9c-1.3 1.4-4.4 4.4-5.7 4.4-1.6 0-2.1-2.3-4.9 0s-8.8 5.1-12.3 14.6-4.9 37.8-1.6 42.4c-6.7-5.1-38-34.3-39.6-35.9s-3.7 1.4-7.7-.5c-3.9-1.9-5.3-5.6-6-7.2s-21.3-11.8-23-12.3c-1.6-.5-3-3.2 1.9-8.8 4.9-5.6 7.7-8.1 9.7-8.1 2.1 0 13 1.9 14.6 1.9.3 0 1.9.3 4.5.7 3 .5 7.2 1.2 11.9 2 15.6 2.7 37.1 6.5 39.4 6.8 3.5.5 15.9 1.4 18.8 0z" fill="url(#bras_1_1_)"/><path id="ombre_bras_haut_1_" class="st69" d="M235.8 431.6c-1.6 1.4-3 3-4.4 4.6-.5.6-1 1.3-1.7 1.7-1-1.1-1.1-3.8 2.7-8.3 4.9-5.6 7.7-8.1 9.7-8.1h.3c1.8 3.6-4.4 8.1-6.6 10.1z"/><path id="ombre_bras_haut_2_1_" d="M331.2 432.9c-1.3 1.4-4.4 4.4-5.6 4.4-1.6 0-2.1-2.3-4.9 0s-8.8 5.1-12.3 14.6-4.9 37.8-1.6 42.4c-.8-.6-1.8-1.4-3.1-2.6-.3-1.2-.4-2.5-.6-3.7-1-10-.6-20.2 1.1-30.1.9-5.6 2.5-11.3 6.3-15.4 3.4-3.5 8-5.3 12.4-7.2 1.1-.5 2.3-.8 3.3-1.5.1-.1.3-.2.4-.3 2.1 0 3.8-.2 4.6-.6z" opacity=".15" fill="#f6b09b"/><linearGradient id="bras_2_1_" gradientUnits="userSpaceOnUse" x1="230.828" y1="178.979" x2="304.047" y2="166.069" gradientTransform="matrix(1 0 0 -1 0 652)"><stop offset="0" stop-color="#f6b09b"/><stop offset="1" stop-color="#fbd9cd"/></linearGradient><path id="bras_2_3_" d="M303.1 491.3c-19.5 9.9-65.8 12.3-70.7 11.4s-2.3-22.5 0-38.5 14.2-17.8 14.2-17.8c3.7 2 6.6 3.7 6.9 4.3.7 1.6 2.1 5.3 6 7.2 3.9 1.9 6-1.2 7.7.5 1.4 1.5 25.3 23.8 35.9 32.9z" fill="url(#bras_2_1_)"/><path id="ombre_bras_bas_1_" class="st69" d="M246.8 446.5c-.4.9-1.3 2-2.1 2.9-2.2 2.5-4.8 4.6-6.5 7.6s-2.3 6.6-2.6 10.1c-.8 9-.4 18.1-.6 27.1 0 2-.1 4-.9 5.8-.4 1-1.2 2-2.1 2.6-4.5-1.7-2-22.8.3-38.4 2.3-16 14.2-17.8 14.2-17.8.2.1.2.1.3.1z"/><path id="ombre_bras_bas_2_1_" class="st60" d="M303.1 491.3c-.1.1-.1.2-.3.2-.2 0-.4-.1-.6-.2-5.3-3.3-11.9-7.6-16.1-12.2-5.3-5.9-13-13-19.8-17.3-2.8-1.8-2.3-.2-5.3-1.6-2.9-1.4-5.7-3.4-7.3-6.3-.5-1-.9-2.1-1.6-3-1.5-1.8-3.9-1.7-5.6-3.1-.7-.6-.6-1.1-.1-1.3 3.8 2 6.7 3.8 7 4.4.7 1.6 2.1 5.3 6 7.2 3.9 1.9 6-1.1 7.7.5 1.5 1.3 25.5 23.7 36 32.7z"/><linearGradient id="bracelet_1_" gradientUnits="userSpaceOnUse" x1="254.476" y1="211.981" x2="273.798" y2="208.574" gradientTransform="matrix(1 0 0 -1 0 652)"><stop offset="0" stop-color="#683c11"/><stop offset="1" stop-color="#432918"/></linearGradient><path id="bracelet_3_" d="M267.2 458.4c-1.6-1.6-3.7 1.4-7.7-.5-3.9-1.9-5.3-5.6-6-7.2.1-24.7 12.4-25.9 12.4-25.9 3 .5 6.1 1.1 10.9 1.9-9.6 10.7-9.6 31.7-9.6 31.7z" fill="url(#bracelet_1_)"/><path id="ombre_bracelet_1_" d="M277.7 427c-1.4 2.9-3.5 5.5-5.3 10.9-1.5 4.5-3.9 13.8-4.5 18-.1.9-.1 2-.8 2.6-.1-.8.3-21.2 9.6-31.6-.1 0-3.9-.7-4-.7.5-.1 4.5.6 5 .8z" opacity=".5" fill="#f6b09b"/><path class="st79" d="M281.7 339.3c-1.7 4.9-4.7 10.4-6 15.3-2.7 10.2-4.9 20.6-7 30.9-1.2 5.9-2.4 11.8-3.7 17.7-1.6 8-1.1 13.1-2.6 21-.4-.1-.7-.1-1.1-.2 0 0 .5-50 21.7-91.4 1.1 1.6-.6 4.8-1.3 6.7z"/><path id="ombre_bretelle_2_gauche_1_" class="st79" d="M260.6 523.2c-.3.7-.9 1.4-1.6 1.2-.3-.1-.6-.4-.8-.7.5 0 1.1.1 1.6.2l-.7-9.1s-1.8-10.1-1.8-13.1c.4 0 .8-.1 1.2-.1.3 1.5.4 4 .5 4.7l1.8 12c.2 1.6.4 3.4-.2 4.9z"/><path id="ombre_bretelle_1_droite_1_" class="st79" d="M415.2 336.1c-1.8 4.2-5.1 9.5-8.2 12.8-15 15.9-23 32.1-34.5 50.7-3.5 5.7-7.4 11.2-10.5 17.1-3.4 6.5-9 17.5-10.8 19.7 0 0-.5 0-1.4-.6-.1-.5-2.3-1.4-2.3-1.4 1.1.4 2.1.9 2.3 1.4.5 0 35.8-73.9 65.4-99.7-.1-.1 0 0 0 0z"/><path id="ombre_bretelle_2_droite_1_" class="st79" d="M340.1 514.3c-.3 4.3-.6 8.6-1 12.9 0 .4-.7 1.4-1 1.5-.4.1-.9.2-1.2.1-.1 0-.2-.1-.3-.2h.6s2.1-15.8 0-16.7h-.1c.5.2 1.1.4 1.4.6.6.3 1.6 1.1 1.6 1.8z"/><g id="cravate_1_"><linearGradient id="haut_cravate_1_" gradientUnits="userSpaceOnUse" x1="321.05" y1="322.048" x2="321.05" y2="298.239" gradientTransform="matrix(1 0 0 -1 0 652)"><stop offset="0" stop-color="#871812"/><stop offset="1" stop-color="#e5282f"/></linearGradient><path id="haut_cravate_2_" d="M330.3 340.3c-2.9 1.5-10.3 13.8-11 13.4-.7-.3-3.6-.7-6.3 0 .5-2.4-1-15-1.2-16.8 1.1-2 2.4-4.7 4-7h8.8c1.6 3.1 3.6 7 5.7 10.4z" fill="url(#haut_cravate_1_)"/><linearGradient id="SVGID_52_" gradientUnits="userSpaceOnUse" x1="329.228" y1="244.756" x2="293.895" y2="265.156" gradientTransform="matrix(1 0 0 -1 0 652)"><stop offset="0" stop-color="#871812"/><stop offset="1" stop-color="#e5282f"/></linearGradient><path d="M319.2 372.7c-.2 2.3-3.1 21.6-2.9 23.1.3 1.6-1.3 33.4-2 37.3-.7-.1-1.3-.1-1.7-.2-2-.2-17.2-2.9-31.2-5.4 0-.2 1-5.3 8.8-27.2 8-22.4 22.9-46.6 22.9-46.6 2.6-.7 5.6-.3 6.3 0 1 2-.1 16.8-.2 19z" fill="url(#SVGID_52_)"/></g><path id="ombre_cravate_1_1_" class="st66" d="M329.6 340.9c0 4-5.8 11.5-8.3 13.2-.3.2-1.4.5-1.7.6-.1-.4-.1-.7-.2-.9.5.3 6.8-10 10.2-12.9z"/><path id="ombre_cravate_2_1_" class="st66" d="M319.8 385.3c-2.4 16-2 32-4.6 47.9-.3 0-.6 0-.9-.1.7-3.9 2.3-35.7 2-37.3s2.7-20.9 2.8-23.1c.2-2.1 1.1-14.6.4-18.2.1.1.2.2.4.3 1.2 1.4 1.1 6.1 1.2 7.8.5 7.5-.2 15.3-1.3 22.7z"/></g><defs><path id="SVGID_53_" d="M0-.1h595v652.9H0z"/></defs><clipPath id="SVGID_54_"><use xlink:href="#SVGID_53_" overflow="visible"/></clipPath><g id="nuages_2_" clip-path="url(#SVGID_54_)"><linearGradient id="SVGID_55_" gradientUnits="userSpaceOnUse" x1="-28.759" y1="99.666" x2="256.859" y2="99.666" gradientTransform="matrix(1 0 0 -1 0 652)"><stop offset="0" stop-color="#e4e4e4"/><stop offset="1" stop-color="#f2f2f2"/></linearGradient><path d="M256.8 556.3c-.9-12.6-11.8-22.1-24.3-21.2-1.1.1-2.2.2-3.3.5-6.7-9.3-17.9-15-30.2-14.2-3.8.3-7.3 1.1-10.7 2.5.9-2.8 1.4-5.8 1.1-8.8-.9-12.6-11.8-22.1-24.3-21.2-6.1.4-11.5 3.2-15.3 7.4-2.2-10.3-11.4-17.9-22.3-17.9-4.7 0-9.2 1.4-12.8 3.9-1.8-3.7-5.6-6.3-10-6.3-5.5 0-10.1 4-11 9.3-3.9-1.2-8.2-1.8-12.6-1.5-10 .7-18.6 5.5-24.4 12.7-6.7-6.4-16-10-25.9-9.3-18.8 1-33.1 17.4-31.8 36.2 0 .3.1.6.1.9-2.1-.5-4.3-.7-6.6-.5-12.6.9-22.1 11.7-21.2 24.3.8 11.7 10.4 20.8 21.9 21.2 0 1.1 0 2.2.1 3.4 1.3 18.9 17.6 33.1 36.5 31.8 7.3-.5 14-3.3 19.3-7.6 2 2.3 5 3.8 8.3 3.8 4.4 0 8.2-2.5 10-6.2 5.7 12.6 18.9 21 33.5 20 11.1-.8 20.5-6.7 26.2-15.2 5.9 12.2 18.8 20.2 33.2 19.3 18.4-1.3 32.5-16.9 31.9-35.2 3.6 1 7.5 1.4 11.5 1.2 8.8-.6 16.7-4.5 22.4-10.4 3 1.1 6.2 1.6 9.5 1.4 12.6-.9 22.1-11.8 21.2-24.3z" fill="url(#SVGID_55_)"/><linearGradient id="SVGID_56_" gradientUnits="userSpaceOnUse" x1="128.464" y1="80.678" x2="337.348" y2="80.678" gradientTransform="matrix(1 0 0 -1 0 652)"><stop offset="0" stop-color="#e4e4e4"/><stop offset="1" stop-color="#f2f2f2"/></linearGradient><path d="M128.5 568.4c.6 9.2 8.6 16.1 17.8 15.5l2.4-.3c4.9 6.8 13.1 11 22.1 10.4 2.8-.2 5.4-.8 7.8-1.8-.7 2-1 4.2-.8 6.5.6 9.2 8.6 16.1 17.8 15.5 4.5-.3 8.4-2.3 11.2-5.4 1.6 7.5 8.3 13.1 16.3 13.1 3.5 0 6.7-1.1 9.4-2.9 1.3 2.7 4.1 4.6 7.3 4.6 4 0 7.4-2.9 8-6.8 2.9.9 6 1.3 9.2 1.1 7.3-.5 13.6-4 17.9-9.3 4.9 4.6 11.7 7.3 18.9 6.8 13.8-.9 24.2-12.9 23.3-26.7 0-.2 0-.4-.1-.7 1.5.3 3.1.5 4.8.4 9.2-.6 16.2-8.6 15.5-17.8-.6-8.6-7.6-15.2-16-15.5v-2.5c-.9-13.8-12.9-24.2-26.7-23.3-5.4.4-10.2 2.4-14.1 5.5-1.5-1.7-3.7-2.7-6.1-2.7-3.2 0-6 1.9-7.3 4.6-4.2-9.2-13.8-15.4-24.5-14.6-8.1.5-15 4.9-19.2 11.1-4.3-8.9-13.8-14.8-24.3-14.1-13.5.9-23.8 12.3-23.3 25.7-2.7-.7-5.5-1-8.4-.9-6.5.4-12.2 3.3-16.4 7.6-2.2-.8-4.5-1.2-7-1-9.1.8-16.1 8.7-15.5 17.9z" fill="url(#SVGID_56_)"/><linearGradient id="SVGID_57_" gradientUnits="userSpaceOnUse" x1="143.778" y1="128.672" x2="294.334" y2="128.672" gradientTransform="matrix(1 0 0 -1 0 652)"><stop offset="0" stop-color="#e4e4e4"/><stop offset="1" stop-color="#f2f2f2"/></linearGradient><path d="M294.3 525.5c-.5-6.6-6.2-11.6-12.8-11.2-.6 0-1.2.1-1.7.2-3.5-4.9-9.4-7.9-15.9-7.5-2 .1-3.9.6-5.6 1.3.5-1.5.7-3 .6-4.7-.5-6.6-6.2-11.6-12.8-11.2-3.2.2-6 1.7-8.1 3.9-1.2-5.4-6-9.4-11.8-9.4-2.5 0-4.8.8-6.7 2.1-.9-2-3-3.3-5.3-3.3-2.9 0-5.3 2.1-5.8 4.9-2.1-.7-4.3-.9-6.6-.8-5.2.4-9.8 2.9-12.9 6.7-3.5-3.3-8.4-5.3-13.6-4.9-9.9.7-17.5 9.3-16.8 19.2v.5c-1.1-.2-2.3-.3-3.5-.3-6.6.5-11.6 6.2-11.2 12.8.4 6.2 5.5 11 11.5 11.2v1.8c.7 9.9 9.3 17.4 19.2 16.8 3.9-.3 7.4-1.7 10.1-4 1.1 1.2 2.6 2 4.4 2 2.3 0 4.3-1.3 5.3-3.3 3 6.7 9.9 11.1 17.7 10.5 5.8-.4 10.8-3.5 13.8-8 3.1 6.4 9.9 10.7 17.5 10.1 9.7-.7 17.1-8.9 16.8-18.5 1.9.5 3.9.8 6 .6 4.7-.3 8.8-2.4 11.8-5.5 1.6.6 3.3.9 5 .7 6.9-.4 11.9-6.1 11.4-12.7z" fill="url(#SVGID_57_)"/><linearGradient id="SVGID_58_" gradientUnits="userSpaceOnUse" x1="435.878" y1="141.772" x2="586.422" y2="141.772" gradientTransform="matrix(1 0 0 -1 0 652)"><stop offset="0" stop-color="#e4e4e4"/><stop offset="1" stop-color="#f2f2f2"/></linearGradient><path d="M586.4 512.4c-.5-6.6-6.2-11.6-12.8-11.2-.6 0-1.2.1-1.7.2-3.5-4.9-9.4-7.9-15.9-7.5-2 .1-3.9.6-5.6 1.3.5-1.5.7-3 .6-4.7-.5-6.6-6.2-11.6-12.8-11.2-3.2.2-6 1.7-8.1 3.9-1.2-5.4-6-9.4-11.8-9.4-2.5 0-4.8.8-6.7 2.1-.9-2-3-3.3-5.3-3.3-2.9 0-5.3 2.1-5.8 4.9-2.1-.7-4.3-.9-6.6-.8-5.2.4-9.8 2.9-12.9 6.7-3.5-3.3-8.4-5.3-13.6-4.9-9.9.7-17.5 9.3-16.8 19.2v.5c-1.1-.2-2.3-.3-3.5-.3-6.6.5-11.6 6.2-11.2 12.8.4 6.2 5.5 11 11.5 11.2v1.8c.7 9.9 9.3 17.4 19.2 16.8 3.9-.3 7.4-1.7 10.1-4 1.1 1.2 2.6 2 4.4 2 2.3 0 4.3-1.3 5.3-3.3 3 6.7 9.9 11.1 17.7 10.5 5.8-.4 10.8-3.5 13.8-8 3.1 6.4 9.9 10.7 17.5 10.1 9.7-.7 17.1-8.9 16.8-18.5 1.9.5 3.9.8 6 .6 4.7-.3 8.8-2.4 11.8-5.5 1.6.6 3.3.9 5 .7 6.8-.4 11.8-6.1 11.4-12.7z" fill="url(#SVGID_58_)"/><linearGradient id="SVGID_59_" gradientUnits="userSpaceOnUse" x1="236.544" y1="97.31" x2="537.256" y2="97.31" gradientTransform="matrix(1 0 0 -1 0 652)"><stop offset="0" stop-color="#e4e4e4"/><stop offset="1" stop-color="#f2f2f2"/></linearGradient><path d="M537.2 558.8c-.9-13.2-12.4-23.2-25.6-22.3-1.2.1-2.4.2-3.5.5-7-9.8-18.8-15.8-31.7-14.9-4 .3-7.7 1.2-11.2 2.6 1-2.9 1.4-6.1 1.2-9.3-.9-13.2-12.4-23.2-25.6-22.3-6.4.4-12.1 3.4-16.1 7.7-2.4-10.8-12-18.9-23.5-18.9-5 0-9.6 1.5-13.5 4.1-1.9-3.9-5.9-6.6-10.6-6.6-5.8 0-10.6 4.2-11.6 9.8-4.2-1.3-8.6-1.9-13.2-1.6-10.5.7-19.6 5.8-25.7 13.4-7.1-6.7-16.8-10.5-27.3-9.8-19.9 1.3-34.9 18.5-33.5 38.4 0 .3.1.6.1 1-2.2-.5-4.5-.7-6.9-.5-13.2.9-23.3 12.4-22.4 25.6.8 12.4 10.9 21.9 23 22.4 0 1.2 0 2.4.1 3.5 1.4 19.8 18.6 34.8 38.4 33.5 7.7-.5 14.7-3.4 20.3-8 2.1 2.4 5.3 4 8.8 4 4.6 0 8.6-2.7 10.5-6.6 6 13.3 19.9 22.1 35.3 21.1 11.6-.8 21.6-7 27.6-16 6.2 12.8 19.8 21.3 34.9 20.3 19.4-1.3 34.2-17.7 33.6-37 3.8 1.1 7.9 1.5 12.1 1.2 9.3-.6 17.6-4.7 23.5-11 3.1 1.2 6.5 1.7 10.1 1.5 13.3-1.2 23.3-12.6 22.4-25.8z" fill="url(#SVGID_59_)"/><linearGradient id="SVGID_60_" gradientUnits="userSpaceOnUse" x1="453.532" y1="52.539" x2="558.697" y2="52.539" gradientTransform="matrix(1 0 0 -1 0 652)"><stop offset="0" stop-color="#e4e4e4"/><stop offset="1" stop-color="#f2f2f2"/></linearGradient><path d="M558.7 601c-.3-4.6-4.3-8.1-9-7.8-.4 0-.8.1-1.2.2-2.5-3.4-6.6-5.5-11.1-5.2-1.4.1-2.7.4-3.9.9.3-1 .5-2.1.4-3.3-.3-4.6-4.3-8.1-9-7.8-2.2.2-4.2 1.2-5.6 2.7-.8-3.8-4.2-6.6-8.2-6.6-1.7 0-3.4.5-4.7 1.4-.7-1.4-2.1-2.3-3.7-2.3-2 0-3.7 1.5-4 3.4-1.5-.5-3-.7-4.6-.5-3.7.2-6.9 2-9 4.7-2.5-2.3-5.9-3.7-9.5-3.4-7 .5-12.2 6.5-11.7 13.4v.3c-.8-.2-1.6-.2-2.4-.2-4.6.3-8.1 4.3-7.8 8.9.3 4.3 3.8 7.7 8.1 7.8v1.2c.5 6.9 6.5 12.2 13.4 11.7 2.7-.2 5.1-1.2 7.1-2.8.8.8 1.8 1.4 3.1 1.4 1.6 0 3-.9 3.7-2.3 2.1 4.6 6.9 7.7 12.3 7.4 4.1-.3 7.6-2.5 9.6-5.6 2.2 4.5 6.9 7.4 12.2 7.1 6.8-.5 12-6.2 11.8-12.9 1.3.4 2.8.5 4.2.4 3.3-.2 6.1-1.7 8.2-3.8 1.1.4 2.3.6 3.5.5 4.6-.2 8.1-4.2 7.8-8.9z" fill="url(#SVGID_60_)"/><linearGradient id="SVGID_61_" gradientUnits="userSpaceOnUse" x1="487.667" y1="88.575" x2="662.326" y2="88.575" gradientTransform="matrix(1 0 0 -1 0 652)"><stop offset="0" stop-color="#e4e4e4"/><stop offset="1" stop-color="#f2f2f2"/></linearGradient><path d="M662.3 565.9c-.5-7.7-7.2-13.5-14.9-13-.7 0-1.4.1-2 .3-4.1-5.7-10.9-9.2-18.4-8.7-2.3.2-4.5.7-6.5 1.5.6-1.7.8-3.5.7-5.4-.5-7.7-7.2-13.5-14.9-13-3.7.3-7 1.9-9.4 4.5-1.4-6.3-7-11-13.6-11-2.9 0-5.6.9-7.8 2.4-1.1-2.3-3.4-3.9-6.1-3.9-3.4 0-6.2 2.5-6.7 5.7-2.4-.8-5-1.1-7.7-.9-6.1.4-11.4 3.4-14.9 7.8-4.1-3.9-9.8-6.1-15.8-5.7-11.5.8-20.3 10.8-19.5 22.3 0 .2 0 .4.1.6-1.3-.3-2.6-.4-4-.3-7.7.5-13.5 7.2-13 14.9.5 7.2 6.3 12.7 13.4 13v2.1c.8 11.5 10.8 20.2 22.3 19.5 4.5-.3 8.5-2 11.8-4.6 1.2 1.4 3.1 2.3 5.1 2.3 2.7 0 5-1.6 6.1-3.8 3.5 7.7 11.5 12.8 20.5 12.2 6.8-.5 12.5-4.1 16-9.3 3.6 7.5 11.5 12.4 20.3 11.8 11.3-.8 19.9-10.3 19.5-21.5 2.2.6 4.6.9 7 .7 5.4-.4 10.2-2.8 13.7-6.4 1.8.7 3.8 1 5.8.9 7.6-.7 13.4-7.3 12.9-15z" fill="url(#SVGID_61_)"/></g></g></svg>